<?xml version="1.0" encoding="UTF-8" standalone="no"?>
<svg
   xmlns:dc="http://purl.org/dc/elements/1.1/"
   xmlns:cc="http://creativecommons.org/ns#"
   xmlns:rdf="http://www.w3.org/1999/02/22-rdf-syntax-ns#"
   xmlns:svg="http://www.w3.org/2000/svg"
   xmlns="http://www.w3.org/2000/svg"
   xmlns:sodipodi="http://sodipodi.sourceforge.net/DTD/sodipodi-0.dtd"
   xmlns:inkscape="http://www.inkscape.org/namespaces/inkscape"
   inkscape:version="1.0 (6e3e5246a0, 2020-05-07)"
   sodipodi:docname="spawnfest_isotype_v1.svg"
   id="svg57"
   viewBox="0 0 1672.3208 528.66317"
   style="clip-rule:evenodd;fill-rule:evenodd;image-rendering:optimizeQuality;shape-rendering:geometricPrecision;text-rendering:geometricPrecision"
   version="1.1"
   height="525.81146"
   width="1663.3191"
   xml:space="preserve"><metadata
   id="metadata61"><rdf:RDF><cc:Work
       rdf:about=""><dc:format>image/svg+xml</dc:format><dc:type
         rdf:resource="http://purl.org/dc/dcmitype/StillImage" /><dc:title></dc:title></cc:Work></rdf:RDF></metadata><sodipodi:namedview
   inkscape:current-layer="svg57"
   inkscape:window-maximized="1"
   inkscape:window-y="0"
   inkscape:window-x="0"
   inkscape:cy="95.915859"
   inkscape:cx="757.90352"
   inkscape:zoom="0.4218451"
   fit-margin-bottom="0"
   fit-margin-right="0"
   fit-margin-left="0"
   fit-margin-top="0"
   showgrid="false"
   id="namedview59"
   inkscape:window-height="1014"
   inkscape:window-width="1920"
   inkscape:pageshadow="2"
   inkscape:pageopacity="0"
   guidetolerance="10"
   gridtolerance="10"
   objecttolerance="10"
   borderopacity="1"
   bordercolor="#666666"
   pagecolor="#ffffff" />
 <defs
   id="defs4">
  <style
   id="style2"
   type="text/css">
   <![CDATA[
    .str0 {stroke:white;stroke-width:60.34;stroke-linecap:round;stroke-linejoin:round}
    .fil0 {fill:none}
    .fil3 {fill:none;fill-rule:nonzero}
    .fil1 {fill:#002E78}
    .fil2 {fill:#2666CC}
    .fil4 {fill:#2666CC;fill-rule:nonzero}
   ]]>
  </style>
 </defs>
 <g
   transform="translate(-14.727707,-2173.8608)"
   id="Layer_x0020_1">
  <metadata
   id="CorelCorpID_0Corel-Layer" />
  
  
  <g
   transform="translate(14.888112,292.03049)"
   id="g20">
   <path
   id="path18"
   d="m 30,2318 c 0,19 7,34 20,46 14,12 30,18 49,16 19,-2 35,-10 49,-25 13,-15 20,-32 20,-51 v -45 c 0,-18 -6,-33 -18,-45 -13,-14 -30,-20 -51,-18 -6,1 -12,-1 -16,-5 -5,-4 -7,-9 -7,-16 v -45 c 0,-7 2,-13 7,-17 4,-5 10,-8 16,-9 7,0 12,1 16,6 5,4 7,9 7,15 v 23 l 42,-4 h 4 v -23 c 0,-19 -7,-35 -20,-47 -14,-12 -30,-17 -49,-16 -19,2 -35,10 -49,25 -13,15 -20,32 -20,51 v 46 c 0,17 6,32 18,44 13,14 31,20 51,18 7,-1 12,1 16,5 5,4 7,9 7,16 v 46 c 0,6 -2,12 -7,17 -4,5 -9,7 -16,8 -6,1 -12,-1 -16,-5 -5,-4 -7,-9 -7,-16 v -23 l -46,4 z"
   class="fil3 str0" />
  </g>
  <g
   transform="translate(14.888112,292.03049)"
   id="g24">
   <path
   d="m 203,2370 v -321 l 92,-9 c 13,-1 23,2 32,11 9,8 14,18 14,31 v 92 c 0,13 -5,24 -14,34 -9,9 -19,15 -32,16 l -46,4 v 138 z m 46,-188 28,-2 c 5,-1 9,-3 13,-7 3,-3 5,-7 5,-12 v -57 c 0,-5 -2,-9 -5,-12 -4,-3 -8,-5 -13,-4 l -28,3 z"
   class="fil3 str0"
   id="path22" />
  </g>
  <g
   transform="translate(14.888112,292.03049)"
   id="g27">
   <path
   d="m 354,2356 69,-328 45,-5 70,315 -46,5 -14,-68 -64,6 -14,70 z m 69,-121 46,-5 -23,-113 v 0 z"
   class="fil3 str0"
   id="2" />
  </g>
  <g
   transform="translate(14.888112,292.03049)"
   id="g30">
   <polygon
   points="717,2321 764,2317 821,1992 775,1994 741,2185 706,2000 660,2005 626,2196 591,2007 545,2016 603,2332 649,2328 683,2133 "
   class="fil3 str0"
   id="3" />
  </g>
  <g
   transform="translate(14.888112,292.03049)"
   id="g33">
   <polygon
   points="941,1979 987,1974 987,2296 941,2300 895,2144 895,2304 849,2309 849,1987 895,1983 941,2139 "
   class="fil3 str0"
   id="4" />
  </g>
  <g
   transform="translate(14.888112,292.03049)"
   id="g36">
   <polygon
   points="1143,2097 1075,2104 1075,2012 1167,2003 1167,1957 1029,1970 1029,2292 1075,2287 1075,2150 1143,2143 "
   class="fil3 str0"
   id="5" />
  </g>
  <g
   transform="translate(14.888112,292.03049)"
   id="g39">
   <polygon
   points="1243,1996 1243,2088 1311,2081 1311,2127 1243,2134 1243,2226 1334,2217 1334,2263 1197,2276 1197,1954 1334,1941 1334,1987 "
   class="fil3 str0"
   id="6" />
  </g>
  <g
   transform="translate(14.888112,292.03049)"
   id="g42">
   <path
   d="m 1355,2192 c 0,19 7,34 21,47 13,12 29,17 48,15 19,-2 36,-10 49,-25 13,-14 20,-31 20,-50 v -46 c 0,-18 -6,-32 -17,-44 -14,-14 -31,-20 -52,-19 -6,1 -11,-1 -16,-5 -4,-4 -7,-9 -7,-15 v -46 c 0,-6 3,-12 7,-17 5,-5 10,-8 16,-8 7,-1 12,1 17,5 4,4 6,9 6,16 v 22 l 42,-4 h 4 v -23 c 0,-19 -7,-34 -20,-47 -13,-12 -30,-17 -49,-15 -19,2 -35,10 -48,25 -14,14 -21,31 -21,50 v 46 c 0,17 6,32 18,44 14,14 31,20 51,18 7,0 12,2 17,6 4,3 6,9 6,15 v 46 c 0,7 -2,12 -6,17 -5,5 -10,8 -17,8 -6,1 -11,-1 -16,-5 -4,-4 -7,-9 -7,-15 v -24 l -46,5 z"
   class="fil3 str0"
   id="7" />
  </g>
  <g
   transform="translate(14.888112,292.03049)"
   id="g45">
   <polygon
   points="1597,1962 1597,2238 1551,2242 1551,1967 1505,1971 1505,1925 1642,1912 1642,1958 "
   class="fil3 str0"
   id="8" />
  </g>
  <path
   d="m 44.888112,2610.0305 c 0,19 7,34 20,46 14,12 30,18 48.999998,16 19,-2 35,-10 49,-25 13,-15 20,-32 20,-51 v -45 c 0,-18 -6,-33 -18,-45 -13,-14 -30,-20 -51,-18 -6,1 -12,-1 -15.999998,-5 -5,-4 -7,-9 -7,-16 v -45 c 0,-7 2,-13 7,-17 3.999998,-5 9.999998,-8 15.999998,-9 7,0 12,1 16,6 5,4 7,9 7,15 v 23 l 42,-4 h 4 v -23 c 0,-19 -7,-35 -20,-47 -14,-12 -30,-17 -49,-16 -18.999998,2 -34.999998,10 -48.999998,25 -13,15 -20,32 -20,51 v 46 c 0,17 6,32 18,44 13,14 31,20 50.999998,18 7,-1 12,1 16,5 5,4 7,9 7,16 v 46 c 0,6 -2,12 -7,17 -4,5 -9,7 -16,8 -6,1 -12,-1 -15.999998,-5 -5,-4 -7,-9 -7,-16 v -23 l -46,4 z"
   class="fil4"
   id="9" />
  <path
   d="m 217.88811,2662.0305 v -321 l 92,-9 c 13,-1 23,2 32,11 9,8 14,18 14,31 v 92 c 0,13 -5,24 -14,34 -9,9 -19,15 -32,16 l -46,4 v 138 z m 46,-188 28,-2 c 5,-1 9,-3 13,-7 3,-3 5,-7 5,-12 v -57 c 0,-5 -2,-9 -5,-12 -4,-3 -8,-5 -13,-4 l -28,3 z"
   class="fil4"
   id="10" />
  <path
   d="m 368.88811,2648.0305 69,-328 45,-5 70,315 -46,5 -14,-68 -64,6 -14,70 z m 69,-121 46,-5 -23,-113 v 0 z"
   class="fil4"
   id="11" />
  <polygon
   transform="translate(14.888112,292.03049)"
   points="717,2321 764,2317 821,1992 775,1994 741,2185 706,2000 660,2005 626,2196 591,2007 545,2016 603,2332 649,2328 683,2133 "
   class="fil4"
   id="12" />
  <polygon
   transform="translate(14.888112,292.03049)"
   points="941,1979 987,1974 987,2296 941,2300 895,2144 895,2304 849,2309 849,1987 895,1983 941,2139 "
   class="fil4"
   id="13" />
  <polygon
   transform="translate(14.888112,292.03049)"
   points="1143,2097 1075,2104 1075,2012 1167,2003 1167,1957 1029,1970 1029,2292 1075,2287 1075,2150 1143,2143 "
   class="fil4"
   id="14" />
  <polygon
   transform="translate(14.888112,292.03049)"
   points="1243,1996 1243,2088 1311,2081 1311,2127 1243,2134 1243,2226 1334,2217 1334,2263 1197,2276 1197,1954 1334,1941 1334,1987 "
   class="fil4"
   id="15" />
  <path
   d="m 1369.8881,2484.0305 c 0,19 7,34 21,47 13,12 29,17 48,15 19,-2 36,-10 49,-25 13,-14 20,-31 20,-50 v -46 c 0,-18 -6,-32 -17,-44 -14,-14 -31,-20 -52,-19 -6,1 -11,-1 -16,-5 -4,-4 -7,-9 -7,-15 v -46 c 0,-6 3,-12 7,-17 5,-5 10,-8 16,-8 7,-1 12,1 17,5 4,4 6,9 6,16 v 22 l 42,-4 h 4 v -23 c 0,-19 -7,-34 -20,-47 -13,-12 -30,-17 -49,-15 -19,2 -35,10 -48,25 -14,14 -21,31 -21,50 v 46 c 0,17 6,32 18,44 14,14 31,20 51,18 7,0 12,2 17,6 4,3 6,9 6,15 v 46 c 0,7 -2,12 -6,17 -5,5 -10,8 -17,8 -6,1 -11,-1 -16,-5 -4,-4 -7,-9 -7,-15 v -24 l -46,5 z"
   class="fil4"
   id="16" />
  <polygon
   transform="translate(14.888112,292.03049)"
   points="1597,1962 1597,2238 1551,2242 1551,1967 1505,1971 1505,1925 1642,1912 1642,1958 "
   class="fil4"
   id="17" />
 </g>
</svg>
