<?xml version="1.0" encoding="UTF-8"?>
<!DOCTYPE svg PUBLIC "-//W3C//DTD SVG 1.1//EN" "http://www.w3.org/Graphics/SVG/1.1/DTD/svg11.dtd">
<!-- Creator: CorelDRAW X6 -->
<svg xmlns="http://www.w3.org/2000/svg" xml:space="preserve" width="1663px" height="2397px" version="1.1" style="shape-rendering:geometricPrecision; text-rendering:geometricPrecision; image-rendering:optimizeQuality; fill-rule:evenodd; clip-rule:evenodd"
viewBox="0 0 1672 2410"
 xmlns:xlink="http://www.w3.org/1999/xlink">
 <defs>
  <style type="text/css">
   <![CDATA[
    .str0 {stroke:white;stroke-width:60.34;stroke-linecap:round;stroke-linejoin:round}
    .fil0 {fill:none}
    .fil3 {fill:none;fill-rule:nonzero}
    .fil1 {fill:#002E78}
    .fil2 {fill:#2666CC}
    .fil4 {fill:#2666CC;fill-rule:nonzero}
   ]]>
  </style>
 </defs>
 <g id="Layer_x0020_1">
  <metadata id="CorelCorpID_0Corel-Layer"/>
  <g>
   <path class="fil0 str0" d="M45 2091c117,-75 131,-174 178,-293 39,-7 67,0 97,-25 48,-44 62,-99 83,-162 7,-21 32,-83 32,-94 -23,-19 -55,-21 -80,-33 -37,-18 -33,-44 -40,-85 -16,-83 -43,-194 -90,-266 -32,-48 -32,-18 -30,-94 7,-307 -127,-519 120,-783 42,-41 72,-78 116,-124 145,30 221,-123 328,-99 9,27 83,13 117,16 46,2 86,0 127,11 67,16 136,69 199,76 16,14 344,102 295,227 -14,37 -60,57 -99,78l111 205c4,14 14,40 20,56 -6,30 -25,34 -25,67 -2,69 12,30 -32,64 4,28 60,95 83,123 14,23 28,41 37,64 14,40 14,53 -14,74 -95,16 -44,28 -35,222 7,191 70,210 -136,277 -51,14 -166,9 -198,23 -83,248 122,289 150,351l-1314 124zm571 -138c-9,1 -18,-8 -19,-18 -1,-10 6,-21 16,-21l446 -43c10,-1 19,9 19,18 1,10 -6,21 -15,22l-447 42zm0 -62c-9,1 -18,-8 -19,-18 -1,-9 6,-20 16,-21l446 -43c10,-1 19,9 19,18 1,10 -6,21 -15,22l-447 42zm-14 -61l469 -44c14,-41 6,-205 6,-237 0,-118 90,-252 157,-342 74,-104 141,-136 189,-323 100,-392 -187,-750 -535,-773 -381,-28 -690,293 -649,686 35,325 247,376 349,660 31,89 7,265 14,373z"/>
   <path id="1" class="fil1" d="M45 2091c117,-75 131,-174 178,-293 39,-7 67,0 97,-25 48,-44 62,-99 83,-162 7,-21 32,-83 32,-94 -23,-19 -55,-21 -80,-33 -37,-18 -33,-44 -40,-85 -16,-83 -43,-194 -90,-266 -32,-48 -32,-18 -30,-94 7,-307 -127,-519 120,-783 42,-41 72,-78 116,-124 145,30 221,-123 328,-99 9,27 83,13 117,16 46,2 86,0 127,11 67,16 136,69 199,76 16,14 344,102 295,227 -14,37 -60,57 -99,78l111 205c4,14 14,40 20,56 -6,30 -25,34 -25,67 -2,69 12,30 -32,64 4,28 60,95 83,123 14,23 28,41 37,64 14,40 14,53 -14,74 -95,16 -44,28 -35,222 7,191 70,210 -136,277 -51,14 -166,9 -198,23 -83,248 122,289 150,351l-1314 124zm571 -138c-9,1 -18,-8 -19,-18 -1,-10 6,-21 16,-21l446 -43c10,-1 19,9 19,18 1,10 -6,21 -15,22l-447 42zm0 -62c-9,1 -18,-8 -19,-18 -1,-9 6,-20 16,-21l446 -43c10,-1 19,9 19,18 1,10 -6,21 -15,22l-447 42zm-14 -61l469 -44c14,-41 6,-205 6,-237 0,-118 90,-252 157,-342 74,-104 141,-136 189,-323 100,-392 -187,-750 -535,-773 -381,-28 -690,293 -649,686 35,325 247,376 349,660 31,89 7,265 14,373z"/>
  </g>
  <g>
   <path class="fil0 str0" d="M957 642c12,0 21,2 28,7 62,-88 129,-152 196,-189 -2,-5 -5,-12 -5,-17 0,-20 14,-36 33,-41 -10,-14 -17,-28 -23,-39 -5,2 -12,4 -17,4 -7,0 -11,-2 -18,-7 -2,5 -5,10 -9,14 -49,65 -113,118 -185,160 0,0 0,0 0,0 0,11 -5,20 -14,25 2,23 5,48 9,71 3,5 3,7 3,12 2,0 2,0 2,0l0 0zm-459 -374c4,-2 7,-7 11,-9 3,-2 7,-5 9,-7 90,-62 197,-99 310,-102 2,0 4,0 4,0 3,0 5,0 7,0 3,0 7,0 12,0 0,0 2,0 2,0 7,0 14,0 21,0 0,0 2,0 2,0 215,17 400,155 483,351 32,74 48,153 48,233 0,3 0,5 0,7 0,169 -51,266 -118,351 -4,-2 -9,-2 -13,-2 -14,0 -26,11 -26,25 0,7 2,14 7,19 -51,62 -108,124 -157,217 -68,107 -47,215 -55,405l-414 36c-10,-166 52,-323 -103,-522 -28,-42 -56,-79 -81,-111 -14,-46 -23,-106 -25,-175 36,-3 64,-35 64,-72 0,-37 -25,-67 -60,-74 0,-16 2,-30 5,-46 9,0 16,-5 23,-12 11,7 23,14 32,19 2,21 19,39 42,39 0,0 2,0 4,-2 30,71 74,152 130,224 25,34 53,67 83,97 -10,9 -14,23 -14,37 0,30 25,53 55,53 16,0 30,-7 42,-19 37,26 74,49 115,63 -2,4 -2,9 -2,13 0,19 14,33 32,33 19,0 32,-14 32,-33 0,-16 -9,-27 -23,-32 21,-58 65,-118 118,-168 16,-19 35,-35 53,-49 5,7 14,12 23,12 10,0 16,-5 23,-12 14,12 35,35 44,30 3,-2 3,-4 3,-7 -14,-4 -33,-23 -42,-32 2,-2 2,-5 2,-9 0,-5 -2,-12 -4,-16 25,-17 48,-28 67,-35 2,11 13,21 27,21 19,0 33,-14 33,-30 0,-14 -10,-23 -21,-28 0,-5 2,-9 2,-14 21,-4 37,-25 37,-48 0,-23 -16,-42 -37,-49 -4,-64 -14,-148 -30,-228 -9,-49 -21,-95 -34,-139 6,-7 11,-16 11,-28 0,-23 -16,-41 -39,-41 -7,-19 -16,-32 -26,-46 7,-5 12,-14 12,-23 0,-19 -16,-35 -35,-35 -18,0 -34,16 -34,35 0,7 2,14 7,20 -3,3 -7,7 -10,12 -48,65 -110,115 -177,155 -5,-7 -10,-12 -16,-14 -3,-95 16,-196 64,-291 2,-2 2,-7 -2,-9 -2,-3 -7,0 -9,2 -49,97 -67,199 -67,298 -14,0 -23,14 -23,28 0,4 0,9 2,11 -60,30 -125,49 -189,60 -58,12 -116,14 -169,12 0,-3 0,-7 0,-10 0,-30 -18,-55 -46,-67 55,-124 143,-247 279,-343 3,0 3,-5 0,-7 -2,-5 -4,-5 -9,-3 -136,97 -226,222 -282,351 -4,-2 -9,-2 -13,-2 -3,0 -5,0 -5,0 -2,-44 0,-97 5,-148 4,-44 11,-85 23,-120 0,0 0,0 0,0l0 0zm-72 868c-85,-104 -154,-185 -154,-395 0,-18 0,-34 2,-53 0,-9 0,-16 2,-23 21,16 69,51 120,83 0,2 -2,7 -2,9 0,17 11,28 23,33 -2,16 -2,32 -5,48 -41,0 -74,32 -74,74 0,39 30,72 70,74 2,55 9,106 18,150l0 0zm-150 -482c2,-7 5,-17 5,-26 4,-28 11,-48 18,-71 30,20 65,37 102,48 0,0 0,2 0,2 0,28 16,53 41,65 -4,18 -9,35 -14,53 0,0 0,0 0,0 -11,0 -20,5 -27,14 -56,-37 -109,-72 -125,-85l0 0zm28 -109c0,-5 2,-7 2,-11 12,-56 92,-187 152,-231 7,-7 17,-16 26,-23 -9,32 -16,69 -21,106 -5,53 -5,106 -5,152 -27,5 -48,26 -55,53 -37,-11 -71,-27 -99,-46l0 0 0 0zm690 109c11,11 18,25 18,41 0,21 -11,39 -27,49 23,60 50,113 83,159 58,0 120,-2 182,-12 0,0 -2,-2 -2,-4 0,-28 23,-49 51,-49 0,0 0,0 0,0 -5,-64 -14,-148 -30,-226 -10,-46 -21,-92 -33,-134 -7,2 -11,5 -18,5 -14,0 -26,-5 -32,-14 -65,37 -132,101 -192,185l0 0zm-205 484c11,-64 25,-127 46,-184 -23,-10 -40,-30 -42,-56 -104,-16 -189,-41 -242,-69 -3,2 -5,5 -7,5 28,71 71,147 127,219 25,34 51,67 81,97 9,-7 20,-12 34,-12 0,0 0,0 3,0l0 0zm94 -309c14,-32 28,-60 44,-88 -14,-9 -23,-27 -23,-46 0,-25 16,-46 39,-51 -2,-4 -2,-7 -2,-11 -5,-23 -9,-46 -12,-72 -7,0 -11,-2 -16,-4 -62,30 -129,50 -196,62 -58,9 -118,14 -173,9 -7,23 -23,39 -44,46 0,26 7,53 16,86 2,-3 7,-3 12,-3 20,0 39,19 39,40 0,9 -2,16 -7,20 51,28 134,51 233,67 5,-32 32,-60 69,-60 7,0 14,3 21,5l0 0zm53 -83c-16,28 -30,55 -44,85 21,12 37,35 37,60 0,3 0,7 0,10 40,2 81,2 123,2 -30,-44 -58,-97 -79,-155 -4,2 -9,2 -16,2 -7,0 -14,-2 -21,-4l0 0zm-92 212c-19,56 -35,118 -46,183 25,4 41,25 41,53 0,9 -2,18 -7,25 37,25 77,48 118,62 5,-4 12,-9 21,-9 21,-62 67,-125 120,-175 18,-19 39,-35 58,-51 -3,-2 -3,-5 -3,-9 0,-7 3,-12 5,-16 -30,-26 -62,-63 -90,-104 -46,0 -92,0 -136,-5 -7,28 -33,49 -63,49 -7,0 -13,-3 -18,-3zm351 56c25,-19 51,-33 71,-40 0,-16 14,-27 30,-27 0,0 3,0 3,0 0,-5 0,-7 0,-12 0,0 0,2 0,2 -21,0 -40,-13 -47,-32 -60,7 -120,12 -177,12 27,39 57,71 87,94 3,-2 10,-4 14,-4 7,0 12,2 19,7zm-688 -250c-9,-32 -16,-62 -16,-85 -7,0 -12,2 -16,2 -7,0 -14,-2 -21,-4 -5,18 -9,34 -12,50 12,5 21,17 21,30 0,5 -2,12 -5,14 12,7 21,12 30,16 3,-9 10,-18 19,-23z"/>
   <path id="1" class="fil2" d="M957 642c12,0 21,2 28,7 62,-88 129,-152 196,-189 -2,-5 -5,-12 -5,-17 0,-20 14,-36 33,-41 -10,-14 -17,-28 -23,-39 -5,2 -12,4 -17,4 -7,0 -11,-2 -18,-7 -2,5 -5,10 -9,14 -49,65 -113,118 -185,160 0,0 0,0 0,0 0,11 -5,20 -14,25 2,23 5,48 9,71 3,5 3,7 3,12 2,0 2,0 2,0l0 0zm-459 -374c4,-2 7,-7 11,-9 3,-2 7,-5 9,-7 90,-62 197,-99 310,-102 2,0 4,0 4,0 3,0 5,0 7,0 3,0 7,0 12,0 0,0 2,0 2,0 7,0 14,0 21,0 0,0 2,0 2,0 215,17 400,155 483,351 32,74 48,153 48,233 0,3 0,5 0,7 0,169 -51,266 -118,351 -4,-2 -9,-2 -13,-2 -14,0 -26,11 -26,25 0,7 2,14 7,19 -51,62 -108,124 -157,217 -68,107 -47,215 -55,405l-414 36c-10,-166 52,-323 -103,-522 -28,-42 -56,-79 -81,-111 -14,-46 -23,-106 -25,-175 36,-3 64,-35 64,-72 0,-37 -25,-67 -60,-74 0,-16 2,-30 5,-46 9,0 16,-5 23,-12 11,7 23,14 32,19 2,21 19,39 42,39 0,0 2,0 4,-2 30,71 74,152 130,224 25,34 53,67 83,97 -10,9 -14,23 -14,37 0,30 25,53 55,53 16,0 30,-7 42,-19 37,26 74,49 115,63 -2,4 -2,9 -2,13 0,19 14,33 32,33 19,0 32,-14 32,-33 0,-16 -9,-27 -23,-32 21,-58 65,-118 118,-168 16,-19 35,-35 53,-49 5,7 14,12 23,12 10,0 16,-5 23,-12 14,12 35,35 44,30 3,-2 3,-4 3,-7 -14,-4 -33,-23 -42,-32 2,-2 2,-5 2,-9 0,-5 -2,-12 -4,-16 25,-17 48,-28 67,-35 2,11 13,21 27,21 19,0 33,-14 33,-30 0,-14 -10,-23 -21,-28 0,-5 2,-9 2,-14 21,-4 37,-25 37,-48 0,-23 -16,-42 -37,-49 -4,-64 -14,-148 -30,-228 -9,-49 -21,-95 -34,-139 6,-7 11,-16 11,-28 0,-23 -16,-41 -39,-41 -7,-19 -16,-32 -26,-46 7,-5 12,-14 12,-23 0,-19 -16,-35 -35,-35 -18,0 -34,16 -34,35 0,7 2,14 7,20 -3,3 -7,7 -10,12 -48,65 -110,115 -177,155 -5,-7 -10,-12 -16,-14 -3,-95 16,-196 64,-291 2,-2 2,-7 -2,-9 -2,-3 -7,0 -9,2 -49,97 -67,199 -67,298 -14,0 -23,14 -23,28 0,4 0,9 2,11 -60,30 -125,49 -189,60 -58,12 -116,14 -169,12 0,-3 0,-7 0,-10 0,-30 -18,-55 -46,-67 55,-124 143,-247 279,-343 3,0 3,-5 0,-7 -2,-5 -4,-5 -9,-3 -136,97 -226,222 -282,351 -4,-2 -9,-2 -13,-2 -3,0 -5,0 -5,0 -2,-44 0,-97 5,-148 4,-44 11,-85 23,-120 0,0 0,0 0,0l0 0zm-72 868c-85,-104 -154,-185 -154,-395 0,-18 0,-34 2,-53 0,-9 0,-16 2,-23 21,16 69,51 120,83 0,2 -2,7 -2,9 0,17 11,28 23,33 -2,16 -2,32 -5,48 -41,0 -74,32 -74,74 0,39 30,72 70,74 2,55 9,106 18,150l0 0zm-150 -482c2,-7 5,-17 5,-26 4,-28 11,-48 18,-71 30,20 65,37 102,48 0,0 0,2 0,2 0,28 16,53 41,65 -4,18 -9,35 -14,53 0,0 0,0 0,0 -11,0 -20,5 -27,14 -56,-37 -109,-72 -125,-85l0 0zm28 -109c0,-5 2,-7 2,-11 12,-56 92,-187 152,-231 7,-7 17,-16 26,-23 -9,32 -16,69 -21,106 -5,53 -5,106 -5,152 -27,5 -48,26 -55,53 -37,-11 -71,-27 -99,-46l0 0 0 0zm690 109c11,11 18,25 18,41 0,21 -11,39 -27,49 23,60 50,113 83,159 58,0 120,-2 182,-12 0,0 -2,-2 -2,-4 0,-28 23,-49 51,-49 0,0 0,0 0,0 -5,-64 -14,-148 -30,-226 -10,-46 -21,-92 -33,-134 -7,2 -11,5 -18,5 -14,0 -26,-5 -32,-14 -65,37 -132,101 -192,185l0 0zm-205 484c11,-64 25,-127 46,-184 -23,-10 -40,-30 -42,-56 -104,-16 -189,-41 -242,-69 -3,2 -5,5 -7,5 28,71 71,147 127,219 25,34 51,67 81,97 9,-7 20,-12 34,-12 0,0 0,0 3,0l0 0zm94 -309c14,-32 28,-60 44,-88 -14,-9 -23,-27 -23,-46 0,-25 16,-46 39,-51 -2,-4 -2,-7 -2,-11 -5,-23 -9,-46 -12,-72 -7,0 -11,-2 -16,-4 -62,30 -129,50 -196,62 -58,9 -118,14 -173,9 -7,23 -23,39 -44,46 0,26 7,53 16,86 2,-3 7,-3 12,-3 20,0 39,19 39,40 0,9 -2,16 -7,20 51,28 134,51 233,67 5,-32 32,-60 69,-60 7,0 14,3 21,5l0 0zm53 -83c-16,28 -30,55 -44,85 21,12 37,35 37,60 0,3 0,7 0,10 40,2 81,2 123,2 -30,-44 -58,-97 -79,-155 -4,2 -9,2 -16,2 -7,0 -14,-2 -21,-4l0 0zm-92 212c-19,56 -35,118 -46,183 25,4 41,25 41,53 0,9 -2,18 -7,25 37,25 77,48 118,62 5,-4 12,-9 21,-9 21,-62 67,-125 120,-175 18,-19 39,-35 58,-51 -3,-2 -3,-5 -3,-9 0,-7 3,-12 5,-16 -30,-26 -62,-63 -90,-104 -46,0 -92,0 -136,-5 -7,28 -33,49 -63,49 -7,0 -13,-3 -18,-3zm351 56c25,-19 51,-33 71,-40 0,-16 14,-27 30,-27 0,0 3,0 3,0 0,-5 0,-7 0,-12 0,0 0,2 0,2 -21,0 -40,-13 -47,-32 -60,7 -120,12 -177,12 27,39 57,71 87,94 3,-2 10,-4 14,-4 7,0 12,2 19,7zm-688 -250c-9,-32 -16,-62 -16,-85 -7,0 -12,2 -16,2 -7,0 -14,-2 -21,-4 -5,18 -9,34 -12,50 12,5 21,17 21,30 0,5 -2,12 -5,14 12,7 21,12 30,16 3,-9 10,-18 19,-23z"/>
  </g>
  <g>
   <path class="fil3 str0" d="M30 2318c0,19 7,34 20,46 14,12 30,18 49,16 19,-2 35,-10 49,-25 13,-15 20,-32 20,-51l0 -45c0,-18 -6,-33 -18,-45 -13,-14 -30,-20 -51,-18 -6,1 -12,-1 -16,-5 -5,-4 -7,-9 -7,-16l0 -45c0,-7 2,-13 7,-17 4,-5 10,-8 16,-9 7,0 12,1 16,6 5,4 7,9 7,15l0 23 42 -4 4 0 0 -23c0,-19 -7,-35 -20,-47 -14,-12 -30,-17 -49,-16 -19,2 -35,10 -49,25 -13,15 -20,32 -20,51l0 46c0,17 6,32 18,44 13,14 31,20 51,18 7,-1 12,1 16,5 5,4 7,9 7,16l0 46c0,6 -2,12 -7,17 -4,5 -9,7 -16,8 -6,1 -12,-1 -16,-5 -5,-4 -7,-9 -7,-16l0 -23 -46 4 0 24z"/>
  </g>
  <g>
   <path id="1" class="fil3 str0" d="M203 2370l0 -321 92 -9c13,-1 23,2 32,11 9,8 14,18 14,31l0 92c0,13 -5,24 -14,34 -9,9 -19,15 -32,16l-46 4 0 138 -46 4zm46 -188l28 -2c5,-1 9,-3 13,-7 3,-3 5,-7 5,-12l0 -57c0,-5 -2,-9 -5,-12 -4,-3 -8,-5 -13,-4l-28 3 0 91z"/>
  </g>
  <g>
   <path id="2" class="fil3 str0" d="M354 2356l69 -328 45 -5 70 315 -46 5 -14 -68 -64 6 -14 70 -46 5zm69 -121l46 -5 -23 -113 0 0 -23 118z"/>
  </g>
  <g>
   <polygon id="3" class="fil3 str0" points="545,2016 603,2332 649,2328 683,2133 717,2321 764,2317 821,1992 775,1994 741,2185 706,2000 660,2005 626,2196 591,2007 "/>
  </g>
  <g>
   <polygon id="4" class="fil3 str0" points="849,2309 849,1987 895,1983 941,2139 941,1979 987,1974 987,2296 941,2300 895,2144 895,2304 "/>
  </g>
  <g>
   <polygon id="5" class="fil3 str0" points="1029,2292 1075,2287 1075,2150 1143,2143 1143,2097 1075,2104 1075,2012 1167,2003 1167,1957 1029,1970 "/>
  </g>
  <g>
   <polygon id="6" class="fil3 str0" points="1197,2276 1197,1954 1334,1941 1334,1987 1243,1996 1243,2088 1311,2081 1311,2127 1243,2134 1243,2226 1334,2217 1334,2263 "/>
  </g>
  <g>
   <path id="7" class="fil3 str0" d="M1355 2192c0,19 7,34 21,47 13,12 29,17 48,15 19,-2 36,-10 49,-25 13,-14 20,-31 20,-50l0 -46c0,-18 -6,-32 -17,-44 -14,-14 -31,-20 -52,-19 -6,1 -11,-1 -16,-5 -4,-4 -7,-9 -7,-15l0 -46c0,-6 3,-12 7,-17 5,-5 10,-8 16,-8 7,-1 12,1 17,5 4,4 6,9 6,16l0 22 42 -4 4 0 0 -23c0,-19 -7,-34 -20,-47 -13,-12 -30,-17 -49,-15 -19,2 -35,10 -48,25 -14,14 -21,31 -21,50l0 46c0,17 6,32 18,44 14,14 31,20 51,18 7,0 12,2 17,6 4,3 6,9 6,15l0 46c0,7 -2,12 -6,17 -5,5 -10,8 -17,8 -6,1 -11,-1 -16,-5 -4,-4 -7,-9 -7,-15l0 -24 -46 5 0 23z"/>
  </g>
  <g>
   <polygon id="8" class="fil3 str0" points="1505,1971 1505,1925 1642,1912 1642,1958 1597,1962 1597,2238 1551,2242 1551,1967 "/>
  </g>
  <path id="9" class="fil4" d="M30 2318c0,19 7,34 20,46 14,12 30,18 49,16 19,-2 35,-10 49,-25 13,-15 20,-32 20,-51l0 -45c0,-18 -6,-33 -18,-45 -13,-14 -30,-20 -51,-18 -6,1 -12,-1 -16,-5 -5,-4 -7,-9 -7,-16l0 -45c0,-7 2,-13 7,-17 4,-5 10,-8 16,-9 7,0 12,1 16,6 5,4 7,9 7,15l0 23 42 -4 4 0 0 -23c0,-19 -7,-35 -20,-47 -14,-12 -30,-17 -49,-16 -19,2 -35,10 -49,25 -13,15 -20,32 -20,51l0 46c0,17 6,32 18,44 13,14 31,20 51,18 7,-1 12,1 16,5 5,4 7,9 7,16l0 46c0,6 -2,12 -7,17 -4,5 -9,7 -16,8 -6,1 -12,-1 -16,-5 -5,-4 -7,-9 -7,-16l0 -23 -46 4 0 24z"/>
  <path id="10" class="fil4" d="M203 2370l0 -321 92 -9c13,-1 23,2 32,11 9,8 14,18 14,31l0 92c0,13 -5,24 -14,34 -9,9 -19,15 -32,16l-46 4 0 138 -46 4zm46 -188l28 -2c5,-1 9,-3 13,-7 3,-3 5,-7 5,-12l0 -57c0,-5 -2,-9 -5,-12 -4,-3 -8,-5 -13,-4l-28 3 0 91z"/>
  <path id="11" class="fil4" d="M354 2356l69 -328 45 -5 70 315 -46 5 -14 -68 -64 6 -14 70 -46 5zm69 -121l46 -5 -23 -113 0 0 -23 118z"/>
  <polygon id="12" class="fil4" points="545,2016 603,2332 649,2328 683,2133 717,2321 764,2317 821,1992 775,1994 741,2185 706,2000 660,2005 626,2196 591,2007 "/>
  <polygon id="13" class="fil4" points="849,2309 849,1987 895,1983 941,2139 941,1979 987,1974 987,2296 941,2300 895,2144 895,2304 "/>
  <polygon id="14" class="fil4" points="1029,2292 1075,2287 1075,2150 1143,2143 1143,2097 1075,2104 1075,2012 1167,2003 1167,1957 1029,1970 "/>
  <polygon id="15" class="fil4" points="1197,2276 1197,1954 1334,1941 1334,1987 1243,1996 1243,2088 1311,2081 1311,2127 1243,2134 1243,2226 1334,2217 1334,2263 "/>
  <path id="16" class="fil4" d="M1355 2192c0,19 7,34 21,47 13,12 29,17 48,15 19,-2 36,-10 49,-25 13,-14 20,-31 20,-50l0 -46c0,-18 -6,-32 -17,-44 -14,-14 -31,-20 -52,-19 -6,1 -11,-1 -16,-5 -4,-4 -7,-9 -7,-15l0 -46c0,-6 3,-12 7,-17 5,-5 10,-8 16,-8 7,-1 12,1 17,5 4,4 6,9 6,16l0 22 42 -4 4 0 0 -23c0,-19 -7,-34 -20,-47 -13,-12 -30,-17 -49,-15 -19,2 -35,10 -48,25 -14,14 -21,31 -21,50l0 46c0,17 6,32 18,44 14,14 31,20 51,18 7,0 12,2 17,6 4,3 6,9 6,15l0 46c0,7 -2,12 -6,17 -5,5 -10,8 -17,8 -6,1 -11,-1 -16,-5 -4,-4 -7,-9 -7,-15l0 -24 -46 5 0 23z"/>
  <polygon id="17" class="fil4" points="1505,1971 1505,1925 1642,1912 1642,1958 1597,1962 1597,2238 1551,2242 1551,1967 "/>
 </g>
</svg>
