<?xml version="1.0" encoding="UTF-8"?>
<!DOCTYPE svg PUBLIC "-//W3C//DTD SVG 1.1//EN" "http://www.w3.org/Graphics/SVG/1.1/DTD/svg11.dtd">
<!-- Creator: CorelDRAW X6 -->
<svg xmlns="http://www.w3.org/2000/svg" xml:space="preserve" width="1607px" height="2057px" version="1.1" style="shape-rendering:geometricPrecision; text-rendering:geometricPrecision; image-rendering:optimizeQuality; fill-rule:evenodd; clip-rule:evenodd"
viewBox="0 0 1590 2035"
 xmlns:xlink="http://www.w3.org/1999/xlink">
 <defs>
  <style type="text/css">
   <![CDATA[
    .str0 {stroke:white;stroke-width:59.3617;stroke-linecap:round;stroke-linejoin:round}
    .fil0 {fill:none}
    .fil1 {fill:#002E78}
    .fil2 {fill:#2666CC}
   ]]>
  </style>
 </defs>
 <g id="Layer_x0020_1">
  <metadata id="CorelCorpID_0Corel-Layer"/>
  <g>
   <path class="fil0 str0" d="M30 2006c115,-75 129,-121 175,-237 39,-7 66,0 95,-25 48,-43 62,-98 82,-159 7,-20 32,-82 32,-93 -23,-18 -55,-20 -80,-32 -36,-18 -31,-43 -38,-84 -16,-82 -43,-190 -89,-261 -32,-48 -32,-18 -29,-93 6,-302 -125,-511 118,-770 41,-41 70,-77 113,-122 143,29 218,-121 323,-98 9,27 81,14 116,16 45,2 84,0 124,11 66,16 134,68 196,75 16,14 338,100 290,223 -13,36 -59,56 -97,77l109 202c4,14 13,39 20,54 -7,30 -25,35 -25,66 -2,68 11,30 -32,64 5,27 59,93 82,120 14,23 27,41 36,64 14,38 14,52 -13,73 -93,15 -43,27 -34,217 7,189 68,207 -134,273 -50,14 -164,9 -196,23 -81,244 121,233 149,294l-1293 122zm562 -84c-10,0 -18,-9 -19,-18 -1,-10 6,-21 16,-21l439 -42c9,-1 18,8 18,18 1,9 -6,20 -15,21l-439 42zm0 -61c-10,1 -18,-9 -19,-18 -1,-10 6,-20 16,-21l439 -42c9,-1 18,8 18,18 1,9 -6,20 -15,21l-439 42zm-14 -61l461 -43c14,-41 6,-202 6,-233 0,-116 89,-248 154,-336 73,-102 139,-134 187,-318 97,-386 -184,-738 -527,-761 -375,-27 -679,289 -638,675 34,320 243,370 343,649 30,88 7,261 14,367z"/>
   <path id="1" class="fil1" d="M30 2006c115,-75 129,-121 175,-237 39,-7 66,0 95,-25 48,-43 62,-98 82,-159 7,-20 32,-82 32,-93 -23,-18 -55,-20 -80,-32 -36,-18 -31,-43 -38,-84 -16,-82 -43,-190 -89,-261 -32,-48 -32,-18 -29,-93 6,-302 -125,-511 118,-770 41,-41 70,-77 113,-122 143,29 218,-121 323,-98 9,27 81,14 116,16 45,2 84,0 124,11 66,16 134,68 196,75 16,14 338,100 290,223 -13,36 -59,56 -97,77l109 202c4,14 13,39 20,54 -7,30 -25,35 -25,66 -2,68 11,30 -32,64 5,27 59,93 82,120 14,23 27,41 36,64 14,38 14,52 -13,73 -93,15 -43,27 -34,217 7,189 68,207 -134,273 -50,14 -164,9 -196,23 -81,244 121,233 149,294l-1293 122zm562 -84c-10,0 -18,-9 -19,-18 -1,-10 6,-21 16,-21l439 -42c9,-1 18,8 18,18 1,9 -6,20 -15,21l-439 42zm0 -61c-10,1 -18,-9 -19,-18 -1,-10 6,-20 16,-21l439 -42c9,-1 18,8 18,18 1,9 -6,20 -15,21l-439 42zm-14 -61l461 -43c14,-41 6,-202 6,-233 0,-116 89,-248 154,-336 73,-102 139,-134 187,-318 97,-386 -184,-738 -527,-761 -375,-27 -679,289 -638,675 34,320 243,370 343,649 30,88 7,261 14,367z"/>
  </g>
  <g>
   <path class="fil0 str0" d="M927 632c11,0 20,2 27,6 62,-86 127,-149 193,-186 -2,-4 -4,-11 -4,-16 0,-20 13,-36 31,-41 -9,-13 -15,-27 -22,-38 -5,2 -12,4 -16,4 -7,0 -11,-2 -18,-6 -3,4 -5,9 -9,13 -48,64 -112,116 -182,157 0,0 0,0 0,0 0,11 -5,20 -14,25 3,23 5,48 9,70 3,5 3,7 3,12 2,0 2,0 2,0l0 0zm-452 -368c5,-3 7,-7 11,-9 3,-3 7,-5 10,-7 88,-61 193,-98 304,-100 2,0 4,0 4,0 3,0 5,0 7,0 2,0 7,0 12,0 0,0 2,0 2,0 7,0 13,0 20,0 0,0 3,0 3,0 211,16 392,152 474,345 32,73 48,150 48,229 0,3 0,5 0,7 0,166 -50,261 -116,345 -5,-2 -9,-2 -14,-2 -13,0 -25,11 -25,25 0,7 3,14 7,18 -50,62 -107,123 -154,214 -67,106 -47,212 -55,398l-407 36c-10,-164 51,-318 -101,-514 -28,-41 -55,-77 -80,-109 -13,-45 -23,-104 -25,-172 37,-3 64,-34 64,-71 0,-36 -25,-66 -59,-72 0,-16 2,-30 4,-46 9,0 16,-4 23,-11 11,7 23,13 32,18 2,20 18,39 41,39 0,0 2,0 4,-3 30,71 73,150 127,221 25,34 53,65 82,95 -9,9 -14,23 -14,36 0,30 25,53 55,53 16,0 29,-7 41,-19 36,25 72,48 113,62 -2,4 -2,9 -2,13 0,18 14,32 32,32 18,0 32,-14 32,-32 0,-16 -9,-27 -23,-32 20,-56 64,-115 116,-165 16,-18 34,-34 52,-48 5,7 14,11 23,11 9,0 16,-4 22,-11 14,11 34,34 44,30 2,-3 2,-5 2,-7 -14,-5 -32,-23 -41,-32 2,-2 2,-5 2,-9 0,-5 -2,-11 -4,-16 25,-16 47,-27 66,-34 2,11 13,20 27,20 18,0 32,-13 32,-29 0,-14 -10,-23 -21,-27 0,-5 2,-9 2,-14 21,-5 37,-25 37,-48 0,-22 -16,-41 -37,-47 -4,-64 -13,-146 -29,-225 -9,-48 -21,-93 -34,-136 7,-7 11,-16 11,-28 0,-22 -16,-41 -38,-41 -7,-18 -16,-31 -25,-45 6,-5 11,-14 11,-23 0,-18 -16,-34 -34,-34 -18,0 -34,16 -34,34 0,7 2,14 7,21 -3,2 -7,7 -9,11 -48,64 -109,114 -175,152 -5,-7 -9,-11 -16,-13 -2,-93 16,-193 63,-286 3,-3 3,-7 -2,-10 -2,-2 -7,0 -9,3 -48,95 -66,195 -66,293 -13,0 -23,13 -23,27 0,4 0,9 3,11 -59,30 -123,48 -186,59 -57,12 -114,14 -166,12 0,-3 0,-7 0,-9 0,-30 -18,-55 -46,-66 55,-123 141,-243 275,-339 2,0 2,-4 0,-6 -2,-5 -4,-5 -9,-3 -134,96 -222,218 -277,345 -5,-2 -9,-2 -14,-2 -2,0 -4,0 -4,0 -2,-43 0,-95 4,-145 5,-43 12,-84 23,-118 0,0 0,0 0,0l0 0zm-70 854c-84,-103 -152,-182 -152,-389 0,-18 0,-34 2,-52 0,-9 0,-16 2,-23 21,16 68,50 118,82 0,2 -2,7 -2,9 0,16 11,27 23,32 -3,16 -3,32 -5,48 -41,0 -73,31 -73,72 0,39 30,71 69,73 2,54 9,104 18,148l0 0zm-148 -475c2,-7 5,-16 5,-25 4,-27 11,-48 18,-70 29,20 63,36 100,47 0,0 0,3 0,3 0,27 16,52 41,63 -5,18 -9,34 -14,52 0,0 0,0 0,0 -11,0 -20,5 -27,14 -55,-36 -107,-70 -123,-84l0 0zm27 -107c0,-4 3,-7 3,-11 11,-55 90,-184 150,-227 6,-7 15,-16 24,-23 -9,32 -15,68 -20,105 -4,52 -4,104 -4,149 -28,5 -48,25 -55,53 -36,-12 -70,-28 -98,-46l0 0 0 0zm679 107c12,11 18,25 18,41 0,20 -11,38 -27,47 23,60 50,112 82,157 57,0 118,-2 179,-11 0,0 -2,-2 -2,-5 0,-27 23,-47 50,-47 0,0 0,0 0,0 -4,-64 -14,-146 -29,-223 -10,-45 -21,-91 -32,-132 -7,3 -12,5 -18,5 -14,0 -25,-5 -32,-14 -64,37 -130,100 -189,182l0 0zm-202 477c12,-64 25,-125 46,-182 -23,-9 -39,-29 -41,-54 -102,-16 -186,-41 -239,-68 -2,2 -4,4 -6,4 27,70 70,145 124,216 25,34 50,66 80,95 9,-7 20,-11 34,-11 0,0 0,0 2,0l0 0zm93 -304c14,-32 28,-60 43,-87 -13,-9 -22,-27 -22,-45 0,-25 16,-46 38,-50 -2,-5 -2,-7 -2,-11 -4,-23 -9,-46 -11,-71 -7,0 -12,-2 -16,-4 -61,29 -127,50 -193,61 -57,9 -116,14 -170,9 -7,23 -23,39 -44,45 0,25 7,53 16,84 3,-2 7,-2 12,-2 20,0 38,18 38,39 0,9 -2,16 -7,20 50,27 132,50 230,66 4,-32 32,-59 68,-59 7,0 14,2 20,5l0 0zm53 -82c-16,27 -30,54 -44,84 21,11 37,34 37,59 0,2 0,7 0,9 38,2 79,2 120,2 -29,-43 -57,-95 -77,-152 -5,2 -9,2 -16,2 -7,0 -14,-2 -20,-4l0 0zm-91 209c-18,54 -34,115 -46,179 25,5 41,25 41,52 0,9 -2,18 -7,25 37,25 75,48 116,62 5,-5 12,-10 21,-10 20,-61 65,-122 118,-172 18,-18 38,-34 56,-50 -2,-2 -2,-5 -2,-9 0,-7 2,-11 5,-16 -30,-25 -62,-61 -89,-102 -45,0 -91,0 -134,-5 -7,28 -32,48 -61,48 -7,0 -14,-2 -18,-2zm345 54c25,-18 50,-32 70,-38 0,-16 14,-28 30,-28 0,0 2,0 2,0 0,-4 0,-6 0,-11 0,0 0,2 0,2 -20,0 -39,-13 -45,-32 -59,7 -118,12 -175,12 27,38 57,70 86,93 2,-2 9,-5 14,-5 7,0 11,3 18,7zm-677 -245c-9,-32 -16,-61 -16,-84 -7,0 -11,2 -16,2 -6,0 -13,-2 -20,-4 -5,18 -9,34 -11,50 11,4 20,15 20,29 0,5 -2,11 -4,14 11,7 20,11 29,16 2,-9 9,-19 18,-23z"/>
   <path id="1" class="fil2" d="M927 632c11,0 20,2 27,6 62,-86 127,-149 193,-186 -2,-4 -4,-11 -4,-16 0,-20 13,-36 31,-41 -9,-13 -15,-27 -22,-38 -5,2 -12,4 -16,4 -7,0 -11,-2 -18,-6 -3,4 -5,9 -9,13 -48,64 -112,116 -182,157 0,0 0,0 0,0 0,11 -5,20 -14,25 3,23 5,48 9,70 3,5 3,7 3,12 2,0 2,0 2,0l0 0zm-452 -368c5,-3 7,-7 11,-9 3,-3 7,-5 10,-7 88,-61 193,-98 304,-100 2,0 4,0 4,0 3,0 5,0 7,0 2,0 7,0 12,0 0,0 2,0 2,0 7,0 13,0 20,0 0,0 3,0 3,0 211,16 392,152 474,345 32,73 48,150 48,229 0,3 0,5 0,7 0,166 -50,261 -116,345 -5,-2 -9,-2 -14,-2 -13,0 -25,11 -25,25 0,7 3,14 7,18 -50,62 -107,123 -154,214 -67,106 -47,212 -55,398l-407 36c-10,-164 51,-318 -101,-514 -28,-41 -55,-77 -80,-109 -13,-45 -23,-104 -25,-172 37,-3 64,-34 64,-71 0,-36 -25,-66 -59,-72 0,-16 2,-30 4,-46 9,0 16,-4 23,-11 11,7 23,13 32,18 2,20 18,39 41,39 0,0 2,0 4,-3 30,71 73,150 127,221 25,34 53,65 82,95 -9,9 -14,23 -14,36 0,30 25,53 55,53 16,0 29,-7 41,-19 36,25 72,48 113,62 -2,4 -2,9 -2,13 0,18 14,32 32,32 18,0 32,-14 32,-32 0,-16 -9,-27 -23,-32 20,-56 64,-115 116,-165 16,-18 34,-34 52,-48 5,7 14,11 23,11 9,0 16,-4 22,-11 14,11 34,34 44,30 2,-3 2,-5 2,-7 -14,-5 -32,-23 -41,-32 2,-2 2,-5 2,-9 0,-5 -2,-11 -4,-16 25,-16 47,-27 66,-34 2,11 13,20 27,20 18,0 32,-13 32,-29 0,-14 -10,-23 -21,-27 0,-5 2,-9 2,-14 21,-5 37,-25 37,-48 0,-22 -16,-41 -37,-47 -4,-64 -13,-146 -29,-225 -9,-48 -21,-93 -34,-136 7,-7 11,-16 11,-28 0,-22 -16,-41 -38,-41 -7,-18 -16,-31 -25,-45 6,-5 11,-14 11,-23 0,-18 -16,-34 -34,-34 -18,0 -34,16 -34,34 0,7 2,14 7,21 -3,2 -7,7 -9,11 -48,64 -109,114 -175,152 -5,-7 -9,-11 -16,-13 -2,-93 16,-193 63,-286 3,-3 3,-7 -2,-10 -2,-2 -7,0 -9,3 -48,95 -66,195 -66,293 -13,0 -23,13 -23,27 0,4 0,9 3,11 -59,30 -123,48 -186,59 -57,12 -114,14 -166,12 0,-3 0,-7 0,-9 0,-30 -18,-55 -46,-66 55,-123 141,-243 275,-339 2,0 2,-4 0,-6 -2,-5 -4,-5 -9,-3 -134,96 -222,218 -277,345 -5,-2 -9,-2 -14,-2 -2,0 -4,0 -4,0 -2,-43 0,-95 4,-145 5,-43 12,-84 23,-118 0,0 0,0 0,0l0 0zm-70 854c-84,-103 -152,-182 -152,-389 0,-18 0,-34 2,-52 0,-9 0,-16 2,-23 21,16 68,50 118,82 0,2 -2,7 -2,9 0,16 11,27 23,32 -3,16 -3,32 -5,48 -41,0 -73,31 -73,72 0,39 30,71 69,73 2,54 9,104 18,148l0 0zm-148 -475c2,-7 5,-16 5,-25 4,-27 11,-48 18,-70 29,20 63,36 100,47 0,0 0,3 0,3 0,27 16,52 41,63 -5,18 -9,34 -14,52 0,0 0,0 0,0 -11,0 -20,5 -27,14 -55,-36 -107,-70 -123,-84l0 0zm27 -107c0,-4 3,-7 3,-11 11,-55 90,-184 150,-227 6,-7 15,-16 24,-23 -9,32 -15,68 -20,105 -4,52 -4,104 -4,149 -28,5 -48,25 -55,53 -36,-12 -70,-28 -98,-46l0 0 0 0zm679 107c12,11 18,25 18,41 0,20 -11,38 -27,47 23,60 50,112 82,157 57,0 118,-2 179,-11 0,0 -2,-2 -2,-5 0,-27 23,-47 50,-47 0,0 0,0 0,0 -4,-64 -14,-146 -29,-223 -10,-45 -21,-91 -32,-132 -7,3 -12,5 -18,5 -14,0 -25,-5 -32,-14 -64,37 -130,100 -189,182l0 0zm-202 477c12,-64 25,-125 46,-182 -23,-9 -39,-29 -41,-54 -102,-16 -186,-41 -239,-68 -2,2 -4,4 -6,4 27,70 70,145 124,216 25,34 50,66 80,95 9,-7 20,-11 34,-11 0,0 0,0 2,0l0 0zm93 -304c14,-32 28,-60 43,-87 -13,-9 -22,-27 -22,-45 0,-25 16,-46 38,-50 -2,-5 -2,-7 -2,-11 -4,-23 -9,-46 -11,-71 -7,0 -12,-2 -16,-4 -61,29 -127,50 -193,61 -57,9 -116,14 -170,9 -7,23 -23,39 -44,45 0,25 7,53 16,84 3,-2 7,-2 12,-2 20,0 38,18 38,39 0,9 -2,16 -7,20 50,27 132,50 230,66 4,-32 32,-59 68,-59 7,0 14,2 20,5l0 0zm53 -82c-16,27 -30,54 -44,84 21,11 37,34 37,59 0,2 0,7 0,9 38,2 79,2 120,2 -29,-43 -57,-95 -77,-152 -5,2 -9,2 -16,2 -7,0 -14,-2 -20,-4l0 0zm-91 209c-18,54 -34,115 -46,179 25,5 41,25 41,52 0,9 -2,18 -7,25 37,25 75,48 116,62 5,-5 12,-10 21,-10 20,-61 65,-122 118,-172 18,-18 38,-34 56,-50 -2,-2 -2,-5 -2,-9 0,-7 2,-11 5,-16 -30,-25 -62,-61 -89,-102 -45,0 -91,0 -134,-5 -7,28 -32,48 -61,48 -7,0 -14,-2 -18,-2zm345 54c25,-18 50,-32 70,-38 0,-16 14,-28 30,-28 0,0 2,0 2,0 0,-4 0,-6 0,-11 0,0 0,2 0,2 -20,0 -39,-13 -45,-32 -59,7 -118,12 -175,12 27,38 57,70 86,93 2,-2 9,-5 14,-5 7,0 11,3 18,7zm-677 -245c-9,-32 -16,-61 -16,-84 -7,0 -11,2 -16,2 -6,0 -13,-2 -20,-4 -5,18 -9,34 -11,50 11,4 20,15 20,29 0,5 -2,11 -4,14 11,7 20,11 29,16 2,-9 9,-19 18,-23z"/>
  </g>
 </g>
</svg>
