<svg width="218" height="53" viewBox="0 0 218 53" fill="none" xmlns="http://www.w3.org/2000/svg">
<path d="M52.3727 0.706351C51.4293 -0.23545 49.9055 -0.23545 48.9621 0.706351C48.0188 1.64815 48.0188 3.16952 48.9621 4.11133C49.9055 5.05313 51.4293 5.05313 52.3727 4.11133C53.316 3.16952 53.316 1.64815 52.3727 0.706351Z" fill="#FF5933"/>
<path d="M14.5659 41.711L41.85 14.5436C41.3421 13.8916 40.8341 13.3121 40.2536 12.66C39.6731 12.0805 39.0926 11.5733 38.5121 11.1387L11.1554 38.3785C10.212 39.3203 10.212 40.8417 11.1554 41.7835C12.0987 42.6528 13.6226 42.6528 14.5659 41.711Z" fill="#FF5933"/>
<path d="M47.2937 9.18233C48.2371 8.24052 48.2371 6.71915 47.2937 5.77735C46.3504 4.83555 44.8266 4.83555 43.8832 5.77735L41.416 8.24052C32.3455 0.851001 18.9211 1.43057 10.5037 9.83434C4.19058 16.1372 2.30391 25.1205 4.7711 33.0172L0.707501 37.0742C-0.235834 38.016 -0.235834 39.5373 0.707501 40.4791C1.65084 41.4209 3.17469 41.4209 4.11802 40.4791L23.8555 20.7737C24.7988 19.8319 24.7988 18.3106 23.8555 17.3688C22.9122 16.427 21.3883 16.427 20.445 17.3688L9.8506 27.8735C8.76213 22.0053 10.5037 15.7749 15.0752 11.2108C22.4768 3.89375 34.4499 3.89375 41.7789 11.2108C49.1804 18.5279 49.1804 30.4815 41.7789 37.7986C37.9329 41.6383 32.7809 43.4494 27.7014 43.3045L22.2591 48.738C29.5881 50.1869 37.4976 48.086 43.1576 42.4352C51.6476 34.0314 52.1555 20.7013 44.754 11.6455L47.2937 9.18233Z" fill="#FF5933"/>
<path d="M29.153 35.5532C28.2097 34.6114 26.6858 34.6114 25.7425 35.5532L12.4632 48.8108C11.5199 49.7526 11.5199 51.274 12.4632 52.2158C13.4066 53.1576 14.9304 53.1576 15.8738 52.2158L29.153 39.0306C30.0963 38.0163 30.0963 36.495 29.153 35.5532Z" fill="#FF5933"/>
<path d="M30.8236 30.4817C29.8803 31.4235 29.8803 32.9449 30.8236 33.8867C31.7669 34.8285 33.2908 34.8285 34.2341 33.8867C35.1774 32.9449 35.1774 31.4235 34.2341 30.4817C33.2908 29.5399 31.7669 29.5399 30.8236 30.4817Z" fill="#FF5933"/>
<path d="M28.9331 15.6302C29.8764 14.6884 29.8764 13.1671 28.9331 12.2253C27.9898 11.2835 26.4659 11.2835 25.5226 12.2253C24.5792 13.1671 24.5792 14.6884 25.5226 15.6302C26.4659 16.572 27.9898 16.572 28.9331 15.6302Z" fill="#FF5933"/>
<path d="M98.7398 20.0496L103.602 15.1957C104.545 14.2539 104.545 12.7325 103.602 11.7907C103.094 11.2836 102.441 11.0663 101.86 11.0663C101.425 11.0663 100.989 11.1387 100.626 11.4285L100.481 11.5734C100.409 11.6459 100.336 11.6459 100.264 11.7183L98.9575 13.0223L98.8124 13.1672L88.9436 22.875C87.9277 24.0342 87.3472 25.0484 86.8393 26.1351C86.3313 27.2943 85.9685 28.5983 85.9685 29.9748C85.9685 30.1197 85.9685 30.1921 85.9685 30.337C85.9685 30.4819 85.9685 30.5543 85.9685 30.6992C85.9685 36.7123 90.9029 41.6386 96.9257 41.6386C102.949 41.6386 107.883 36.7847 107.883 30.6992C107.81 25.4107 103.892 20.9914 98.7398 20.0496ZM96.8531 36.9296C93.4426 36.9296 90.6852 34.1767 90.6852 30.7717C90.6852 27.3667 93.4426 24.6137 96.8531 24.6137C100.264 24.6137 103.021 27.3667 103.021 30.7717C103.021 34.1767 100.264 36.9296 96.8531 36.9296Z" fill="#303039"/>
<path d="M123.993 11.1388C115.503 11.1388 109.408 17.9487 109.408 26.425C109.408 34.8287 115.503 41.7111 123.993 41.7111C132.484 41.7111 138.579 34.9012 138.579 26.425C138.579 17.9487 132.484 11.1388 123.993 11.1388ZM123.993 36.8572C118.188 36.8572 114.197 32.1482 114.197 26.3525C114.197 20.5568 118.188 15.8478 123.993 15.8478C129.799 15.8478 133.79 20.5568 133.79 26.3525C133.79 32.2207 129.799 36.8572 123.993 36.8572Z" fill="#303039"/>
<path d="M154.76 11.1388C146.27 11.1388 140.175 17.9487 140.175 26.425C140.175 34.8287 146.27 41.7111 154.76 41.7111C163.25 41.7111 169.346 34.9012 169.346 26.425C169.346 17.9487 163.25 11.1388 154.76 11.1388ZM154.76 36.8572C148.955 36.8572 144.964 32.1482 144.964 26.3525C144.964 20.5568 148.955 15.8478 154.76 15.8478C160.565 15.8478 164.557 20.5568 164.557 26.3525C164.557 32.2207 160.565 36.8572 154.76 36.8572Z" fill="#303039"/>
<path d="M66.0865 39.9007C66.3767 40.6976 67.1024 41.6394 68.4811 41.6394H82.3409C83.647 41.6394 84.7355 40.5527 84.7355 39.2487C84.7355 37.9447 83.647 36.858 82.3409 36.858H70.2226C69.7147 32.5112 72.9801 30.048 75.7375 29.8307L76.826 29.6858C81.3975 29.0338 84.808 25.1941 84.808 20.4851C84.808 15.3414 80.5993 11.1395 75.4473 11.1395C71.0934 11.1395 67.4652 14.1098 66.3767 18.0944V18.1668C66.3042 18.3117 66.3042 18.529 66.3042 18.7464C66.3042 20.0504 67.3926 21.1371 68.6988 21.1371C69.8598 21.1371 70.8031 20.3402 71.0208 19.326V19.2535C71.6014 17.3699 73.3429 15.9934 75.4473 15.9934C77.987 15.9934 80.0188 18.0219 80.0188 20.5575C80.0188 22.8758 78.4224 24.7594 76.1729 25.0492L75.7375 25.1217C69.9324 25.4839 65.4334 30.4102 65.4334 35.6988C65.3608 35.5539 65.2157 37.7273 66.0865 39.9007Z" fill="#303039"/>
<path d="M190.966 11.2113C189.66 11.2113 188.571 12.298 188.571 13.602V20.3395H176.308V13.602C176.308 12.298 175.219 11.2113 173.913 11.2113C172.607 11.2113 171.519 12.298 171.519 13.602V39.3205C171.519 40.6245 172.607 41.7112 173.913 41.7112C175.219 41.7112 176.308 40.6245 176.308 39.3205V25.0485H188.571V39.248C188.571 40.552 189.66 41.6387 190.966 41.6387C192.272 41.6387 193.36 40.552 193.36 39.248V13.602C193.36 12.2256 192.344 11.2113 190.966 11.2113Z" fill="#303039"/>
<path d="M215.276 36.8572H204.101L216.727 24.324C217.67 23.3822 217.67 21.8608 216.727 20.919C216.292 20.4844 215.639 20.1946 215.058 20.1946H198.223C196.917 20.1946 195.829 21.2813 195.829 22.5853C195.829 23.8893 196.917 24.976 198.223 24.976H209.253L196.627 37.5092C195.683 38.451 195.683 39.9724 196.627 40.9142C196.99 41.2764 197.498 41.4938 198.006 41.5662C198.078 41.5662 198.151 41.5662 198.296 41.5662H215.276C216.582 41.5662 217.67 40.4795 217.67 39.1755C217.67 37.9439 216.582 36.8572 215.276 36.8572Z" fill="#303039"/>
</svg>
