<?xml version="1.0" encoding="utf-8"?>
<!-- Generator: Adobe Illustrator 22.1.0, SVG Export Plug-In . SVG Version: 6.00 Build 0)  -->
<svg version="1.1" id="Layer_1" xmlns="http://www.w3.org/2000/svg" xmlns:xlink="http://www.w3.org/1999/xlink" x="0px" y="0px"
	 viewBox="0 0 960 313.4" style="enable-background:new 0 0 960 313.4;" xml:space="preserve">
<style type="text/css">
	.st0{fill:#FFFFFF;}
</style>
<g>
	<g>
		<path class="st0" d="M285.7,297.4c-2.3,0-4.4-0.4-6.3-1.1c-1.9-0.8-3.5-1.9-4.9-3.4c-1.4-1.6-2.5-3.4-3.2-5.4c-0.7-2.1-1-4.4-1-7
			c0-5.2,1.4-9.4,4.2-12.4c1.4-1.6,3-2.7,4.9-3.5c1.9-0.7,4-1.1,6.3-1.1c1.8,0,3.5,0.2,5,0.7c1.5,0.4,2.9,1.1,4.2,2.1
			c1.4,1.1,2.5,2.3,3.2,3.6c0.7,1.3,1.1,2.9,1.3,4.6h-5.6c-0.1-1-0.4-1.9-0.8-2.6c-0.4-0.8-1-1.5-1.7-2c-0.7-0.5-1.5-1-2.5-1.3
			c-1-0.3-2-0.4-3.1-0.4c-1.5,0-2.8,0.3-4.1,0.8c-1.2,0.6-2.2,1.4-3.1,2.4c-0.8,1.1-1.5,2.3-2,3.9c-0.5,1.5-0.7,3.3-0.7,5.3
			c0,2,0.2,3.7,0.7,5.3c0.5,1.5,1.1,2.8,2,3.9c0.8,1.1,1.9,1.9,3.1,2.4c1.2,0.5,2.5,0.8,4,0.8c1.2,0,2.2-0.1,3.2-0.4
			c1-0.3,1.8-0.7,2.5-1.3c0.7-0.6,1.3-1.3,1.7-2.1c0.4-0.8,0.7-1.8,0.8-2.9h5.5c-0.3,3.6-1.7,6.5-4.2,8.5
			C292.7,296.4,289.5,297.4,285.7,297.4z"/>
		<path class="st0" d="M309.9,276.6c0.9-1.3,1.9-2.4,3-3.1c1.1-0.7,2.2-1,3.5-1c0.3,0,0.6,0,0.9,0c0.3,0,0.6,0.1,1,0.1v5
			c-0.4-0.1-0.8-0.1-1.2-0.2c-0.5,0-1-0.1-1.5-0.1c-1.1,0-2,0.3-3,0.8c-0.9,0.5-1.8,1.3-2.6,2.4v16.3h-5.3V273h5.2V276.6z"/>
		<path class="st0" d="M332,297.4c-1.9,0-3.6-0.3-5.1-0.9c-1.5-0.6-2.7-1.4-3.8-2.5c-1-1.1-1.8-2.4-2.3-3.9
			c-0.5-1.6-0.8-3.3-0.8-5.2c0-1.9,0.3-3.7,0.8-5.2c0.5-1.5,1.3-2.8,2.3-3.9s2.2-1.9,3.6-2.5c1.4-0.6,3-0.8,4.8-0.8
			c1.8,0,3.4,0.3,4.8,0.8c1.4,0.5,2.6,1.3,3.7,2.4c1,1.1,1.8,2.3,2.3,3.9c0.5,1.5,0.8,3.3,0.8,5.3v1.3h-17.6
			c0.1,1.3,0.3,2.4,0.6,3.4c0.4,0.9,0.8,1.7,1.4,2.3c0.6,0.6,1.2,1.1,2,1.4c0.8,0.3,1.6,0.4,2.5,0.4c0.7,0,1.3-0.1,1.9-0.2
			c0.6-0.1,1.2-0.4,1.6-0.7c0.5-0.3,0.9-0.7,1.2-1.2c0.3-0.5,0.5-1.1,0.6-1.8h5.2c-0.2,1.2-0.6,2.3-1.2,3.3c-0.6,1-1.4,1.8-2.3,2.4
			c-0.9,0.6-2,1.1-3.2,1.5C334.8,297.2,333.5,297.4,332,297.4z M337.8,282.5c-0.1-1.1-0.4-2.1-0.7-2.9c-0.3-0.8-0.8-1.5-1.3-2
			c-0.5-0.5-1.1-0.9-1.8-1.2c-0.7-0.3-1.4-0.4-2.2-0.4c-1.6,0-2.9,0.5-3.9,1.6c-1.1,1.1-1.7,2.7-2,4.9H337.8z"/>
		<path class="st0" d="M362.9,294.6c-2.1,1.9-4.9,2.8-8.2,2.8c-1.1,0-2.2-0.1-3.2-0.4c-1-0.3-1.9-0.7-2.6-1.3
			c-0.8-0.6-1.3-1.3-1.8-2.2c-0.4-0.9-0.7-1.9-0.7-3c0-2.8,1.2-4.9,3.6-6.2c2.4-1.4,6-2.1,10.8-2.1h2c0-0.7,0-1.3,0-1.9
			c0-0.5-0.1-1-0.2-1.3c-0.2-0.8-0.6-1.5-1.2-1.9c-0.8-0.7-2-1-3.8-1c-1.7,0-3,0.3-3.9,0.9c-0.9,0.6-1.4,1.6-1.4,2.8h-5.1
			c0.3-4.9,3.8-7.4,10.6-7.4c1.6,0,3,0.1,4.2,0.4c1.2,0.3,2.3,0.7,3.3,1.4c0.9,0.6,1.6,1.5,2.1,2.6c0.5,1.1,0.7,2.6,0.7,4.6v15.4
			h-5.3V294.6z M362.8,285.6h-2.6c-2.8,0-4.8,0.4-6.2,1.1s-2.1,1.9-2.1,3.5c0,1.1,0.4,2,1.2,2.6c0.8,0.6,1.9,0.9,3.3,0.9
			c0.6,0,1.3-0.1,1.9-0.2c0.6-0.1,1.2-0.4,1.8-0.6c0.5-0.3,1.1-0.6,1.5-1c0.5-0.4,0.9-0.8,1.2-1.3V285.6z"/>
		<path class="st0" d="M382.5,293.2c0.3,0,0.7,0,1,0c0.3,0,0.7-0.1,1-0.2v3.8c-0.5,0.1-1,0.2-1.5,0.3c-0.5,0-1.1,0.1-1.7,0.1
			c-1.3,0-2.4-0.1-3.2-0.4c-0.8-0.3-1.5-0.7-2-1.3c-0.5-0.6-0.8-1.3-1-2.2c-0.2-0.9-0.3-1.9-0.3-3.1V277h-3v-4h3v-5.9h5.3v5.9h3.9v4
			h-3.9v12.5c0,0.8,0.1,1.4,0.2,1.9c0.1,0.5,0.3,0.9,0.4,1.1c0.2,0.3,0.4,0.4,0.7,0.5C381.8,293.2,382.1,293.2,382.5,293.2z"/>
		<path class="st0" d="M393.3,268.8h-5.3v-5h5.3V268.8z M393.3,296.9h-5.3V273h5.3V296.9z"/>
		<path class="st0" d="M419.5,273l-8.7,23.8h-5.1l-8.9-23.8h5.6l3.5,10.9l2.3,7.1l2.3-7.1l3.5-10.9H419.5z"/>
		<path class="st0" d="M433.5,297.4c-1.9,0-3.6-0.3-5.1-0.9c-1.5-0.6-2.7-1.4-3.8-2.5c-1-1.1-1.8-2.4-2.3-3.9
			c-0.5-1.6-0.8-3.3-0.8-5.2c0-1.9,0.3-3.7,0.8-5.2c0.5-1.5,1.3-2.8,2.3-3.9s2.2-1.9,3.6-2.5c1.4-0.6,3-0.8,4.8-0.8
			c1.8,0,3.4,0.3,4.8,0.8c1.4,0.5,2.6,1.3,3.7,2.4c1,1.1,1.8,2.3,2.3,3.9c0.5,1.5,0.8,3.3,0.8,5.3v1.3h-17.6
			c0.1,1.3,0.3,2.4,0.6,3.4c0.4,0.9,0.8,1.7,1.4,2.3c0.6,0.6,1.2,1.1,2,1.4c0.8,0.3,1.6,0.4,2.5,0.4c0.7,0,1.3-0.1,1.9-0.2
			c0.6-0.1,1.2-0.4,1.6-0.7c0.5-0.3,0.9-0.7,1.2-1.2c0.3-0.5,0.5-1.1,0.6-1.8h5.2c-0.2,1.2-0.6,2.3-1.2,3.3c-0.6,1-1.4,1.8-2.3,2.4
			c-0.9,0.6-2,1.1-3.2,1.5C436.3,297.2,435,297.4,433.5,297.4z M439.3,282.5c-0.1-1.1-0.4-2.1-0.7-2.9c-0.3-0.8-0.8-1.5-1.3-2
			c-0.5-0.5-1.1-0.9-1.8-1.2c-0.7-0.3-1.4-0.4-2.2-0.4c-1.6,0-2.9,0.5-3.9,1.6c-1.1,1.1-1.7,2.7-2,4.9H439.3z"/>
		<path class="st0" d="M481.6,297.4c-2.3,0-4.3-0.3-6-0.8c-1.7-0.5-3.2-1.3-4.4-2.2c-1.2-1-2.1-2.2-2.7-3.5c-0.6-1.4-1-3-1.1-4.7
			h5.2c0.1,1.1,0.4,2.1,0.9,2.9c0.5,0.8,1.1,1.5,1.9,2.1c0.8,0.6,1.7,1,2.7,1.3c1,0.3,2.1,0.4,3.3,0.4c1.1,0,2.1-0.1,3.1-0.4
			c0.9-0.2,1.7-0.6,2.4-1c0.7-0.4,1.2-1,1.6-1.6c0.4-0.6,0.6-1.3,0.6-2.1c0-0.8-0.2-1.5-0.6-2.1c-0.4-0.6-1-1.1-1.8-1.5
			c-0.8-0.4-1.9-0.8-3.2-1.1c-1.3-0.4-2.9-0.7-4.7-1.1c-1.7-0.4-3.2-0.8-4.5-1.4c-1.3-0.5-2.3-1.2-3.2-1.9c-0.8-0.7-1.5-1.6-1.9-2.6
			c-0.4-1-0.6-2.1-0.6-3.3c0-1.4,0.3-2.6,0.9-3.8c0.6-1.2,1.4-2.1,2.5-2.9c1.1-0.8,2.4-1.4,3.9-1.9c1.5-0.5,3.2-0.7,5-0.7
			c1.9,0,3.6,0.2,5.2,0.7c1.6,0.4,2.9,1.1,4,2c1.1,0.9,2,1.9,2.6,3.2c0.6,1.2,1,2.7,1,4.3h-5.3c-0.4-3.6-2.9-5.4-7.4-5.4
			c-1.1,0-2.1,0.1-2.9,0.3c-0.9,0.2-1.6,0.5-2.2,0.9c-0.6,0.4-1.1,0.9-1.4,1.4c-0.3,0.6-0.5,1.2-0.5,1.8c0,0.5,0.1,1,0.4,1.5
			c0.3,0.4,0.7,0.8,1.2,1.2c0.6,0.4,1.3,0.7,2.2,1c0.9,0.3,2.1,0.6,3.4,0.9c1.2,0.3,2.3,0.6,3.5,0.8c1.1,0.3,2.2,0.6,3.2,0.9
			s1.9,0.8,2.7,1.2s1.5,1,2.1,1.7c0.6,0.7,1.1,1.4,1.4,2.3c0.3,0.9,0.5,1.9,0.5,3.1c0,1.5-0.3,2.9-1,4.1c-0.6,1.2-1.5,2.3-2.7,3.2
			c-1.1,0.9-2.5,1.6-4.1,2C485.2,297.2,483.5,297.4,481.6,297.4z"/>
		<path class="st0" d="M509.9,272.5c1.8,0,3.4,0.3,4.8,0.8c1.4,0.5,2.7,1.3,3.7,2.4c1,1.1,1.8,2.4,2.3,3.9c0.5,1.5,0.8,3.3,0.8,5.3
			c0,2-0.3,3.8-0.8,5.3c-0.6,1.6-1.3,2.9-2.3,3.9c-1,1.1-2.2,1.9-3.7,2.4c-1.4,0.6-3,0.8-4.8,0.8c-1.7,0-3.3-0.3-4.8-0.8
			c-1.4-0.5-2.7-1.4-3.7-2.4c-1-1.1-1.8-2.4-2.3-3.9c-0.5-1.6-0.8-3.3-0.8-5.3c0-2,0.3-3.8,0.8-5.3c0.6-1.5,1.3-2.8,2.3-3.9
			c1-1.1,2.2-1.9,3.7-2.4C506.5,272.8,508.1,272.5,509.9,272.5z M509.9,293.4c0.9,0,1.8-0.2,2.5-0.5c0.8-0.4,1.4-0.9,1.9-1.6
			c0.5-0.7,0.9-1.6,1.2-2.7c0.3-1.1,0.4-2.3,0.4-3.7c0-1.4-0.1-2.6-0.4-3.7c-0.3-1.1-0.7-1.9-1.2-2.6c-0.5-0.7-1.2-1.2-1.9-1.6
			c-0.8-0.4-1.6-0.5-2.5-0.5c-0.9,0-1.8,0.2-2.5,0.5c-0.8,0.4-1.4,0.9-1.9,1.6c-0.5,0.7-0.9,1.6-1.2,2.6c-0.3,1.1-0.4,2.3-0.4,3.7
			c0,1.4,0.1,2.7,0.4,3.7c0.3,1.1,0.7,1.9,1.2,2.7c0.5,0.7,1.2,1.2,1.9,1.6S509,293.4,509.9,293.4z"/>
		<path class="st0" d="M532.2,277v19.8h-5.3V277h-3.5v-4h3.5v-1.9c0-2.7,0.6-4.6,1.8-5.9c1.2-1.3,3-1.9,5.4-1.9c0.7,0,1.4,0,2,0.1
			s1.1,0.1,1.6,0.2v4.2c-0.4,0-0.8-0.1-1.3-0.1c-0.4,0-0.9-0.1-1.4-0.1c-1,0-1.7,0.3-2.1,0.8c-0.5,0.6-0.7,1.5-0.7,2.8v1.8h4.4v4
			H532.2z"/>
		<path class="st0" d="M548.1,293.2c0.3,0,0.7,0,1,0c0.3,0,0.7-0.1,1-0.2v3.8c-0.5,0.1-1,0.2-1.5,0.3c-0.5,0-1.1,0.1-1.7,0.1
			c-1.3,0-2.4-0.1-3.2-0.4c-0.8-0.3-1.5-0.7-2-1.3c-0.5-0.6-0.8-1.3-1-2.2c-0.2-0.9-0.3-1.9-0.3-3.1V277h-3v-4h3v-5.9h5.3v5.9h3.9v4
			h-3.9v12.5c0,0.8,0.1,1.4,0.2,1.9c0.1,0.5,0.3,0.9,0.4,1.1c0.2,0.3,0.4,0.4,0.7,0.5C547.4,293.2,547.7,293.2,548.1,293.2z"/>
		<path class="st0" d="M575,290.7l1.7-7.2l2.6-10.5h5.4l-7.1,23.8h-5.2l-4.7-17l-4.8,17h-5.1l-7.1-23.8h5.3l2.5,10.3l1.7,7.4l5-17.7
			h4.7L575,290.7z"/>
		<path class="st0" d="M603,294.6c-2.1,1.9-4.9,2.8-8.2,2.8c-1.1,0-2.2-0.1-3.2-0.4c-1-0.3-1.9-0.7-2.6-1.3
			c-0.8-0.6-1.3-1.3-1.8-2.2s-0.7-1.9-0.7-3c0-2.8,1.2-4.9,3.6-6.2c2.4-1.4,6-2.1,10.8-2.1h2c0-0.7,0-1.3,0-1.9c0-0.5-0.1-1-0.2-1.3
			c-0.2-0.8-0.6-1.5-1.2-1.9c-0.8-0.7-2-1-3.8-1c-1.7,0-3,0.3-3.9,0.9c-0.9,0.6-1.4,1.6-1.4,2.8h-5.1c0.3-4.9,3.8-7.4,10.6-7.4
			c1.6,0,3,0.1,4.2,0.4c1.2,0.3,2.3,0.7,3.3,1.4c0.9,0.6,1.6,1.5,2.1,2.6c0.5,1.1,0.7,2.6,0.7,4.6v15.4H603V294.6z M603,285.6h-2.6
			c-2.8,0-4.8,0.4-6.2,1.1s-2.1,1.9-2.1,3.5c0,1.1,0.4,2,1.2,2.6c0.8,0.6,1.9,0.9,3.3,0.9c0.6,0,1.3-0.1,1.9-0.2
			c0.6-0.1,1.2-0.4,1.8-0.6c0.5-0.3,1.1-0.6,1.5-1c0.5-0.4,0.9-0.8,1.2-1.3V285.6z"/>
		<path class="st0" d="M619.6,276.6c0.9-1.3,1.9-2.4,3-3.1c1.1-0.7,2.2-1,3.5-1c0.3,0,0.6,0,0.9,0c0.3,0,0.6,0.1,1,0.1v5
			c-0.4-0.1-0.8-0.1-1.2-0.2c-0.5,0-1-0.1-1.5-0.1c-1.1,0-2,0.3-3,0.8c-0.9,0.5-1.8,1.3-2.6,2.4v16.3h-5.3V273h5.2V276.6z"/>
		<path class="st0" d="M641.7,297.4c-1.9,0-3.6-0.3-5.1-0.9c-1.5-0.6-2.7-1.4-3.8-2.5c-1-1.1-1.8-2.4-2.3-3.9
			c-0.5-1.6-0.8-3.3-0.8-5.2c0-1.9,0.3-3.7,0.8-5.2c0.5-1.5,1.3-2.8,2.3-3.9s2.2-1.9,3.6-2.5c1.4-0.6,3-0.8,4.8-0.8
			c1.8,0,3.4,0.3,4.8,0.8c1.4,0.5,2.6,1.3,3.7,2.4c1,1.1,1.8,2.3,2.3,3.9c0.5,1.5,0.8,3.3,0.8,5.3v1.3h-17.6
			c0.1,1.3,0.3,2.4,0.6,3.4c0.4,0.9,0.8,1.7,1.4,2.3c0.6,0.6,1.2,1.1,2,1.4c0.8,0.3,1.6,0.4,2.5,0.4c0.7,0,1.3-0.1,1.9-0.2
			c0.6-0.1,1.2-0.4,1.6-0.7c0.5-0.3,0.9-0.7,1.2-1.2c0.3-0.5,0.5-1.1,0.6-1.8h5.2c-0.2,1.2-0.6,2.3-1.2,3.3c-0.6,1-1.4,1.8-2.3,2.4
			c-0.9,0.6-2,1.1-3.2,1.5C644.5,297.2,643.1,297.4,641.7,297.4z M647.5,282.5c-0.1-1.1-0.4-2.1-0.7-2.9c-0.3-0.8-0.8-1.5-1.3-2
			c-0.5-0.5-1.1-0.9-1.8-1.2c-0.7-0.3-1.4-0.4-2.2-0.4c-1.6,0-2.9,0.5-3.9,1.6c-1.1,1.1-1.7,2.7-2,4.9H647.5z"/>
		<path class="st0" d="M677.3,263.9H688c5.6,0,9.9,1.3,12.7,4c2.8,2.7,4.3,6.8,4.3,12.2c0,11.1-5.7,16.7-17,16.7h-10.7V263.9z
			 M682.8,292.1h5.1c4.4,0,7.4-1,9-3.1c0.8-1.1,1.4-2.3,1.8-3.8c0.4-1.5,0.6-3.1,0.6-5c0-1.8-0.2-3.5-0.6-4.9
			c-0.4-1.4-1-2.6-1.8-3.6c-1.6-2-4.6-3-9-3h-5.1V292.1z"/>
		<path class="st0" d="M720.8,297.4c-1.9,0-3.6-0.3-5.1-0.9c-1.5-0.6-2.7-1.4-3.8-2.5c-1-1.1-1.8-2.4-2.3-3.9
			c-0.5-1.6-0.8-3.3-0.8-5.2c0-1.9,0.3-3.7,0.8-5.2c0.5-1.5,1.3-2.8,2.3-3.9s2.2-1.9,3.6-2.5c1.4-0.6,3-0.8,4.8-0.8
			c1.8,0,3.4,0.3,4.8,0.8c1.4,0.5,2.6,1.3,3.7,2.4c1,1.1,1.8,2.3,2.3,3.9c0.5,1.5,0.8,3.3,0.8,5.3v1.3h-17.6
			c0.1,1.3,0.3,2.4,0.6,3.4c0.4,0.9,0.8,1.7,1.4,2.3c0.6,0.6,1.2,1.1,2,1.4c0.8,0.3,1.6,0.4,2.5,0.4c0.7,0,1.3-0.1,1.9-0.2
			c0.6-0.1,1.2-0.4,1.6-0.7c0.5-0.3,0.9-0.7,1.2-1.2c0.3-0.5,0.5-1.1,0.6-1.8h5.2c-0.2,1.2-0.6,2.3-1.2,3.3c-0.6,1-1.4,1.8-2.3,2.4
			c-0.9,0.6-2,1.1-3.2,1.5C723.6,297.2,722.3,297.4,720.8,297.4z M726.6,282.5c-0.1-1.1-0.4-2.1-0.7-2.9c-0.3-0.8-0.8-1.5-1.3-2
			c-0.5-0.5-1.1-0.9-1.8-1.2c-0.7-0.3-1.4-0.4-2.2-0.4c-1.6,0-2.9,0.5-3.9,1.6c-1.1,1.1-1.7,2.7-2,4.9H726.6z"/>
		<path class="st0" d="M756.8,273l-8.7,23.8h-5.1L734,273h5.6l3.5,10.9l2.3,7.1l2.3-7.1l3.5-10.9H756.8z"/>
		<path class="st0" d="M770.8,297.4c-1.9,0-3.6-0.3-5.1-0.9c-1.5-0.6-2.7-1.4-3.8-2.5c-1-1.1-1.8-2.4-2.3-3.9
			c-0.5-1.6-0.8-3.3-0.8-5.2c0-1.9,0.3-3.7,0.8-5.2c0.5-1.5,1.3-2.8,2.3-3.9c1-1.1,2.2-1.9,3.6-2.5c1.4-0.6,3-0.8,4.8-0.8
			c1.8,0,3.4,0.3,4.8,0.8c1.4,0.5,2.6,1.3,3.7,2.4c1,1.1,1.8,2.3,2.3,3.9c0.5,1.5,0.8,3.3,0.8,5.3v1.3h-17.6
			c0.1,1.3,0.3,2.4,0.6,3.4c0.4,0.9,0.8,1.7,1.4,2.3c0.6,0.6,1.2,1.1,2,1.4c0.8,0.3,1.6,0.4,2.5,0.4c0.7,0,1.3-0.1,1.9-0.2
			c0.6-0.1,1.2-0.4,1.6-0.7c0.5-0.3,0.9-0.7,1.2-1.2c0.3-0.5,0.5-1.1,0.6-1.8h5.2c-0.2,1.2-0.6,2.3-1.2,3.3c-0.6,1-1.4,1.8-2.3,2.4
			c-0.9,0.6-2,1.1-3.2,1.5C773.6,297.2,772.3,297.4,770.8,297.4z M776.6,282.5c-0.1-1.1-0.4-2.1-0.7-2.9c-0.3-0.8-0.8-1.5-1.3-2
			c-0.5-0.5-1.1-0.9-1.8-1.2c-0.7-0.3-1.4-0.4-2.2-0.4c-1.6,0-2.9,0.5-3.9,1.6c-1.1,1.1-1.7,2.7-2,4.9H776.6z"/>
		<path class="st0" d="M792,296.9h-5.3v-32.9h5.3V296.9z"/>
		<path class="st0" d="M808.2,272.5c1.8,0,3.4,0.3,4.8,0.8c1.4,0.5,2.7,1.3,3.7,2.4c1,1.1,1.8,2.4,2.3,3.9c0.5,1.5,0.8,3.3,0.8,5.3
			c0,2-0.3,3.8-0.8,5.3c-0.6,1.6-1.3,2.9-2.3,3.9c-1,1.1-2.2,1.9-3.7,2.4c-1.4,0.6-3,0.8-4.8,0.8c-1.7,0-3.3-0.3-4.8-0.8
			c-1.4-0.5-2.7-1.4-3.7-2.4c-1-1.1-1.8-2.4-2.3-3.9c-0.5-1.6-0.8-3.3-0.8-5.3c0-2,0.3-3.8,0.8-5.3c0.6-1.5,1.3-2.8,2.3-3.9
			c1-1.1,2.2-1.9,3.7-2.4C804.8,272.8,806.4,272.5,808.2,272.5z M808.2,293.4c0.9,0,1.8-0.2,2.5-0.5c0.8-0.4,1.4-0.9,1.9-1.6
			c0.5-0.7,0.9-1.6,1.2-2.7c0.3-1.1,0.4-2.3,0.4-3.7c0-1.4-0.1-2.6-0.4-3.7c-0.3-1.1-0.7-1.9-1.2-2.6c-0.5-0.7-1.2-1.2-1.9-1.6
			c-0.8-0.4-1.6-0.5-2.5-0.5c-0.9,0-1.8,0.2-2.5,0.5c-0.8,0.4-1.4,0.9-1.9,1.6c-0.5,0.7-0.9,1.6-1.2,2.6c-0.3,1.1-0.4,2.3-0.4,3.7
			c0,1.4,0.1,2.7,0.4,3.7c0.3,1.1,0.7,1.9,1.2,2.7c0.5,0.7,1.2,1.2,1.9,1.6S807.3,293.4,808.2,293.4z"/>
		<path class="st0" d="M829.6,275.9c1-1.1,2-1.9,3.2-2.5c1.2-0.6,2.4-0.9,3.8-0.9c1.5,0,2.9,0.3,4.1,0.9c1.2,0.6,2.2,1.4,3,2.5
			s1.4,2.4,1.9,3.9c0.4,1.5,0.6,3.2,0.6,5c0,1.8-0.2,3.4-0.6,5c-0.4,1.5-1.1,2.9-1.9,4c-0.8,1.1-1.9,2-3.1,2.7c-1.3,0.6-2.7,1-4.4,1
			c-1.3,0-2.5-0.2-3.6-0.6c-1.1-0.4-2-1-2.9-1.8c0,0.8,0,1.5,0,2.1c0,0.7,0,1.3,0,2v6.8h-5.3v-33h5.2V275.9z M829.7,290.9
			c0.8,0.8,1.7,1.4,2.6,1.9c0.9,0.4,1.9,0.6,3,0.6c1.7,0,3.1-0.7,4-2.1c1-1.4,1.4-3.6,1.4-6.5c0-2.8-0.4-4.8-1.4-6.2
			c-0.9-1.4-2.2-2.1-3.9-2.1c-1.1,0-2.1,0.3-3.1,1s-1.9,1.6-2.8,2.8V290.9z"/>
		<path class="st0" d="M870.5,296.9h-5.3v-15.2c0-1-0.1-1.7-0.2-2.4c-0.1-0.6-0.3-1.1-0.6-1.5c-0.3-0.4-0.6-0.6-1-0.8
			c-0.4-0.1-0.9-0.2-1.5-0.2c-1,0-1.9,0.3-2.8,0.8c-0.9,0.5-1.8,1.4-2.7,2.6v16.7h-5.3V273h5.2v3c2.1-2.4,4.3-3.6,6.9-3.6
			c3.5,0,5.8,1.4,6.7,4.3c0.5-0.6,1.1-1.2,1.6-1.7c0.6-0.5,1.1-1,1.7-1.4c0.6-0.4,1.2-0.7,1.9-0.9c0.7-0.2,1.4-0.3,2.2-0.3
			c5,0,7.5,2.9,7.5,8.8v15.6h-5.3v-15.2c0-1-0.1-1.7-0.2-2.4c-0.1-0.6-0.3-1.1-0.6-1.5c-0.3-0.4-0.6-0.6-1-0.8
			c-0.4-0.1-0.9-0.2-1.5-0.2c-1,0-1.9,0.3-2.8,0.8c-0.9,0.5-1.8,1.4-2.7,2.6V296.9z"/>
		<path class="st0" d="M901.2,297.4c-1.9,0-3.6-0.3-5.1-0.9c-1.5-0.6-2.7-1.4-3.8-2.5c-1-1.1-1.8-2.4-2.3-3.9
			c-0.5-1.6-0.8-3.3-0.8-5.2c0-1.9,0.3-3.7,0.8-5.2c0.5-1.5,1.3-2.8,2.3-3.9s2.2-1.9,3.6-2.5c1.4-0.6,3-0.8,4.8-0.8
			c1.8,0,3.4,0.3,4.8,0.8c1.4,0.5,2.6,1.3,3.7,2.4c1,1.1,1.8,2.3,2.3,3.9c0.5,1.5,0.8,3.3,0.8,5.3v1.3h-17.6
			c0.1,1.3,0.3,2.4,0.6,3.4c0.4,0.9,0.8,1.7,1.4,2.3c0.6,0.6,1.2,1.1,2,1.4c0.8,0.3,1.6,0.4,2.5,0.4c0.7,0,1.3-0.1,1.9-0.2
			c0.6-0.1,1.2-0.4,1.6-0.7c0.5-0.3,0.9-0.7,1.2-1.2c0.3-0.5,0.5-1.1,0.6-1.8h5.2c-0.2,1.2-0.6,2.3-1.2,3.3c-0.6,1-1.4,1.8-2.3,2.4
			c-0.9,0.6-2,1.1-3.2,1.5C903.9,297.2,902.6,297.4,901.2,297.4z M906.9,282.5c-0.1-1.1-0.4-2.1-0.7-2.9c-0.3-0.8-0.8-1.5-1.3-2
			c-0.5-0.5-1.1-0.9-1.8-1.2c-0.7-0.3-1.4-0.4-2.2-0.4c-1.6,0-2.9,0.5-3.9,1.6c-1.1,1.1-1.7,2.7-2,4.9H906.9z"/>
		<path class="st0" d="M922.2,276.1c2.2-2.4,4.6-3.6,7.3-3.6c5.4,0,8.1,2.9,8.1,8.8v15.6h-5.3v-15.2c0-1.8-0.3-3-0.9-3.8
			c-0.6-0.8-1.6-1.2-3-1.2c-1,0-2,0.3-3,0.9s-2,1.5-3,2.6v16.7H917V273h5.2V276.1z"/>
		<path class="st0" d="M951.8,293.2c0.3,0,0.7,0,1,0c0.3,0,0.7-0.1,1-0.2v3.8c-0.5,0.1-1,0.2-1.5,0.3c-0.5,0-1.1,0.1-1.7,0.1
			c-1.3,0-2.4-0.1-3.2-0.4c-0.8-0.3-1.5-0.7-2-1.3c-0.5-0.6-0.8-1.3-1-2.2c-0.2-0.9-0.3-1.9-0.3-3.1V277h-3v-4h3v-5.9h5.3v5.9h3.9v4
			h-3.9v12.5c0,0.8,0.1,1.4,0.2,1.9c0.1,0.5,0.3,0.9,0.4,1.1c0.2,0.3,0.4,0.4,0.7,0.5C951.2,293.2,951.5,293.2,951.8,293.2z"/>
	</g>
	<g>
		<g>
			<path id="path14_1_" class="st0" d="M81.6,73.7c1,0,72.3,0,73.4,0c-0.5-0.9-36.1-72.2-36.7-73.4C117.7,1.5,82.1,72.8,81.6,73.7"
				/>
			<path id="path16_1_" class="st0" d="M162.3,235.1c1,0,72.3,0,73.4,0c-0.5-0.9-36.1-72.3-36.7-73.4
				C198.4,162.8,162.8,234.2,162.3,235.1"/>
			<path id="path18_1_" class="st0" d="M122,158.9c0.5,0.9,36.1,72.3,36.7,73.4c0.6-1.1,36.2-72.5,36.7-73.4
				C194.3,158.9,123,158.9,122,158.9"/>
			<path id="path20_1_" class="st0" d="M81.6,235.1c1,0,72.4,0,73.4,0c-0.5-0.9-36.1-72.3-36.7-73.4
				C117.8,162.7,82.1,234.2,81.6,235.1"/>
			<path id="path22_1_" class="st0" d="M1,235.1c1,0,72.3,0,73.4,0c-0.5-0.9-36.1-72.3-36.7-73.4C37.1,162.7,1.4,234.2,1,235.1"/>
			<path id="path24_1_" class="st0" d="M41.3,158.9c0.5,0.9,36.1,72.3,36.7,73.4c0.6-1.1,36.2-72.5,36.7-73.4
				C113.6,158.9,42.3,158.9,41.3,158.9"/>
			<path id="path26_1_" class="st0" d="M122,154.3c1,0,72.3,0,73.4,0c-0.5-0.9-36.1-72.3-36.7-73.4
				C158.1,82.1,122.4,153.4,122,154.3"/>
			<path id="path28_1_" class="st0" d="M41.3,154.3c1,0,72.3,0,73.4,0C114.2,153.4,78.5,82,78,80.9C77.4,82,41.7,153.4,41.3,154.3"
				/>
			<path id="path30_1_" class="st0" d="M81.6,78.1c0.5,0.9,36.1,72.3,36.7,73.4c0.5-1.1,36.2-72.5,36.7-73.4
				C154,78.1,82.6,78.1,81.6,78.1"/>
			<path id="path32_1_" class="st0" d="M81.6,239.6c0.5,0.9,36.1,72.3,36.7,73.4c0.5-1.1,36.2-72.5,36.7-73.4
				C154,239.6,82.6,239.6,81.6,239.6"/>
		</g>
		<g>
			<g>
				<path id="path34_9_" class="st0" d="M314.5,226.5h-22V119.3l-1.1,0.8l-2.5,1.7l-15.7,10.6v-22.5l41.3-24.4L314.5,226.5"/>
				<path id="path36_9_" class="st0" d="M379,104.4c-12,0-24.2,7.9-24.2,25.6v53.3c0,17.7,12.2,25.6,24.2,25.6
					c12,0,24.2-7.9,24.2-25.6v-53.3C403.2,112.3,391,104.4,379,104.4L379,104.4z M379,229.4c-23,0-46.2-14.8-46.2-47.8v-50.1
					c0-33,23.2-47.8,46.2-47.8c23,0,46.2,14.8,46.2,47.8v50.1C425.2,214.7,402,229.4,379,229.4L379,229.4"/>
				<path id="path38_9_" class="st0" d="M496.7,107.4v53H533c21.9,0,29.7-14.3,29.7-26.5c0-12.2-7.8-26.5-29.7-26.5H496.7
					L496.7,107.4L496.7,107.4z M496.7,226.4h-22V86.8h60.3c29.7,0,49.6,18.9,49.6,47.1c0,28.2-19.9,47.1-49.6,47.1h-38.3V226.4"/>
				<path id="path40_9_" class="st0" d="M606.8,105.8c-6.1,0-11-4.9-11-11c0-6.1,4.9-11,11-11c6.1,0,11,4.9,11,11
					C617.8,100.8,612.8,105.8,606.8,105.8L606.8,105.8z M616.4,226.5h-19.2V119.9h19.2V226.5"/>
				<path id="path42_9_" class="st0" d="M731,226.5h-19.2v-59.5c0-25.5-15.6-30.8-28.8-30.8c-18.1,0-29.7,11.9-29.7,30.4v60H634
					V119.9h19.2v22.2l1.3-3l2.1-4.1l0.9-1.4l0.5-0.8c6.5-10.1,18.2-15.9,32.1-15.9c22.9,0,40.9,19.7,40.9,44.8V226.5"/>
				<path id="path44_9_" class="st0" d="M801.2,133.3c-16.8,0-29.7,10.7-33.8,27.8l-0.5,2l-0.2,0.9h70.5l-0.3-0.9l-0.6-2.1
					C831.1,143.7,818,133.3,801.2,133.3L801.2,133.3z M804.4,229.5c-38.3,0-59-29-59-56.3c0-27.3,20.7-56.3,59-56.3
					c23,0,55.4,18.7,55.4,60.2v2h-92.6l0.1,0.8l0.1,1.8c1.4,17.6,17.4,31.3,36.4,31.3c12.7,0,24-5.7,32.8-16.6l16,8.9
					C839.5,220.7,822.4,229.3,804.4,229.5L804.4,229.5"/>
				<path id="path46_9_" class="st0" d="M914.2,229.5c-17.2,0-32-5.5-46.7-17.4l12.8-13.1c9.6,9.3,23.2,15.3,35,15.3
					c14.6,0,24.4-8.4,24.4-16.4c0-5.5-2.8-12.7-16.4-15.2l-13.6-2.5c-31.6-5.8-38.1-16-38.1-29.4c0-16.9,14.2-34,41.3-34
					c14.4,0,27,4.2,40.7,13.6l-10.5,13c-9.6-7.6-19.5-11.4-29.5-11.4c-11.3,0-22.8,5.6-22.8,16.3c0,7.5,5.4,12.1,16.4,14l24.1,4.6
					c18.8,3.5,27.5,12.2,27.5,27.3C959,211.2,945,229.5,914.2,229.5L914.2,229.5"/>
			</g>
		</g>
	</g>
</g>
</svg>
