<svg width="1054" height="231" xmlns="http://www.w3.org/2000/svg">
 <defs>
  <style>.a{fill:#010101;}.b,.c{fill:#fff;}.b{fill-rule:evenodd;}</style>
 </defs>
 <title>aeternity-logo-vector-black</title>
 <g>
  <title>background</title>
  <rect fill="none" id="canvas_background" height="233" width="1056" y="-1" x="-1"/>
 </g>
 <g>
  <title>Layer 1</title>
  <path id="svg_2" d="m269.45757,55.798c-34.62864,0 -58.36422,21.63672 -78.87724,48.44389l12.15524,17.757c18.79343,-25.70689 38.76429,-45.93289 66.722,-45.93289c32.11349,0 58.81743,23.27823 63.74865,53.64534l-79.71982,0l0,20.26875l100.357,0a83.66406,83.66406 0 0 0 0.61934,-10.13435c0,-46.34412 -38.13321,-84.0477 -85.0052,-84.0477" class="b"/>
  <path id="svg_3" d="m269.45757,203.62412c-34.18973,0 -56.74959,-29.52871 -85.38788,-72.85332s-55.67037,-74.97235 -97.59933,-74.97235c-46.872,0 -85.00605,37.70268 -85.00605,84.0468c0,46.34329 38.13406,84.04682 85.00605,84.04682c34.56821,0 58.28113,-21.56118 78.76978,-48.30285l-12.06712,-17.872c-18.78754,25.69516 -38.75418,45.90687 -66.70266,45.90687c-35.60634,0 -64.57277,-28.61061 -64.57277,-63.77887c0,-35.16743 28.96643,-63.77884 64.57277,-63.77884c34.18974,0 55.53356,28.024 85.32574,72.78279c29.79224,44.758 55.73245,75.04287 97.66147,75.04287a85.12509,85.12509 0 0 0 79.24817,-53.64363l-22.49609,0a64.74876,64.74876 0 0 1 -56.75208,33.37568" class="b"/>
  <path id="svg_4" d="m417.10538,223.40325l0,-22.21353l7.61337,0a9.28828,9.28828 0 0 1 5.73579,1.5106a5.31625,5.31625 0 0 1 1.96822,4.50044a4.78841,4.78841 0 0 1 -0.82356,2.74592a5.29365,5.29365 0 0 1 -2.4102,1.89215a4.89246,4.89246 0 0 1 2.78508,1.83957a5.35462,5.35462 0 0 1 0.98358,3.24162a5.9127,5.9127 0 0 1 -2.00743,4.8048a8.71823,8.71823 0 0 1 -5.7436,1.67843l-8.10125,0zm11.96166,-12.86129l3.7832,0a4.36076,4.36076 0 0 0 2.81413,-0.81795a2.787,2.787 0 0 0 1.016,-2.30953a2.84006,2.84006 0 0 0 -0.93771,-2.38a4.7402,4.7402 0 0 0 -2.9227,-0.7318l-3.753,0l0.00008,6.23928zm0,2.83768l0,6.942l4.28674,0a4.15166,4.15166 0 0 0 2.83763,-0.90076a3.15155,3.15155 0 0 0 1.02167,-2.50087q0,-3.46261 -3.53932,-3.54038l-4.60672,0.00001z" class="b"/>
  <polygon id="svg_5" points="455.989013671875,220.322021484375 466.072998046875,220.322021484375 466.072998046875,223.40301513671875 452.1290283203125,223.40301513671875 452.1290283203125,201.19000244140625 455.989013671875,201.19000244140625 455.989013671875,220.322021484375 " class="b"/>
  <path id="svg_6" d="m503.67446,212.87633a13.62889,13.62889 0 0 1 -1.129,5.72794a8.51918,8.51918 0 0 1 -3.22488,3.78319a9.45668,9.45668 0 0 1 -9.64314,0a8.6435,8.6435 0 0 1 -3.26511,-3.75969a13.19344,13.19344 0 0 1 -1.16709,-5.62947l0,-1.251a13.52351,13.52351 0 0 1 1.15032,-5.7369a8.64236,8.64236 0 0 1 3.25168,-3.80445a8.82161,8.82161 0 0 1 4.81267,-1.32149a8.9314,8.9314 0 0 1 4.81263,1.30358a8.57252,8.57252 0 0 1 3.24268,3.753a13.51,13.51 0 0 1 1.15923,5.7l0.00001,1.23529zm-3.8593,-2.39453a9.69525,9.69525 0 0 0 -1.39754,-5.6608a4.92531,4.92531 0 0 0 -7.87183,-0.0056a9.50743,9.50743 0 0 0 -1.44125,5.54444l0,1.2812a9.62878,9.62878 0 0 0 1.42778,5.66081a4.93926,4.93926 0 0 0 7.90319,0.04475a9.84543,9.84543 0 0 0 1.37965,-5.70556l0,-1.15924z" class="b"/>
  <path id="svg_7" d="m540.49759,216.17166a8.01485,8.01485 0 0 1 -2.624,5.54555a8.93362,8.93362 0 0 1 -6.08717,1.99174a8.64719,8.64719 0 0 1 -4.67724,-1.25994a8.262,8.262 0 0 1 -3.11961,-3.57619a12.91282,12.91282 0 0 1 -1.14362,-5.38554l0,-2.07566a12.98622,12.98622 0 0 1 1.1145,-5.53772a8.38634,8.38634 0 0 1 3.19686,-3.69256a8.90232,8.90232 0 0 1 4.81267,-1.29687a8.57226,8.57226 0 0 1 5.91927,1.99286a8.31257,8.31257 0 0 1 2.6083,5.63619l-3.84472,0a5.47942,5.47942 0 0 0 -1.39762,-3.45758a4.606,4.606 0 0 0 -3.28523,-1.05853a4.50189,4.50189 0 0 0 -3.86715,1.83956a9.17359,9.17359 0 0 0 -1.38188,5.39785l0,1.97048a9.7478,9.7478 0 0 0 1.29012,5.49744a4.27646,4.27646 0 0 0 3.77535,1.89327a4.998,4.998 0 0 0 3.41843,-1.0216a5.33353,5.33353 0 0 0 1.448,-3.40275l3.84474,0z" class="b"/>
  <polygon id="svg_8" points="566.0469970703125,213.8070068359375 563.5289916992188,216.47698974609375 563.5289916992188,223.40301513671875 559.6699829101562,223.40301513671875 559.6699829101562,201.19000244140625 563.5289916992188,201.19000244140625 563.5289916992188,211.6099853515625 565.6649780273438,208.97100830078125 572.1649780273438,201.19000244140625 576.8330078125,201.19000244140625 568.5789794921875,211.031005859375 577.3070068359375,223.40301513671875 572.72900390625,223.40301513671875 566.0469970703125,213.8070068359375 " class="b"/>
  <path id="svg_9" d="m614.12925,216.17166a8.01606,8.01606 0 0 1 -2.62413,5.54555a8.93489,8.93489 0 0 1 -6.08722,1.99174a8.64666,8.64666 0 0 1 -4.677,-1.25994a8.25774,8.25774 0 0 1 -3.12008,-3.57619a12.90954,12.90954 0 0 1 -1.14307,-5.38554l0,-2.07566a12.9979,12.9979 0 0 1 1.1133,-5.53772a8.40044,8.40044 0 0 1 3.19652,-3.69256a8.90942,8.90942 0 0 1 4.8131,-1.29687a8.57526,8.57526 0 0 1 5.92021,1.99286a8.31225,8.31225 0 0 1 2.60839,5.63619l-3.84484,0a5.48214,5.48214 0 0 0 -1.39784,-3.45758a4.6059,4.6059 0 0 0 -3.28592,-1.05853a4.5009,4.5009 0 0 0 -3.86621,1.83956a9.17411,9.17411 0 0 0 -1.38321,5.39785l0,1.97048a9.73474,9.73474 0 0 0 1.29154,5.49744a4.276,4.276 0 0 0 3.77513,1.89327a4.993,4.993 0 0 0 3.41753,-1.0216a5.33408,5.33408 0 0 0 1.449,-3.40275l3.8448,0z" class="b"/>
  <polygon id="svg_10" points="650.93701171875,223.40301513671875 647.0919799804688,223.40301513671875 647.0919799804688,213.5479736328125 637.1599731445312,213.5479736328125 637.1599731445312,223.40301513671875 633.301025390625,223.40301513671875 633.301025390625,201.19000244140625 637.1599731445312,201.19000244140625 637.1599731445312,210.43597412109375 647.0919799804688,210.43597412109375 647.0919799804688,201.19000244140625 650.93701171875,201.19000244140625 650.93701171875,223.40301513671875 " class="b"/>
  <path id="svg_11" d="m684.52616,218.2311l-8.6056,0l-1.79928,5.17182l-4.0124,0l8.39081,-22.21354l3.46309,0l8.406,22.21354l-4.02759,0l-1.81503,-5.17182zm-5.70653,2.06l6.43864,0l-3.219,-9.21461l-3.21964,9.21461z" class="b"/>
  <rect id="svg_12" height="22.21353" width="3.84484" y="201.18961" x="709.54013" class="c"/>
  <polygon id="svg_13" points="750.178955078125,223.40301513671875 746.3179931640625,223.40301513671875 736.416015625,207.64398193359375 736.416015625,223.40301513671875 732.5570068359375,223.40301513671875 732.5570068359375,201.19000244140625 736.416015625,201.19000244140625 746.3480224609375,217.010986328125 746.3480224609375,201.19000244140625 750.178955078125,201.19000244140625 750.178955078125,223.40301513671875 " class="b"/>
  <path id="svg_14" d="m520.29929,187.98175q-21.97758,0 -34.13756,-13.98481a36.60386,36.60386 0 0 1 -14.94082,10.33521a56.87819,56.87819 0 0 1 -20.93335,3.6496q-15.28777,0 -23.97291,-7.64509q-8.68871,-7.64214 -8.6863,-21.194q0,-13.72419 10.334,-21.194q10.33928,-7.46979 30.57675,-7.46978l16.59321,0l0,-6.16788q0,-7.90338 -4.12814,-12.3798q-4.12582,-4.47042 -11.76969,-4.47166q-7.9034,0 -12.8986,3.864a11.72,11.72 0 0 0 -4.99644,9.59962l-21.01984,-1.65129q0,-12.68122 10.98907,-20.7166q10.98435,-8.03478 28.09878,-8.03363q19.36914,0 29.0144,11.55173q11.37693,-11.72523 28.75023,-11.55173q18.41319,0 28.75259,11.2485q10.334,11.25087 10.33517,31.66068l0,11.9l-60.36943,0q0.78355,12.07533 7.38334,18.9374q6.59735,6.86212 18.24089,6.86094a43.75885,43.75885 0 0 0 21.19517,-5.03669l5.29849,-2.95549l6.34207,14.42073a45.1209,45.1209 0 0 1 -15.15749,7.64273a64.15212,64.15212 0 0 1 -18.89359,2.78132m-65.92975,-15.98433a27.66136,27.66136 0 0 0 10.94643,-2.56218a33.10587,33.10587 0 0 0 9.81636,-6.29827l0,-18.15325l-17.0279,0q-9.0334,0.17592 -14.24423,4.29994a12.55544,12.55544 0 0 0 -5.212,10.2061a11.31674,11.31674 0 0 0 4.03814,9.076q4.04225,3.4364 11.68321,3.43165m62.80256,-64.5379a18.31905,18.31905 0 0 0 -14.114,5.99268q-5.51874,5.99676 -6.90593,17.02672l39.26082,0l0,-2.60722q0,-9.81338 -4.73228,-15.11251q-4.73526,-5.30026 -13.50861,-5.29967" class="b"/>
  <path id="svg_15" d="m597.68661,69.41222l0,22.84526l16.59,0l0,15.63605l-16.59,0l0,52.46495q0,5.38915 2.12766,7.77543q2.12539,2.3898 7.59913,2.388a32.57787,32.57787 0 0 0 7.38437,-0.86827l0,16.329a51.97513,51.97513 0 0 1 -13.8983,1.99952q-24.32157,0 -24.3224,-26.84071l0,-53.248l-15.46087,0l0,-15.63597l15.46087,0l0,-22.84526l21.10954,0z" class="b"/>
  <path id="svg_16" d="m665.92836,187.98175q-20.06654,0 -32.53051,-12.63916q-12.46647,-12.63858 -12.46507,-33.659l0,-2.606a56.37493,56.37493 0 0 1 5.4316,-25.14683a41.28459,41.28459 0 0 1 15.24385,-17.24354a40.3003,40.3003 0 0 1 21.88939,-6.16558q19.19442,0 29.66344,12.24709q10.46508,12.24764 10.46675,34.65757l0,8.51218l-61.41231,0q0.95638,11.6418 7.77346,18.41622a23.33809,23.33809 0 0 0 17.15556,6.77446q14.5059,0 23.62853,-11.72586l11.37764,10.85877a38.0018,38.0018 0 0 1 -15.07122,13.07151a47.1842,47.1842 0 0 1 -21.15111,4.64818m-2.51731,-80.52223a17.78146,17.78146 0 0 0 -14.031,6.07915q-5.34135,6.082 -6.81816,16.94025l40.21787,0l0,-1.56481q-0.695,-10.59878 -5.64468,-16.02577q-4.95333,-5.42644 -13.724,-5.42882" class="b"/>
  <path id="svg_17" d="m767.12733,111.54186a52.22232,52.22232 0 0 0 -8.60007,-0.69537q-14.50415,0 -19.54238,11.1194l0,64.27729l-21.10619,0l0,-93.9858l20.15136,0l0.5213,10.51169q7.64216,-12.24764 21.19388,-12.24711a19.7597,19.7597 0 0 1 7.46867,1.21418l-0.08657,19.80572z" class="b"/>
  <path id="svg_18" d="m798.00411,92.2576l0.609,10.85878q10.42117,-12.596 27.362,-12.59413q29.36,0 29.88043,33.61515l0,62.106l-21.10671,0l0,-60.89064q0,-8.94457 -3.86736,-13.24683q-3.86445,-4.29988 -12.63654,-4.29877q-12.77191,0 -19.02408,11.55179l0,66.88447l-21.10611,0l0,-93.98582l19.88937,0z" class="b"/>
  <path id="svg_19" d="m870.531,67.84954a11.19939,11.19939 0 0 1 3.08241,-8.07743q3.081,-3.21247 8.81645,-3.21486q5.7336,0 8.86037,3.21486a11.11841,11.11841 0 0 1 3.12737,8.07743a10.85866,10.85866 0 0 1 -3.12737,7.94715q-3.12907,3.17343 -8.86037,3.17107q-5.73013,0 -8.81645,-3.17107a10.936,10.936 0 0 1 -3.08241,-7.94715zm1.30162,118.39471l21.10679,0l0,-93.98581l-21.10679,0l0,93.98581z" class="b"/>
  <path id="svg_20" d="m943.67179,69.41222l0,22.84526l16.59055,0l0,15.63605l-16.59055,0l0,52.46495q0,5.38915 2.12878,7.77543q2.12295,2.3898 7.59857,2.388a32.58953,32.58953 0 0 0 7.38441,-0.86827l0,16.329a51.97254,51.97254 0 0 1 -13.89834,1.99952q-24.32241,0 -24.32236,-26.84071l0,-53.248l-15.46036,0l0,-15.63597l15.46036,0l0,-22.84526l21.10894,0z" class="b"/>
  <path id="svg_21" d="m1010.92842,156.01569l19.11066,-63.75843l22.49661,0l-37.35082,108.2324q-8.60195,23.71175 -29.185,23.71234a37.59515,37.59515 0 0 1 -10.16371,-1.5719l0,-16.40958l3.99555,0.26178q7.99051,0 12.03046,-2.9057q4.03832,-2.91045 6.38464,-9.76663l3.03856,-8.07153l-33.00676,-93.48118l22.75872,0l19.89109,63.75843z" class="b"/>
 </g>
</svg>