<svg enable-background="new 0 0 480.3 151" viewBox="0 0 480.3 151" xmlns="http://www.w3.org/2000/svg"><path d="m112.6 78.1-11.9-20.6 11.9-20.5c.6-1.1.6-2.6 0-3.6l-13.7-23.7c-.6-1.1-1.9-1.9-3.1-1.9h-27.4c-1.2 0-2.5.8-3.1 1.8l-11.9 20.6h-23.7c-1.2 0-2.5.8-3.1 1.8l-13.8 23.7c-.6 1-.6 2.5 0 3.6l13.7 23.7c.6 1 1.9 1.8 3.1 1.8h23.8l11.9 20.6c.6 1.1 1.9 1.8 3.1 1.8h27.3c1.2 0 2.5-.8 3.1-1.8l13.6-23.6c.8-1.2.8-2.7.2-3.7zm-2.2 2.3-13.7 23.7c-.2.3-.6.6-.9.6h-27.3c-.3 0-.8-.3-1-.6l-12.6-21.9h-25.2c-.3 0-.8-.3-.9-.6l-13.8-23.6c-.1-.3-.1-.8 0-1.1l13.7-23.7c.2-.3.6-.5.9-.5h25.2l12.6-21.8c.2-.3.6-.5 1-.5h27.3c.3 0 .8.3.9.5l13.7 23.7c.2.3.2.8 0 1.1l-12.5 21.7 12.6 21.9c.2.3.2.8 0 1.1z"/><path d="m94.8 59.6-11.8 20.5 11.7 20.3 11.8-20.5z"/><path d="m70.4 58.1 11.1 19.4 10.9-18.7.7-1.3-.7-1.3-10.6-18.3z"/><path d="m94.8 55.3 11.6-20.2-11.6-20.2-11.6 20.4z"/><path d="m93.5 14h-23.6l-11.5 19.8h23.9z"/><path d="m69.2 57.1 11.7-20.7h-22.5-1.9l-.5.9-11.4 19.8z"/><path d="m53.6 36.3h-22.5l-11.9 20.8h22.5z"/><path d="m19.5 58.5 11.6 20.1h22.5l-11.6-20.1z"/><path d="m68.9 58.5h-24l11.1 19.2.5.9h2 21.9z"/><path d="m58.5 81.2 11.5 19.8h23.2l-11.4-19.8z"/><path d="m426.8 44h7.8c4.7 0 7.6-.3 9-.8 1.5-.6 2.2-1.6 2.2-3.4v-8.7c0-1.9-.6-2.9-1.5-3.4-1.4-.7-4.5-1.1-9.7-1.1h-7.8c-5.2 0-8.3.4-9.6 1.1-.9.5-1.5 1.4-1.5 3.4v8.7c0 1.8.7 2.8 2.2 3.4 1.3.5 4.2.8 8.9.8zm7.8 4.8h-7.8c-7 0-12-.6-15.1-1.9-3.2-1.3-5-3.8-5-7.2v-8.6c0-3.5 1.7-6.1 4.8-7.5 3-1.3 8.2-1.9 15.4-1.9h7.8c7.2 0 12.4.6 15.4 1.9 3.2 1.4 4.8 3.9 4.8 7.5v8.6c0 3.4-1.8 5.9-5.1 7.2-3.2 1.3-8.3 1.9-15.2 1.9zm-270.1-22h-16.3-14.3v-4.8h29.5c5.5 0 9.9.4 13 1.4 5.2 1.5 8.2 4.5 8.2 9.2v5.8c0 3.3-1.7 5.8-4.7 7.5-3.4 1.9-8.5 2.8-15 2.8h-31.1v-16h9v11.1h20.6c5.4 0 8.8-.7 10.4-1.8 1.1-.7 1.8-2 1.8-4.2v-6.4c0-.8-.4-1.6-1.5-2.5-1.8-1.3-4.9-2.1-9.6-2.1zm64.5 17v4.8h-39.8v-26.7h39.8v4.8h-30.9v5.8h29.5v4.7h-29.5v6.5h30.9zm52.5 4.8h-9v-6.4c0-1.2-.4-1.9-1.2-2.3-1.2-.6-3.5-1-7.4-1h-20v9.7h-9v-26.7h28.1c6.5 0 11.2.5 14.1 1.5 3.3 1.2 5.2 3.4 5.2 6.7 0 2.2-.6 4.1-2.1 5.3-.3.2-.6.4-.9.6l-1 .6 1 .6c1.4.8 2.3 2 2.3 3.8v7.6zm-37.6-21.8v7.3h19.2c4.9 0 7.8-.4 9-1.1.7-.4 1.2-1.2 1.2-3.1 0-1.4-.5-1.9-1.1-2.2-1.2-.5-4.2-.9-9.2-.9zm54.8 21.8h-9v-26.7h9zm11.4-26.7 17.9 21.6 17.8-21.6h10.3l-22.8 26.7h-10.5l-22.9-26.7zm70.7-.2h5.4c5.9 0 10.3.5 13 1.8 2.7 1.2 4.1 3.4 4.1 6.4v2h-9v-1.9c0-1.4-.5-2.1-1.3-2.5-1.2-.6-3.7-1-7.8-1h-3.7c-7.2 0-11.8.3-14.1.9-2.5.6-3.2 1.7-3.2 3v6.7c0 3.1.6 4.6 1.2 5.1 1.1 1 4 1.7 9.2 1.7h7.9c5 0 8.2-.2 9.7-.5 2.4-.5 2.9-1.5 2.9-2.4v-3.2h9v3.5c0 3.4-2.7 5.4-6.7 6.4-2.9.7-7.9 1-14.7 1h-9.3c-5.6 0-10.1-.7-13.3-2.3-3-1.4-4.9-3.6-4.9-6.6v-9.4c0-4 3-6.4 7.8-7.6 3.6-.7 9.5-1.1 17.8-1.1z"/><path d="m325.1 83.9 2.1-1c.4 1.5 1.4 2.2 3.1 2.2.8 0 1.4-.2 1.8-.6s.7-1 .7-1.7c0-.9-.8-1.8-2.3-2.5l-.5-.3c-1.4-.7-2.4-1.3-3-1.8-.9-.8-1.4-1.9-1.4-3.1 0-1.4.5-2.5 1.4-3.3s2-1.1 3.4-1.1c2.4 0 4 .9 4.6 2.7l-2 1.1c-.6-1-1.4-1.5-2.4-1.5-.7 0-1.2.2-1.6.5-.4.4-.7.9-.7 1.5 0 1 .9 1.9 2.7 2.7.1 0 .2.1.3.2 1.4.6 2.3 1.2 2.9 1.8.8.8 1.3 1.8 1.3 3 0 1.6-.5 2.8-1.5 3.7s-2.2 1.3-3.8 1.3c-2.8-.1-4.5-1.3-5.1-3.8z"/><path d="m350.9 80v7.2h-2.4v-16.1h3.9c1.9 0 3.3.3 4 .8 1.1.8 1.6 2 1.6 3.6s-.5 2.8-1.6 3.6c-.8.5-2.1.8-4 .8h-1.5zm.2-2.2h.7c1.2 0 2-.1 2.4-.3.8-.3 1.2-.9 1.2-1.9s-.4-1.7-1.1-2c-.5-.2-1.3-.3-2.5-.3h-.7z"/><path d="m387 79.2c0 2.3-.8 4.3-2.5 6-1.7 1.6-3.7 2.5-6.1 2.5s-4.4-.8-6.1-2.5c-1.7-1.6-2.5-3.6-2.5-6s.8-4.3 2.5-6 3.7-2.4 6.1-2.4 4.4.8 6.1 2.5c1.7 1.5 2.5 3.5 2.5 5.9zm-2.7 0c0-1.7-.6-3.1-1.7-4.3s-2.5-1.8-4.1-1.8-3 .6-4.1 1.7c-1.1 1.2-1.7 2.6-1.7 4.3s.6 3.1 1.7 4.2c1.1 1.2 2.5 1.8 4.2 1.8 1.6 0 3-.6 4.1-1.8 1-1.1 1.6-2.5 1.6-4.1z"/><path d="m402.5 80v7.2h-2.4v-16.1h3.6c1.9 0 3.2.3 4 .9 1 .8 1.6 2 1.6 3.5 0 2.6-1.2 4-3.7 4.3l5.5 7.3h-3l-5.3-7.2h-.3zm.2-2.1h.5c1.1 0 1.9-.1 2.4-.3.7-.3 1.1-.9 1.1-1.9s-.3-1.7-1-2c-.5-.2-1.3-.4-2.4-.4h-.5v4.6z"/><path d="m427.9 73.3v13.8h-2.6v-13.8h-4.3v-2.2h11.1v2.2z"/><path d="m443.4 83.9 2.1-1c.4 1.5 1.4 2.2 3.1 2.2.8 0 1.4-.2 1.8-.6s.7-1 .7-1.7c0-.9-.8-1.8-2.3-2.5l-.5-.2c-1.4-.7-2.4-1.3-3-1.8-.9-.8-1.4-1.9-1.4-3.1 0-1.4.5-2.5 1.4-3.3s2-1.1 3.4-1.1c2.4 0 4 .9 4.6 2.7l-2 1.1c-.6-1-1.4-1.5-2.4-1.5-.7 0-1.2.2-1.6.5-.4.4-.7.9-.7 1.5 0 1 .9 1.9 2.7 2.7.1 0 .2.1.3.2 1.4.6 2.3 1.2 2.9 1.8.8.8 1.3 1.8 1.3 3 0 1.6-.5 2.8-1.5 3.7s-2.2 1.3-3.8 1.3c-2.9-.2-4.6-1.4-5.1-3.9z"/><path d="m133.5 59.9h320.9v.9h-320.9z"/><path clip-rule="evenodd" d="m361.7 133.5v-7.5c.3-.1.5-.2.8-.2.3-.1.5-.1.8-.1.9 0 1.6.3 2.2 1 .6.6.9 1.6.9 3s-.3 2.4-.9 3.1-1.4 1-2.3 1c-.3 0-.6 0-.8 0-.2-.2-.5-.2-.7-.3zm0-11.6v-5.8h-5.6v20.4c1 .4 2 .7 3.1.9s2.4.4 3.8.4c1.3 0 2.4-.2 3.5-.5s2-.9 2.8-1.5 1.4-1.6 1.8-2.6c.4-1.1.7-2.3.7-3.8 0-1.1-.2-2.1-.5-3.1s-.8-1.8-1.4-2.5-1.4-1.3-2.3-1.7-1.9-.6-3-.6c-.6 0-1.2 0-1.6.1s-.9.2-1.3.3zm21.2 5.8h-4.9c.1-.8.4-1.5.8-2 .5-.5 1-.7 1.7-.7.6 0 1.1.2 1.6.7.4.6.7 1.2.8 2zm-4.9 3h10.1c0-3.1-.7-5.5-2.1-7s-3.2-2.3-5.5-2.3c-1.1 0-2.2.2-3.1.5-1 .4-1.8.9-2.5 1.6s-1.3 1.6-1.7 2.6-.6 2.2-.6 3.5.2 2.5.6 3.5 1 1.9 1.7 2.5 1.6 1.2 2.5 1.5c1 .3 2 .5 3.1.5.9 0 1.7-.1 2.5-.2.7-.1 1.4-.4 2-.6.6-.3 1.1-.6 1.5-1s.8-.7 1.2-1.2l-3.4-2.7c-.4.5-.9.9-1.4 1.2s-1.1.4-1.8.4c-.9 0-1.6-.3-2.2-.8-.6-.3-.9-1-.9-2zm10-4.9h2.2v6.8c0 .8.1 1.5.2 2.1.2.6.4 1.2.8 1.6s.9.8 1.5 1 1.4.4 2.3.4c1.1 0 2-.1 2.9-.4.8-.3 1.6-.6 2.3-1.1l-1.4-3.4c-.3.2-.6.4-.9.6-.4.2-.7.3-1.1.3s-.7-.2-.8-.4c-.1-.3-.2-.7-.2-1.2v-6.3h3.7l-1.4-3.9h-2.4v-3.9h-5.6v3.9h-2.1zm16.8 11.7h4.2l2.4-8.2 2.5 8.2h4.3l5.5-15.6h-5.7l-2.3 8.3-2.4-8.3h-3.6l-2.4 8.3-4-12.2h-5.4zm26.9-7.1v2.9c-.3.2-.6.4-.9.5s-.7.2-1.1.2c-.6 0-1-.1-1.3-.4s-.5-.7-.5-1.1.1-.8.4-1.2.7-.6 1.4-.7c.3-.1.7-.1 1-.1.3-.1.7-.1 1-.1zm.8 7.1h4.7v-9.9c0-2.1-.6-3.6-1.8-4.6s-2.8-1.5-4.9-1.5c-1.5 0-2.7.2-3.8.6s-2 1-2.9 1.8l2.5 2.8c.5-.4 1-.7 1.6-1 .5-.2 1.1-.4 1.7-.4.5 0 1 .2 1.4.5s.6.8.6 1.4v.4c-.5 0-1 .1-1.6.1s-1.2.1-1.9.2-1.5.3-2.1.5c-.7.3-1.2.6-1.7 1s-.9.9-1.2 1.5-.4 1.2-.4 2c0 .7.1 1.4.4 2 .2.6.6 1.1 1.1 1.5s1 .7 1.6.9 1.3.3 2 .3c1 0 1.8-.1 2.5-.4s1.3-.6 1.7-1zm6.1 1.7-1.4 3.8c.6.3 1.3.5 1.9.7.7.2 1.4.3 2.2.3 1.3 0 2.4-.3 3.3-.8 1-.5 1.7-1.4 2.3-2.7l7.8-18.5h-5.7l-3.1 9.1-3.2-9.1h-6.1l6.6 14.9-.9 2c-.2.4-.4.7-.6.8-.2.2-.6.2-1 .2-.3 0-.7-.1-1.1-.2-.3-.2-.7-.3-1-.5z" fill-rule="evenodd"/><path d="m256.6 139.3v-8.7h.9l.1.5c.3-.2.6-.4.9-.5s.6-.1.9-.1c.5 0 .9.1 1.2.3s.6.4.8.7.4.6.4 1c.1.4.1.8.1 1.2 0 .5-.1 1-.2 1.4-.2.4-.4.8-.6 1.1-.3.3-.6.5-1 .7s-.8.2-1.2.2c-.5 0-.9-.1-1.2-.2v2.5h-1.1zm1-3.4c.1.1.2.1.4.2s.4.1.6.1c.3 0 .6-.1.9-.2s.5-.3.7-.5.4-.5.5-.8.2-.7.2-1.1c0-.3 0-.6-.1-.9s-.2-.6-.3-.8-.3-.4-.6-.6c-.2-.1-.5-.2-.9-.2-.3 0-.5.1-.8.2s-.5.3-.7.5v4.1z"/><path d="m263.4 136.8v-6.2h.9l.1.5c.2-.2.4-.3.6-.5.3-.1.5-.2.8-.2h.5s.3.1.4.1l-.2.9c-.2-.1-.5-.1-.8-.1s-.5.1-.7.2-.4.3-.6.4v4.9z"/><path d="m268.9 136.7c-.4-.2-.7-.4-.9-.8-.2-.3-.4-.7-.5-1.1s-.2-.8-.2-1.2.1-.8.2-1.2.3-.7.5-1 .5-.5.9-.7.8-.3 1.3-.3.9.1 1.3.3.7.4.9.7.4.7.5 1c.1.4.2.8.2 1.2s-.1.8-.2 1.2-.3.7-.5 1-.5.6-.9.7c-.4.2-.8.3-1.3.3-.5.2-1 .1-1.3-.1zm-.2-1.3c.2.2.4.4.6.6s.5.2.8.2.6-.1.8-.2.4-.3.6-.6.3-.5.4-.8.1-.6.1-.9 0-.6-.1-.9-.2-.6-.4-.8-.4-.4-.6-.6c-.2-.1-.5-.2-.8-.2s-.6.1-.8.2-.4.3-.6.6c-.2.2-.3.5-.4.8s-.1.6-.1.9 0 .6.1.9.2.5.4.8z"/><path d="m275.5 134.6c0 .5.1.9.4 1.2.3.2.6.4 1.1.4.3 0 .6-.1 1-.2.3-.1.6-.3.8-.5v-4.9h1v6.2h-.9l-.1-.5c-.3.2-.5.3-.8.5-.3.1-.7.2-1.1.2-.8 0-1.4-.2-1.8-.6s-.6-1-.6-1.8v-4h1z"/><path d="m285.8 136.8-.1-.5c-.2.2-.5.4-.7.5-.3.1-.6.2-.9.2-.4 0-.8-.1-1.2-.3-.3-.2-.6-.4-.9-.7-.2-.3-.4-.6-.5-1.1-.1-.4-.2-.8-.2-1.3 0-.4.1-.8.2-1.2s.3-.7.6-1c.2-.3.6-.5.9-.7.4-.2.8-.3 1.3-.3.3 0 .6 0 .8.1.2 0 .4.1.6.2v-2.6h1v8.7zm-.1-5.3c-.1 0-.1-.1-.2-.1s-.2-.1-.3-.1-.2-.1-.4-.1c-.1 0-.2 0-.4 0-.4 0-.7.1-1 .2s-.5.3-.7.6c-.2.2-.3.5-.4.8s-.1.6-.1.9 0 .7.1 1 .2.6.4.8.4.4.6.5.5.2.9.2c.3 0 .5-.1.8-.2s.5-.3.7-.5z"/><path d="m288.5 136.8v-8.7h1v8.7z"/><path d="m290.7 138.5c.1 0 .2.1.4.1h.4c.2 0 .4 0 .5-.1s.2-.3.4-.6l.5-1.2-2.5-6.1h1.2l1.8 4.8 1.8-4.8h1.1l-3.2 7.9c-.2.4-.4.6-.7.8s-.6.2-.9.2c-.2 0-.4 0-.6-.1s-.4-.1-.5-.2z"/><path d="m299.8 139.3v-8.7h.9l.1.5c.3-.2.6-.4.9-.5s.6-.1.9-.1c.5 0 .9.1 1.2.3s.6.4.8.7.4.6.4 1c.1.4.1.8.1 1.2 0 .5-.1 1-.2 1.4-.2.4-.4.8-.6 1.1-.3.3-.6.5-1 .7s-.8.2-1.2.2c-.5 0-.9-.1-1.2-.2v2.5h-1.1zm1-3.4c.1.1.2.1.4.2s.4.1.6.1c.3 0 .6-.1.9-.2s.5-.3.7-.5.4-.5.5-.8.2-.7.2-1.1c0-.3 0-.6-.1-.9s-.2-.6-.3-.8-.3-.4-.6-.6c-.2-.1-.5-.2-.9-.2-.3 0-.5.1-.8.2s-.5.3-.7.5v4.1z"/><path d="m308 136.7c-.4-.2-.7-.4-.9-.8-.2-.3-.4-.7-.5-1.1s-.2-.8-.2-1.2.1-.8.2-1.2.3-.7.5-1 .5-.5.9-.7.8-.3 1.3-.3.9.1 1.3.3.7.4.9.7.4.7.5 1c.1.4.2.8.2 1.2s-.1.8-.2 1.2-.3.7-.5 1-.5.6-.9.7c-.4.2-.8.3-1.3.3-.5.2-.9.1-1.3-.1zm-.1-1.3c.2.2.4.4.6.6s.5.2.8.2.6-.1.8-.2.4-.3.6-.6.3-.5.4-.8.1-.6.1-.9 0-.6-.1-.9-.2-.6-.4-.8-.4-.4-.6-.6c-.2-.1-.5-.2-.8-.2s-.6.1-.8.2-.4.3-.6.6c-.2.2-.3.5-.4.8s-.1.6-.1.9 0 .6.1.9.2.5.4.8z"/><path d="m314.9 136.8-2.1-6.2h1.1l1.4 4.7 1.5-4.7h.6l1.5 4.7 1.4-4.7h1.1l-2.1 6.2h-.8l-1.5-4.5-1.5 4.5z"/><path d="m323 133.6c0 .8.2 1.4.5 1.8.4.4.9.7 1.6.7.4 0 .7-.1 1-.3s.5-.4.7-.7l.7.4c-.2.4-.5.7-.9 1s-.8.4-1.5.4c-.5 0-.9-.1-1.3-.2s-.7-.4-1-.6c-.3-.3-.5-.6-.6-1s-.2-.9-.2-1.4.1-.9.2-1.3.3-.7.6-1c.2-.3.5-.5.9-.7.3-.2.7-.2 1.1-.2.5 0 .9.1 1.2.2.3.2.6.4.9.7.2.3.4.6.5 1s.2.8.2 1.3h-4.6zm3.4-.8c0-.3-.1-.5-.2-.7s-.2-.4-.4-.5c-.1-.1-.3-.2-.5-.3s-.4-.1-.6-.1c-.4 0-.8.1-1.1.4-.3.2-.5.7-.6 1.3h3.4z"/><path d="m329 136.8v-6.2h.9l.1.5c.2-.2.4-.3.6-.5.3-.1.5-.2.8-.2h.5s.3.1.4.1l-.2.9c-.2-.1-.5-.1-.8-.1s-.5.1-.7.2-.4.3-.6.4v4.9z"/><path d="m333.7 129.6c-.2 0-.3-.1-.5-.2-.1-.1-.2-.3-.2-.5s.1-.4.2-.5.3-.2.5-.2.3.1.5.2.2.3.2.5-.1.4-.2.5-.3.2-.5.2zm-.5 7.2v-6.2h1v6.2z"/><path d="m336 136.8v-6.2h.9l.1.5c.3-.2.6-.3.9-.5.3-.1.7-.2 1.1-.2.9 0 1.5.2 1.8.6.4.4.5 1.1.5 1.9v3.9h-1v-3.9c0-.5-.1-.9-.4-1.2s-.6-.4-1.2-.4c-.3 0-.7.1-1 .2s-.6.3-.8.5v4.9h-.9z"/><path d="m347.8 131.2c.2.2.3.4.4.6s.1.5.1.8c0 .4-.1.7-.2 1-.2.3-.4.5-.6.7-.3.2-.5.3-.9.4-.3.1-.7.1-1 .1-.1 0-.3 0-.4 0-.2 0-.3 0-.4-.1-.1 0-.3.1-.4.1-.1.1-.2.2-.2.3s.1.2.3.3.6.1 1.1.1 1 0 1.4.1.7.2 1 .3.5.3.6.6.2.5.2.9c0 .3-.1.6-.2.9s-.4.5-.6.6c-.3.2-.6.3-.9.4-.4.1-.7.1-1.1.1-1 0-1.8-.2-2.3-.5-.6-.3-.8-.8-.8-1.4 0-.7.3-1.2.9-1.5-.2-.1-.3-.2-.4-.3s-.2-.3-.2-.5.1-.4.3-.6.4-.3.7-.3c-.1-.1-.2-.1-.4-.2-.1-.1-.3-.2-.4-.4-.1-.1-.2-.3-.3-.5s-.1-.4-.1-.7c0-.4.1-.7.2-1s.4-.5.6-.7c.3-.2.5-.3.9-.4.3-.1.6-.1 1-.1.3 0 .5 0 .8.1.2 0 .5.1.7.2l.9-.9.6.6zm-2.2 5.2c-.6 0-1 0-1.2-.1-.2.1-.4.3-.6.4-.1.2-.2.4-.2.7 0 .2.1.4.2.5s.3.3.5.4.4.2.7.2c.3.1.6.1.9.1.6 0 1.1-.1 1.5-.3s.6-.5.6-.9c0-.2 0-.3-.1-.5-.1-.1-.2-.2-.4-.3s-.4-.2-.7-.2c-.4 0-.7 0-1.2 0zm-1.6-3.3c.1.2.2.3.3.4s.3.2.5.3.4.1.7.1c.2 0 .4 0 .6-.1.2 0 .4-.1.6-.2s.3-.3.4-.4c.1-.2.2-.4.2-.7 0-.2 0-.4-.1-.6s-.2-.3-.4-.4-.3-.2-.5-.2c-.2-.1-.4-.1-.6-.1s-.4 0-.6.1-.4.1-.5.2c-.2.1-.3.2-.4.4s-.1.4-.1.6c-.2.3-.1.4-.1.6z"/></svg>