<?xml version="1.0" encoding="UTF-8" standalone="no"?>
<!-- Generator: Adobe Illustrator 16.0.3, SVG Export Plug-In . SVG Version: 6.00 Build 0)  -->

<svg
   xmlns:dc="http://purl.org/dc/elements/1.1/"
   xmlns:cc="http://creativecommons.org/ns#"
   xmlns:rdf="http://www.w3.org/1999/02/22-rdf-syntax-ns#"
   xmlns:svg="http://www.w3.org/2000/svg"
   xmlns="http://www.w3.org/2000/svg"
   xmlns:sodipodi="http://sodipodi.sourceforge.net/DTD/sodipodi-0.dtd"
   xmlns:inkscape="http://www.inkscape.org/namespaces/inkscape"
   version="1.1"
   id="Layer_1"
   x="0px"
   y="0px"
   width="851.707px"
   height="279.961px"
   viewBox="0 0 851.707 279.961"
   enable-background="new 0 0 851.707 279.961"
   xml:space="preserve"
   inkscape:version="0.48.4 r9939"
   sodipodi:docname="erisata-logo-red-black-v2x.svg"
   inkscape:export-filename="/home/karolis/CODE/erisata.www/img/erisata-logo-red-black-v2x.png"
   inkscape:export-xdpi="32.147221"
   inkscape:export-ydpi="32.147221"><metadata
     id="metadata13"><rdf:RDF><cc:Work
         rdf:about=""><dc:format>image/svg+xml</dc:format><dc:type
           rdf:resource="http://purl.org/dc/dcmitype/StillImage" /><dc:title /></cc:Work></rdf:RDF></metadata><defs
     id="defs11" /><sodipodi:namedview
     pagecolor="#ffffff"
     bordercolor="#666666"
     borderopacity="1"
     objecttolerance="10"
     gridtolerance="10"
     guidetolerance="10"
     inkscape:pageopacity="0"
     inkscape:pageshadow="2"
     inkscape:window-width="1280"
     inkscape:window-height="969"
     id="namedview9"
     showgrid="false"
     inkscape:zoom="1"
     inkscape:cx="258.35349"
     inkscape:cy="139.9805"
     inkscape:window-x="-3"
     inkscape:window-y="-3"
     inkscape:window-maximized="1"
     inkscape:current-layer="Layer_1" /><polygon
     fill-rule="evenodd"
     clip-rule="evenodd"
     fill="#761429"
     points="206.727,107.869 132.953,181.643 164.891,213.582   140.342,238.13 83.978,181.766 84.112,181.634 83.989,181.509 157.752,107.746 115.72,65.714 140.269,41.165 206.716,107.612   206.593,107.735 206.727,107.869 "
     id="polygon3"
     style="fill:#761429;fill-opacity:1" /><path
     fill-rule="evenodd"
     clip-rule="evenodd"
     fill="#CB243E"
     d="M0.666,98.189L98.856,0l24.549,24.547l-98.189,98.189L0.666,98.189  L0.666,98.189z M0.666,181.51l98.19-98.189l24.549,24.549l-73.774,73.774l73.77,73.77l-24.549,24.548L0.662,181.772l0.134-0.134  L0.666,181.51L0.666,181.51z"
     id="path5" /><path
     fill-rule="evenodd"
     clip-rule="evenodd"
     d="M835.085,181.059l-21.888-53.685l-21.886,53.685h-16.209l30.972-72.783h14.661  l30.972,72.783H835.085L835.085,181.059z M730.597,181.059h-15.899v-57.607h-21.99v-14.659h59.879v14.659h-21.989V181.059  L730.597,181.059z M631.681,127.375l-21.886,53.685h-16.208l30.971-72.783h14.659l30.972,72.783h-16.622L631.681,127.375  L631.681,127.375z M535.141,182.092c-10.941,0-21.989-3.821-30.662-11.564l9.396-11.253c6.503,5.368,13.317,8.776,21.577,8.776  c6.503,0,10.425-2.58,10.425-6.814v-0.207c0-4.026-2.477-6.09-14.555-9.187c-14.558-3.718-23.952-7.744-23.952-22.094v-0.208  c0-13.109,10.531-21.782,25.294-21.782c10.529,0,19.511,3.302,26.841,9.189l-8.26,11.975c-6.398-4.439-12.696-7.123-18.789-7.123  c-6.09,0-9.29,2.786-9.29,6.297v0.206c0,4.75,3.097,6.297,15.588,9.498c14.661,3.821,22.919,9.085,22.919,21.68v0.206  C561.673,174.038,550.731,182.092,535.141,182.092L535.141,182.092z M449.652,108.793h15.897v72.266h-15.897V108.793  L449.652,108.793z M392.341,181.059l-15.484-23.126h-0.208h-25.553v-14.041h29.374c7.744,0,12.183-4.128,12.183-10.22v-0.205  c0-6.814-4.75-10.324-12.494-10.324h-29.063l-0.065-14.35h30.47c9.189,0,16.312,2.58,21.063,7.328  c4.026,4.026,6.193,9.706,6.193,16.52v0.205c0,11.666-6.297,18.997-15.486,22.402l17.654,25.811H392.341L392.341,181.059z   M250.884,137.421l49.866,0.173v14.145h-34.071v15.176h39.231v14.145h-55.027V137.421L250.884,137.421z M250.884,108.793h54.51  v14.143l-54.51,0.032V108.793L250.884,108.793z"
     id="path7" /></svg>