<?xml version="1.0" encoding="UTF-8"?>
<svg xmlns="http://www.w3.org/2000/svg" viewBox="0 0 122 65">
   <style>.st0{fill:#ffffff}.st1{fill:#efefef}</style>
   <path class="st0" d="M9.6 22.2c.1.6.4 1.8.8 2.9.2.4.4.9.6 1.3.3.5.6 1.1.9 1.5 1.3-1.5 3.2-2.5 5.3-2.5 0-.4.1-1.2.2-2.2.1-.8.2-1.5.4-2.3.2-.6.4-1.2.6-1.7.2-.6.5-1.1.8-1.7 1.4-2.5 3.4-4.6 5.9-6.1 2.9-1.7 6.3-2.4 9.6-2 .3 1.2 1.3 2 2.5 2 1.4 0 2.6-1.2 2.6-2.6s-1.2-2.6-2.6-2.6c-.9 0-1.7.4-2.1 1.1-3.8-.5-7.7.3-11 2.2-4.1 2.4-7 6.2-8.2 10.7-.3 1.2-.5 2.4-.6 3.5-1 .2-1.9.6-2.8 1.2-.3-.7-.6-1.5-.8-2.2-1.1-4-.5-8.2 1.6-11.8C15 8 17.5 5.7 20.6 4.4c.5.5 1.2.8 1.9.8 1.4 0 2.6-1.2 2.6-2.6S23.9 0 22.5 0 20 1.1 19.9 2.4c-3.6 1.5-6.4 4-8.4 7.4-1.5 2.7-2.4 5.7-2.4 8.8.2 1.4.3 2.5.5 3.6" />
   <path class="st0" d="M46.9 40.9c-1.4 0-2.6 1.2-2.6 2.6 0 .3 0 .5.1.8-2.7 2-5.9 3.1-9.3 3.1-5.4 0-10.4-2.8-13.2-7.3 2.6-1.6 4.2-4.4 4.2-7.5s-1.6-5.9-4.2-7.5c2.8-4.5 7.9-7.3 13.2-7.3 3.4 0 6.6 1.1 9.3 3.1-.1.2-.1.5-.1.8 0 1.4 1.2 2.6 2.6 2.6 1.4 0 2.6-1.2 2.6-2.6s-1.2-2.6-2.6-2.6c-.4 0-.8.1-1.1.3-3.1-2.3-6.7-3.6-10.6-3.6-6.1 0-11.8 3.2-15 8.4-.2.4-.4 1-.6 1.7 2.9.9 5 3.6 5 6.8s-2.1 5.9-5 6.8c.1.7.4 1.3.6 1.7 3.2 5.2 8.9 8.4 15 8.4 3.9 0 7.5-1.2 10.6-3.6.3.2.7.3 1.1.3 1.4 0 2.6-1.2 2.6-2.6 0-1.6-1.1-2.8-2.6-2.8M6.9 57.5c-.3 0-.5 0-.8.1-2-2.7-3.1-5.9-3.1-9.3 0-3.2 1-6.2 2.7-8.8.9-1.4 2.1-2.6 3.5-3.6.6-.4 1.1-.7 1.4-.8-.3-.8-.5-1.7-.5-2.6 0-.9.2-1.8.5-2.6-.6-.2-1.6-.8-2.8-2-.7-.7-1.4-1.4-1.9-2.2-.1-.1-.1-.2-.2-.3-1.8-2.6-2.8-5.6-2.8-8.8C2.9 13.2 4 10 6 7.3c.2.1.5.1.8.1 1.4 0 2.6-1.2 2.6-2.6S8.2 2.2 6.8 2.2 4.2 3.4 4.2 4.8c0 .4.1.8.3 1.1C2.2 9.1 1 12.8 1 16.6c0 5.8 2.9 11.2 7.7 14.5-.1.4-.1.9-.1 1.3s0 .9.1 1.3C3.9 37.1 1 42.5 1 48.4c0 3.9 1.2 7.5 3.6 10.6-.2.3-.3.7-.3 1.1 0 1.4 1.2 2.6 2.6 2.6s2.6-1.2 2.6-2.6-1.2-2.6-2.6-2.6" />
   <path class="st0" d="M37.3 53.5c-1.2 0-2.3.9-2.5 2-3.3.4-6.7-.3-9.6-2-2.5-1.5-4.5-3.5-5.9-6-.3-.5-.6-1.1-.8-1.7-.2-.5-.4-1.1-.6-1.7-.2-.7-.3-1.5-.4-2.3-.2-1-.2-1.8-.2-2.2-2.1 0-4-1-5.3-2.5-1.3 1.6-2.1 4.6-2.3 5.8-.2 1.1-.3 2.2-.3 3.3 0 3.1.8 6.1 2.4 8.8 1.9 3.4 4.8 5.9 8.4 7.4.1 1.3 1.2 2.4 2.6 2.4s2.6-1.2 2.6-2.6c0-1.4-1.2-2.6-2.6-2.6-.7 0-1.4.3-1.9.8-3.1-1.3-5.6-3.6-7.3-6.5-2.1-3.6-2.6-7.8-1.6-11.8.2-.7.5-1.5.8-2.2.8.5 1.8.9 2.7 1.2.1 1.2.3 2.4.6 3.5 1.2 4.5 4.1 8.3 8.2 10.7 3.3 1.9 7.2 2.7 11 2.2.5.7 1.3 1.1 2.1 1.1 1.4 0 2.6-1.2 2.6-2.6-.1-1.3-1.3-2.5-2.7-2.5" />
   <path class="st1" d="M23.1 32.5c0 3.2-2.6 5.7-5.7 5.7-3.2 0-5.7-2.6-5.7-5.7 0-3.2 2.6-5.7 5.7-5.7 3.2 0 5.7 2.5 5.7 5.7M42.9 28.9l-.8 1.5c-.2-.2-1.1-.7-2.2-.7-.7 0-1.3.3-1.3.7 0 .6.8.7 2.2 1.1s2.5 1.2 2.5 2.6c0 1.3-1.2 2.7-3.7 2.7-1.9 0-3.2-.9-3.5-1.1l.9-1.6c.6.4 1.5.9 2.6.9 1 0 1.6-.3 1.6-.8 0-.6-1.1-.8-2.2-1.2-1.2-.4-2.5-.9-2.5-2.3 0-1.5 1.5-2.5 3.5-2.5 1.4-.1 2.5.5 2.9.7M51.2 29.3L50 30.8c-.2-.2-.8-.7-1.9-.7-1.4 0-2.3 1.1-2.3 2.3 0 1.5 1 2.4 2.4 2.4 1.2 0 1.9-.8 1.9-.8l1.2 1.5c-.1.1-1.1 1.3-3.4 1.3-2.5 0-4.4-1.7-4.4-4.3 0-2.5 1.9-4.3 4.3-4.3 2.2-.1 3.3 1.1 3.4 1.1M53.9 28.4V30c.2-.9 1.1-1.9 2.5-1.9h.6l-.1 2h-.3c-1.5 0-2.5.4-2.5 1.8v4.6H52v-8.2h1.9v.1zM57.8 28.9c.2-.2 1.5-.8 2.9-.8 2.4 0 3.3 1.3 3.3 2.7v3.9c0 1.2.2 1.5.3 1.8l-1.8.3c-.1-.3-.2-.5-.2-.8-.2.2-.8.9-2.2.9-1.9 0-3-1.5-3-2.9 0-1.9 1.3-3 3.1-3 1.1 0 1.8.6 1.9.6v-.1c0-.8-.3-1.5-1.5-1.5-1 0-1.8.5-2 .6l-.8-1.7zm2.8 6.2c1 0 1.6-.7 1.6-1.3s-.5-1.3-1.6-1.3-1.5.7-1.5 1.3c0 .6.4 1.3 1.5 1.3M65.1 39.5V30c0-.6-.1-1-.2-1.1.3-.1 1.4-.8 3.6-.8 3 0 4.9 1.8 4.9 4.5 0 2.4-1.6 4.2-4.1 4.2-1.2 0-2-.4-2.1-.5v3.2h-2.1zm3.5-9.5c-.9 0-1.3.2-1.4.2V34c0 .5.7.8 1.6.8 1.3 0 2.5-.6 2.5-2.4 0-1.7-1.4-2.4-2.7-2.4M75.3 24.7c.7 0 1.3.5 1.3 1.3 0 .7-.6 1.3-1.3 1.3-.7 0-1.3-.5-1.3-1.3 0-.7.6-1.3 1.3-1.3m1.1 11.9h-2.1v-8.2h2.1v8.2zM85 36.6h-2.1v-4.9c0-1-.5-1.6-1.8-1.6-.8 0-1.1.1-1.4.2v6.4h-2.1V30c0-.9 0-.8-.3-1.1.6-.2 1.6-.6 3.8-.6 2.3 0 3.8 1.1 3.8 3.4l.1 4.9zM86.8 39.5l.8-1.7c.1.1.9.7 2.4.7 1.6 0 2.1-.7 2.1-1.8V36c-.1.1-.9.7-2.3.7-2.2 0-4.1-1.6-4.1-4.3 0-2.2 1.9-4.3 4.8-4.3 2.2 0 3.2.4 3.7.6-.2.2-.2.2-.2 1.2v7c0 1.6-1 3.4-4.1 3.4-1.7 0-3-.7-3.1-.8m5.2-6v-3.2c-.1-.1-.7-.2-1.6-.2-1.2 0-2.5.8-2.5 2.4 0 1.4 1 2.3 2.2 2.3 1.2 0 1.9-.6 1.9-1.3" />
   <path class="st0" d="M97.4 25.3V29c.3-.2 1.1-.9 2.5-.9 2.4 0 2.9 1.7 2.9 2.9v5.6h-2.1v-5.4c0-.7-.4-1.2-1.5-1.2-1 0-1.7.6-1.8.8v5.8h-2.1V25.3h2.1zM111.4 34.4c0 1.5.2 1.9.3 2.1l-2 .3c-.2-.4-.2-.9-.3-1.3-.2.3-.7 1.4-2.6 1.4-2 0-2.8-1.5-2.8-3v-5.4h2.1v5.1c0 1 .5 1.5 1.5 1.5.9 0 1.8-.6 1.8-1.6v-4.9h2v5.8zM114.7 25.3v3.3c.1-.1.9-.5 2.1-.5 2.5 0 4.1 1.9 4.1 4.2 0 2.9-2.2 4.4-5 4.4-1.6 0-2.4-.2-3.6-.7.2-.2.2-.8.2-1.1v-9.6h2.2zm1.8 4.7c-1.1 0-1.5.3-1.8.4v3.8c0 .4.6.6 1.4.6 1.7 0 2.7-.7 2.7-2.6 0-1-1-2.2-2.3-2.2" />
</svg>
