<?xml version="1.0" encoding="utf-8"?>
<!-- Generator: Adobe Illustrator 18.1.1, SVG Export Plug-In . SVG Version: 6.00 Build 0)  -->
<!DOCTYPE svg PUBLIC "-//W3C//DTD SVG 1.1//EN" "http://www.w3.org/Graphics/SVG/1.1/DTD/svg11.dtd">
<svg version="1.1" id="Layer_1" xmlns="http://www.w3.org/2000/svg" xmlns:xlink="http://www.w3.org/1999/xlink" x="0px" y="0px"
	 viewBox="0 207.4 511.9 97.2" enable-background="new 0 207.4 511.9 97.2" xml:space="preserve">
<g id="White_without_Tag" display="none">
	<rect x="-1.9" y="695.4" display="inline" width="546" height="136.5"/>
	<g display="inline">
		<path fill="#FFFFFF" d="M109,793.2c5.1,12,1,20.7-5.5,23.1c-7.4,2.8-16.7-2.3-18.6-11.2c-3.8-18.6,4.2-22.6-11.6-57.1
			C66.1,732.2,104.5,782.8,109,793.2z"/>
		<path fill="#FFFFFF" d="M73.7,711.5c-5.9-3.6-14.9-1.7-20.1,10.1c-1.2,2.8-4.2,12.2-7,22.4c-2.3,6.5-7.4,18.7-11.7,25.2
			c-0.2,0.3-0.4,0.8-0.6,1.1c-8.3,12.2-16.3,24.5-17.6,27.9c-3.4,8.3-1,15.7,6.4,18.6s16.9-2.3,18.6-11.1c1.2-5.3,1-15.7,3.2-29.2
			c1.3-5.6,5-18.6,13.6-27.5c6.1-5.9,11.4-8.3,17.8-16.2C82.3,725.9,80.4,715.4,73.7,711.5z"/>
		<circle fill="#FFFFFF" cx="64.2" cy="777.9" r="13.3"/>
		<path fill="#FFFFFF" d="M146.5,740.1h3.6l17.3,35.2h-4.8l-4.8-9.5h-19.1l-4.5,9.5h-4.8L146.5,740.1z M156.2,761.9l-7.8-15.5
			l-7.8,15.5H156.2z"/>
		<path fill="#FFFFFF" d="M179.6,740.1h4.3v31.3h22.8v4.2h-27.1L179.6,740.1L179.6,740.1z"/>
		<path fill="#FFFFFF" d="M218.8,740.1h27.5v4.2h-23.1v10.4h14v4.1h-14.1v12.7h24.7v4.2h-29L218.8,740.1L218.8,740.1z"/>
		<path fill="#FFFFFF" d="M260.7,740.1h19.9c1.7,0,3.2,0.2,4.5,0.6c1.3,0.3,2.5,1.1,3.6,1.9c1,0.8,1.7,1.9,2.3,3
			c0.6,1.1,0.8,2.7,0.8,4.1c0,1.3-0.2,2.5-0.6,3.4c-0.3,1.1-1,2.1-1.9,3c-0.8,1-1.7,1.7-2.7,2.3c-1,0.6-2.1,1-3.2,1.3l8.7,15.5h-4.8
			l-8.7-15.3h-13.4v15.3h-4.3L260.7,740.1L260.7,740.1L260.7,740.1z M280.4,756c1.2,0,2.1-0.2,2.8-0.3c0.8-0.2,1.5-0.6,2.1-1.2
			c0.6-0.6,1-1.1,1.2-1.7c0.2-0.8,0.3-1.5,0.3-2.5s-0.2-1.9-0.3-2.7c-0.2-0.8-0.8-1.3-1.2-1.9c-0.6-0.6-1.3-1-2.1-1.1
			c-0.8-0.2-1.7-0.3-2.7-0.3h-15.7v11.7L280.4,756L280.4,756z"/>
		<path fill="#FFFFFF" d="M312.3,744.3h-14.6v-4.2h33.8v4.2h-14.8v31.3h-4.5v-31.3H312.3L312.3,744.3z"/>
		<path fill="#FFFFFF" d="M340.1,740.1h4.3v31.3h22.8v4.2h-27.1V740.1L340.1,740.1z"/>
		<path fill="#FFFFFF" d="M394.5,776.3c-2.7,0-5.1-0.6-7.2-1.3c-2.1-0.7-4.1-2.1-5.9-3.8c-1.7-1.7-3-3.8-3.8-5.9
			c-0.8-2.3-1.3-4.8-1.3-7.4c0-2.6,0.3-5.1,1.3-7.2c0.8-2.3,2.1-4.1,3.8-5.9s3.6-3,5.6-4c2.1-1,4.5-1.3,7.2-1.3c2.7,0,5,0.3,7,1.3
			c2.1,1,4.1,2.3,5.9,4c1.7,1.7,3,3.8,4,5.9c1,2.3,1.3,4.5,1.3,7.2c0,1.3-0.2,2.7-0.3,3.8c-0.2,1.1-0.6,2.3-1,3.4
			c-0.3,1.1-1,2.3-1.7,3.2c-0.6,1-1.3,1.9-2.3,2.8c-1.7,1.7-3.6,3-5.6,3.8C399.6,776,397.2,776.3,394.5,776.3L394.5,776.3z
			 M399.8,771.4c1.5-0.8,3-1.7,4.3-3s2.3-2.8,2.8-4.5c0.6-1.7,1-3.6,1-5.9c0-2.1-0.3-4-1-5.6c-0.6-1.7-1.5-3.2-2.7-4.5
			c-1.3-1.3-2.8-2.5-4.3-3c-1.7-0.8-3.4-1.1-5.5-1.1c-2.1,0-3.8,0.3-5.5,1.1c-1.5,0.8-3,1.7-4.3,3c-1.3,1.3-2.3,2.8-2.8,4.5
			c-0.6,1.7-1,3.6-1,5.6c0,2.1,0.3,4.1,1,5.9c0.6,1.7,1.7,3.2,2.8,4.5c1.3,1.3,2.7,2.3,4.3,3c1.5,0.8,3.4,1,5.5,1
			C396.6,772.4,398.3,772,399.8,771.4z"/>
		<path fill="#FFFFFF" d="M453.9,760.8h-9.5v-4h13.8v10.6c-0.8,1.5-1.7,2.8-2.8,4c-1.1,1.2-2.3,2.1-3.6,2.8s-2.8,1.3-4.3,1.7
			s-3.2,0.6-5,0.6c-2.7,0-5.1-0.4-7.2-1.3c-2.1-0.8-4.1-2.1-5.9-3.8c-1.7-1.7-3-3.8-3.8-5.9c-0.8-2.3-1.3-4.8-1.3-7.4
			c0-2.6,0.3-5.1,1.3-7.2c0.8-2.3,2.1-4.2,3.8-5.9c1.7-1.7,3.6-3,5.6-4c2.1-1,4.5-1.3,7.2-1.3c1.5,0,3,0.2,4.5,0.6
			c1.5,0.4,2.8,1,4.1,1.5c1.3,0.8,2.5,1.5,3.6,2.7c1.1,1,2.1,2.3,2.8,3.6l-3.8,2.7c-0.2-0.6-0.6-1-0.8-1.5c-0.3-0.3-0.8-1-1.1-1.3
			c-0.4-0.4-1-0.8-1.3-1.1c-0.3-0.4-1-0.8-1.5-1c-1.2-0.6-2.3-1.2-3.2-1.3c-1.1-0.3-2.3-0.3-3.6-0.3c-2.1,0-3.8,0.3-5.5,1.1
			c-1.5,0.8-3,1.7-4.3,3s-2.3,2.8-2.8,4.5c-0.6,1.7-1,3.6-1,5.6s0.3,4.2,1,5.9c0.6,1.7,1.7,3.2,2.8,4.5c1.3,1.3,2.7,2.3,4.3,3
			c1.7,0.8,3.4,1,5.5,1c1.2,0,2.3-0.2,3.4-0.3c1.2-0.1,2.1-0.6,3-1.1c1-0.6,1.9-1.1,2.7-1.9c0.7-0.8,1.7-1.7,2.3-2.8V761h0.4
			L453.9,760.8L453.9,760.8z"/>
		<path fill="#FFFFFF" d="M473.9,739.9h4.3v35.6h-4.3V739.9z"/>
		<path fill="#FFFFFF" d="M527,767.1c-0.8,1.5-1.7,2.8-2.8,4c-1.1,1.2-2.3,2.3-3.8,3c-1.6,0.8-2.8,1.3-4.5,1.7
			c-1.5,0.3-3.2,0.6-5,0.6c-2.7,0-5.1-0.3-7.2-1.3c-2.1-0.8-4.2-2.1-5.9-3.8c-1.7-1.7-3-3.8-4-5.9c-0.8-2.3-1.3-4.8-1.3-7.4
			s0.4-5.1,1.3-7.2c0.8-2.3,2.1-4.1,4-5.9c1.7-1.7,3.6-3,5.6-4s4.5-1.3,7.2-1.3c1.5,0,3,0.2,4.5,0.6c1.5,0.3,2.8,1,4.2,1.5
			c1.3,0.8,2.5,1.5,3.6,2.7c1.2,1,2.1,2.3,2.8,3.6l-3.8,2.7c-0.2-0.6-0.6-1-0.8-1.5c-0.4-0.3-0.8-1-1.2-1.3c-0.4-0.4-1-0.8-1.3-1.2
			c-0.6-0.3-1-0.8-1.5-1c-1.2-0.6-2.1-1.1-3.2-1.3c-1.2-0.4-2.3-0.4-3.6-0.4c-2.1,0-3.8,0.4-5.5,1.2c-1.5,0.8-3,1.7-4.3,3
			s-2.3,2.8-2.8,4.5c-0.6,1.7-1,3.6-1,5.6c0,2.1,0.4,4.2,1,5.9c0.6,1.7,1.7,3.2,2.8,4.5c1.3,1.3,2.7,2.3,4.3,3c1.5,0.8,3.4,1,5.5,1
			c1.3,0,2.7-0.2,3.8-0.6c1.2-0.4,2.3-0.8,3.4-1.5c1.2-0.6,2.1-1.5,2.8-2.5c1-1,1.7-2.1,2.5-3.4L527,767.1z"/>
	</g>
</g>
<g id="White_with_Tag" display="none">
	<rect x="-1.9" y="695.4" display="inline" width="546" height="136.5"/>
	<g display="inline">
		<path fill="#FFFFFF" d="M109,792.7c5.1,12,1,20.7-5.5,23.1c-7.4,2.8-16.7-2.3-18.6-11.2c-3.8-18.6,4.2-22.6-11.6-57.1
			C66.1,731.8,104.5,782.2,109,792.7z"/>
		<path fill="#FFFFFF" d="M73.7,711c-5.9-3.6-14.9-1.7-20.1,10.1c-1.2,2.8-4.2,12.2-7,22.4c-2.3,6.4-7.4,18.7-11.7,25.2
			c-0.2,0.4-0.4,0.8-0.6,1.1c-8.3,12.2-16.4,24.5-17.6,27.9c-3.2,8.3-0.8,15.7,6.6,18.6c7.4,2.8,16.9-2.3,18.6-11
			c1.1-5.3,1-15.7,3.2-29.2c1.3-5.6,5-18.6,13.6-27.5c6.1-5.9,11.4-8.3,17.8-16.2C82.3,725.5,80.4,714.9,73.7,711z"/>
		<circle fill="#FFFFFF" cx="64.2" cy="777.3" r="13.3"/>
		<g>
			<path fill="#FFFFFF" d="M146.5,739.8h3.6l17.5,35.2h-4.7l-4.8-9.5h-19.4l-4.5,9.5h-4.8L146.5,739.8z M156.2,761.4l-7.8-15.6
				l-7.8,15.6H156.2z"/>
			<path fill="#FFFFFF" d="M179.6,739.8h4.3v31.3h22.8v4h-27.1L179.6,739.8L179.6,739.8z"/>
			<path fill="#FFFFFF" d="M218.8,739.8h27.5v4.1h-23.1v10.3h14v4.1h-14.1V771h24.7v4h-29L218.8,739.8L218.8,739.8z"/>
			<path fill="#FFFFFF" d="M260.7,739.8h19.9c1.7,0,3.2,0.2,4.5,0.6s2.5,1.2,3.6,1.9c1,0.8,1.7,1.9,2.3,3c0.6,1.1,0.8,2.7,0.8,4.1
				c0,1.3-0.2,2.5-0.6,3.4c-0.3,1.1-1,2.1-1.9,3c-0.8,1-1.7,1.7-2.7,2.3c-1,0.6-2.1,1-3.2,1.3l8.5,15.5h-4.8l-8.7-15.4H265V775h-4.3
				V739.8L260.7,739.8z M280.4,755.5c1.2,0,2.1-0.2,2.8-0.3c0.8-0.1,1.5-0.6,2.1-1.1c0.6-0.6,1-1.1,1.2-1.7c0.2-0.8,0.3-1.5,0.3-2.5
				s-0.2-1.9-0.3-2.7c-0.2-0.8-0.8-1.3-1.2-1.9c-0.6-0.6-1.3-1-2.1-1.2c-0.8-0.2-1.7-0.3-2.7-0.3h-15.7v11.7H280.4z"/>
			<path fill="#FFFFFF" d="M312.3,743.7h-14.6v-4.1h33.8v4.1h-14.8V775h-4.5v-31.3H312.3L312.3,743.7z"/>
			<path fill="#FFFFFF" d="M340.1,739.8h4.3v31.3h22.8v4h-27.1V739.8L340.1,739.8z"/>
			<path fill="#FFFFFF" d="M394.5,776c-2.7,0-5.1-0.6-7.2-1.3c-2.1-0.8-4.1-2.1-5.9-3.8c-1.7-1.7-3-3.8-3.8-5.9
				c-0.8-2.3-1.3-4.8-1.3-7.4c0-2.7,0.3-5.1,1.3-7.2c0.8-2.3,2.1-4.1,3.8-5.9s3.6-3,5.6-4c2.1-1,4.5-1.3,7.2-1.3c2.7,0,5,0.4,7,1.3
				c2.1,1,4.1,2.3,5.9,4c1.7,1.7,3,3.8,4,5.9c1,2.3,1.3,4.5,1.3,7.2c0,1.3-0.2,2.7-0.3,3.8c-0.2,1.1-0.6,2.3-1,3.4
				c-0.4,1.1-1,2.3-1.7,3.2c-0.6,1-1.3,1.9-2.3,2.8c-1.7,1.7-3.6,3-5.6,3.8C399.6,775.3,397.2,775.8,394.5,776L394.5,776z
				 M399.8,770.9c1.5-0.8,3-1.7,4.3-3s2.3-2.8,2.8-4.5c0.6-1.7,1-3.6,1-5.9c0-2.1-0.3-4-1-5.6c-0.6-1.7-1.5-3.2-2.7-4.5
				c-1.3-1.3-2.8-2.5-4.3-3c-1.7-0.8-3.4-1.1-5.5-1.1c-2.1,0-3.8,0.4-5.5,1.1c-1.5,0.8-3,1.7-4.3,3c-1.3,1.3-2.3,2.8-2.8,4.5
				c-0.6,1.7-1,3.6-1,5.6c0,2.1,0.3,4.2,1,5.9c0.6,1.7,1.7,3.2,2.8,4.5c1.3,1.3,2.7,2.3,4.3,3c1.5,0.8,3.4,1,5.5,1
				C396.6,771.8,398.3,771.5,399.8,770.9z"/>
			<path fill="#FFFFFF" d="M453.9,760.1h-9.5v-4h13.8v10.7c-0.8,1.5-1.7,2.8-2.8,4c-1.2,1.1-2.3,2.1-3.6,2.8
				c-1.3,0.8-2.8,1.3-4.3,1.7s-3.2,0.6-5,0.6c-2.7,0-5.1-0.3-7.2-1.3c-2.1-0.8-4.1-2.1-5.9-3.8c-1.7-1.7-3-3.8-3.8-5.9
				c-0.8-2.3-1.3-4.8-1.3-7.4c0-2.7,0.3-5.1,1.3-7.2c0.8-2.3,2.1-4.1,3.8-5.9c1.7-1.7,3.6-3,5.6-4c2.1-1,4.5-1.3,7.2-1.3
				c1.5,0,3,0.2,4.5,0.6c1.5,0.3,2.8,1,4.1,1.5c1.3,0.8,2.5,1.5,3.6,2.7c1.1,1,2.1,2.3,2.8,3.6l-3.8,2.7c-0.2-0.6-0.6-1-0.8-1.5
				c-0.3-0.4-0.8-1-1.1-1.3c-0.4-0.3-1-0.8-1.3-1.1s-1-0.8-1.5-1c-1.2-0.6-2.3-1.1-3.2-1.3c-1.1-0.4-2.3-0.4-3.6-0.4
				c-2.1,0-3.8,0.4-5.5,1.1c-1.5,0.8-3,1.7-4.3,3s-2.3,2.8-2.8,4.5c-0.6,1.7-1,3.6-1,5.6s0.3,4.2,1,5.9c0.6,1.7,1.7,3.2,2.8,4.5
				c1.3,1.3,2.7,2.3,4.3,3s3.4,1,5.5,1c1.2,0,2.3-0.2,3.4-0.3s2.1-0.6,3-1.1c1-0.6,1.9-1.1,2.7-1.9c0.7-0.8,1.7-1.7,2.3-2.8v-5.9
				h0.5V760.1z"/>
			<path fill="#FFFFFF" d="M473.9,739.6h4.3V775h-4.3V739.6z"/>
			<path fill="#FFFFFF" d="M527,766.5c-0.8,1.5-1.7,2.8-2.8,4s-2.3,2.3-3.8,3c-1.6,0.8-2.8,1.3-4.5,1.7c-1.5,0.4-3.2,0.6-5,0.6
				c-2.7,0-5.1-0.4-7.2-1.3c-2.1-0.8-4.2-2.1-5.9-3.8c-1.7-1.7-3-3.8-4-5.9c-0.8-2.3-1.3-4.8-1.3-7.4s0.4-5.1,1.3-7.2
				c0.8-2.3,2.1-4.2,4-5.9c1.7-1.7,3.6-3,5.6-4s4.5-1.3,7.2-1.3c1.5,0,3,0.2,4.5,0.6s2.8,1,4.2,1.5c1.3,0.8,2.5,1.5,3.6,2.7
				c1.2,1,2.1,2.3,2.8,3.6l-3.8,2.7c-0.2-0.6-0.6-1-0.8-1.5c-0.4-0.3-0.8-1-1.2-1.3s-1-0.8-1.3-1.1c-0.6-0.4-1-0.8-1.5-1
				c-1.2-0.6-2.1-1.1-3.2-1.3c-1.2-0.3-2.3-0.3-3.6-0.3c-2.1,0-3.8,0.3-5.5,1.1c-1.5,0.8-3,1.7-4.3,3s-2.3,2.8-2.8,4.5
				c-0.6,1.7-1,3.6-1,5.6s0.4,4.2,1,5.9c0.6,1.7,1.7,3.2,2.8,4.5c1.3,1.3,2.7,2.3,4.3,3c1.5,0.8,3.4,1,5.5,1c1.3,0,2.7-0.2,3.8-0.6
				c1.2-0.4,2.3-0.8,3.4-1.5c1.2-0.6,2.1-1.5,2.8-2.5c1-1,1.7-2.1,2.5-3.4L527,766.5z"/>
		</g>
		<g>
			<g>
				<path fill="#FFFFFF" d="M180.3,795c-0.8-1.1-1.7-1.5-3.2-1.5c-1.7,0-3.4,1-3.4,3c0,4.3,8.3,2.1,8.3,8c0,3-2.8,4.8-5.3,4.8
					c-1.9,0-4-0.8-5.1-2.5l1.5-1.2c0.8,1.2,2.1,1.9,3.8,1.9s3.6-1.1,3.6-3c0-4.5-8.3-2.1-8.3-8c0-3.2,2.7-4.8,5.3-4.8
					c1.9,0,3.4,0.6,4.5,1.9L180.3,795z"/>
				<path fill="#FFFFFF" d="M186,803.8c0.2,2.1,1.9,3.8,4,3.8c1.7,0,2.8-1,3.4-1.9l1.1,1c-1.3,1.7-2.8,2.3-4.8,2.3
					c-3.2,0-5.6-2.5-5.6-5.6c0-3.2,2.5-5.6,5.5-5.6c3.2,0,5.1,2.5,5.1,5.5v0.8L186,803.8L186,803.8z M193.2,802.5
					c0-2.1-1.3-3.4-3.6-3.4c-1.9,0-3.8,1.7-3.8,3.4H193.2z"/>
				<path fill="#FFFFFF" d="M205.5,800.4c-0.6-0.8-1.5-1.5-2.7-1.5c-2.5,0-4,1.9-4,4.3c0,2.5,1.5,4.3,4,4.3c1.1,0,2.3-0.6,2.7-1.5
					l1.3,1c-1.1,1.3-2.5,1.9-4,1.9c-3.6,0-5.6-2.5-5.6-5.6c0-3.2,2.3-5.6,5.6-5.6c1.5,0,2.8,0.6,4,1.9L205.5,800.4z"/>
				<path fill="#FFFFFF" d="M216.7,808.7c0-0.6,0-1.2,0-1.7l0,0c-0.8,1.1-2.3,2.1-3.6,2.1c-2.8,0-4-1.5-4-4.2V798h1.5v6.1
					c0,2.5,0.8,3.8,2.8,3.8c0.3,0,3.2-0.2,3.2-4.2v-5.5h1.5v8.5c0,0.6,0,1.5,0.2,2.5h-1.7L216.7,808.7L216.7,808.7z"/>
				<path fill="#FFFFFF" d="M221.8,801.3c0-1,0-1.9,0-3.4h1.5v2.1l0,0c0.3-1.1,1.5-2.3,3.4-2.3c0.3,0,0.8,0,1.1,0.2l-0.3,1.5
					c-0.2,0-0.3-0.2-1-0.2c-2.3,0-3.4,2.1-3.4,3.4v6.1h-1.3V801.3L221.8,801.3z"/>
				<path fill="#FFFFFF" d="M230.5,794.9c-0.6,0-1.1-0.3-1.1-1.1c0-0.6,0.6-1.1,1.1-1.1c0.6,0,1.1,0.3,1.1,1.1
					C231.5,794.3,230.9,794.9,230.5,794.9z M231.3,808.7h-1.5V798h1.5V808.7z"/>
				<path fill="#FFFFFF" d="M240.4,799.2h-3v6.4c0,1.7,0.6,1.9,1.5,1.9c0.6,0,1.1-0.2,1.5-0.3v1.3c-0.6,0.2-1.3,0.4-2.1,0.4
					c-1.1,0-2.7-0.6-2.7-2.8v-6.9h-2.3V798h2.3v-3h1.5v3h3v1.3h0.1l0,0H240.4z"/>
				<path fill="#FFFFFF" d="M246.6,806.9l3.2-8.9h1.9l-5.5,13.6c-0.6,1.7-1.5,2.7-3.4,2.7c-0.3,0-1,0-1.3-0.2l0.2-1.5
					c0.3,0.2,0.8,0.2,1.2,0.2c1.2,0,1.7-0.8,2.1-1.9l0.8-2.1l-4.3-11.1h1.9L246.6,806.9z"/>
				<path fill="#FFFFFF" d="M253.1,808.9c-0.8,0-1.3-0.6-1.3-1.3c0-0.6,0.6-1.3,1.3-1.3c0.7,0,1.3,0.6,1.3,1.3
					C254.4,808.2,253.8,808.9,253.1,808.9z"/>
				<path fill="#FFFFFF" d="M278.5,806.1c-1.2,1.7-3.4,3-6.1,3c-5,0-8.5-3.6-8.5-8.5s3.6-8.5,8.5-8.5c2.1,0,4.1,0.8,5.6,2.7
					l-1.5,1.1c-0.6-1.1-2.5-2.1-4.1-2.1c-4.1,0-6.6,3.2-6.6,7c0,3.8,2.5,7,6.6,7c1.7,0,3.4-0.6,4.8-2.5L278.5,806.1z"/>
				<path fill="#FFFFFF" d="M285.9,808.9c-3.4,0-5.6-2.5-5.6-5.6c0-3.2,2.5-5.6,5.6-5.6c3.4,0,5.6,2.5,5.6,5.6
					C291.6,806.6,289.3,808.9,285.9,808.9z M285.9,799.1c-2.5,0-4,1.9-4,4.3c0,2.4,1.5,4.3,4,4.3c2.5,0,4.1-1.9,4.1-4.3
					C290,801,288.3,799.1,285.9,799.1z"/>
				<path fill="#FFFFFF" d="M294.4,800.2c0-0.8,0-1.5-0.2-2.5h1.7v1.7l0,0c0.8-1.3,2.3-1.9,3.4-1.9c1.2,0,2.7,0.3,3.4,2.3
					c0.6-1.3,2.1-2.3,3.6-2.3c2.8,0,4,1.5,4,4.1v6.9H309v-6.3c0-2.3-0.6-3.4-2.7-3.4c-2.3,0-3,1.9-3,4v5.6h-1.5v-6.3
					c0-2.3-0.6-3.4-2.7-3.4c-0.3,0-3,0.2-3,4.2v5.5h-1.5v-8.3L294.4,800.2L294.4,800.2z"/>
				<path fill="#FFFFFF" d="M314.1,798h1.5v1.9l0,0c1-1.5,2.8-2.1,4.1-2.1c3.4,0,5.6,2.5,5.6,5.6c0,3.2-2.5,5.6-5.6,5.6
					c-1.5,0-3.2-0.6-4.1-2.1l0,0v8.5h-1.5V798z M319.8,799.1c-2.5,0-4.3,1.9-4.3,4.3c0,2.4,1.9,4.3,4.3,4.3c2.4,0,4.1-1.9,4.1-4.3
					C324,801,322.3,799.1,319.8,799.1z"/>
				<path fill="#FFFFFF" d="M330,808.7h-1.5v-17.5h1.5V808.7z"/>
				<path fill="#FFFFFF" d="M334.8,794.9c-0.6,0-1.2-0.3-1.2-1.1c0-0.6,0.6-1.1,1.2-1.1s1.1,0.3,1.1,1.1
					C335.9,794.3,335.3,794.9,334.8,794.9z M335.5,808.7H334V798h1.5V808.7z"/>
				<path fill="#FFFFFF" d="M346.2,802.1v-0.2c0-1.9-1-2.8-2.8-2.8c-1.3,0-2.5,0.4-3.2,1.3l-1-1.1c1-1,2.5-1.5,4.5-1.5
					c2.1,0,4,1.1,4,3.8v4.8c0,0.8,0,1.9,0.2,2.5h-1.5c0-0.6-0.2-1.1-0.2-1.7l0,0c-1,1.5-2.1,2.1-3.8,2.1c-1.9,0-3.8-1.1-3.8-3.2
					c0-3.6,4.1-3.8,6.6-3.8H346.2L346.2,802.1z M345.4,803.3c-1.5,0-5.1,0.2-5.1,2.3c0,1.5,1.3,1.9,2.5,1.9c2.3,0,3.2-1.5,3.2-3.4
					v-0.8L345.4,803.3L345.4,803.3L345.4,803.3z"/>
				<path fill="#FFFFFF" d="M352.6,798c0,0.6,0,1.1,0,1.7l0,0c0.8-1.1,2.3-2.1,3.6-2.1c2.8,0,4,1.5,4,4.1v6.9h-1.5v-6.1
					c0-2.5-0.8-3.8-2.8-3.8c-0.3,0-3.2,0.2-3.2,4.1v5.5h-1.5v-8.5c0-0.6,0-1.5-0.2-2.5h1.7L352.6,798L352.6,798z"/>
				<path fill="#FFFFFF" d="M372,800.4c-0.6-0.8-1.5-1.5-2.7-1.5c-2.5,0-4,1.9-4,4.3c0,2.5,1.5,4.3,4,4.3c1.2,0,2.3-0.6,2.7-1.5
					l1.3,1c-1.2,1.3-2.5,1.9-4,1.9c-3.6,0-5.6-2.5-5.6-5.6c0-3.2,2.3-5.6,5.6-5.6c1.5,0,2.8,0.6,4,1.9L372,800.4z"/>
				<path fill="#FFFFFF" d="M376.3,803.8c0.2,2.1,1.9,3.8,4,3.8c1.7,0,2.8-1,3.4-1.9l1.2,1c-1.3,1.7-2.8,2.3-4.8,2.3
					c-3.2,0-5.6-2.5-5.6-5.6c0-3.2,2.5-5.6,5.5-5.6c3.2,0,5.1,2.5,5.1,5.5v0.8L376.3,803.8L376.3,803.8z M383.7,802.5
					c0-2.1-1.3-3.4-3.6-3.4c-1.9,0-3.8,1.7-3.8,3.4H383.7z"/>
				<path fill="#FFFFFF" d="M389.6,808.9c-0.8,0-1.3-0.6-1.3-1.3c0-0.6,0.6-1.3,1.3-1.3c0.8,0,1.3,0.6,1.3,1.3
					C390.9,808.2,390.3,808.9,389.6,808.9z"/>
				<path fill="#FFFFFF" d="M415,806.1c-1.2,1.7-3.4,3-6.1,3c-5,0-8.5-3.6-8.5-8.5s3.6-8.5,8.5-8.5c2.1,0,4.1,0.8,5.6,2.7l-1.5,1.1
					c-0.6-1.1-2.5-2.1-4.1-2.1c-4.1,0-6.6,3.2-6.6,7c0,3.8,2.5,7,6.6,7c1.7,0,3.4-0.6,4.8-2.5L415,806.1z"/>
				<path fill="#FFFFFF" d="M419,808.7h-1.5v-17.5h1.5V808.7z"/>
				<path fill="#FFFFFF" d="M427.9,808.9c-3.4,0-5.6-2.5-5.6-5.6c0-3.2,2.5-5.6,5.6-5.6c3.4,0,5.6,2.5,5.6,5.6
					C433.6,806.6,431.3,808.9,427.9,808.9z M427.9,799.1c-2.5,0-4,1.9-4,4.3c0,2.4,1.5,4.3,4,4.3c2.5,0,4.1-1.9,4.1-4.3
					C432,801,430.3,799.1,427.9,799.1z"/>
				<path fill="#FFFFFF" d="M444.2,808.7c0-0.6,0-1.2,0-1.7l0,0c-0.8,1.1-2.3,2.1-3.6,2.1c-2.8,0-4-1.5-4-4.2V798h1.5v6.1
					c0,2.5,0.8,3.8,2.8,3.8c0.3,0,3.2-0.2,3.2-4.2v-5.5h1.5v8.5c0,0.6,0,1.5,0.2,2.5h-1.7L444.2,808.7L444.2,808.7L444.2,808.7z"/>
				<path fill="#FFFFFF" d="M460.1,808.7h-1.5v-1.9l0,0c-1,1.5-2.8,2.1-4.1,2.1c-3.4,0-5.6-2.5-5.6-5.6c0-3.2,2.5-5.6,5.6-5.6
					c1.5,0,3.2,0.6,4.1,2.1l0,0v-8.5h1.5V808.7z M454.3,807.6c2.5,0,4.3-1.9,4.3-4.3c0-2.5-1.9-4.3-4.3-4.3c-2.4,0-4.1,1.9-4.1,4.3
					C450.1,805.6,451.8,807.6,454.3,807.6z"/>
				<path fill="#FFFFFF" d="M464.8,808.9c-0.8,0-1.3-0.6-1.3-1.3c0-0.6,0.6-1.3,1.3-1.3c0.8,0,1.3,0.6,1.3,1.3
					C466.2,808.2,465.6,808.9,464.8,808.9z"/>
			</g>
		</g>
	</g>
</g>
<g id="Gray_without_Tag" display="none">
	<g display="inline">
		<path fill="#FFFFFF" d="M109,793.2c5.1,12,1,20.7-5.5,23.1c-7.4,2.8-16.7-2.3-18.6-11.2c-3.8-18.6,4.2-22.6-11.6-57.1
			C66.1,732.2,104.5,782.8,109,793.2z"/>
		<path fill="#FFFFFF" d="M73.7,711.5c-5.9-3.6-14.9-1.7-20.1,10.1c-1.2,2.8-4.2,12.2-7,22.4c-2.3,6.5-7.4,18.7-11.7,25.2
			c-0.2,0.3-0.4,0.8-0.6,1.1c-8.3,12.2-16.3,24.5-17.6,27.9c-3.4,8.3-1,15.7,6.4,18.6s16.9-2.3,18.6-11.1c1.2-5.3,1-15.7,3.2-29.2
			c1.3-5.6,5-18.6,13.6-27.5c6.1-5.9,11.4-8.3,17.8-16.2C82.3,725.9,80.4,715.4,73.7,711.5z"/>
		<circle fill="#FFFFFF" cx="64.2" cy="777.9" r="13.3"/>
		<path fill="#FFFFFF" d="M146.5,740.1h3.6l17.3,35.2h-4.8l-4.8-9.5h-19.1l-4.5,9.5h-4.8L146.5,740.1z M156.2,761.9l-7.8-15.5
			l-7.8,15.5H156.2z"/>
		<path fill="#FFFFFF" d="M179.6,740.1h4.3v31.3h22.8v4.2h-27.1L179.6,740.1L179.6,740.1z"/>
		<path fill="#FFFFFF" d="M218.8,740.1h27.5v4.2h-23.1v10.4h14v4.1h-14.1v12.7h24.7v4.2h-29L218.8,740.1L218.8,740.1z"/>
		<path fill="#FFFFFF" d="M260.7,740.1h19.9c1.7,0,3.2,0.2,4.5,0.6c1.3,0.3,2.5,1.1,3.6,1.9c1,0.8,1.7,1.9,2.3,3
			c0.6,1.1,0.8,2.7,0.8,4.1c0,1.3-0.2,2.5-0.6,3.4c-0.3,1.1-1,2.1-1.9,3c-0.8,1-1.7,1.7-2.7,2.3c-1,0.6-2.1,1-3.2,1.3l8.7,15.5h-4.8
			l-8.7-15.3h-13.4v15.3h-4.3L260.7,740.1L260.7,740.1L260.7,740.1z M280.4,756c1.2,0,2.1-0.2,2.8-0.3c0.8-0.2,1.5-0.6,2.1-1.2
			c0.6-0.6,1-1.1,1.2-1.7c0.2-0.8,0.3-1.5,0.3-2.5s-0.2-1.9-0.3-2.7c-0.2-0.8-0.8-1.3-1.2-1.9c-0.6-0.6-1.3-1-2.1-1.1
			c-0.8-0.2-1.7-0.3-2.7-0.3h-15.7v11.7L280.4,756L280.4,756z"/>
		<path fill="#FFFFFF" d="M312.3,744.3h-14.6v-4.2h33.8v4.2h-14.8v31.3h-4.5v-31.3H312.3L312.3,744.3z"/>
		<path fill="#FFFFFF" d="M340.1,740.1h4.3v31.3h22.8v4.2h-27.1V740.1L340.1,740.1z"/>
		<path fill="#FFFFFF" d="M394.5,776.3c-2.7,0-5.1-0.6-7.2-1.3c-2.1-0.7-4.1-2.1-5.9-3.8c-1.7-1.7-3-3.8-3.8-5.9
			c-0.8-2.3-1.3-4.8-1.3-7.4c0-2.6,0.3-5.1,1.3-7.2c0.8-2.3,2.1-4.1,3.8-5.9s3.6-3,5.6-4c2.1-1,4.5-1.3,7.2-1.3c2.7,0,5,0.3,7,1.3
			c2.1,1,4.1,2.3,5.9,4c1.7,1.7,3,3.8,4,5.9c1,2.3,1.3,4.5,1.3,7.2c0,1.3-0.2,2.7-0.3,3.8c-0.2,1.1-0.6,2.3-1,3.4
			c-0.3,1.1-1,2.3-1.7,3.2c-0.6,1-1.3,1.9-2.3,2.8c-1.7,1.7-3.6,3-5.6,3.8C399.6,776,397.2,776.3,394.5,776.3L394.5,776.3z
			 M399.8,771.4c1.5-0.8,3-1.7,4.3-3s2.3-2.8,2.8-4.5c0.6-1.7,1-3.6,1-5.9c0-2.1-0.3-4-1-5.6c-0.6-1.7-1.5-3.2-2.7-4.5
			c-1.3-1.3-2.8-2.5-4.3-3c-1.7-0.8-3.4-1.1-5.5-1.1c-2.1,0-3.8,0.3-5.5,1.1c-1.5,0.8-3,1.7-4.3,3c-1.3,1.3-2.3,2.8-2.8,4.5
			c-0.6,1.7-1,3.6-1,5.6c0,2.1,0.3,4.1,1,5.9c0.6,1.7,1.7,3.2,2.8,4.5c1.3,1.3,2.7,2.3,4.3,3c1.5,0.8,3.4,1,5.5,1
			C396.6,772.4,398.3,772,399.8,771.4z"/>
		<path fill="#FFFFFF" d="M453.9,760.8h-9.5v-4h13.8v10.6c-0.8,1.5-1.7,2.8-2.8,4c-1.1,1.2-2.3,2.1-3.6,2.8s-2.8,1.3-4.3,1.7
			s-3.2,0.6-5,0.6c-2.7,0-5.1-0.4-7.2-1.3c-2.1-0.8-4.1-2.1-5.9-3.8c-1.7-1.7-3-3.8-3.8-5.9c-0.8-2.3-1.3-4.8-1.3-7.4
			c0-2.6,0.3-5.1,1.3-7.2c0.8-2.3,2.1-4.2,3.8-5.9c1.7-1.7,3.6-3,5.6-4c2.1-1,4.5-1.3,7.2-1.3c1.5,0,3,0.2,4.5,0.6
			c1.5,0.4,2.8,1,4.1,1.5c1.3,0.8,2.5,1.5,3.6,2.7c1.1,1,2.1,2.3,2.8,3.6l-3.8,2.7c-0.2-0.6-0.6-1-0.8-1.5c-0.3-0.3-0.8-1-1.1-1.3
			c-0.4-0.4-1-0.8-1.3-1.1c-0.3-0.4-1-0.8-1.5-1c-1.2-0.6-2.3-1.2-3.2-1.3c-1.1-0.3-2.3-0.3-3.6-0.3c-2.1,0-3.8,0.3-5.5,1.1
			c-1.5,0.8-3,1.7-4.3,3s-2.3,2.8-2.8,4.5c-0.6,1.7-1,3.6-1,5.6s0.3,4.2,1,5.9c0.6,1.7,1.7,3.2,2.8,4.5c1.3,1.3,2.7,2.3,4.3,3
			c1.7,0.8,3.4,1,5.5,1c1.2,0,2.3-0.2,3.4-0.3c1.2-0.1,2.1-0.6,3-1.1c1-0.6,1.9-1.1,2.7-1.9c0.7-0.8,1.7-1.7,2.3-2.8V761h0.4
			L453.9,760.8L453.9,760.8z"/>
		<path fill="#FFFFFF" d="M473.9,739.9h4.3v35.6h-4.3V739.9z"/>
		<path fill="#FFFFFF" d="M527,767.1c-0.8,1.5-1.7,2.8-2.8,4c-1.1,1.2-2.3,2.3-3.8,3c-1.6,0.8-2.8,1.3-4.5,1.7
			c-1.5,0.3-3.2,0.6-5,0.6c-2.7,0-5.1-0.3-7.2-1.3c-2.1-0.8-4.2-2.1-5.9-3.8c-1.7-1.7-3-3.8-4-5.9c-0.8-2.3-1.3-4.8-1.3-7.4
			s0.4-5.1,1.3-7.2c0.8-2.3,2.1-4.1,4-5.9c1.7-1.7,3.6-3,5.6-4s4.5-1.3,7.2-1.3c1.5,0,3,0.2,4.5,0.6c1.5,0.3,2.8,1,4.2,1.5
			c1.3,0.8,2.5,1.5,3.6,2.7c1.2,1,2.1,2.3,2.8,3.6l-3.8,2.7c-0.2-0.6-0.6-1-0.8-1.5c-0.4-0.3-0.8-1-1.2-1.3c-0.4-0.4-1-0.8-1.3-1.2
			c-0.6-0.3-1-0.8-1.5-1c-1.2-0.6-2.1-1.1-3.2-1.3c-1.2-0.4-2.3-0.4-3.6-0.4c-2.1,0-3.8,0.4-5.5,1.2c-1.5,0.8-3,1.7-4.3,3
			s-2.3,2.8-2.8,4.5c-0.6,1.7-1,3.6-1,5.6c0,2.1,0.4,4.2,1,5.9c0.6,1.7,1.7,3.2,2.8,4.5c1.3,1.3,2.7,2.3,4.3,3c1.5,0.8,3.4,1,5.5,1
			c1.3,0,2.7-0.2,3.8-0.6c1.2-0.4,2.3-0.8,3.4-1.5c1.2-0.6,2.1-1.5,2.8-2.5c1-1,1.7-2.1,2.5-3.4L527,767.1z"/>
	</g>
</g>
<g id="Gray_with_Tag" display="none">
	<g display="inline">
		<path fill="#FFFFFF" d="M109,793.2c5.1,12,1,20.7-5.5,23.1c-7.4,2.8-16.7-2.3-18.6-11.2c-3.8-18.6,4.2-22.6-11.6-57.1
			C66.1,732.2,104.5,782.8,109,793.2z"/>
		<path fill="#FFFFFF" d="M73.7,711.5c-5.9-3.6-14.9-1.7-20.1,10.1c-1.2,2.8-4.2,12.2-7,22.4c-2.3,6.5-7.4,18.7-11.7,25.2
			c-0.2,0.3-0.4,0.8-0.6,1.1c-8.3,12.2-16.3,24.5-17.6,27.9c-3.4,8.3-1,15.7,6.4,18.6s16.9-2.3,18.6-11.1c1.2-5.3,1-15.7,3.2-29.2
			c1.3-5.6,5-18.6,13.6-27.5c6.1-5.9,11.4-8.3,17.8-16.2C82.3,725.9,80.4,715.4,73.7,711.5z"/>
		<circle fill="#FFFFFF" cx="64.2" cy="777.9" r="13.3"/>
		<g>
			<path fill="#FFFFFF" d="M146.5,740.1h3.6l17.3,35.2h-4.8l-4.8-9.5h-19.1l-4.5,9.5h-4.8L146.5,740.1z M156.2,761.9l-7.8-15.5
				l-7.8,15.5H156.2z"/>
			<path fill="#FFFFFF" d="M179.6,740.1h4.3v31.3h22.8v4.2h-27.1L179.6,740.1L179.6,740.1z"/>
			<path fill="#FFFFFF" d="M218.8,740.1h27.5v4.2h-23.1v10.4h14v4.1h-14.1v12.7h24.7v4.2h-29L218.8,740.1L218.8,740.1z"/>
			<path fill="#FFFFFF" d="M260.7,740.1h19.9c1.7,0,3.2,0.2,4.5,0.6c1.3,0.3,2.5,1.1,3.6,1.9c1,0.8,1.7,1.9,2.3,3
				c0.6,1.1,0.8,2.7,0.8,4.1c0,1.3-0.2,2.5-0.6,3.4c-0.3,1.1-1,2.1-1.9,3c-0.8,1-1.7,1.7-2.7,2.3c-1,0.6-2.1,1-3.2,1.3l8.7,15.5
				h-4.8l-8.7-15.3h-13.4v15.3h-4.3L260.7,740.1L260.7,740.1L260.7,740.1z M280.4,756c1.2,0,2.1-0.2,2.8-0.3
				c0.8-0.2,1.5-0.6,2.1-1.2c0.6-0.6,1-1.1,1.2-1.7c0.2-0.8,0.3-1.5,0.3-2.5s-0.2-1.9-0.3-2.7c-0.2-0.8-0.8-1.3-1.2-1.9
				c-0.6-0.6-1.3-1-2.1-1.1c-0.8-0.2-1.7-0.3-2.7-0.3h-15.7v11.7L280.4,756L280.4,756z"/>
			<path fill="#FFFFFF" d="M312.3,744.3h-14.6v-4.2h33.8v4.2h-14.8v31.3h-4.5v-31.3H312.3L312.3,744.3z"/>
			<path fill="#FFFFFF" d="M340.1,740.1h4.3v31.3h22.8v4.2h-27.1V740.1L340.1,740.1z"/>
			<path fill="#FFFFFF" d="M394.5,776.3c-2.7,0-5.1-0.6-7.2-1.3c-2.1-0.7-4.1-2.1-5.9-3.8c-1.7-1.7-3-3.8-3.8-5.9
				c-0.8-2.3-1.3-4.8-1.3-7.4c0-2.6,0.3-5.1,1.3-7.2c0.8-2.3,2.1-4.1,3.8-5.9s3.6-3,5.6-4c2.1-1,4.5-1.3,7.2-1.3c2.7,0,5,0.3,7,1.3
				c2.1,1,4.1,2.3,5.9,4c1.7,1.7,3,3.8,4,5.9c1,2.3,1.3,4.5,1.3,7.2c0,1.3-0.2,2.7-0.3,3.8c-0.2,1.1-0.6,2.3-1,3.4
				c-0.3,1.1-1,2.3-1.7,3.2c-0.6,1-1.3,1.9-2.3,2.8c-1.7,1.7-3.6,3-5.6,3.8C399.6,776,397.2,776.3,394.5,776.3L394.5,776.3z
				 M399.8,771.4c1.5-0.8,3-1.7,4.3-3s2.3-2.8,2.8-4.5c0.6-1.7,1-3.6,1-5.9c0-2.1-0.3-4-1-5.6c-0.6-1.7-1.5-3.2-2.7-4.5
				c-1.3-1.3-2.8-2.5-4.3-3c-1.7-0.8-3.4-1.1-5.5-1.1c-2.1,0-3.8,0.3-5.5,1.1c-1.5,0.8-3,1.7-4.3,3c-1.3,1.3-2.3,2.8-2.8,4.5
				c-0.6,1.7-1,3.6-1,5.6c0,2.1,0.3,4.1,1,5.9c0.6,1.7,1.7,3.2,2.8,4.5c1.3,1.3,2.7,2.3,4.3,3c1.5,0.8,3.4,1,5.5,1
				C396.6,772.4,398.3,772,399.8,771.4z"/>
			<path fill="#FFFFFF" d="M453.9,760.8h-9.5v-4h13.8v10.6c-0.8,1.5-1.7,2.8-2.8,4c-1.1,1.2-2.3,2.1-3.6,2.8s-2.8,1.3-4.3,1.7
				s-3.2,0.6-5,0.6c-2.7,0-5.1-0.4-7.2-1.3c-2.1-0.8-4.1-2.1-5.9-3.8c-1.7-1.7-3-3.8-3.8-5.9c-0.8-2.3-1.3-4.8-1.3-7.4
				c0-2.6,0.3-5.1,1.3-7.2c0.8-2.3,2.1-4.2,3.8-5.9c1.7-1.7,3.6-3,5.6-4c2.1-1,4.5-1.3,7.2-1.3c1.5,0,3,0.2,4.5,0.6
				c1.5,0.4,2.8,1,4.1,1.5c1.3,0.8,2.5,1.5,3.6,2.7c1.1,1,2.1,2.3,2.8,3.6l-3.8,2.7c-0.2-0.6-0.6-1-0.8-1.5c-0.3-0.3-0.8-1-1.1-1.3
				c-0.4-0.4-1-0.8-1.3-1.1c-0.3-0.4-1-0.8-1.5-1c-1.2-0.6-2.3-1.2-3.2-1.3c-1.1-0.3-2.3-0.3-3.6-0.3c-2.1,0-3.8,0.3-5.5,1.1
				c-1.5,0.8-3,1.7-4.3,3s-2.3,2.8-2.8,4.5c-0.6,1.7-1,3.6-1,5.6s0.3,4.2,1,5.9c0.6,1.7,1.7,3.2,2.8,4.5c1.3,1.3,2.7,2.3,4.3,3
				c1.7,0.8,3.4,1,5.5,1c1.2,0,2.3-0.2,3.4-0.3c1.2-0.1,2.1-0.6,3-1.1c1-0.6,1.9-1.1,2.7-1.9c0.7-0.8,1.7-1.7,2.3-2.8V761h0.4
				L453.9,760.8L453.9,760.8z"/>
			<path fill="#FFFFFF" d="M473.9,739.9h4.3v35.6h-4.3V739.9z"/>
			<path fill="#FFFFFF" d="M527,767.1c-0.8,1.5-1.7,2.8-2.8,4c-1.1,1.2-2.3,2.3-3.8,3c-1.6,0.8-2.8,1.3-4.5,1.7
				c-1.5,0.3-3.2,0.6-5,0.6c-2.7,0-5.1-0.3-7.2-1.3c-2.1-0.8-4.2-2.1-5.9-3.8c-1.7-1.7-3-3.8-4-5.9c-0.8-2.3-1.3-4.8-1.3-7.4
				s0.4-5.1,1.3-7.2c0.8-2.3,2.1-4.1,4-5.9c1.7-1.7,3.6-3,5.6-4s4.5-1.3,7.2-1.3c1.5,0,3,0.2,4.5,0.6c1.5,0.3,2.8,1,4.2,1.5
				c1.3,0.8,2.5,1.5,3.6,2.7c1.2,1,2.1,2.3,2.8,3.6l-3.8,2.7c-0.2-0.6-0.6-1-0.8-1.5c-0.4-0.3-0.8-1-1.2-1.3c-0.4-0.4-1-0.8-1.3-1.2
				c-0.6-0.3-1-0.8-1.5-1c-1.2-0.6-2.1-1.1-3.2-1.3c-1.2-0.4-2.3-0.4-3.6-0.4c-2.1,0-3.8,0.4-5.5,1.2c-1.5,0.8-3,1.7-4.3,3
				s-2.3,2.8-2.8,4.5c-0.6,1.7-1,3.6-1,5.6c0,2.1,0.4,4.2,1,5.9c0.6,1.7,1.7,3.2,2.8,4.5c1.3,1.3,2.7,2.3,4.3,3c1.5,0.8,3.4,1,5.5,1
				c1.3,0,2.7-0.2,3.8-0.6c1.2-0.4,2.3-0.8,3.4-1.5c1.2-0.6,2.1-1.5,2.8-2.5c1-1,1.7-2.1,2.5-3.4L527,767.1z"/>
		</g>
		<g>
			<g>
				<path fill="#FFFFFF" d="M180.3,795.5c-0.8-1.2-1.7-1.5-3.2-1.5c-1.7,0-3.4,1-3.4,3c0,4.3,8.3,2.1,8.3,8c0,3-2.8,4.8-5.3,4.8
					c-1.9,0-4-0.8-5.1-2.5l1.5-1.1c0.8,1.1,2.1,1.9,3.8,1.9s3.6-1.1,3.6-3c0-4.5-8.3-2.1-8.3-8c0-3.2,2.7-4.8,5.3-4.8
					c1.9,0,3.4,0.6,4.5,1.9L180.3,795.5z"/>
				<path fill="#FFFFFF" d="M186,804.2c0.2,2.1,1.9,3.8,4,3.8c1.7,0,2.8-1,3.4-1.9l1.1,1c-1.3,1.7-2.8,2.3-4.8,2.3
					c-3.2,0-5.6-2.5-5.6-5.6c0-3.2,2.5-5.6,5.5-5.6c3.2,0,5.1,2.5,5.1,5.5v0.8H186V804.2z M193.2,803.1c0-2.1-1.3-3.4-3.6-3.4
					c-1.9,0-3.8,1.7-3.8,3.4H193.2z"/>
				<path fill="#FFFFFF" d="M205.5,801c-0.6-0.8-1.5-1.5-2.7-1.5c-2.5,0-4,1.9-4,4.3c0,2.5,1.5,4.3,4,4.3c1.1,0,2.3-0.6,2.7-1.5
					l1.3,1c-1.1,1.3-2.5,1.9-4,1.9c-3.6,0-5.6-2.5-5.6-5.6c0-3.2,2.3-5.6,5.6-5.6c1.5,0,2.8,0.6,4,1.9L205.5,801z"/>
				<path fill="#FFFFFF" d="M216.7,809.3c0-0.6,0-1.1,0-1.7l0,0c-0.8,1.1-2.3,2.1-3.6,2.1c-2.8,0-4-1.5-4-4.1v-6.9h1.5v6.1
					c0,2.5,0.8,3.8,2.8,3.8c0.3,0,3.2-0.2,3.2-4.1v-5.5h1.5v8.3c0,0.6,0,1.5,0.2,2.5h-1.7L216.7,809.3L216.7,809.3z"/>
				<path fill="#FFFFFF" d="M221.8,801.8c0-1,0-1.9,0-3.4h1.5v2.1l0,0c0.3-1.1,1.5-2.3,3.4-2.3c0.3,0,0.8,0,1.1,0.2l-0.3,1.5
					c-0.2,0-0.3-0.2-1-0.2c-2.3,0-3.4,2.1-3.4,3.4v6.1h-1.3V801.8L221.8,801.8z"/>
				<path fill="#FFFFFF" d="M230.5,795.2c-0.6,0-1.1-0.3-1.1-1.1c0-0.6,0.6-1.1,1.1-1.1c0.6,0,1.1,0.4,1.1,1.1
					C231.5,794.9,230.9,795.2,230.5,795.2z M231.3,809.3h-1.5v-10.8h1.5V809.3z"/>
				<path fill="#FFFFFF" d="M240.4,799.8h-3v6.5c0,1.7,0.6,1.9,1.5,1.9c0.6,0,1.1-0.2,1.5-0.3v1.3c-0.6,0.2-1.3,0.3-2.1,0.3
					c-1.1,0-2.7-0.6-2.7-2.8v-6.9h-2.3v-1.3h2.3v-3h1.5v3h3v1.3h0.1l0,0H240.4z"/>
				<path fill="#FFFFFF" d="M246.6,807.4l3.2-8.9h1.9l-5.5,13.6c-0.6,1.7-1.5,2.7-3.4,2.7c-0.3,0-1,0-1.3-0.2l0.2-1.5
					c0.3,0.2,0.8,0.2,1.2,0.2c1.2,0,1.7-0.8,2.1-1.9l0.8-2.1l-4.3-11h1.9L246.6,807.4z"/>
				<path fill="#FFFFFF" d="M253.1,809.3c-0.8,0-1.3-0.6-1.3-1.3c0-0.6,0.6-1.3,1.3-1.3c0.7,0,1.3,0.6,1.3,1.3
					S253.8,809.3,253.1,809.3z"/>
				<path fill="#FFFFFF" d="M278.5,806.6c-1.2,1.7-3.4,3-6.1,3c-5,0-8.5-3.6-8.5-8.5s3.6-8.5,8.5-8.5c2.1,0,4.1,0.8,5.6,2.7
					l-1.5,1.2c-0.6-1.2-2.5-2.1-4.1-2.1c-4.1,0-6.6,3.2-6.6,7c0,3.8,2.5,7,6.6,7c1.7,0,3.4-0.6,4.8-2.5L278.5,806.6z"/>
				<path fill="#FFFFFF" d="M285.9,809.5c-3.4,0-5.6-2.5-5.6-5.6c0-3.2,2.5-5.6,5.6-5.6c3.4,0,5.6,2.5,5.6,5.6
					C291.6,807.1,289.3,809.5,285.9,809.5z M285.9,799.4c-2.5,0-4,1.9-4,4.3c0,2.5,1.5,4.3,4,4.3c2.5,0,4.1-1.9,4.1-4.3
					C289.8,801.3,288.3,799.4,285.9,799.4z"/>
				<path fill="#FFFFFF" d="M294.4,800.8c0-0.8,0-1.5-0.2-2.5h1.7v1.7l0,0c0.8-1.3,2.3-1.9,3.4-1.9c1.2,0,2.7,0.4,3.4,2.3
					c0.6-1.3,2.1-2.3,3.6-2.3c2.8,0,4,1.5,4,4.2v6.9H309v-6.3c0-2.3-0.6-3.4-2.7-3.4c-2.3,0-3,1.9-3,4v5.6h-1.5v-6.3
					c0-2.3-0.6-3.4-2.7-3.4c-0.3,0-3,0.2-3,4.1v5.5h-1.5v-8.3L294.4,800.8L294.4,800.8z"/>
				<path fill="#FFFFFF" d="M314.1,798.3h1.5v1.9l0,0c1-1.5,2.8-2.1,4.1-2.1c3.4,0,5.6,2.5,5.6,5.6c0,3.2-2.5,5.6-5.6,5.6
					c-1.5,0-3.2-0.6-4.1-2.1l0,0v8.6h-1.5V798.3z M319.8,799.4c-2.5,0-4.3,1.9-4.3,4.3c0,2.5,1.9,4.3,4.3,4.3c2.4,0,4.1-1.9,4.1-4.3
					C324,801.3,322.3,799.4,319.8,799.4z"/>
				<path fill="#FFFFFF" d="M330,809.3h-1.5v-17.5h1.5V809.3z"/>
				<path fill="#FFFFFF" d="M334.8,795.2c-0.6,0-1.2-0.3-1.2-1.1c0-0.6,0.6-1.1,1.2-1.1s1.1,0.4,1.1,1.1
					C335.9,794.9,335.3,795.2,334.8,795.2z M335.5,809.3H334v-10.8h1.5V809.3z"/>
				<path fill="#FFFFFF" d="M346.2,802.7v-0.2c0-1.9-1-2.8-2.8-2.8c-1.3,0-2.5,0.3-3.2,1.3l-1-1.1c1-1,2.5-1.5,4.5-1.5
					c2.1,0,4,1.1,4,3.8v4.8c0,0.8,0,1.9,0.2,2.5h-1.5c0-0.6-0.2-1.1-0.2-1.7l0,0c-1,1.5-2.1,2.1-3.8,2.1c-1.9,0-3.8-1.2-3.8-3.2
					c0-3.6,4.1-3.8,6.6-3.8H346.2L346.2,802.7z M345.4,803.8c-1.5,0-5.1,0.2-5.1,2.3c0,1.5,1.3,1.9,2.5,1.9c2.3,0,3.2-1.5,3.2-3.4
					v-0.8H345.4L345.4,803.8z"/>
				<path fill="#FFFFFF" d="M352.6,798.3c0,0.6,0,1.1,0,1.7l0,0c0.8-1.1,2.3-2.1,3.6-2.1c2.8,0,4,1.5,4,4.2v6.9h-1.5v-6.1
					c0-2.5-0.8-3.8-2.8-3.8c-0.3,0-3.2,0.2-3.2,4.2v5.5h-1.5v-8.5c0-0.6,0-1.5-0.2-2.5h1.7L352.6,798.3L352.6,798.3L352.6,798.3z"/>
				<path fill="#FFFFFF" d="M372,801c-0.6-0.8-1.5-1.5-2.7-1.5c-2.5,0-4,1.9-4,4.3c0,2.5,1.5,4.3,4,4.3c1.2,0,2.3-0.6,2.7-1.5l1.3,1
					c-1.2,1.3-2.5,1.9-4,1.9c-3.6,0-5.6-2.5-5.6-5.6c0-3.2,2.3-5.6,5.6-5.6c1.5,0,2.8,0.6,4,1.9L372,801z"/>
				<path fill="#FFFFFF" d="M376.3,804.2c0.2,2.1,1.9,3.8,4,3.8c1.7,0,2.8-1,3.4-1.9l1.1,1.1c-1.3,1.7-2.8,2.3-4.8,2.3
					c-3.2,0-5.6-2.5-5.6-5.6c0-3.2,2.5-5.6,5.5-5.6c3.2,0,5.1,2.5,5.1,5.5v0.8h-8.7L376.3,804.2L376.3,804.2L376.3,804.2z
					 M383.7,803.1c0-2.1-1.3-3.4-3.6-3.4c-1.9,0-3.8,1.7-3.8,3.4H383.7z"/>
				<path fill="#FFFFFF" d="M389.6,809.3c-0.8,0-1.3-0.6-1.3-1.3c0-0.6,0.6-1.3,1.3-1.3c0.8,0,1.3,0.6,1.3,1.3
					S390.3,809.3,389.6,809.3z"/>
				<path fill="#FFFFFF" d="M415,806.6c-1.2,1.7-3.4,3-6.1,3c-5,0-8.5-3.6-8.5-8.5s3.6-8.5,8.5-8.5c2.1,0,4.1,0.8,5.6,2.7l-1.5,1.2
					c-0.6-1.2-2.5-2.1-4.1-2.1c-4.1,0-6.6,3.2-6.6,7c0,3.8,2.5,7,6.6,7c1.7,0,3.4-0.6,4.8-2.5L415,806.6z"/>
				<path fill="#FFFFFF" d="M419,809.3h-1.5v-17.5h1.5V809.3z"/>
				<path fill="#FFFFFF" d="M427.9,809.5c-3.4,0-5.6-2.5-5.6-5.6c0-3.2,2.5-5.6,5.6-5.6c3.4,0,5.6,2.5,5.6,5.6
					C433.6,807.1,431.3,809.5,427.9,809.5z M427.9,799.4c-2.5,0-4,1.9-4,4.3c0,2.5,1.5,4.3,4,4.3c2.5,0,4.1-1.9,4.1-4.3
					C432.1,801.3,430.3,799.4,427.9,799.4z"/>
				<path fill="#FFFFFF" d="M444.2,809.3c0-0.6,0-1.1,0-1.7l0,0c-0.8,1.1-2.3,2.1-3.6,2.1c-2.8,0-4-1.5-4-4.1v-6.9h1.5v6.1
					c0,2.5,0.8,3.8,2.8,3.8c0.3,0,3.2-0.2,3.2-4.1v-5.5h1.5v8.3c0,0.6,0,1.5,0.2,2.5h-1.7L444.2,809.3L444.2,809.3L444.2,809.3z"/>
				<path fill="#FFFFFF" d="M460.1,809.3h-1.5v-1.9l0,0c-1,1.5-2.8,2.1-4.1,2.1c-3.4,0-5.6-2.5-5.6-5.6c0-3.2,2.5-5.6,5.6-5.6
					c1.5,0,3.2,0.6,4.1,2.1l0,0v-8.5h1.5V809.3z M454.3,808.2c2.5,0,4.3-1.9,4.3-4.3c0-2.5-1.9-4.3-4.3-4.3c-2.4,0-4.1,1.9-4.1,4.3
					C450.3,806.3,451.8,808.2,454.3,808.2z"/>
				<path fill="#FFFFFF" d="M464.8,809.3c-0.8,0-1.3-0.6-1.3-1.3c0-0.6,0.6-1.3,1.3-1.3c0.8,0,1.3,0.6,1.3,1.3
					S465.6,809.3,464.8,809.3z"/>
			</g>
		</g>
	</g>
</g>
<g id="Color_without_Tag" display="none">
	<g display="inline">
		<path fill="#FFFFFF" d="M109-571.9c5.1,12,1,20.7-5.5,23.1c-7.4,2.8-16.7-2.3-18.6-11.2c-3.8-18.6,4.2-22.6-11.6-57.1
			C66.1-633,104.5-582.4,109-571.9z"/>
		<path fill="#FFFFFF" d="M73.7-653.6c-5.9-3.6-14.9-1.7-20.1,10.1c-1.2,2.8-4.2,12.2-7,22.4c-2.3,6.5-7.4,18.7-11.7,25.2
			c-0.2,0.4-0.4,0.8-0.6,1.2c-8.3,12.2-16.4,24.5-17.6,27.9c-3.2,8.3-0.8,15.7,6.6,18.6s16.9-2.3,18.6-11.1c1.1-5.3,1-15.7,3.2-29.2
			c1.3-5.6,5-18.6,13.6-27.5c6.1-5.9,11.4-8.3,17.8-16.2C82.3-639.2,80.4-649.7,73.7-653.6z"/>
		<circle fill="#FFFFFF" cx="64.2" cy="-587.3" r="13.3"/>
		<path fill="#FFFFFF" d="M146.5-625h3.6l17.3,35.2h-4.8l-4.8-9.5h-19.1l-4.5,9.5h-4.8L146.5-625z M156.2-603.2l-7.8-15.6l-7.8,15.6
			H156.2z"/>
		<path fill="#FFFFFF" d="M179.6-625h4.3v31.3h22.8v4.2h-27.1L179.6-625L179.6-625z"/>
		<path fill="#FFFFFF" d="M218.8-625h27.5v4.2h-23.1v10.4h14v4.2h-14.1v12.7h24.7v4.2h-29L218.8-625L218.8-625z"/>
		<path fill="#FFFFFF" d="M260.7-625h19.9c1.7,0,3.2,0.2,4.5,0.6c1.3,0.3,2.5,1.2,3.6,1.9c1,0.8,1.7,1.9,2.3,3
			c0.6,1.1,0.8,2.7,0.8,4.1c0,1.3-0.2,2.5-0.6,3.4c-0.3,1.1-1,2.1-1.9,3c-0.8,1-1.7,1.7-2.7,2.3c-0.9,0.6-2.1,1-3.2,1.3l8.7,15.5
			h-4.8l-8.7-15.4h-13.4v15.4h-4.3L260.7-625L260.7-625L260.7-625z M280.4-609.1c1.2,0,2.1-0.2,2.8-0.4c0.8-0.2,1.5-0.6,2.1-1.1
			c0.6-0.6,1-1.1,1.2-1.7c0.2-0.8,0.3-1.5,0.3-2.5s-0.2-1.9-0.3-2.7c-0.2-0.8-0.8-1.3-1.2-1.9c-0.6-0.6-1.3-1-2.1-1.1
			c-0.8-0.2-1.7-0.4-2.7-0.4h-15.7v11.8L280.4-609.1L280.4-609.1z"/>
		<path fill="#FFFFFF" d="M312.3-620.9h-14.6v-4.2h33.8v4.2h-14.8v31.3h-4.5v-31.3H312.3z"/>
		<path fill="#FFFFFF" d="M340.1-625h4.3v31.3h22.8v4.2h-27.1V-625L340.1-625z"/>
		<path fill="#FFFFFF" d="M394.5-588.8c-2.7,0-5.1-0.6-7.2-1.3c-2.1-0.8-4.1-2.1-5.9-3.8c-1.7-1.7-3-3.8-3.8-5.9
			c-0.8-2.3-1.3-4.8-1.3-7.4c0-2.6,0.3-5.1,1.3-7.2c0.8-2.3,2.1-4.2,3.8-5.9c1.7-1.7,3.6-3,5.6-4c2.1-1,4.5-1.3,7.2-1.3
			c2.7,0,5,0.3,7,1.3c2.1,1,4.1,2.3,5.9,4c1.7,1.7,3,3.8,4,5.9c1,2.3,1.3,4.5,1.3,7.2c0,1.3-0.2,2.7-0.3,3.8c-0.2,1.1-0.6,2.3-1,3.4
			c-0.4,1.1-1,2.3-1.7,3.2c-0.6,1-1.3,1.9-2.3,2.8c-1.7,1.7-3.6,3-5.6,3.8C399.6-589.1,397.2-588.8,394.5-588.8L394.5-588.8z
			 M399.8-593.7c1.5-0.8,3-1.7,4.3-3s2.3-2.8,2.8-4.5c0.6-1.7,1-3.6,1-5.9c0-2.1-0.3-4-1-5.6s-1.5-3.2-2.7-4.5
			c-1.3-1.3-2.8-2.5-4.3-3c-1.7-0.8-3.4-1.1-5.5-1.1c-2.1,0-3.8,0.4-5.5,1.1c-1.5,0.8-3,1.7-4.3,3c-1.3,1.3-2.3,2.8-2.8,4.5
			c-0.6,1.7-1,3.6-1,5.6c0,2.1,0.3,4.2,1,5.9c0.6,1.7,1.7,3.2,2.8,4.5c1.3,1.3,2.7,2.3,4.3,3c1.5,0.8,3.4,1,5.5,1
			C396.6-592.8,398.3-593.2,399.8-593.7z"/>
		<path fill="#FFFFFF" d="M453.9-604.3h-9.5v-4h13.8v10.6c-0.8,1.5-1.7,2.8-2.8,4c-1.1,1.2-2.3,2.1-3.6,2.8
			c-1.3,0.8-2.8,1.3-4.3,1.7c-1.5,0.4-3.2,0.6-5,0.6c-2.7,0-5.1-0.4-7.2-1.3c-2.1-0.8-4.1-2.1-5.9-3.8c-1.7-1.7-3-3.8-3.8-5.9
			c-0.8-2.3-1.3-4.8-1.3-7.4s0.3-5.1,1.3-7.2c0.8-2.3,2.1-4.2,3.8-5.9c1.7-1.7,3.6-3,5.6-4c2.1-1,4.5-1.3,7.2-1.3
			c1.5,0,3,0.2,4.5,0.6c1.5,0.4,2.8,1,4.1,1.7c1.3,0.8,2.5,1.5,3.6,2.7c1.1,1,2.1,2.3,2.8,3.6l-3.8,2.7c-0.2-0.6-0.6-1-0.8-1.5
			c-0.3-0.4-0.8-1-1.1-1.3c-0.4-0.4-1-0.8-1.3-1.1c-0.3-0.4-1-0.8-1.5-1c-1.2-0.6-2.3-1.2-3.2-1.3c-1.1-0.4-2.3-0.4-3.6-0.4
			c-2.1,0-3.8,0.4-5.5,1.1c-1.5,0.8-3,1.7-4.3,3s-2.3,2.8-2.8,4.5c-0.6,1.7-1,3.6-1,5.6c0,2.1,0.3,4.2,1,5.9
			c0.6,1.7,1.7,3.2,2.8,4.5c1.3,1.3,2.7,2.3,4.3,3c1.7,0.8,3.4,1,5.5,1c1.2,0,2.3-0.2,3.4-0.3c1.2-0.1,2.1-0.6,3-1.2
			c1-0.6,1.9-1.1,2.7-1.9c0.8-0.8,1.7-1.7,2.3-2.8v-6.1h0.5V-604.3z"/>
		<path fill="#FFFFFF" d="M473.9-625.2h4.3v35.6h-4.3V-625.2z"/>
		<path fill="#FFFFFF" d="M527-598.1c-0.8,1.5-1.7,2.8-2.8,4c-1.2,1.2-2.3,2.3-3.8,3c-1.6,0.8-2.8,1.3-4.5,1.7
			c-1.5,0.4-3.2,0.6-5,0.6c-2.7,0-5.1-0.3-7.2-1.3c-2.1-0.8-4.2-2.1-5.9-3.8c-1.7-1.7-3-3.8-4-5.9c-0.8-2.3-1.3-4.8-1.3-7.4
			c0-2.7,0.4-5.1,1.3-7.2c0.8-2.3,2.1-4.1,4-5.9c1.7-1.7,3.6-3,5.6-4s4.5-1.3,7.2-1.3c1.5,0,3,0.2,4.5,0.6s2.8,1,4.2,1.7
			c1.4,0.8,2.5,1.5,3.6,2.7c1.2,1,2.1,2.3,2.8,3.6l-3.8,2.7c-0.2-0.6-0.6-1-0.8-1.5c-0.4-0.4-0.8-1-1.2-1.3s-1-0.8-1.3-1.1
			c-0.6-0.4-1-0.8-1.5-1c-1.2-0.6-2.1-1.1-3.2-1.3c-1.2-0.4-2.3-0.4-3.6-0.4c-2.1,0-3.8,0.4-5.5,1.2c-1.5,0.8-3,1.7-4.3,3
			s-2.3,2.8-2.8,4.5c-0.6,1.7-1,3.6-1,5.6c0,2.1,0.4,4.1,1,5.9c0.6,1.7,1.7,3.2,2.8,4.5c1.3,1.3,2.7,2.3,4.3,3c1.5,0.8,3.4,1,5.5,1
			c1.3,0,2.7-0.2,3.8-0.6c1.2-0.3,2.3-0.8,3.4-1.5c1.2-0.6,2.1-1.5,2.8-2.5c1-1,1.7-2.1,2.5-3.4L527-598.1z"/>
	</g>
</g>
<g>
	<g>
		<g>
			<g>
				<path fill="#FFFFFF" d="M123,222.1l-16.9,34.8h6l4.4-9h17.4l4.5,9h6l-17.1-34.8H123z M118.9,242.6l6.2-12.5l6.2,12.5H118.9z
					 M158.3,222.1h-5.5v34.8h27.1v-5.3h-21.6V222.1z M193.7,241.1H207v-5.3h-13.2v-8.4h21.9v-5.3h-27.4v34.8h28.7v-5.3h-23.2V241.1z
					 M252.4,241c1-0.6,1.9-1.4,2.6-2.3c0.8-0.9,1.4-2,1.8-3.1c0.4-1.1,0.6-2.3,0.6-3.5c0-1.6-0.2-2.9-0.8-4.2
					c-0.5-1.2-1.3-2.3-2.3-3.2c-1-0.9-2.2-1.6-3.6-2c-1.4-0.4-2.9-0.6-4.5-0.6h-19.7v34.8h5.6v-14.6h11.7l8.3,14.6h6.1l-8.3-14.8
					C250.8,241.8,251.6,241.5,252.4,241z M246,237h-13.8v-9.7h14.1c0.9,0,1.6,0.1,2.3,0.3c0.7,0.2,1.2,0.5,1.7,0.9
					c0.4,0.4,0.8,0.9,1,1.5c0.2,0.6,0.3,1.4,0.3,2.2s-0.1,1.5-0.3,2.1c-0.2,0.6-0.5,1-0.9,1.4c-0.5,0.4-1.1,0.7-1.7,0.9
					C247.8,236.9,247,237,246,237z M265.1,222.1v5.3h13.8v29.5h5.7v-29.5h13.9v-5.3H265.1z"/>
				<g>
					<polygon fill="#FFFFFF" points="328.1,222.1 322.5,222.1 322.5,256.9 349.6,256.9 349.6,251.7 328.1,251.7 					"/>
					<path fill="#FFFFFF" d="M387.4,226.6c-1.7-1.7-3.6-3.1-5.7-3.9c-2.1-0.9-4.4-1.3-7-1.3c-2.6,0-5,0.4-7.1,1.3
						c-2.1,0.9-4,2.2-5.7,3.9c-1.7,1.7-3,3.7-3.8,5.8c-0.8,2.1-1.3,4.5-1.3,7.1c0,2.6,0.4,5,1.2,7.2c0.8,2.2,2.1,4.2,3.8,5.9
						c1.6,1.7,3.6,3,5.7,3.8c2.1,0.8,4.7,1.3,7,1.3s5.1-0.5,7-1.3c2.1-0.8,4-2.1,5.7-3.7c0.9-0.9,1.6-1.8,2.3-2.8
						c0.6-1,1.2-2.1,1.6-3.2c0.4-1,0.7-2.2,0.9-3.4c0.2-1.2,0.3-2.5,0.3-3.7c0-2.6-0.4-4.9-1.3-7.1
						C390.4,230.3,389.1,228.4,387.4,226.6z M385.9,244.8c-0.6,1.5-1.4,2.9-2.5,4.1c-1.2,1.2-2.5,2.1-3.9,2.7
						c-1.4,0.6-3,0.9-4.8,0.9c-1.8,0-3.4-0.3-4.8-0.9c-1.4-0.6-2.7-1.5-3.9-2.7c-1.1-1.2-2-2.6-2.6-4.1c-0.6-1.5-0.9-3.3-0.9-5.2
						c0-1.8,0.3-3.5,0.9-5c0.6-1.5,1.5-2.9,2.6-4.1c1.1-1.2,2.4-2.1,3.9-2.8c1.4-0.6,3-0.9,4.8-0.9c1.8,0,3.4,0.3,4.8,0.9
						c1.5,0.6,2.8,1.5,3.9,2.7c1.1,1.2,1.9,2.6,2.5,4.1c0.6,1.5,0.8,3.2,0.8,5C386.8,241.5,386.5,243.3,385.9,244.8z"/>
					<path fill="#FFFFFF" d="M419.7,237.7v5.2h9v4c-0.6,1-1.3,1.8-2,2.4c-0.8,0.7-1.5,1.3-2.4,1.7c-0.9,0.5-1.8,0.8-2.7,1
						c-2.6,0.6-5.6,0.4-7.9-0.6c-1.4-0.6-2.7-1.5-3.9-2.7c-1.1-1.2-2-2.5-2.6-4.1c-0.6-1.5-0.9-3.3-0.9-5.2c0-1.8,0.3-3.5,0.9-5.1
						c0.6-1.5,1.5-2.9,2.6-4.1c1.1-1.2,2.4-2.2,3.9-2.8c1.4-0.6,3.2-0.9,4.9-0.9c2.5,0,4.3,0.6,6.1,1.6c3.3,1.8,4.9,5,4.9,5l4.3-3.1
						l-0.4-0.6c-0.8-1.3-1.8-2.5-2.9-3.5c-1.1-1-2.3-1.9-3.6-2.6c-1.3-0.7-2.7-1.2-4.2-1.6c-1.5-0.3-3-0.5-4.5-0.5
						c-2.6,0-5,0.4-7.1,1.3c-2.1,0.9-4,2.2-5.7,3.9c-1.7,1.7-3,3.7-3.8,5.9c-0.8,2.2-1.2,4.6-1.2,7.1c0,2.6,0.4,5,1.2,7.2
						c0.8,2.2,2.1,4.2,3.8,5.9c1.6,1.7,3.6,3,5.7,3.8c2.1,0.8,4.5,1.2,7,1.2c1.6,0,3.2-0.2,4.8-0.6c1.5-0.4,3-1,4.3-1.7
						c1.3-0.7,2.5-1.7,3.6-2.8c1.1-1.1,2-2.4,2.8-3.8v-11.1H419.7z"/>
					<rect x="444.9" y="222.1" fill="#FFFFFF" width="5.5" height="34.8"/>
					<path fill="#FFFFFF" d="M489.7,244.7c0,0-3.6,7.8-11.7,7.8c-1.8,0-3.4-0.3-4.9-0.9c-1.4-0.6-2.7-1.5-3.9-2.7
						c-1.1-1.2-2-2.6-2.6-4.1c-0.6-1.5-0.9-3.3-0.9-5.2c0-1.8,0.3-3.5,0.9-5.1c0.6-1.5,1.5-2.9,2.6-4.1c1.1-1.2,2.5-2.2,3.9-2.8
						c1.4-0.6,3.1-0.9,4.9-0.9c7.5,0,11.1,6.6,11.1,6.6l4.3-3.2l-0.4-0.6c-0.8-1.3-1.8-2.5-2.9-3.5c-1.1-1-2.3-1.9-3.6-2.6
						c-1.3-0.7-2.7-1.2-4.2-1.6c-1.4-0.3-2.9-0.5-4.5-0.5c-2.6,0-5,0.4-7.1,1.3c-2.1,0.9-4,2.2-5.7,3.9c-1.7,1.7-3,3.7-3.8,5.9
						c-0.8,2.2-1.3,4.6-1.3,7.1c0,2.6,0.4,5,1.2,7.2c0.8,2.2,2.1,4.2,3.8,5.9c1.6,1.7,3.6,3,5.7,3.8c2.1,0.8,4.5,1.2,7,1.2
						c1.6,0,3.2-0.2,4.8-0.6c1.6-0.4,3-0.9,4.5-1.7c1.4-0.8,2.7-1.9,3.7-3c1.1-1.1,2-2.5,2.8-4l0.3-0.5L489.7,244.7z"/>
				</g>
			</g>
			<path fill="#FFFFFF" d="M503.8,221.3c-2.7,0-4.8,2.2-4.8,4.8c0,2.7,2.2,4.8,4.8,4.8c2.7,0,4.8-2.2,4.8-4.8
				C508.6,223.5,506.4,221.3,503.8,221.3z M503.8,230c-2.1,0-3.8-1.7-3.8-3.8c0-2.1,1.7-3.8,3.8-3.8s3.8,1.7,3.8,3.8
				C507.6,228.3,505.9,230,503.8,230z M505.2,226.5c0.1-0.1,0.3-0.2,0.4-0.3c0.1-0.1,0.2-0.3,0.3-0.4c0.1-0.2,0.1-0.3,0.1-0.5
				c0-0.2,0-0.4-0.1-0.6c-0.1-0.2-0.2-0.3-0.3-0.5c-0.1-0.1-0.3-0.2-0.5-0.3c-0.2-0.1-0.5-0.1-0.6-0.1h-2.7v4.7h1.1v-1.8h1.2l1,1.8
				h1.2l-1.1-1.9C505.1,226.5,505.1,226.5,505.2,226.5z M504.4,225.6L504.4,225.6l-1.7,0v-0.9h1.7v0c0.2,0,0.4,0.2,0.4,0.4
				C504.8,225.4,504.6,225.6,504.4,225.6z"/>
		</g>
		<g>
			<path fill="#FFFFFF" d="M88.1,282.7c-4-9.5-38.6-55.1-32.1-40.7c14.2,31.1,7,34.7,10.4,51.5c1.6,8.1,10.1,12.7,16.8,10.1
				C89,301.4,92.7,293.6,88.1,282.7z M58.8,228.2c5.2-6.2,3.5-15.8-2.6-19.4c-5.3-3.2-13.5-1.5-18.2,9.1c-1.1,2.5-3.7,10.9-6.3,20.3
				c-2.1,5.8-6.8,17-10.5,22.8c-0.2,0.3-0.4,0.6-0.6,1c-7.6,11-14.7,22.1-15.9,25.2c-2.9,7.6-0.7,14.2,6,16.7
				c6.6,2.5,15.3-2,16.9-10c0.9-4.9,0.8-14.3,2.8-26.3c1.2-5.1,4.5-16.9,12.4-24.8C48.2,237.5,53,235.3,58.8,228.2z"/>
			<path fill="#FFFFFF" d="M59.8,268.9c0,6.7-5.4,12.1-12.1,12.1c-6.7,0-12.1-5.4-12.1-12.1c0-6.7,5.4-12.1,12.1-12.1
				C54.4,256.8,59.8,262.2,59.8,268.9z"/>
		</g>
	</g>
	<path fill="#FFFFFF" d="M149.2,276.3c0-2.3,2-3.3,3.9-3.3c1.5,0,2.7,0.6,3.5,1.8l1.6-1.2c-1.4-1.6-3.1-2.2-5.1-2.2
		c-2.9,0-5.8,1.6-5.8,5.1c0,6.6,9.3,3.8,9.3,8.9c0,2.1-2.1,3.3-3.9,3.3c-1.9,0-3.3-0.9-4.1-2.2l-1.7,1.2c1.4,1.9,3.5,2.7,5.7,2.7
		c2.9,0,5.9-1.9,5.9-5.2C158.4,278.6,149.2,281.1,149.2,276.3z M166.6,277.6c-3.4,0-6,2.7-6,6.3c0,3.6,2.6,6.3,6.2,6.3
		c2,0,3.7-0.7,5.1-2.5l-1.3-1.1c-0.7,1.1-2,2.1-3.8,2.1c-2.4,0-4.2-1.9-4.4-4.3h9.9v-0.8C172.3,280.3,170.2,277.6,166.6,277.6z
		 M162.4,283c0-2,2-3.8,4.2-3.8c2.4,0,3.9,1.6,3.9,3.8H162.4z M181,279.1c1.3,0,2.4,0.7,3,1.6l1.4-1c-1.2-1.4-2.8-2-4.4-2.1
		c-3.9,0-6.3,2.7-6.3,6.3c0,3.6,2.4,6.3,6.3,6.3c1.6,0,3.2-0.7,4.4-2.1l-1.4-1c-0.6,0.9-1.7,1.6-3,1.6c-2.8,0.1-4.5-2-4.5-4.7
		C176.6,281.1,178.3,279.1,181,279.1z M198.2,277.9h-1.7v6.1c0,4.4-3.3,4.6-3.6,4.6c-2.5,0-3.2-1.5-3.2-4.1v-6.6H188v7.6
		c0,3,1.5,4.7,4.5,4.7c1.6,0,3.3-0.9,4-2.2h0c0,0.6,0,1.3,0.1,1.9h1.7c-0.1-0.9-0.1-2-0.1-2.6V277.9z M202.9,280.1L202.9,280.1
		l0-2.2h-1.7c0.1,1.7,0.1,2.7,0.1,3.7v8.2h1.7v-6.7c0-1.6,1.2-3.8,3.7-3.8c0.5,0,0.8,0.1,1,0.1l0.3-1.7c-0.4-0.1-0.8-0.2-1.3-0.2
		C204.6,277.6,203.4,278.8,202.9,280.1z M210.4,289.8h1.7v-11.9h-1.7V289.8z M211.3,272.1c-0.6,0-1.2,0.5-1.2,1.2
		c0,0.7,0.6,1.2,1.2,1.2c0.6,0,1.2-0.5,1.2-1.2C212.5,272.6,211.9,272.1,211.3,272.1z M220.2,288.6c-1,0-1.7-0.4-1.7-2.1v-7h3.4
		v-1.5h-3.4v-3.4h-1.7v3.4h-2.5v1.5h2.5v7.5c0,2.6,1.7,3.2,3,3.2c0.8,0,1.7-0.2,2.3-0.4l-0.1-1.6
		C221.4,288.4,220.8,288.6,220.2,288.6z M232.9,277.9l-3.6,9.9l-3.7-9.9h-2.1l4.9,12.1l-0.9,2.3c-0.5,1.4-1.1,2.1-2.3,2.1
		c-0.5,0-0.9-0.1-1.3-0.3l-0.2,1.6c0.5,0.2,1,0.2,1.6,0.2c2.1,0,3-1.2,3.8-3l6-15H232.9z M235.8,287.2c-0.8,0-1.4,0.7-1.4,1.4
		c0,0.7,0.6,1.4,1.4,1.4c0.8,0,1.4-0.7,1.4-1.4C237.2,287.9,236.7,287.2,235.8,287.2z M254.4,288.6c-4.6,0-7.4-3.6-7.4-7.8
		c0-4.2,2.8-7.8,7.4-7.8c1.9,0,3.9,1.2,4.6,2.4l1.6-1.2c-1.6-2-4-2.9-6.3-2.9c-5.4,0-9.4,4-9.4,9.5c0,5.5,4,9.5,9.4,9.5
		c3,0,5.5-1.5,6.7-3.3l-1.5-1.1C258.2,288,256.2,288.6,254.4,288.6z M269.3,277.6c-3.7,0-6.3,2.7-6.3,6.3c0,3.6,2.6,6.3,6.3,6.3
		c3.7,0,6.4-2.7,6.4-6.3C275.7,280.3,273.1,277.6,269.3,277.6z M269.3,288.6c-2.8,0-4.5-2.1-4.5-4.7c0-2.7,1.7-4.7,4.5-4.7
		c2.8,0,4.5,2.1,4.5,4.7C273.9,286.6,272.1,288.6,269.3,288.6z M291.7,277.6c-1.6,0-3.2,0.9-3.9,2.5c-0.8-2-2.5-2.5-3.8-2.5
		c-1.4,0-3,0.7-3.9,2.1H280v-1.8h-1.8c0,0.9,0.1,1.8,0.1,2.7v9.3h1.7v-6.1c0-4.4,3-4.6,3.4-4.6c2.3,0,3,1.3,3,3.8v7h1.7v-6.4
		c0-2.2,0.9-4.4,3.4-4.4c2.3,0,3,1.3,3,3.8v7h1.7v-7.6C296.2,279.3,294.7,277.6,291.7,277.6z M306,277.6c-1.6,0-3.5,0.7-4.6,2.3
		h-0.1v-2h-1.7v19.3h1.7v-9.3h0.1c1.1,1.6,3.1,2.3,4.6,2.3c3.7,0,6.4-2.7,6.4-6.3C312.3,280.3,309.7,277.6,306,277.6z M306,288.6
		c-2.8,0-4.8-2.1-4.8-4.7c0-2.7,2-4.7,4.8-4.7c2.8,0,4.5,2.1,4.5,4.7C310.5,286.6,308.7,288.6,306,288.6z M315.2,289.8h1.7v-19.3
		h-1.7V289.8z M321.2,272.1c-0.6,0-1.2,0.5-1.2,1.2c0,0.7,0.6,1.2,1.2,1.2c0.6,0,1.2-0.5,1.2-1.2
		C322.4,272.6,321.8,272.1,321.2,272.1z M320.4,289.8h1.7v-11.9h-1.7V289.8z M335,281.8c0-2.9-2-4.2-4.4-4.2c-2.2,0-4,0.6-5.1,1.7
		l1,1.2c1-0.9,2.2-1.4,3.6-1.4c2.1,0,3.1,1,3.1,3.1v0.3h-0.8c-2.9,0-7.4,0.3-7.4,4.1c0,2.3,2,3.5,4.1,3.5c1.9,0,3.2-0.7,4.2-2.2h0
		c0,0.6,0,1.4,0.2,1.9h1.6c-0.1-0.6-0.2-1.8-0.2-2.7V281.8z M333.3,284.8c0,2.1-1.2,3.9-3.6,3.9c-1.4,0-2.8-0.6-2.8-2.2
		c0-2.4,3.9-2.5,5.6-2.5h0.9V284.8z M344.2,277.6c-1.6,0-3.3,0.9-4,2.2h0c0-0.6,0-1.3-0.1-1.9h-1.7c0.1,0.9,0.1,2,0.1,2.6v9.3h1.7
		v-6.1c0-4.4,3.3-4.6,3.6-4.6c2.5,0,3.2,1.5,3.2,4.1v6.6h1.7v-7.6C348.7,279.3,347.2,277.6,344.2,277.6z M357.6,279.1
		c1.3,0,2.4,0.7,3,1.6l1.4-1c-1.2-1.4-2.7-2-4.4-2.1c-3.9,0-6.3,2.7-6.3,6.3c0,3.6,2.4,6.3,6.3,6.3c1.6,0,3.2-0.7,4.4-2.1l-1.4-1
		c-0.6,0.9-1.7,1.6-3,1.6c-2.8,0.1-4.5-2-4.5-4.7C353.2,281.1,354.9,279.1,357.6,279.1z M369.6,277.6c-3.4,0-6,2.7-6,6.3
		c0,3.6,2.6,6.3,6.2,6.3c2,0,3.7-0.7,5.1-2.5l-1.3-1.1c-0.7,1.1-2,2.1-3.8,2.1c-2.4,0-4.2-1.9-4.4-4.3h9.9v-0.8
		C375.3,280.3,373.2,277.6,369.6,277.6z M365.4,283c0-2,2-3.8,4.2-3.8c2.4,0,3.9,1.6,3.9,3.8H365.4z M379.3,287.2
		c-0.8,0-1.4,0.7-1.4,1.4c0,0.7,0.6,1.4,1.4,1.4c0.8,0,1.4-0.7,1.4-1.4C380.7,287.9,380.1,287.2,379.3,287.2z M397.6,288.6
		c-4.6,0-7.4-3.6-7.4-7.8c0-4.2,2.8-7.8,7.4-7.8c1.9,0,3.9,1.2,4.6,2.4l1.6-1.2c-1.6-2-4-2.9-6.3-2.9c-5.4,0-9.4,4-9.4,9.5
		c0,5.5,4,9.5,9.4,9.5c3,0,5.5-1.5,6.7-3.3l-1.5-1.1C401.5,288,399.5,288.6,397.6,288.6z M407.2,289.8h1.7v-19.3h-1.7V289.8z
		 M418.2,277.6c-3.7,0-6.3,2.7-6.3,6.3c0,3.6,2.6,6.3,6.3,6.3c3.7,0,6.4-2.7,6.4-6.3C424.6,280.3,421.9,277.6,418.2,277.6z
		 M418.2,288.6c-2.8,0-4.5-2.1-4.5-4.7c0-2.7,1.7-4.7,4.5-4.7c2.8,0,4.5,2.1,4.5,4.7C422.7,286.6,421,288.6,418.2,288.6z
		 M437.5,277.9h-1.7v6.1c0,4.4-3.3,4.6-3.6,4.6c-2.5,0-3.2-1.5-3.2-4.1v-6.6h-1.7v7.6c0,3,1.5,4.7,4.5,4.7c1.6,0,3.3-0.9,4-2.2h0
		c0,0.6,0,1.3,0.1,1.9h1.7c-0.1-0.9-0.1-2-0.1-2.6V277.9z M451.4,279.9L451.4,279.9c-1.2-1.6-3.1-2.3-4.7-2.3
		c-3.7,0-6.4,2.7-6.4,6.3c0,3.6,2.6,6.3,6.4,6.3c1.6,0,3.5-0.7,4.6-2.3h0.1v2h1.7v-19.3h-1.7V279.9z M446.7,288.6
		c-2.8,0-4.5-2.1-4.5-4.7c0-2.7,1.7-4.7,4.5-4.7c2.8,0,4.8,2.1,4.8,4.7C451.4,286.6,449.4,288.6,446.7,288.6z M457,287.2
		c-0.8,0-1.4,0.7-1.4,1.4c0,0.7,0.6,1.4,1.4,1.4c0.8,0,1.4-0.7,1.4-1.4C458.4,287.9,457.8,287.2,457,287.2z"/>
</g>
</svg>
