<svg id="Layer_1" data-name="Layer 1" xmlns="http://www.w3.org/2000/svg" viewBox="0 0 739.64 155.32"><defs><style>.cls-1{fill:#fff;}</style></defs><title>baireslogo_w</title><path class="cls-1" d="M295.45,312.71A37.05,37.05,0,0,1,292.86,327a28.89,28.89,0,0,1-7.09,10.34,30.54,30.54,0,0,1-10.49,6.28,37.69,37.69,0,0,1-12.78,2.14h-9.75q-13.45,0-20.46-6.5t-7-19.21V247a51.39,51.39,0,0,1,5.47-1.77q3.25-.89,6.87-1.63t7.24-1.18a54.5,54.5,0,0,1,6.57-.44h10.78a41.7,41.7,0,0,1,12.63,1.85,28.34,28.34,0,0,1,10,5.47,25.18,25.18,0,0,1,6.57,8.86,29.06,29.06,0,0,1,2.36,12,25.68,25.68,0,0,1-3,12.78,21.31,21.31,0,0,1-8.13,8.2,23.91,23.91,0,0,1,5.17,4.06,26,26,0,0,1,4,5.32,30.66,30.66,0,0,1,2.59,6A20.92,20.92,0,0,1,295.45,312.71ZM269.3,272.52q0-5.17-2.81-7.24a10.91,10.91,0,0,0-6.65-2.07h-5.61a16.51,16.51,0,0,0-2.14.15,21,21,0,0,0-2.29.44v18.76h9.46q4.73,0,7.39-2.36T269.3,272.52Zm-19.5,29.55v16.84a5.81,5.81,0,0,0,6.06,5.76h4.73q5.17,0,7.53-2.73t2.36-8.5q0-6.65-2.44-9t-8.35-2.36Z" transform="translate(-47.02 -211.81)"/><path class="cls-1" d="M360.15,312.71a58.63,58.63,0,0,1-1.77,15.44,25.42,25.42,0,0,1-5.54,10.56,21.92,21.92,0,0,1-9.82,6.06,48.81,48.81,0,0,1-14.63,1.92,39.43,39.43,0,0,1-12-1.77,29.69,29.69,0,0,1-9.68-5.08,22.56,22.56,0,0,1-6.43-8.25A26.09,26.09,0,0,1,298,320.46q0-12.67,8.57-19.52t27.18-6.85h3V291.4q0-6.13-3.4-8.07t-9.9-1.94q-8.86,0-14,2.51a27.29,27.29,0,0,0-8.5,6.35h-.74v-9a16.57,16.57,0,0,1,1.63-6.94,18.59,18.59,0,0,1,5-6.43,27,27,0,0,1,8.79-4.73,40.1,40.1,0,0,1,12.93-1.85,37.86,37.86,0,0,1,12.85,2.07,26.65,26.65,0,0,1,10,6.28,28.32,28.32,0,0,1,6.5,10.49,42.89,42.89,0,0,1,2.29,14.7Zm-23-2.36h-3.84q-6.5,0-9.23,2.29a8.09,8.09,0,0,0-2.73,6.57q0,8.28,8.42,8.27a8.81,8.81,0,0,0,2.81-.44,5.38,5.38,0,0,0,2.36-1.62,8.4,8.4,0,0,0,1.63-3.18,19,19,0,0,0,.59-5.25Z" transform="translate(-47.02 -211.81)"/><path class="cls-1" d="M390.59,245a12.57,12.57,0,0,1-3.84,9.26,12.72,12.72,0,0,1-9.31,3.82,13.13,13.13,0,0,1-9.53-3.82A12.45,12.45,0,0,1,364,245a12.21,12.21,0,0,1,3.92-9.18,13.27,13.27,0,0,1,9.53-3.75,12.85,12.85,0,0,1,9.31,3.75A12.33,12.33,0,0,1,390.59,245Zm12,89.31q0,5.47-3.32,8.57t-10.42,3.1a30.29,30.29,0,0,1-9.46-1.4,18.77,18.77,0,0,1-7.39-4.43,20.06,20.06,0,0,1-4.8-7.83,35.41,35.41,0,0,1-1.7-11.75V265h7.83q8.42,0,12.26,3.84t3.84,11.82v36.93q0,5,2.14,6.87t7.17,1.85h3.84Z" transform="translate(-47.02 -211.81)"/><path class="cls-1" d="M445.1,284a19.75,19.75,0,0,0-9.46-2.07,8.32,8.32,0,0,0-6.57,2.59q-2.29,2.59-2.29,11v49h-8a17.76,17.76,0,0,1-11.52-3.69q-4.58-3.69-4.58-11.82V292.47q0-15.51,7.24-23.34t19.21-7.83q9,0,13.15,3.92a12.48,12.48,0,0,1,4.14,9.38V284Z" transform="translate(-47.02 -211.81)"/><path class="cls-1" d="M511.73,292.61a21.46,21.46,0,0,1-2.14,10.19,15.31,15.31,0,0,1-6.35,6.28,31.08,31.08,0,0,1-10.56,3.18,108.24,108.24,0,0,1-14.77.89h-9.16q0,6.5,4.73,9.9t12,3.4q8.71,0,13.59-1.77a20.68,20.68,0,0,0,7.68-4.58h.74v7.39a19.35,19.35,0,0,1-1.4,7.31,15.61,15.61,0,0,1-4.58,6.13,23.3,23.3,0,0,1-8.35,4.21,44.13,44.13,0,0,1-12.56,1.55,37.27,37.27,0,0,1-15.14-3A31.89,31.89,0,0,1,454,335.31a38.7,38.7,0,0,1-7.31-13.07,51.82,51.82,0,0,1-2.59-16.77,58.18,58.18,0,0,1,2.59-17.73,41.46,41.46,0,0,1,7.39-14,34.89,34.89,0,0,1,11.45-9.16,32.23,32.23,0,0,1,14.63-3.32,36.26,36.26,0,0,1,12.71,2.14,27.82,27.82,0,0,1,16.54,16.1A34.59,34.59,0,0,1,511.73,292.61ZM489,290.49q0-9.54-9.6-9.54a9.31,9.31,0,0,0-7.83,4.33q-3.1,4.32-3.4,11.63h6.79a45.86,45.86,0,0,0,7.17-.45,14.29,14.29,0,0,0,4.28-1.27,4.3,4.3,0,0,0,2.07-2A6.7,6.7,0,0,0,489,290.49Z" transform="translate(-47.02 -211.81)"/><path class="cls-1" d="M569.94,318.39q0,12.89-7.83,20.59t-22.31,7.7q-26,0-26-19.5v-7.83h.89q7.09,7.24,21.42,7.24,5.61,0,7.9-1.77a5.68,5.68,0,0,0,2.29-4.73,6.61,6.61,0,0,0-.59-3,5.13,5.13,0,0,0-2.14-2.07,19.18,19.18,0,0,0-4.14-1.62q-2.59-.74-6.72-1.62-10.64-2.51-15.44-7.53T512.47,290a30.54,30.54,0,0,1,2.14-11.52,24.87,24.87,0,0,1,6.21-9.09,29.24,29.24,0,0,1,9.82-5.91,37.6,37.6,0,0,1,13.15-2.14q12,0,18.25,5.17a17.07,17.07,0,0,1,6.28,13.89v7.83h-.89a21.94,21.94,0,0,0-8.64-5.17,35.56,35.56,0,0,0-11.45-1.77q-6.65,0-9.09,1.83a5.67,5.67,0,0,0-2.44,4.75,5,5,0,0,0,.52,2.41,4.39,4.39,0,0,0,1.92,1.68,21.55,21.55,0,0,0,4.06,1.46q2.66.73,7.09,1.75a31.14,31.14,0,0,1,14.7,7.63Q569.94,308.31,569.94,318.39Z" transform="translate(-47.02 -211.81)"/><path class="cls-1" d="M651.19,292.47a72.84,72.84,0,0,1-3.1,21.87,50.49,50.49,0,0,1-8.72,16.84A39.94,39.94,0,0,1,626.08,342a37.43,37.43,0,0,1-17,3.84h-8.86a41.08,41.08,0,0,1-11.08-1.4A23.41,23.41,0,0,1,580.5,340a20.32,20.32,0,0,1-5.69-7.53,26.39,26.39,0,0,1-2.07-10.93V245.93a55.89,55.89,0,0,1,5.32-1.77q3.1-.89,6.5-1.55t6.72-1a55.12,55.12,0,0,1,6-.37h9.46a47.47,47.47,0,0,1,17.43,3.18,38.36,38.36,0,0,1,14.11,9.53,45.47,45.47,0,0,1,9.46,16A66.52,66.52,0,0,1,651.19,292.47Zm-25,2.51a65.14,65.14,0,0,0-1.48-15,31.73,31.73,0,0,0-4.06-10,15.14,15.14,0,0,0-6.28-5.61,19.23,19.23,0,0,0-8.13-1.7H601.7a10.9,10.9,0,0,0-1.92.22l-2.07.37v53.33a8.88,8.88,0,0,0,1.7,5.69,5.77,5.77,0,0,0,4.8,2.14H606q9.75,0,15-7.09T626.22,295Z" transform="translate(-47.02 -211.81)"/><path class="cls-1" d="M720,292.61a21.45,21.45,0,0,1-2.14,10.19,15.31,15.31,0,0,1-6.35,6.28A31.08,31.08,0,0,1,701,312.26a108.22,108.22,0,0,1-14.77.89H677q0,6.5,4.73,9.9t12,3.4q8.71,0,13.59-1.77a20.68,20.68,0,0,0,7.68-4.58h.74v7.39a19.33,19.33,0,0,1-1.4,7.31,15.6,15.6,0,0,1-4.58,6.13,23.3,23.3,0,0,1-8.35,4.21,44.12,44.12,0,0,1-12.56,1.55,37.27,37.27,0,0,1-15.14-3,31.89,31.89,0,0,1-11.45-8.42A38.73,38.73,0,0,1,655,322.24a51.82,51.82,0,0,1-2.59-16.77A58.18,58.18,0,0,1,655,287.74a41.49,41.49,0,0,1,7.39-14,34.89,34.89,0,0,1,11.45-9.16,32.24,32.24,0,0,1,14.63-3.32,36.25,36.25,0,0,1,12.71,2.14,27.82,27.82,0,0,1,16.55,16.1A34.59,34.59,0,0,1,720,292.61Zm-22.75-2.13q0-9.54-9.6-9.54a9.31,9.31,0,0,0-7.83,4.33q-3.1,4.32-3.4,11.63h6.8a45.86,45.86,0,0,0,7.17-.45,14.3,14.3,0,0,0,4.28-1.27,4.31,4.31,0,0,0,2.07-2A6.7,6.7,0,0,0,697.28,290.49Z" transform="translate(-47.02 -211.81)"/><path class="cls-1" d="M786.66,275.92a59.43,59.43,0,0,1-1.77,9.82q-1.48,5.84-3.62,12.56t-4.87,13.81q-2.73,7.09-5.47,13.44t-5.47,11.6a61.25,61.25,0,0,1-4.95,8.2h-5.91a14.52,14.52,0,0,1-8.2-2.29,22.39,22.39,0,0,1-6.43-7,104,104,0,0,1-7.17-14,169.77,169.77,0,0,1-6.35-17.43q-2.88-9.38-5.17-19.87t-3.62-21.42h12.56a12.73,12.73,0,0,1,8.94,3.18,15.26,15.26,0,0,1,4.51,8.79q.74,4.43,2,9.9t2.59,10.93q1.33,5.47,2.66,10.34t2.36,8q1.33-3.25,3-9.09t3.32-12.78q1.62-6.94,3-14.55t2.44-14.7h11.67q5,0,7.46,3.32a12.76,12.76,0,0,1,2.44,7.76Z" transform="translate(-47.02 -211.81)"/><path class="cls-1" d="M196.81,211.81H59a12,12,0,0,0-12,12V355.13a12,12,0,0,0,12,12H196.81a12,12,0,0,0,12-12V223.81A12,12,0,0,0,196.81,211.81ZM72.62,239.52A50.71,50.71,0,0,1,88.27,227c15.22-7.68,30.37,1.3,22.42,17-9.2,18.21-15.76,31.93-24.56,49.58-9.23,18.53-10,27-10,27C56,295.44,53.77,261.59,72.62,239.52ZM83.35,316c6.32-12.59,34.39-67.36,40.33-75.92,19.38-27.92,78.1,19.51,54.25,43.73-21.27,21.59-62.82,48.47-71.23,54.07S77.56,327.5,83.35,316Zm111.5,2.1A50.73,50.73,0,0,1,185,335.47c-18.85,22.07-52.63,25.15-80.71,9.2,0,0,8.27-2.07,25.13-14.08,16.06-11.44,28.59-20.08,45.14-32C188.82,288.27,200.06,301.83,194.85,318.06Z" transform="translate(-47.02 -211.81)"/></svg>