<svg width="342px" height="125px" viewBox="0 0 170 62" version="1.1" xmlns="http://www.w3.org/2000/svg" xmlns:xlink="http://www.w3.org/1999/xlink">
            <title>Groxio Logo</title>
            <g id="⚙️-Symbols---Blocks" stroke="none" stroke-width="1" fill="none" fill-rule="evenodd">
    <g id="Blocks-/-Headers-/-Logo-+-Nav-Left---Login-+-Button-Right" transform="translate(-135.000000, -14.000000)">
        <g id="Group-11" transform="translate(135.000000, 14.000000)">
            <path d="M72.2640993,30.336957 C76.8193681,30.336957 80.5118412,26.6444839 80.5118412,22.0892151 C80.5118412,17.5339462 76.8193681,13.8396452 72.2640993,13.8396452 C67.7088305,13.8396452 64.0145294,17.5339462 64.0145294,22.0892151 C64.0145294,26.6444839 67.7088305,30.336957 72.2640993,30.336957 Z M85.324852,21.4603978 C85.3157122,21.7967419 85.3157122,22.1312581 85.3266799,22.4676022 C85.3303358,22.6229785 85.279153,22.7015806 85.1274326,22.7491075 C84.7051746,22.8770645 84.2920563,23.0306129 83.8679703,23.1567419 C83.8643143,23.1567419 83.8606584,23.1603978 83.8606584,23.1658817 C83.752809,23.8221183 83.6047444,24.472871 83.495067,25.1272796 C83.835067,25.4398602 84.1878627,25.7414731 84.5461423,26.0339462 C84.643024,26.1125484 84.6631315,26.1783548 84.6119487,26.2935161 C84.4876477,26.5823333 84.3743143,26.8748065 84.2554971,27.1691075 C84.1458197,27.4378172 84.1476477,27.4378172 83.8149595,27.4341613 C83.5499057,27.4140538 83.242809,27.3976022 82.9375401,27.362871 C82.6194756,27.3281398 82.6121638,27.3354516 82.433024,27.6133011 C82.0838842,28.1580323 81.7201208,28.6954516 81.3508735,29.2273871 C81.5811961,29.6587849 81.7895832,30.1011505 82.0144219,30.5343763 C82.0747444,30.6495376 82.0710885,30.7281398 81.9742068,30.8213656 C81.7146369,31.0681398 81.4642068,31.3222258 81.2174326,31.5781398 C81.1315186,31.6677097 81.0565724,31.6768495 80.946895,31.6220108 C80.5136692,31.397172 80.0713036,31.1833011 79.6399057,30.9548065 C79.6325939,30.9511505 79.6252821,30.9529785 79.6179703,30.9566344 C79.0915186,31.3203978 78.5632391,31.6805054 78.0239918,32.0223333 C77.8649595,32.122871 77.799153,32.2106129 77.8247444,32.4135161 C77.8795832,32.8339462 77.8923789,33.2580323 77.9088305,33.6821183 C77.9124864,33.736957 77.8521638,33.8246989 77.799153,33.8466344 C77.4427014,34.0020108 77.080766,34.1519032 76.7151746,34.287172 C76.6603358,34.3054516 76.5488305,34.2560968 76.5013036,34.203086 C76.1777552,33.8393226 75.8615186,33.4664194 75.5544219,33.0862043 C75.548938,33.0788925 75.5397982,33.0770645 75.5288305,33.0788925 C74.9164649,33.2086774 74.3004434,33.3274946 73.680766,33.4353441 C73.6460348,33.4426559 73.6167875,33.4682473 73.6076477,33.5029785 C73.4687229,33.992871 73.2932391,34.4681398 73.1433466,34.9525484 C73.0958197,35.1042688 73.0263573,35.1773871 72.8545294,35.1719032 C72.532809,35.1572796 72.2092606,35.1591075 71.8875401,35.1700753 C71.7339918,35.1737312 71.6553896,35.1262043 71.6078627,34.9726559 C71.4543143,34.4717957 71.2751746,33.9800753 71.1216262,33.4792151 C71.1143143,33.4591075 71.0978627,33.4444839 71.0777552,33.440828 C70.4745294,33.3384624 69.8767875,33.2013656 69.2717337,33.1081398 C69.2534541,33.1044839 69.2296907,33.1136237 69.216895,33.1264194 C68.8586154,33.523086 68.5149595,33.9325484 68.1749595,34.3456667 C68.1018412,34.4352366 68.0396907,34.4535161 67.9318412,34.4096452 C67.6046369,34.2688925 67.2756047,34.1354516 66.9410885,34.0093226 C66.8131315,33.9599677 66.7619487,33.8850215 66.7710885,33.7479247 C66.8039918,33.269 66.8204434,32.7900753 66.8643143,32.3148065 C66.878938,32.163086 66.8240993,32.0954516 66.708938,32.0205054 C66.1715186,31.6713656 65.6377552,31.3167419 65.1113036,30.9511505 C64.6853896,31.1759892 64.2485079,31.3807204 63.8225939,31.6055591 C63.6946369,31.6731935 63.605067,31.6713656 63.5008735,31.5598602 C63.266895,31.3112581 63.0219487,31.0681398 62.7751746,30.8323333 C62.672809,30.7372796 62.6563573,30.6586774 62.7239918,30.5307204 C62.9433466,30.1157742 63.140766,29.6880323 63.3656047,29.273086 C63.3820563,29.2456667 63.3802283,29.2127634 63.3619487,29.187172 C62.9963573,28.6698602 62.6453896,28.1434086 62.3053896,27.6078172 C62.2103358,27.4579247 62.1299057,27.3957742 61.9324864,27.4195376 C61.4919487,27.4762043 61.0477552,27.490828 60.6035617,27.5091075 C60.545067,27.5127634 60.4536692,27.4414731 60.4262498,27.3811505 C60.2727014,27.0301828 60.1264649,26.6773871 59.9966799,26.3154516 C59.9747444,26.256957 60.0332391,26.1381398 60.0899057,26.086957 C60.459153,25.7579247 60.8393681,25.4362043 61.225067,25.1236237 C61.2415186,25.110828 61.2488305,25.0907204 61.2451746,25.0706129 C61.1153896,24.4692151 61.0057122,23.8641613 60.8978627,23.2591075 C60.8942068,23.240828 60.8814111,23.2262043 60.8631315,23.2207204 C60.3677552,23.070828 59.8778627,22.899 59.3824864,22.7417957 C59.2527014,22.6997527 59.1996907,22.6321183 59.2015186,22.4895376 C59.2124864,22.1403978 59.2088305,21.7912581 59.2033466,21.4421183 C59.2015186,21.3105054 59.2472176,21.2446989 59.3751746,21.2044839 C59.8760348,21.0454516 60.3732391,20.8717957 60.8759272,20.7164194 C60.886895,20.7127634 60.8942068,20.7017957 60.8978627,20.690828 C61.013024,20.0583548 61.1227014,19.4258817 61.2652821,18.7988925 C61.2652821,18.7934086 61.2634541,18.7879247 61.2597982,18.7842688 C60.8594756,18.4570645 60.4737767,18.1134086 60.0752821,17.7825484 C59.9710885,17.6984624 59.9546369,17.6253441 60.0076477,17.502871 C60.1337767,17.2158817 60.24711,16.9215806 60.3640993,16.6291075 C60.4756047,16.353086 60.4902283,16.3494301 60.7900133,16.3713656 C61.2634541,16.4060968 61.7387229,16.4262043 62.2121638,16.4700753 C62.5905509,15.885129 62.9725939,15.3038387 63.3729165,14.7335161 C63.3838842,14.7188925 63.3838842,14.6987849 63.3765724,14.6823333 C63.1499057,14.2600753 62.9470025,13.8268495 62.7221638,13.4045914 C62.6563573,13.2784624 62.670981,13.1980323 62.7733466,13.1011505 C63.0164649,12.870828 63.2559272,12.6331935 63.4844219,12.3900753 C63.5904434,12.2767419 63.6781853,12.2529785 63.818938,12.3297527 C64.2302283,12.5509355 64.6543143,12.7446989 65.0656047,12.9658817 C65.0911961,12.9805054 65.1222713,12.9786774 65.1478627,12.9622258 C65.730981,12.5564194 66.3232391,12.1670645 66.9246369,11.7850215 C66.9374326,11.7758817 66.9465724,11.7594301 66.9447444,11.7429785 C66.9045294,11.2512581 66.8697982,10.7595376 66.8496907,10.2659892 C66.8478627,10.2056667 66.9045294,10.1106129 66.9575401,10.0868495 C67.303024,9.93695699 67.6558197,9.80534409 68.0031315,9.65727957 C68.1164649,9.60975269 68.1767875,9.64996774 68.2462498,9.73405376 C68.5588305,10.1087849 68.8842068,10.4762043 69.1913036,10.8564194 C69.1949595,10.8600753 69.2022713,10.8619032 69.2077552,10.8619032 C69.7780778,10.7376022 70.3520563,10.6279247 70.9278627,10.5273871 C71.1051746,10.4963118 71.2185079,10.4396452 71.2715186,10.2458817 C71.3702283,9.89125806 71.5054971,9.54577419 71.6151746,9.19297849 C71.6553896,9.06136559 71.7157122,9.00287097 71.8601208,9.00652688 C72.2019487,9.01383871 72.5456047,9.01201075 72.8874326,9.00652688 C73.0190455,9.00469892 73.084852,9.05039785 73.1232391,9.17835484 C73.254852,9.60975269 73.3937767,10.0393226 73.5546369,10.4615806 C74.188938,10.6041613 74.826895,10.7302903 75.4666799,10.8436237 C75.5379703,10.8545914 75.6439918,10.785129 75.6988305,10.7229785 C75.9510885,10.4433011 76.1923789,10.1544839 76.4300133,9.86201075 C76.5086154,9.76512903 76.5799057,9.74502151 76.6932391,9.79437634 C77.0149595,9.92964516 77.3385079,10.063086 77.6657122,10.1873871 C77.7936692,10.234914 77.8521638,10.3025484 77.8393681,10.4433011 C77.8101208,10.7759892 77.800981,11.1123333 77.7644219,11.4450215 C77.7406584,11.6497527 77.7863573,11.7758817 77.9801208,11.8946989 C78.5339918,12.2273871 79.0659272,12.5966344 79.5978627,12.9658817 C79.6197982,12.9805054 79.6508735,12.9823333 79.6764649,12.9695376 C80.095067,12.7465269 80.522809,12.5417957 80.9414111,12.3206129 C81.0602283,12.2566344 81.1351746,12.2694301 81.2265724,12.3644839 C81.4678627,12.6185699 81.712809,12.867172 81.9687229,13.1066344 C82.0729165,13.2053441 82.0747444,13.2894301 82.010766,13.4100753 C81.7914111,13.8305054 81.5921638,14.2600753 81.3673251,14.6768495 C81.3581853,14.696957 81.3581853,14.7207204 81.370981,14.739 C81.7694756,15.3129785 82.1624864,15.8924409 82.5280778,16.4865269 C82.5518412,16.524914 82.5957122,16.5450215 82.6395832,16.5395376 C83.1057122,16.482871 83.5754971,16.4664194 84.0434541,16.4481398 C84.092809,16.4463118 84.1659272,16.5048065 84.1860348,16.5523333 C84.3377552,16.905129 84.4858197,17.2597527 84.6156047,17.6180323 C84.6375401,17.6765269 84.5936692,17.7898602 84.5424864,17.8355591 C84.1915186,18.1499677 83.8222713,18.4460968 83.4749595,18.7641613 C83.582809,19.3783548 83.7180778,19.9888925 83.8295832,20.603086 C83.8533466,20.7420108 83.919153,20.8005054 84.0397982,20.8388925 C84.4053896,20.9558817 84.7673251,21.0838387 85.1347444,21.1953441 C85.2754971,21.2373871 85.3285079,21.3105054 85.324852,21.4603978 Z M114.938304,30.2557957 C114.965723,30.2557957 114.987658,30.2777312 114.987658,30.3051505 L114.987658,33.6503118 C114.987658,33.6795591 114.965723,33.7014946 114.938304,33.7014946 L106.778304,33.7014946 C106.750884,33.7014946 106.728949,33.6795591 106.728949,33.6503118 L106.728949,30.8297742 L101.57411,24.5434301 L96.3863681,30.9942903 L96.3863681,33.6503118 C96.3863681,33.6795591 96.3644326,33.7014946 96.3351853,33.7014946 L88.1770133,33.7014946 C88.1495939,33.7014946 88.1276584,33.6795591 88.1276584,33.6503118 L88.1276584,30.3051505 C88.1276584,30.2777312 88.1495939,30.2557957 88.1770133,30.2557957 L92.7414219,30.2557957 L99.4993789,22.0062258 L93.1929272,14.3708495 L89.3176584,14.3708495 C89.292067,14.3708495 89.2683036,14.348914 89.2683036,14.3214946 L89.2683036,10.9745054 C89.2683036,10.947086 89.292067,10.9251505 89.3176584,10.9251505 L91.0651853,10.9251505 C91.0670133,10.9251505 91.0688412,10.9233226 91.0724971,10.9233226 L94.5712068,10.9233226 C94.5730348,10.9233226 94.5748627,10.9251505 94.5766907,10.9251505 L96.9822821,10.9251505 C97.0078735,10.9251505 97.029809,10.947086 97.029809,10.9745054 L97.029809,13.751172 L101.716691,19.5183763 L106.189701,13.9723548 L106.189701,10.9745054 C106.189701,10.947086 106.213465,10.9251505 106.239056,10.9251505 L108.807336,10.9251505 C108.807336,10.9251505 108.809164,10.9233226 108.810992,10.9233226 L112.923895,10.9233226 C112.927551,10.9233226 112.929379,10.9251505 112.933035,10.9251505 L113.609379,10.9251505 C113.797658,10.9251505 113.951207,11.0786989 113.951207,11.2669785 L113.951207,14.3214946 C113.951207,14.348914 113.929271,14.3708495 113.901852,14.3708495 L110.638949,14.3708495 L103.844433,22.0647204 L110.620669,30.2557957 L114.938304,30.2557957 Z M19.2560885,19.388043 C18.4974864,17.3535269 16.857809,15.7138495 14.8232928,14.9552473 C8.08909928,12.4454624 1.79178746,18.7409462 4.3015724,25.4769677 C5.06017455,27.5114839 6.69985197,29.1511613 8.7343681,29.9097634 C15.4685617,32.4195484 21.7658735,26.1222366 19.2560885,19.388043 Z M29.521895,10.7893333 C29.5493143,10.7893333 29.5712498,10.8112688 29.5712498,10.8386882 L29.5712498,14.1856774 C29.5712498,14.2130968 29.5493143,14.2350323 29.521895,14.2350323 L23.6907122,14.2350323 L23.6907122,33.2238495 C23.6907122,33.284172 23.6724326,33.3353548 23.6450133,33.3847097 C23.2465186,39.3712688 18.0368412,44.1257849 11.6883466,44.1257849 L4.70920681,44.1257849 C4.68361541,44.1257849 4.66167993,44.1038495 4.66167993,44.0746022 L4.66167993,40.6928817 C4.66167993,40.6654624 4.68361541,40.6416989 4.70920681,40.6416989 L11.8638305,40.6416989 C16.3149057,40.6416989 19.9342606,37.0570753 19.9342606,32.648043 L19.9342606,30.9206237 C17.8156584,32.9551398 14.94211,34.2109462 11.7797444,34.2109462 C4.2211423,34.2109462 -1.69778244,27.0563226 0.442755199,19.1632043 C1.46092724,15.4049247 4.37651864,12.3540645 8.10006703,11.2152473 C13.030067,9.7071828 17.7096369,11.3669677 20.6032928,14.6426667 L20.6032928,10.8386882 C20.6032928,10.8112688 20.6252283,10.7893333 20.6526477,10.7893333 L29.521895,10.7893333 Z M55.682153,12.4224301 L57.4516154,14.1937204 C57.4717229,14.212 57.4717229,14.2449032 57.4516154,14.2631828 L55.0314004,16.6852258 C55.0112928,16.7053333 54.9802176,16.7053333 54.96011,16.6852258 L53.1906477,14.9139355 C52.2072068,13.9323226 50.3573143,14.1315699 48.587852,15.4111398 C47.2333358,16.3890968 45.3907552,17.9264086 43.8863466,19.2169462 L43.8863466,30.1207097 L53.6549487,30.1207097 C53.6823681,30.1207097 53.7043036,30.1426452 53.7043036,30.1682366 L53.7043036,33.5152258 C53.7043036,33.5426452 53.6823681,33.5645806 53.6549487,33.5645806 L34.3553789,33.5645806 C34.3261315,33.5645806 34.3041961,33.5426452 34.3041961,33.5152258 L34.3041961,30.1682366 C34.3041961,30.1426452 34.3261315,30.1207097 34.3553789,30.1207097 L40.1847337,30.1207097 L40.1847337,14.2357634 L34.3553789,14.2357634 C34.3261315,14.2357634 34.3041961,14.212 34.3041961,14.1845806 L34.3041961,10.8394194 C34.3041961,10.812 34.3261315,10.7882366 34.3553789,10.7882366 L43.2227982,10.7882366 C43.2502176,10.7882366 43.272153,10.812 43.272153,10.8394194 L43.272153,15.1186667 C44.3725832,14.2028602 45.5516154,13.2559785 46.5240885,12.5522151 C49.7522606,10.2233978 53.431938,10.1722151 55.682153,12.4224301 Z" id="Combined-Shape" fill="#7BC144"></path>
            <path d="M147.882476,30.1201613 C147.911723,30.1201613 147.93183,30.1420968 147.93183,30.1695161 L147.93183,33.5146774 C147.93183,33.5439247 147.911723,33.5658602 147.882476,33.5658602 L128.582906,33.5658602 C128.555486,33.5658602 128.533551,33.5439247 128.533551,33.5146774 L128.533551,30.1695161 C128.533551,30.1420968 128.555486,30.1201613 128.582906,30.1201613 L136.715486,30.1201613 L136.715486,14.2352151 L128.582906,14.2352151 C128.555486,14.2352151 128.533551,14.2132796 128.533551,14.1858602 L128.533551,10.838871 C128.533551,10.8114516 128.555486,10.7895161 128.582906,10.7895161 L140.365916,10.7895161 C140.393336,10.7895161 140.415271,10.8114516 140.415271,10.838871 L140.415271,30.1201613 L147.882476,30.1201613 Z M140.638465,3.27021505 C140.638465,5.07623656 139.174271,6.54043011 137.36825,6.54043011 C135.562228,6.54043011 134.098035,5.07623656 134.098035,3.27021505 C134.098035,1.46419355 135.562228,6.57252031e-14 137.36825,6.57252031e-14 C139.174271,6.57252031e-14 140.638465,1.46419355 140.638465,3.27021505 Z M124.695572,30.9153226 C124.695572,32.5422043 123.375787,33.8619892 121.750734,33.8619892 C120.122024,33.8619892 118.802239,32.5422043 118.802239,30.9153226 C118.802239,29.2884409 120.122024,27.9686559 121.750734,27.9686559 C123.375787,27.9686559 124.695572,29.2884409 124.695572,30.9153226 Z M166.324551,24.8585699 L166.324551,19.584914 C166.324551,18.819 166.161863,18.0896452 165.874873,17.4315806 L155.517669,28.7265269 C156.490142,29.6715806 157.815411,30.2565269 159.277777,30.2565269 L160.926594,30.2565269 C163.907992,30.2565269 166.324551,27.8399677 166.324551,24.8585699 Z M153.877992,19.584914 L153.877992,24.8585699 C153.877992,25.3466344 153.949282,25.8164194 154.071755,26.2679247 L164.154766,15.2672796 C163.255411,14.5909355 162.140357,14.186957 160.926594,14.186957 L159.277777,14.186957 C156.296379,14.186957 153.877992,16.6035161 153.877992,19.584914 Z M160.926594,10.6699677 C165.85111,10.6699677 169.84154,14.6603978 169.84154,19.584914 L169.84154,24.8585699 C169.84154,29.7812581 165.849282,33.7735161 160.926594,33.7735161 L159.277777,33.7735161 C154.353261,33.7735161 150.36283,29.7812581 150.36283,24.8585699 L150.36283,19.584914 C150.36283,14.6603978 154.353261,10.6699677 159.277777,10.6699677 L160.926594,10.6699677 Z" id="Combined-Shape" fill="#ACABA9"></path>
            <path d="M45.9292713,46.850172 L45.9292713,56.5474839 L51.4442176,56.5474839 L51.4442176,58.0427527 L44.2822821,58.0427527 L44.2822821,46.850172 L45.9292713,46.850172 Z M56.8112821,52.750086 L61.7559057,52.750086 C61.5091315,51.2511613 60.6938627,50.5218065 59.2680563,50.5218065 C57.8312821,50.5218065 57.025153,51.2511613 56.8112821,52.750086 Z M59.3448305,49.0868602 C60.2953681,49.0868602 63.3974111,49.4140645 63.3974111,53.6403011 L63.3974111,54.1265376 L56.7783789,54.1265376 C56.9246154,55.9234194 57.7855832,56.7990108 59.4014971,56.7990108 C60.6518197,56.7990108 61.4725724,56.2670753 61.7504219,55.3037419 L63.3480563,55.3037419 C62.975153,57.4589032 61.0521423,58.233957 59.3448305,58.233957 C56.7454756,58.233957 55.1953681,56.532129 55.1953681,53.6805161 C55.1953681,50.2933118 57.3377337,49.0868602 59.3448305,49.0868602 Z M72.3926047,55.9793548 L72.3926047,54.6833333 C71.8204541,54.57 70.9978735,54.4950538 70.3142176,54.4950538 C68.5173358,54.4950538 68.2760455,55.0873118 68.2760455,55.6667742 C68.2760455,56.1749462 68.4533573,56.7598925 69.8334649,56.7598925 C70.80411,56.7598925 71.6431423,56.5039785 72.3926047,55.9793548 Z M74.2297014,56.78 C74.5185186,56.78 74.8329272,56.7397849 75.2222821,56.6502151 L75.4855079,56.5898925 L75.4855079,57.8950538 L75.3502391,57.9498925 C75.0833573,58.055914 74.54411,58.2350538 73.9207767,58.2350538 C73.1658305,58.2350538 72.6997014,57.8950538 72.5790563,57.2717204 C72.1074434,57.6884946 71.2099165,58.2350538 69.7566907,58.2350538 C67.8281961,58.2350538 66.72411,57.3046237 66.72411,55.6850538 C66.72411,54.0033333 67.9451853,53.0783871 70.1606692,53.0783871 C70.8662606,53.0783871 71.7509918,53.1898925 72.3926047,53.3544086 L72.3926047,52.87 C72.3926047,51.4624731 72.2609918,50.5411828 70.4878735,50.5411828 C69.1955079,50.5411828 68.5374434,51.043871 68.4643251,52.063871 L66.8886262,52.063871 C67.0056154,49.3877419 69.4971208,49.086129 70.5847552,49.086129 C72.8258305,49.086129 73.9628197,50.2487097 73.9628197,52.5427957 L73.9628197,56.5716129 C73.9628197,56.7598925 73.9628197,56.78 74.2297014,56.78 Z M84.9294649,49.0868602 C85.4632283,49.0868602 85.9915079,49.1782581 86.452153,49.351914 L86.5929057,49.4030968 L86.5929057,51.0244946 L86.3004326,50.9129892 C85.8745186,50.752129 85.4595724,50.6771828 84.9879595,50.6771828 C83.691938,50.6771828 82.84011,51.4193333 82.4653789,52.1322366 L82.4653789,56.5668602 L86.1669918,56.5668602 L86.1669918,58.0420215 L78.677852,58.0420215 L78.677852,56.5668602 L80.8951638,56.5668602 L80.8951638,50.753957 L78.677852,50.753957 L78.677852,49.2787957 L82.2350563,49.2787957 L82.2350563,50.4304086 C82.6902176,49.7851398 83.5127982,49.0868602 84.9294649,49.0868602 Z M94.3968197,49.0868602 C96.3947767,49.0868602 97.4074649,50.3079355 97.4074649,52.7153548 L97.4074649,58.0420215 L95.8372498,58.0420215 L95.8372498,53.006 C95.8372498,51.1634194 95.405852,50.540086 94.1262821,50.540086 C93.0386477,50.540086 92.4207982,51.0007312 92.1264971,51.3151398 L92.1264971,58.0420215 L90.5544541,58.0420215 L90.5544541,49.2787957 L91.8943466,49.2787957 L91.8943466,49.9697634 C92.3842391,49.5018065 93.1684326,49.0868602 94.3968197,49.0868602 Z M104.686938,47.4177527 L104.686938,45.4234516 L106.681239,45.4234516 L106.681239,47.4177527 L104.686938,47.4177527 Z M106.469562,49.2787957 L106.469562,56.5668602 L109.304723,56.5668602 L109.304723,58.0420215 L101.813755,58.0420215 L101.813755,56.5668602 L104.899347,56.5668602 L104.899347,50.753957 L101.813755,50.753957 L101.813755,49.2787957 L106.469562,49.2787957 Z M117.531992,49.0868602 C119.531777,49.0868602 120.544465,50.3079355 120.544465,52.7153548 L120.544465,58.0420215 L118.97425,58.0420215 L118.97425,53.006 C118.97425,51.1634194 118.542852,50.540086 117.263282,50.540086 C116.175648,50.540086 115.55597,51.0007312 115.261669,51.3151398 L115.261669,58.0420215 L113.689626,58.0420215 L113.689626,49.2787957 L115.031347,49.2787957 L115.031347,49.9697634 C115.521239,49.5018065 116.303605,49.0868602 117.531992,49.0868602 Z M130.522185,55.9793548 L130.522185,51.341828 C129.992078,50.8427957 129.302938,50.5795699 128.5224,50.5795699 C126.612185,50.5795699 126.213691,52.2539785 126.213691,53.6596774 C126.213691,55.0653763 126.612185,56.7416129 128.5224,56.7416129 C129.302938,56.7416129 129.992078,56.4783871 130.522185,55.9793548 Z M130.754336,49.2780645 L132.0924,49.2780645 L132.0924,58.2295699 C132.0924,60.6077419 130.944443,61.666129 128.367024,61.666129 C126.014443,61.666129 124.822615,60.7448387 124.703798,58.8784946 L126.272185,58.8784946 C126.372723,59.8436559 126.986916,60.2494624 128.330465,60.2494624 C130.361325,60.2494624 130.522185,59.331828 130.522185,58.1345161 L130.522185,57.4526882 C130.063368,57.8365591 129.326701,58.2350538 128.251863,58.2350538 C126.487884,58.2350538 124.605089,57.0377419 124.605089,53.6797849 C124.605089,50.2944086 126.518959,49.086129 128.310357,49.086129 C129.365089,49.086129 130.205949,49.5083871 130.754336,50.0037634 L130.754336,49.2780645 Z" id="Combined-Shape" fill="#6E7977"></path>
        </g>
    </g>
</g>


        </svg>
