<svg xmlns="http://www.w3.org/2000/svg" width="567" height="83" 
     viewBox="0 100 567 83">
  <title>
    Dipl. Phys. Peer Stritzinger GmbH — Logo
  </title>
  <rect id="on-black" fill="black" y="100" width="100%" height="100%" display="none" />
  <style>
    #on-black:target {display: inline;}
  </style>
  <g fill="#FFF" stroke="#FFF" stroke-opacity="0.5" stroke-width="1.2">
    <path d="M73.83 144.92c-4.6 1.66-9.02 3.22-13 4.62l-7.43 2.64c-14.46 5.2-25.44 7.6-32.65 7.2-1.36-.07-2.7-.27-4.02-.57 10.74 5.27 27.9 12.08 35.5 15.1 1.56.6 2.7 1.06 3.37 1.33.22.1.38.16.5.2.17.08.43.18.73.28 3.1 1.08 12.78 3.24 25.8 1.26 2.8-.42 6.08-.97 9.2-1.8 9.66-2.52 19.9-7.7 27.27-11.94-13.42-5.38-29.94-12.03-45.27-18.3z"/>
    <path d="M207.96 156.78c-.47 0-.9-.02-1.28-.04-4.7-.28-18.95-4.37-29.75-9.9-3.87-1.98-10.25-5.43-17.63-9.43-12.9-6.96-28.94-15.65-36.64-19.15-12.9-5.88-25.22-9.64-36.6-11.18-.06 0-1.33-.25-3.48-.48-6.1-.65-19.4-1.17-32.6 4-6.42 2.5-11.76 4.42-16.47 6.1-7.23 2.6-12.78 4.6-18.1 7.27 1.56-.38 3.24-.58 4.98-.58 6.78 0 13.36 2.86 16.9 4.4 28 12.22 107.24 43.73 109.9 44.75 1.34.52 13.82 5.2 26.3 4.9l.08.02c.1 0 8.64.33 16.45-3.73l.2-.1 1.06-.6.82-.5c.17-.1.33-.22.5-.33.4-.26.78-.54 1.17-.83l.26-.2c.44-.36.87-.7 1.3-1.1 2.73-2.52 5.27-4.67 7.54-6.5 3.8-3.04 6.9-5.18 9.07-6.7.32-.2.6-.4.88-.6l.25-.17.36-.26c-1.6.62-3.4.94-5.44.94z"/>
    <path d="M203.37 154.5c1.4.3 2.57.47 3.4.52.36.02.76.03 1.2.03 5.1 0 8.52-2.14 10.14-6.37 1.12-2.9 1.46-6.8.94-10.72-.65-4.84-3.2-14-13.05-21.13-12.2-8.8-26.36-12.5-41-10.7-9.3 1.14-23.37 7.8-35.02 13.76 8.1 4.08 19.22 10.1 28.87 15.3 7.1-4.3 13.58-6.43 20.33-6.68 6.64-.25 12.95 2.3 17.75 7.15 4.5 4.55 7 10.54 6.72 16-.05.94-.15 1.9-.28 2.83zM20.38 125.12c-2.04 0-3.96.28-5.7.85-5.4 1.73-9.27 4.22-11.54 7.4-1.94 2.93-2.57 6.26-1.84 9.6 1.86 7.73 10.44 14.18 19.54 14.7 4.15.22 9.65-.53 16.4-2.26-.8-2.35-1.36-4.82-1.67-7.36-.88-7.2-.47-13.27 1.22-18.56l-.22-.1c-3.42-1.5-9.78-4.26-16.2-4.26z"/>
  </g>
  <g fill="#FFF">
    <path d="M258.43 146.9c0 1.43-.2 2.7-.58 3.77-.38 1.07-1.03 2.03-1.96 2.88-.96.84-1.97 1.42-3.03 1.73-1.06.3-2.3.47-3.75.47h-4.9v11.1h-3.27v-27.96h7.76c1.53 0 2.74.08 3.64.27.9.2 1.73.53 2.5 1.02 2.4 1.57 3.6 3.8 3.6 6.7zm-3.7.7c0-2.04-.54-3.53-1.63-4.46-.57-.5-1.27-.84-2.08-1.06-.82-.22-1.9-.33-3.24-.33h-3.56v11.34h4.7c1.2 0 2.12-.13 2.75-.36.63-.23 1.17-.62 1.64-1.17.96-1.06 1.44-2.4 1.44-3.97zM262.97 166.84V138.9h15.43l-.45 2.85h-11.5v9.13h9.62v2.86h-9.62v10.23h12.36v2.87h-15.83zM283.84 166.84V138.9h15.44l-.46 2.85h-11.5v9.13h9.62v2.86h-9.62v10.23h12.37v2.87h-15.86zM318.32 166.84c-.22-.46-.53-1.06-.94-1.8-.4-.74-.92-1.57-1.53-2.5-.6-.93-1.3-1.94-2.1-3.03-.8-1.08-1.65-2.22-2.57-3.4-.55-.68-1.03-1.14-1.45-1.38-.42-.24-.97-.38-1.66-.4v12.52h-3.35V138.9h6.53c.95-.02 1.8.03 2.53.1.74.1 1.38.22 1.94.38s1.05.35 1.47.57c.42.22.8.47 1.12.74.32.24.65.54.98.9.32.4.6.8.87 1.3.26.5.48 1.05.66 1.67.17.6.26 1.3.26 2.03 0 1.15-.2 2.2-.54 3.16-.35.96-.85 1.77-1.5 2.44-.66.67-1.44 1.2-2.35 1.56-.9.37-1.92.56-3.03.56h-.4c.64.54 1.2 1.1 1.66 1.68l1.14 1.45c.25.32.63.86 1.15 1.6l1.65 2.42 1.73 2.58 1.37 2.04c.34.5.53.74.56.74h-4.2zm-.7-20.26c0-.93-.26-1.8-.78-2.58s-1.16-1.35-1.94-1.68c-.46-.2-.97-.33-1.53-.43-.55-.1-1.2-.15-1.96-.15h-3.2v10.48h2.96c1.25 0 2.26-.12 3.04-.35.8-.23 1.45-.6 2-1.1.45-.42.8-1 1.05-1.72.24-.73.36-1.55.36-2.48zM353.2 158.96c0 1.3-.35 2.57-1 3.77-.68 1.2-1.64 2.2-2.9 3-.92.6-1.87 1.04-2.85 1.32-.98.27-2.12.4-3.43.4-1.7 0-3.26-.2-4.7-.6-1.47-.4-2.9-1-4.28-1.86l1.47-2.62c1.18.85 2.37 1.46 3.6 1.84 1.2.38 2.52.57 3.94.57 1.06 0 1.92-.1 2.57-.28.67-.17 1.3-.5 1.9-.96 1.33-1 2-2.35 2-4.02 0-2.5-1.68-4.24-5.03-5.26l-2.83-.86c-1.28-.38-2.3-.75-3.05-1.1-.76-.36-1.4-.83-1.95-1.4-1.18-1.27-1.76-2.8-1.76-4.6 0-1.2.2-2.3.64-3.3.44-.97 1.05-1.82 1.84-2.53.8-.72 1.75-1.28 2.86-1.68 1.12-.4 2.36-.6 3.73-.6 2.97 0 5.8.88 8.46 2.63l-1.47 2.4c-.68-.42-1.3-.8-1.88-1.1-.57-.3-1.12-.54-1.64-.73-.53-.2-1.07-.33-1.6-.4-.52-.1-1.1-.13-1.7-.13-1.75 0-3.12.4-4.1 1.22-.98.82-1.47 1.96-1.47 3.4 0 1.16.36 2.08 1.08 2.76.72.7 1.9 1.3 3.56 1.85l3.23 1.03c1.25.38 2.24.78 2.97 1.2.73.43 1.38.97 1.95 1.63.57.65 1.02 1.42 1.35 2.3.32.9.5 1.78.5 2.66zM374.1 141.75h-7.6v25.1h-3.3v-25.1h-7.52v-2.87h18.63l-.2 2.87zM390.73 166.84c-.22-.46-.53-1.06-.94-1.8-.42-.74-.93-1.57-1.54-2.5-.6-.93-1.3-1.94-2.1-3.03-.8-1.08-1.65-2.22-2.57-3.4-.56-.68-1.04-1.14-1.46-1.38-.42-.24-.97-.38-1.65-.4v12.52h-3.37V138.9h6.54c.95-.02 1.8.03 2.52.1.73.1 1.38.22 1.94.38.55.16 1.04.35 1.47.57.43.22.8.47 1.13.74.32.24.65.54.98.9.33.4.63.8.9 1.3.24.5.46 1.05.64 1.67.17.6.26 1.3.26 2.03 0 1.15-.17 2.2-.53 3.16-.35.96-.85 1.77-1.5 2.44-.66.67-1.44 1.2-2.35 1.56-.9.37-1.93.56-3.04.56h-.4c.64.54 1.2 1.1 1.66 1.68l1.14 1.45c.25.32.63.86 1.15 1.6s1.07 1.56 1.65 2.42c.6.87 1.16 1.73 1.74 2.58.57.86 1.02 1.54 1.37 2.04.33.5.5.74.54.74h-4.2zm-.7-20.26c0-.93-.26-1.8-.78-2.58s-1.16-1.35-1.94-1.68c-.46-.2-.96-.33-1.52-.43-.55-.1-1.2-.15-1.96-.15h-3.2v10.48h2.95c1.25 0 2.26-.12 3.05-.35.78-.23 1.44-.6 2-1.1.45-.42.8-1 1.04-1.72.24-.73.36-1.55.36-2.48zM399.48 166.84V138.9h3.27v27.94h-3.27zM425.68 141.75h-7.62v25.1h-3.27v-25.1h-7.54v-2.87h18.62l-.2 2.87zM443.32 166.84h-16.66v-2.56l12-19.85c.54-.86 1.14-1.76 1.8-2.68h-13.4l.95-2.87h16.02v2.85l-11.67 19.56c-.46.77-1.04 1.67-1.72 2.68h13.55l-.86 2.86zM449.5 166.84V138.9h3.28v27.94h-3.28zM475.3 166.84l-9.02-17.2c-.46-.84-.9-1.66-1.27-2.47l-1-2.17-.9-2.1.18 2.45.12 2.48c.04.9.06 1.82.06 2.72l.16 16.3h-3.48v-27.96h3.9l9.32 17.9 1.03 2.12c.32.7.6 1.32.83 1.88l.76 1.9c-.1-1-.16-1.92-.2-2.74l-.12-2.76c-.05-1.02-.07-2.04-.07-3.05l-.1-15.27h3.3v27.96h-3.5zM501.27 166.8c-1.4.38-2.8.57-4.26.57-3.55 0-6.4-1.17-8.6-3.52-1.18-1.3-2.06-2.84-2.62-4.6-.55-1.76-.83-3.86-.83-6.3 0-2.7.35-5 1.06-6.92.72-1.93 1.8-3.54 3.27-4.85 1.96-1.78 4.4-2.66 7.3-2.66 2.97 0 5.53.9 7.68 2.74l-1.52 2.1c-1.13-.8-2.16-1.36-3.06-1.7-.9-.32-1.9-.48-3-.48-1.6 0-3.04.38-4.26 1.14-1.2.77-2.1 1.97-2.67 3.6-.73 2.12-1.1 4.5-1.1 7.15 0 1.86.17 3.5.5 4.96.35 1.45.83 2.64 1.46 3.56.32.46.72.88 1.2 1.25.5.37 1.05.68 1.65.94.6.25 1.23.45 1.9.58.7.14 1.36.2 2.02.2 1.76 0 3.25-.36 4.44-1.1v-8.55h-5.63l-.66-2.87h9.38v13.17c-1 .66-2.2 1.18-3.6 1.57zM511.92 166.84V138.9h15.44l-.46 2.85h-11.5v9.13h9.62v2.86h-9.62v10.23h12.37v2.87H511.9zM546.4 166.84c-.22-.46-.53-1.06-.94-1.8-.4-.74-.92-1.57-1.53-2.5-.6-.93-1.3-1.94-2.1-3.03s-1.65-2.22-2.57-3.4c-.55-.68-1.03-1.14-1.45-1.38-.4-.24-.97-.38-1.65-.4v12.52h-3.35V138.9h6.53c.96-.02 1.8.03 2.54.1.73.1 1.38.22 1.93.38.56.16 1.05.35 1.47.57.43.22.8.47 1.13.74.32.24.65.54.98.9.32.4.62.8.88 1.3s.47 1.05.65 1.67c.18.6.27 1.3.27 2.03 0 1.15-.17 2.2-.53 3.16-.35.96-.85 1.77-1.5 2.44-.66.67-1.44 1.2-2.35 1.56-.93.37-1.94.56-3.05.56h-.4c.64.54 1.2 1.1 1.66 1.68l1.16 1.45 1.14 1.6 1.65 2.42c.6.87 1.17 1.73 1.74 2.58.56.86 1 1.54 1.36 2.04.34.5.52.74.55.74h-4.2zm-.7-20.26c0-.93-.26-1.8-.78-2.58-.5-.8-1.16-1.35-1.94-1.68-.47-.2-.97-.33-1.53-.43-.55-.1-1.2-.15-1.97-.15h-3.2v10.48h2.96c1.25 0 2.26-.12 3.04-.35.8-.23 1.45-.6 2-1.1.45-.42.8-1 1.05-1.72.24-.73.36-1.55.36-2.48zM566.77 162.4c.1.37.16.76.16 1.15 0 .97-.32 1.75-.96 2.35-.36.32-.78.56-1.26.72-.47.15-1.04.22-1.7.22-.74 0-1.37-.1-1.9-.3-.52-.18-.96-.48-1.32-.88-.5-.53-.73-1.2-.73-2s.25-1.5.75-2.08l.57.4c-.2.32-.37.6-.46.85-.08.24-.12.5-.12.8 0 .45.1.84.3 1.18.22.34.55.58 1 .74.57.2 1.22.3 1.94.3.5 0 .96-.05 1.36-.14.4-.1.72-.23.97-.4.13-.1.24-.2.34-.33.1-.13.18-.28.25-.45.07-.16.12-.34.16-.52.05-.2.07-.37.07-.55 0-.48-.1-.88-.3-1.2h-2.34v1.53l-.78.18v-2.56h3.6c.17.28.32.6.42 1zM566.78 153.24l-5.62.44-.4.02-.43.02c-.14 0-.3 0-.47.02l.2.05.47.1.53.14 5.72 1.64v.8l-5.43 1.5c-.44.13-.94.26-1.5.38l.57.04c.15 0 .32 0 .48.02l.43.03 5.45.43v.88l-7.63-.67v-1.35l5-1.4c.38-.1.83-.2 1.35-.3l-.4-.07-.4-.1c-.14-.02-.3-.06-.45-.1l-5.1-1.45v-1.35l7.63-.66v.92zM564.7 145.6c.4 0 .8.1 1.13.3.34.2.58.5.73.88l.1.3.07.35c.02.13.04.3.04.48v2.69h-7.62v-1.1-.95c0-.25.02-.46.04-.62 0-.17.02-.3.04-.4l.08-.3c.14-.4.36-.72.68-.96.32-.24.67-.36 1.06-.36.4 0 .74.13 1.03.37.28.23.5.57.63 1 .04-.22.1-.42.15-.57.06-.15.15-.3.25-.42.2-.25.43-.43.7-.54.3-.1.58-.15.86-.15zm-3.5 1.3c-.3 0-.57.1-.78.25-.2.16-.35.37-.42.63-.03.1-.05.22-.05.35v1.57h2.47v-1.33c0-.2 0-.38-.03-.53-.03-.14-.06-.26-.1-.36-.07-.1-.13-.2-.22-.25-.08-.07-.2-.13-.3-.2-.2-.07-.4-.12-.6-.12zm3.43-.37c-.34 0-.63.1-.88.26-.26.16-.4.38-.48.66 0 .1-.03.23-.05.37l-.02.52v1.35h2.86v-1.63c0-.56-.12-.96-.37-1.2-.25-.22-.6-.34-1.07-.34zM566.78 139.78h-3.68V143h3.68v.9h-7.63v-.9h3.22v-3.22h-3.22v-.9h7.63v.9z"/>
    <g>
      <path d="M250.2 122.7c0 1.17-.15 2.17-.43 3-.28.8-.65 1.47-1.1 1.96-.3.32-.6.6-.9.8-.3.22-.62.4-.95.52-.33.13-.7.22-1.08.27-.4.05-.82.08-1.3.08h-3.5V116h2.7c.5 0 .94 0 1.34.03.4.02.74.07 1.07.14.33.07.64.17.94.3.3.15.6.33.93.57.76.54 1.33 1.3 1.7 2.25.38.95.56 2.08.56 3.4zm-1.76.14c0-1-.08-1.84-.25-2.52-.17-.7-.48-1.3-.92-1.82-.23-.26-.45-.47-.67-.64-.2-.16-.45-.28-.7-.36-.26-.1-.53-.15-.82-.18-.3-.03-.6-.05-.96-.05h-1.6v10.7h1.6c.35 0 .7-.02 1.02-.04.32-.03.64-.1.93-.2.3-.1.57-.23.8-.42.26-.18.48-.42.66-.73.3-.52.53-1.1.68-1.73.16-.64.24-1.3.24-2zM253.1 129.33V116h1.56v13.33h-1.56zM266.5 119.82c0 .7-.1 1.3-.27 1.8-.18.5-.5.97-.93 1.37-.46.4-.94.67-1.44.82-.5.15-1.1.22-1.8.22h-2.33v5.3h-1.56V116h3.7c.73 0 1.3.05 1.73.14.43.1.82.26 1.2.5 1.13.74 1.7 1.8 1.7 3.18zm-1.75.34c0-.98-.27-1.7-.78-2.13-.28-.23-.6-.4-1-.5-.4-.1-.9-.16-1.54-.16h-1.7v5.4h2.25c.57 0 1-.05 1.3-.16.3-.1.56-.3.78-.55.46-.5.7-1.13.7-1.9zM275.3 129.33h-6.63V116h1.56v11.96h5.28l-.2 1.37zM279.73 128.28c0 .37-.13.7-.38.95-.26.26-.56.4-.9.4-.4 0-.7-.14-.96-.4s-.4-.58-.4-.95.14-.67.4-.92c.23-.25.54-.37.9-.37.38 0 .7.1.95.36.25.25.38.55.38.92zM287.2 116.58h3.55c1.38 0 2.1.15 2.8.6 1.08.7 1.64 1.77 1.64 3.05 0 1.3-.38 2.26-1.2 3.05-.66.63-1.4 1-3.06 1h-2.24v5.1h-1.5v-12.8zm1.5 1.28v5.17h2.14c1.08 0 1.57-.2 2-.7.45-.5.65-1.07.65-1.8 0-.95-.23-1.58-.76-2.03-.52-.45-1.2-.64-2.42-.64h-1.63zM297.55 116.58h1.5v5.35h5.38v-5.35h1.53v12.8h-1.53v-6.2h-5.4v6.2h-1.48v-12.8zM307.74 116.58h1.9l2.4 4.9c.22.4.5 1 .66 1.42l.7-1.43 2.46-4.9h1.75l-4.15 7.83v4.98h-1.58v-5.08l-4.13-7.72zM326.7 117.53l-.68 1.1c-1.24-.8-2.02-1.08-3.12-1.08-1.6 0-2.56.8-2.56 2.1 0 1.03.62 1.63 2.13 2.1l1.47.46c1.14.37 1.76.7 2.26 1.3.52.6.84 1.46.84 2.26 0 1.2-.65 2.3-1.77 3.08-.84.54-1.7.78-2.87.78-1.53 0-2.84-.37-4.1-1.15l.66-1.2c1.07.77 2.15 1.1 3.44 1.1.97 0 1.5-.15 2.03-.56.62-.45.92-1.07.92-1.82 0-1.13-.75-1.92-2.3-2.4l-1.3-.38c-1.14-.35-1.76-.6-2.26-1.14-.54-.56-.82-1.26-.82-2.1 0-2.17 1.66-3.66 4.15-3.66 1.37 0 2.64.4 3.86 1.23zM330.46 127.1c.7 0 1.27.54 1.27 1.23 0 .7-.56 1.3-1.23 1.3-.7 0-1.27-.6-1.27-1.3 0-.7.54-1.23 1.23-1.23z"/>
    </g>
  </g>
</svg>
