<?xml version="1.0" encoding="utf-8"?>
<!-- Generator: Adobe Illustrator 22.0.1, SVG Export Plug-In . SVG Version: 6.00 Build 0)  -->
<svg version="1.1" id="Layer_1" xmlns="http://www.w3.org/2000/svg" xmlns:xlink="http://www.w3.org/1999/xlink" x="0px" y="0px"
	 viewBox="0 0 41.3 18.8" style="enable-background:new 0 0 41.3 18.8;" xml:space="preserve">
<style type="text/css">
	.st0{fill:#FFFFFF;}
</style>
<title>aeternity copy 4</title>
<desc>Created with Sketch.</desc>
<g id="Page-1">
	<g id="Bitcoin-Suisse---ICO-Project-Overview" transform="translate(-949.000000, -2387.000000)">
		<g id="aeternity-copy-4" transform="translate(949.000000, 2387.000000)">
			<path id="Shape" class="st0" d="M8.8,0h1.7c2.6,0.3,5.1,1.5,6.9,3.4c3.7,3.8,5.8,9.2,10.6,12.1c3.4,2.1,8.3,0.4,9.9-3.1
				c0.9,0,1.7,0,2.6,0c-1.2,3.5-4.6,6.1-8.4,6.4h-1.4c-2.3-0.2-4.6-1.1-6.3-2.6c-2.6-2.1-4.2-5-6.2-7.6c-1.7-2.3-3.4-4.8-6.3-5.9
				c-3.5-1.3-7.7,0.7-9,4.1c-1.1,2.8-0.2,6.3,2.3,8c1.9,1.4,4.5,1.9,6.7,1.1c2.5-0.9,4.4-2.9,5.8-5c0.6,0.8,1.1,1.6,1.6,2.4
				c-2.2,2.7-5.3,5.1-8.9,5.4H8.9c-4.6-0.3-8.6-4.1-8.9-8.6V8.7C0.3,4.2,4.2,0.3,8.8,0"/>
			<path id="Shape_1_" class="st0" d="M30.9,0h1.4c4.6,0.3,8.6,4.2,9,8.8v2.3c-3.8,0-7.7,0-11.5,0c0-0.7,0-1.4,0-2c3,0,6.1,0,9.1,0
				c-0.2-1.2-0.5-2.4-1.2-3.5c-1.8-2.7-5.5-3.7-8.5-2.6c-2.4,0.9-4.2,2.8-5.6,4.8C23,7.1,22.5,6.3,22,5.5C24.2,2.8,27.2,0.3,30.9,0"
				/>
		</g>
	</g>
</g>
</svg>
