<svg xmlns="http://www.w3.org/2000/svg" viewBox="0 0 1620 1080"><defs><style>.a{fill:#010101;}.b,.c{fill:#fff;}.b{fill-rule:evenodd;}</style></defs><title>aeternity-logo-vector-black</title><rect class="a" width="1620" height="1080"/><path class="b" d="M552.45757,455.798c-34.62864,0-58.36422,21.63672-78.87724,48.44389l12.15524,17.757C504.529,496.292,524.49986,476.066,552.45757,476.066c32.11349,0,58.81743,23.27823,63.74865,53.64534H536.4864v20.26875h100.357a83.66406,83.66406,0,0,0,.61934-10.13435c0-46.34412-38.13321-84.0477-85.0052-84.0477"/><path class="b" d="M552.45757,603.62412c-34.18973,0-56.74959-29.52871-85.38788-72.85332s-55.67037-74.97235-97.59933-74.97235c-46.872,0-85.00605,37.70268-85.00605,84.0468,0,46.34329,38.13406,84.04682,85.00605,84.04682,34.56821,0,58.28113-21.56118,78.76978-48.30285l-12.06712-17.872c-18.78754,25.69516-38.75418,45.90687-66.70266,45.90687-35.60634,0-64.57277-28.61061-64.57277-63.77887,0-35.16743,28.96643-63.77884,64.57277-63.77884,34.18974,0,55.53356,28.024,85.32574,72.78279,29.79224,44.758,55.73245,75.04287,97.66147,75.04287a85.12509,85.12509,0,0,0,79.24817-53.64363H609.20965a64.74876,64.74876,0,0,1-56.75208,33.37568"/><path class="b" d="M700.10538,623.40325V601.18972h7.61337a9.28828,9.28828,0,0,1,5.73579,1.5106,5.31625,5.31625,0,0,1,1.96822,4.50044,4.78841,4.78841,0,0,1-.82356,2.74592,5.29365,5.29365,0,0,1-2.4102,1.89215,4.89246,4.89246,0,0,1,2.78508,1.83957,5.35462,5.35462,0,0,1,.98358,3.24162,5.9127,5.9127,0,0,1-2.00743,4.8048,8.71823,8.71823,0,0,1-5.7436,1.67843Zm3.86041-12.86129h3.7832a4.36076,4.36076,0,0,0,2.81413-.81795,2.787,2.787,0,0,0,1.016-2.30953,2.84006,2.84006,0,0,0-.93771-2.38,4.7402,4.7402,0,0,0-2.9227-.7318h-3.753Zm0,2.83768v6.942h4.28674a4.15166,4.15166,0,0,0,2.83763-.90076,3.15155,3.15155,0,0,0,1.02167-2.50087q0-3.46261-3.53932-3.54038Z"/><polygon class="b" points="738.989 620.322 749.073 620.322 749.073 623.403 735.129 623.403 735.129 601.19 738.989 601.19 738.989 620.322"/><path class="b" d="M786.67446,612.87633a13.62889,13.62889,0,0,1-1.129,5.72794,8.51918,8.51918,0,0,1-3.22488,3.78319,9.45668,9.45668,0,0,1-9.64314,0,8.6435,8.6435,0,0,1-3.26511-3.75969,13.19344,13.19344,0,0,1-1.16709-5.62947v-1.251a13.52351,13.52351,0,0,1,1.15032-5.7369,8.64236,8.64236,0,0,1,3.25168-3.80445,8.82161,8.82161,0,0,1,4.81267-1.32149,8.9314,8.9314,0,0,1,4.81263,1.30358,8.57252,8.57252,0,0,1,3.24268,3.753,13.51,13.51,0,0,1,1.15923,5.7Zm-3.85929-1.15924a9.69525,9.69525,0,0,0-1.39754-5.6608,4.92531,4.92531,0,0,0-7.87183-.0056,9.50743,9.50743,0,0,0-1.44125,5.54444v1.2812a9.62878,9.62878,0,0,0,1.42778,5.66081,4.93926,4.93926,0,0,0,7.90319.04475,9.84543,9.84543,0,0,0,1.37965-5.70556Z"/><path class="b" d="M823.49759,616.17166a8.01485,8.01485,0,0,1-2.624,5.54555,8.93362,8.93362,0,0,1-6.08717,1.99174,8.64719,8.64719,0,0,1-4.67724-1.25994,8.262,8.262,0,0,1-3.11961-3.57619,12.91282,12.91282,0,0,1-1.14362-5.38554v-2.07566a12.98622,12.98622,0,0,1,1.1145-5.53772,8.38634,8.38634,0,0,1,3.19686-3.69256,8.90232,8.90232,0,0,1,4.81267-1.29687,8.57226,8.57226,0,0,1,5.91927,1.99286,8.31257,8.31257,0,0,1,2.6083,5.63619h-3.84472a5.47942,5.47942,0,0,0-1.39762-3.45758,4.606,4.606,0,0,0-3.28523-1.05853,4.50189,4.50189,0,0,0-3.86715,1.83956,9.17359,9.17359,0,0,0-1.38188,5.39785v1.97048a9.7478,9.7478,0,0,0,1.29012,5.49744,4.27646,4.27646,0,0,0,3.77535,1.89327,4.998,4.998,0,0,0,3.41843-1.0216,5.33353,5.33353,0,0,0,1.448-3.40275Z"/><polygon class="b" points="849.047 613.807 846.529 616.477 846.529 623.403 842.67 623.403 842.67 601.19 846.529 601.19 846.529 611.61 848.665 608.971 855.165 601.19 859.833 601.19 851.579 611.031 860.307 623.403 855.729 623.403 849.047 613.807"/><path class="b" d="M897.12925,616.17166a8.01606,8.01606,0,0,1-2.62413,5.54555,8.93489,8.93489,0,0,1-6.08722,1.99174,8.64666,8.64666,0,0,1-4.677-1.25994,8.25774,8.25774,0,0,1-3.12008-3.57619,12.90954,12.90954,0,0,1-1.14307-5.38554v-2.07566a12.9979,12.9979,0,0,1,1.1133-5.53772,8.40044,8.40044,0,0,1,3.19652-3.69256,8.90942,8.90942,0,0,1,4.8131-1.29687,8.57526,8.57526,0,0,1,5.92021,1.99286,8.31225,8.31225,0,0,1,2.60839,5.63619h-3.84484a5.48214,5.48214,0,0,0-1.39784-3.45758,4.6059,4.6059,0,0,0-3.28592-1.05853,4.5009,4.5009,0,0,0-3.86621,1.83956,9.17411,9.17411,0,0,0-1.38321,5.39785v1.97048a9.73474,9.73474,0,0,0,1.29154,5.49744,4.276,4.276,0,0,0,3.77513,1.89327,4.993,4.993,0,0,0,3.41753-1.0216,5.33408,5.33408,0,0,0,1.449-3.40275Z"/><polygon class="b" points="933.937 623.403 930.092 623.403 930.092 613.548 920.16 613.548 920.16 623.403 916.301 623.403 916.301 601.19 920.16 601.19 920.16 610.436 930.092 610.436 930.092 601.19 933.937 601.19 933.937 623.403"/><path class="b" d="M967.52616,618.2311h-8.6056l-1.79928,5.17182h-4.0124l8.39081-22.21354h3.46309l8.406,22.21354h-4.02759Zm-7.52156-3.11182h6.43864l-3.219-9.21461Z"/><rect class="c" x="992.54013" y="601.18961" width="3.84484" height="22.21353"/><polygon class="b" points="1033.179 623.403 1029.318 623.403 1019.416 607.644 1019.416 623.403 1015.557 623.403 1015.557 601.19 1019.416 601.19 1029.348 617.011 1029.348 601.19 1033.179 601.19 1033.179 623.403"/><path class="b" d="M803.29929,587.98175q-21.97758,0-34.13756-13.98481a36.60386,36.60386,0,0,1-14.94082,10.33521,56.87819,56.87819,0,0,1-20.93335,3.6496q-15.28777,0-23.97291-7.64509-8.68871-7.64214-8.6863-21.194,0-13.72419,10.334-21.194,10.33928-7.46979,30.57675-7.46978h16.59321V524.311q0-7.90338-4.12814-12.3798-4.12582-4.47042-11.76969-4.47166-7.9034,0-12.8986,3.864a11.72,11.72,0,0,0-4.99644,9.59962l-21.01984-1.65129q0-12.68122,10.98907-20.7166,10.98435-8.03478,28.09878-8.03363,19.36914,0,29.0144,11.55173,11.37693-11.72523,28.75023-11.55173,18.41319,0,28.75259,11.2485,10.334,11.25087,10.33517,31.66068v11.9H778.89041q.78355,12.07533,7.38334,18.9374,6.59735,6.86212,18.24089,6.86094a43.75885,43.75885,0,0,0,21.19517-5.03669l5.29849-2.95549,6.34207,14.42073a45.1209,45.1209,0,0,1-15.15749,7.64273,64.15212,64.15212,0,0,1-18.89359,2.78132m-65.92975-15.98433a27.66136,27.66136,0,0,0,10.94643-2.56218,33.10587,33.10587,0,0,0,9.81636-6.29827V544.98373h-17.0279q-9.0334.17592-14.24423,4.29994a12.55544,12.55544,0,0,0-5.212,10.2061,11.31674,11.31674,0,0,0,4.03814,9.076q4.04225,3.4364,11.68321,3.43165m62.80256-64.5379a18.31905,18.31905,0,0,0-14.114,5.99268q-5.51874,5.99676-6.90593,17.02672H818.413V527.8717q0-9.81338-4.73228-15.11251-4.73526-5.30026-13.50861-5.29967"/><path class="b" d="M880.68661,469.41222v22.84526h16.59v15.63605h-16.59v52.46495q0,5.38915,2.12766,7.77543,2.12539,2.3898,7.59913,2.388a32.57787,32.57787,0,0,0,7.38437-.86827v16.329a51.97513,51.97513,0,0,1-13.8983,1.99952q-24.32157,0-24.3224-26.84071v-53.248H844.1162V492.25748h15.46087V469.41222Z"/><path class="b" d="M948.92836,587.98175q-20.06654,0-32.53051-12.63916-12.46647-12.63858-12.46507-33.659v-2.606a56.37493,56.37493,0,0,1,5.4316-25.14683,41.28459,41.28459,0,0,1,15.24385-17.24354,40.3003,40.3003,0,0,1,21.88939-6.16558q19.19442,0,29.66344,12.24709,10.46508,12.24764,10.46675,34.65757v8.51218H925.2155q.95638,11.6418,7.77346,18.41622a23.33809,23.33809,0,0,0,17.15556,6.77446q14.5059,0,23.62853-11.72586l11.37764,10.85877a38.0018,38.0018,0,0,1-15.07122,13.07151,47.1842,47.1842,0,0,1-21.15111,4.64818m-2.51731-80.52223a17.78146,17.78146,0,0,0-14.031,6.07915q-5.34135,6.082-6.81816,16.94025h40.21787v-1.56481q-.695-10.59878-5.64468-16.02577-4.95333-5.42644-13.724-5.42882"/><path class="b" d="M1050.12733,511.54186a52.22232,52.22232,0,0,0-8.60007-.69537q-14.50415,0-19.54238,11.1194v64.27729h-21.10619v-93.9858h20.15136l.5213,10.51169q7.64216-12.24764,21.19388-12.24711a19.7597,19.7597,0,0,1,7.46867,1.21418Z"/><path class="b" d="M1081.00411,492.2576l.609,10.85878q10.42117-12.596,27.362-12.59413,29.36,0,29.88043,33.61515v62.106h-21.10671V525.35276q0-8.94457-3.86736-13.24683-3.86445-4.29988-12.63654-4.29877-12.77191,0-19.02408,11.55179v66.88447h-21.10611V492.2576Z"/><path class="b" d="M1153.531,467.84954a11.19939,11.19939,0,0,1,3.08241-8.07743q3.081-3.21247,8.81645-3.21486,5.7336,0,8.86037,3.21486a11.11841,11.11841,0,0,1,3.12737,8.07743,10.85866,10.85866,0,0,1-3.12737,7.94715q-3.12907,3.17343-8.86037,3.17107-5.73013,0-8.81645-3.17107A10.936,10.936,0,0,1,1153.531,467.84954Zm1.30162,118.39471h21.10679V492.25844h-21.10679Z"/><path class="b" d="M1226.67179,469.41222v22.84526h16.59055v15.63605h-16.59055v52.46495q0,5.38915,2.12878,7.77543,2.12295,2.3898,7.59857,2.388a32.58953,32.58953,0,0,0,7.38441-.86827v16.329a51.97254,51.97254,0,0,1-13.89834,1.99952q-24.32241,0-24.32236-26.84071v-53.248h-15.46036V492.25748h15.46036V469.41222Z"/><path class="b" d="M1293.92842,556.01569l19.11066-63.75843h22.49661l-37.35082,108.2324q-8.60195,23.71175-29.185,23.71234a37.59515,37.59515,0,0,1-10.16371-1.5719V606.22052l3.99555.26178q7.99051,0,12.03046-2.9057,4.03832-2.91045,6.38464-9.76663l3.03856-8.07153-33.00676-93.48118h22.75872Z"/></svg>