<?xml version="1.0" encoding="UTF-8"?>
<!DOCTYPE svg
  PUBLIC '-//W3C//DTD SVG 1.1//EN'
  'http://www.w3.org/Graphics/SVG/1.1/DTD/svg11.dtd'>
<svg height="938px" style="shape-rendering:geometricPrecision; text-rendering:geometricPrecision; image-rendering:optimizeQuality; fill-rule:evenodd; clip-rule:evenodd" version="1.1" viewBox="0 0 1562 941" width="1556px" xml:space="preserve" xmlns="http://www.w3.org/2000/svg" xmlns:xlink="http://www.w3.org/1999/xlink">
    <style type="text/css">.fil0{fill:#FFFFFF;}
</style>
    <g id="Layer_x0020_1">
        <g id="_636851840">
            <polygon class="fil0" points="844,110 841,110 841,195 847,195 847,191 850,191 850,188 853,188 853,185 856,185 856,182 860,182 860,179 863,179 863,176 866,176 866,173 869,173 869,169 872,169 872,166 875,166 875,163 878,163 878,160 882,160 882,157 885,157 885,154 888,154 888,151 891,151 891,147 894,147 894,144 897,144 897,141 900,141 900,138 903,138 903,135 907,135 907,132 910,132 910,129 913,129 913,125 916,125 916,122 919,122 919,119 922,119 922,116 925,116 925,113 929,113 929,110 932,110 932,107 844,107 "/>
            <polygon class="fil0" points="841,718 844,718 844,722 847,722 847,718 850,718 850,715 853,715 853,712 856,712 856,709 860,709 860,706 863,706 863,703 866,703 866,700 869,700 869,696 872,696 872,693 875,693 875,690 878,690 878,687 882,687 882,684 885,684 885,681 888,681 888,678 891,678 891,674 894,674 894,671 897,671 897,668 900,668 900,665 903,665 903,662 907,662 907,659 910,659 910,656 913,656 913,653 916,653 916,649 919,649 919,646 922,646 922,643 925,643 925,640 929,640 929,637 932,637 932,634 841,634 "/>
            <polygon class="fil0" points="957,323 960,323 960,326 963,326 963,329 966,329 966,333 969,333 969,336 972,336 972,339 976,339 976,342 979,342 979,345 982,345 982,348 985,348 985,351 988,351 988,354 991,354 991,358 994,358 994,361 998,361 998,364 1001,364 1001,367 1004,367 1004,370 1007,370 1007,373 1010,373 1010,376 1013,376 1013,380 1016,380 1016,383 1020,383 1020,386 1023,386 1023,389 1026,389 1026,392 1029,392 1029,395 1032,395 1032,398 1035,398 1035,402 1038,402 1038,405 1045,405 1045,317 957,317 "/>
            <polygon class="fil0" points="536,113 540,113 540,116 543,116 543,119 546,119 546,122 549,122 549,125 552,125 552,129 555,129 555,132 558,132 558,135 562,135 562,138 565,138 565,141 568,141 568,144 571,144 571,147 574,147 574,151 577,151 577,154 580,154 580,157 583,157 583,160 587,160 587,163 590,163 590,166 593,166 593,169 596,169 596,173 599,173 599,176 602,176 602,179 605,179 605,182 609,182 609,185 612,185 612,188 615,188 615,191 618,191 618,195 624,195 624,107 536,107 "/>
            <polygon class="fil0" points="1371,3 1368,3 1368,91 1371,91 1371,88 1374,88 1374,85 1377,85 1377,82 1380,82 1380,78 1383,78 1383,75 1387,75 1387,72 1390,72 1390,69 1393,69 1393,66 1396,66 1396,63 1399,63 1399,60 1402,60 1402,56 1405,56 1405,53 1409,53 1409,50 1412,50 1412,47 1415,47 1415,44 1418,44 1418,41 1421,41 1421,38 1424,38 1424,35 1427,35 1427,31 1431,31 1431,28 1434,28 1434,25 1437,25 1437,22 1440,22 1440,19 1443,19 1443,16 1446,16 1446,13 1449,13 1449,9 1452,9 1452,6 1456,6 1456,0 1371,0 "/>
            <polygon class="fil0" points="1368,624 1456,624 1456,618 1452,618 1452,615 1449,615 1449,612 1446,612 1446,609 1443,609 1443,605 1440,605 1440,602 1437,602 1437,599 1434,599 1434,596 1431,596 1431,593 1427,593 1427,590 1424,590 1424,587 1421,587 1421,583 1418,583 1418,580 1415,580 1415,577 1412,577 1412,574 1409,574 1409,571 1405,571 1405,568 1402,568 1402,565 1399,565 1399,562 1396,562 1396,558 1393,558 1393,555 1390,555 1390,552 1387,552 1387,549 1383,549 1383,546 1380,546 1380,543 1377,543 1377,540 1374,540 1374,536 1368,536 "/>
            <polygon class="fil0" points="841,621 844,621 844,624 932,624 932,621 929,621 929,618 925,618 925,615 922,615 922,612 919,612 919,609 916,609 916,605 913,605 913,602 910,602 910,599 907,599 907,596 903,596 903,593 900,593 900,590 897,590 897,587 894,587 894,583 891,583 891,580 888,580 888,577 885,577 885,574 882,574 882,571 878,571 878,568 875,568 875,565 872,565 872,562 869,562 869,558 866,558 866,555 863,555 863,552 860,552 860,549 856,549 856,546 853,546 853,543 850,543 850,540 847,540 847,536 841,536 "/>
            <polygon class="fil0" points="1355,13 1352,13 1352,16 1349,16 1349,19 1346,19 1346,22 1343,22 1343,25 1340,25 1340,28 1336,28 1336,31 1333,31 1333,35 1330,35 1330,38 1327,38 1327,41 1324,41 1324,44 1321,44 1321,47 1318,47 1318,50 1314,50 1314,53 1311,53 1311,56 1308,56 1308,60 1305,60 1305,63 1302,63 1302,66 1299,66 1299,69 1296,69 1296,72 1292,72 1292,75 1289,75 1289,78 1286,78 1286,82 1283,82 1283,85 1280,85 1280,88 1277,88 1277,91 1274,91 1274,94 1271,94 1271,97 1361,97 1361,13 1358,13 1358,9 1355,9 "/>
            <polygon class="fil0" points="536,323 540,323 540,326 543,326 543,329 546,329 546,333 549,333 549,336 552,336 552,339 555,339 555,342 558,342 558,345 562,345 562,348 565,348 565,351 568,351 568,354 571,354 571,358 574,358 574,361 577,361 577,364 580,364 580,367 583,367 583,370 587,370 587,373 590,373 590,376 593,376 593,380 596,380 596,383 599,383 599,386 602,386 602,389 605,389 605,392 609,392 609,395 612,395 612,398 615,398 615,402 618,402 618,405 624,405 624,317 536,317 "/>
            <polygon class="fil0" points="210,195 216,195 216,191 220,191 220,188 223,188 223,185 226,185 226,182 229,182 229,179 232,179 232,176 235,176 235,173 238,173 238,169 242,169 242,166 245,166 245,163 248,163 248,160 251,160 251,157 254,157 254,154 257,154 257,151 260,151 260,147 264,147 264,144 267,144 267,141 270,141 270,138 273,138 273,135 276,135 276,132 279,132 279,129 282,129 282,125 285,125 285,122 289,122 289,119 292,119 292,116 295,116 295,113 298,113 298,107 210,107 "/>
            <polygon class="fil0" points="1368,414 1456,414 1456,408 1452,408 1452,405 1449,405 1449,402 1446,402 1446,398 1443,398 1443,395 1440,395 1440,392 1437,392 1437,389 1434,389 1434,386 1431,386 1431,383 1427,383 1427,380 1424,380 1424,376 1421,376 1421,373 1418,373 1418,370 1415,370 1415,367 1412,367 1412,364 1409,364 1409,361 1405,361 1405,358 1402,358 1402,354 1399,354 1399,351 1396,351 1396,348 1393,348 1393,345 1390,345 1390,342 1387,342 1387,339 1383,339 1383,336 1380,336 1380,333 1377,333 1377,329 1374,329 1374,326 1368,326 "/>
            <polygon class="fil0" points="1371,213 1368,213 1368,301 1371,301 1371,298 1374,298 1374,295 1377,295 1377,292 1380,292 1380,289 1383,289 1383,285 1387,285 1387,282 1390,282 1390,279 1393,279 1393,276 1396,276 1396,273 1399,273 1399,270 1402,270 1402,267 1405,267 1405,264 1409,264 1409,260 1412,260 1412,257 1415,257 1415,254 1418,254 1418,251 1421,251 1421,248 1424,248 1424,245 1427,245 1427,242 1431,242 1431,238 1434,238 1434,235 1437,235 1437,232 1440,232 1440,229 1443,229 1443,226 1446,226 1446,223 1449,223 1449,220 1452,220 1452,216 1456,216 1456,210 1371,210 "/>
            <polygon class="fil0" points="433,213 430,213 430,216 433,216 433,220 436,220 436,223 439,223 439,226 442,226 442,229 445,229 445,232 449,232 449,235 452,235 452,238 455,238 455,242 458,242 458,245 461,245 461,248 464,248 464,251 467,251 467,254 471,254 471,257 474,257 474,260 477,260 477,264 480,264 480,267 483,267 483,270 486,270 486,273 489,273 489,276 493,276 493,279 496,279 496,282 499,282 499,285 502,285 502,289 505,289 505,292 508,292 508,295 511,295 511,298 514,298 514,301 518,301 518,210 433,210 "/>
            <polygon class="fil0" points="1355,540 1352,540 1352,543 1349,543 1349,546 1346,546 1346,549 1343,549 1343,552 1340,552 1340,555 1336,555 1336,558 1333,558 1333,562 1330,562 1330,565 1327,565 1327,568 1324,568 1324,571 1321,571 1321,574 1318,574 1318,577 1314,577 1314,580 1311,580 1311,583 1308,583 1308,587 1305,587 1305,590 1302,590 1302,593 1299,593 1299,596 1296,596 1296,599 1292,599 1292,602 1289,602 1289,605 1286,605 1286,609 1283,609 1283,612 1280,612 1280,615 1277,615 1277,618 1274,618 1274,621 1271,621 1271,624 1358,624 1358,621 1361,621 1361,536 1355,536 "/>
            <polygon class="fil0" points="841,938 844,938 844,941 932,941 932,938 929,938 929,935 925,935 925,932 922,932 922,929 919,929 919,925 916,925 916,922 913,922 913,919 910,919 910,916 907,916 907,913 903,913 903,910 900,910 900,907 897,907 897,903 894,903 894,900 891,900 891,897 888,897 888,894 885,894 885,891 882,891 882,888 878,888 878,885 875,885 875,882 872,882 872,878 869,878 869,875 866,875 866,872 863,872 863,869 860,869 860,866 856,866 856,863 853,863 853,860 850,860 850,856 847,856 847,853 841,853 "/>
            <polygon class="fil0" points="210,405 216,405 216,402 220,402 220,398 223,398 223,395 226,395 226,392 229,392 229,389 232,389 232,386 235,386 235,383 238,383 238,380 242,380 242,376 245,376 245,373 248,373 248,370 251,370 251,367 254,367 254,364 257,364 257,361 260,361 260,358 264,358 264,354 267,354 267,351 270,351 270,348 273,348 273,345 276,345 276,342 279,342 279,339 282,339 282,336 285,336 285,333 289,333 289,329 292,329 292,326 295,326 295,323 298,323 298,317 210,317 "/>
            <polygon class="fil0" points="514,643 511,643 511,646 508,646 508,649 505,649 505,653 502,653 502,656 499,656 499,659 496,659 496,662 493,662 493,665 489,665 489,668 486,668 486,671 483,671 483,674 480,674 480,678 477,678 477,681 474,681 474,684 471,684 471,687 467,687 467,690 464,690 464,693 461,693 461,696 458,696 458,700 455,700 455,703 452,703 452,706 449,706 449,709 445,709 445,712 442,712 442,715 439,715 439,718 436,718 436,722 433,722 433,725 430,725 430,728 433,728 433,731 518,731 518,640 514,640 "/>
            <polygon class="fil0" points="1271,740 1274,740 1274,743 1277,743 1277,747 1280,747 1280,750 1283,750 1283,753 1286,753 1286,756 1289,756 1289,759 1292,759 1292,762 1296,762 1296,765 1299,765 1299,769 1302,769 1302,772 1305,772 1305,775 1308,775 1308,778 1311,778 1311,781 1314,781 1314,784 1318,784 1318,787 1321,787 1321,791 1324,791 1324,794 1327,794 1327,797 1330,797 1330,800 1333,800 1333,803 1336,803 1336,806 1340,806 1340,809 1343,809 1343,813 1346,813 1346,816 1349,816 1349,819 1352,819 1352,822 1355,822 1355,825 1361,825 1361,740 1358,740 1358,737 1271,737 "/>
            <polygon class="fil0" points="113,637 116,637 116,640 119,640 119,643 122,643 122,646 125,646 125,649 129,649 129,653 132,653 132,656 135,656 135,659 138,659 138,662 141,662 141,665 144,665 144,668 147,668 147,671 151,671 151,674 154,674 154,678 157,678 157,681 160,681 160,684 163,684 163,687 166,687 166,690 169,690 169,693 173,693 173,696 176,696 176,700 179,700 179,703 182,703 182,706 185,706 185,709 188,709 188,712 191,712 191,715 195,715 195,718 198,718 198,722 201,722 201,718 204,718 204,634 113,634 "/>
            <polygon class="fil0" points="1368,204 1456,204 1456,198 1452,198 1452,195 1449,195 1449,191 1446,191 1446,188 1443,188 1443,185 1440,185 1440,182 1437,182 1437,179 1434,179 1434,176 1431,176 1431,173 1427,173 1427,169 1424,169 1424,166 1421,166 1421,163 1418,163 1418,160 1415,160 1415,157 1412,157 1412,154 1409,154 1409,151 1405,151 1405,147 1402,147 1402,144 1399,144 1399,141 1396,141 1396,138 1393,138 1393,135 1390,135 1390,132 1387,132 1387,129 1383,129 1383,125 1380,125 1380,122 1377,122 1377,119 1374,119 1374,116 1368,116 "/>
            <polygon class="fil0" points="1060,530 1063,530 1063,533 1067,533 1067,536 1070,536 1070,540 1073,540 1073,543 1076,543 1076,546 1079,546 1079,549 1082,549 1082,552 1085,552 1085,555 1089,555 1089,558 1092,558 1092,562 1095,562 1095,565 1098,565 1098,568 1101,568 1101,571 1104,571 1104,574 1107,574 1107,577 1111,577 1111,580 1114,580 1114,583 1117,583 1117,587 1120,587 1120,590 1123,590 1123,593 1126,593 1126,596 1129,596 1129,599 1132,599 1132,602 1136,602 1136,605 1139,605 1139,609 1142,609 1142,612 1145,612 1145,615 1151,615 1151,530 1148,530 1148,527 1060,527 "/>
            <polygon class="fil0" points="113,110 116,110 116,113 119,113 119,116 122,116 122,119 125,119 125,122 129,122 129,125 132,125 132,129 135,129 135,132 138,132 138,135 141,135 141,138 144,138 144,141 147,141 147,144 151,144 151,147 154,147 154,151 157,151 157,154 160,154 160,157 163,157 163,160 166,160 166,163 169,163 169,166 173,166 173,169 176,169 176,173 179,173 179,176 182,176 182,179 185,179 185,182 188,182 188,185 191,185 191,188 195,188 195,191 198,191 198,195 204,195 204,110 201,110 201,107 113,107 "/>
            <polygon class="fil0" points="634,110 631,110 631,195 637,195 637,191 640,191 640,188 643,188 643,185 646,185 646,182 649,182 649,179 653,179 653,176 656,176 656,173 659,173 659,169 662,169 662,166 665,166 665,163 668,163 668,160 671,160 671,157 674,157 674,154 678,154 678,151 681,151 681,147 684,147 684,144 687,144 687,141 690,141 690,138 693,138 693,135 696,135 696,132 700,132 700,129 703,129 703,125 706,125 706,122 709,122 709,119 712,119 712,116 715,116 715,113 718,113 718,110 722,110 722,107 634,107 "/>
            <polygon class="fil0" points="1060,740 1063,740 1063,743 1067,743 1067,747 1070,747 1070,750 1073,750 1073,753 1076,753 1076,756 1079,756 1079,759 1082,759 1082,762 1085,762 1085,765 1089,765 1089,769 1092,769 1092,772 1095,772 1095,775 1098,775 1098,778 1101,778 1101,781 1104,781 1104,784 1107,784 1107,787 1111,787 1111,791 1114,791 1114,794 1117,794 1117,797 1120,797 1120,800 1123,800 1123,803 1126,803 1126,806 1129,806 1129,809 1132,809 1132,813 1136,813 1136,816 1139,816 1139,819 1142,819 1142,822 1145,822 1145,825 1151,825 1151,740 1148,740 1148,737 1060,737 "/>
            <polygon class="fil0" points="530,213 527,213 527,301 530,301 530,298 533,298 533,295 536,295 536,292 540,292 540,289 543,289 543,285 546,285 546,282 549,282 549,279 552,279 552,276 555,276 555,273 558,273 558,270 562,270 562,267 565,267 565,264 568,264 568,260 571,260 571,257 574,257 574,254 577,254 577,251 580,251 580,248 583,248 583,245 587,245 587,242 590,242 590,238 593,238 593,235 596,235 596,232 599,232 599,229 602,229 602,226 605,226 605,223 609,223 609,220 612,220 612,216 615,216 615,210 530,210 "/>
            <polygon class="fil0" points="527,825 533,825 533,822 536,822 536,819 540,819 540,816 543,816 543,813 546,813 546,809 549,809 549,806 552,806 552,803 555,803 555,800 558,800 558,797 562,797 562,794 565,794 565,791 568,791 568,787 571,787 571,784 574,784 574,781 577,781 577,778 580,778 580,775 583,775 583,772 587,772 587,769 590,769 590,765 593,765 593,762 596,762 596,759 599,759 599,756 602,756 602,753 605,753 605,750 609,750 609,747 612,747 612,743 615,743 615,737 527,737 "/>
            <polygon class="fil0" points="210,624 298,624 298,618 295,618 295,615 292,615 292,612 289,612 289,609 285,609 285,605 282,605 282,602 279,602 279,599 276,599 276,596 273,596 273,593 270,593 270,590 267,590 267,587 264,587 264,583 260,583 260,580 257,580 257,577 254,577 254,574 251,574 251,571 248,571 248,568 245,568 245,565 242,565 242,562 238,562 238,558 235,558 235,555 232,555 232,552 229,552 229,549 226,549 226,546 223,546 223,543 220,543 220,540 216,540 216,536 210,536 "/>
            <polygon class="fil0" points="9,743 13,743 13,747 16,747 16,750 19,750 19,753 22,753 22,756 25,756 25,759 28,759 28,762 31,762 31,765 35,765 35,769 38,769 38,772 41,772 41,775 44,775 44,778 47,778 47,781 50,781 50,784 53,784 53,787 56,787 56,791 60,791 60,794 63,794 63,797 66,797 66,800 69,800 69,803 72,803 72,806 75,806 75,809 78,809 78,813 82,813 82,816 85,816 85,819 88,819 88,822 91,822 91,825 97,825 97,737 9,737 "/>
            <polygon class="fil0" points="1145,856 1142,856 1142,860 1139,860 1139,863 1136,863 1136,866 1132,866 1132,869 1129,869 1129,872 1126,872 1126,875 1123,875 1123,878 1120,878 1120,882 1117,882 1117,885 1114,885 1114,888 1111,888 1111,891 1107,891 1107,894 1104,894 1104,897 1101,897 1101,900 1098,900 1098,903 1095,903 1095,907 1092,907 1092,910 1089,910 1089,913 1085,913 1085,916 1082,916 1082,919 1079,919 1079,922 1076,922 1076,925 1073,925 1073,929 1070,929 1070,932 1067,932 1067,935 1063,935 1063,938 1060,938 1060,941 1148,941 1148,938 1151,938 1151,853 1145,853 "/>
            <polygon class="fil0" points="527,941 615,941 615,935 612,935 612,932 609,932 609,929 605,929 605,925 602,925 602,922 599,922 599,919 596,919 596,916 593,916 593,913 590,913 590,910 587,910 587,907 583,907 583,903 580,903 580,900 577,900 577,897 574,897 574,894 571,894 571,891 568,891 568,888 565,888 565,885 562,885 562,882 558,882 558,878 555,878 555,875 552,875 552,872 549,872 549,869 546,869 546,866 543,866 543,863 540,863 540,860 536,860 536,856 533,856 533,853 527,853 "/>
            <polygon class="fil0" points="9,216 13,216 13,220 16,220 16,223 19,223 19,226 22,226 22,229 25,229 25,232 28,232 28,235 31,235 31,238 35,238 35,242 38,242 38,245 41,245 41,248 44,248 44,251 47,251 47,254 50,254 50,257 53,257 53,260 56,260 56,264 60,264 60,267 63,267 63,270 66,270 66,273 69,273 69,276 72,276 72,279 75,279 75,282 78,282 78,285 82,285 82,289 85,289 85,292 88,292 88,295 91,295 91,298 94,298 94,301 97,301 97,213 94,213 94,210 9,210 "/>
            <polygon class="fil0" points="1474,91 1478,91 1478,88 1481,88 1481,85 1484,85 1484,82 1487,82 1487,78 1490,78 1490,75 1493,75 1493,72 1496,72 1496,69 1500,69 1500,66 1503,66 1503,63 1506,63 1506,60 1509,60 1509,56 1512,56 1512,53 1515,53 1515,50 1518,50 1518,47 1521,47 1521,44 1525,44 1525,41 1528,41 1528,38 1531,38 1531,35 1534,35 1534,31 1537,31 1537,28 1540,28 1540,25 1543,25 1543,22 1547,22 1547,19 1550,19 1550,16 1553,16 1553,13 1556,13 1556,9 1559,9 1559,6 1562,6 1562,3 1559,3 1559,0 1474,0 "/>
            <polygon class="fil0" points="1145,119 1142,119 1142,122 1139,122 1139,125 1136,125 1136,129 1132,129 1132,132 1129,132 1129,135 1126,135 1126,138 1123,138 1123,141 1120,141 1120,144 1117,144 1117,147 1114,147 1114,151 1111,151 1111,154 1107,154 1107,157 1104,157 1104,160 1101,160 1101,163 1098,163 1098,166 1095,166 1095,169 1092,169 1092,173 1089,173 1089,176 1085,176 1085,179 1082,179 1082,182 1079,182 1079,185 1076,185 1076,188 1073,188 1073,191 1070,191 1070,195 1067,195 1067,198 1063,198 1063,201 1060,201 1060,204 1148,204 1148,201 1151,201 1151,116 1145,116 "/>
            <polygon class="fil0" points="951,3 947,3 947,91 951,91 951,88 954,88 954,85 957,85 957,82 960,82 960,78 963,78 963,75 966,75 966,72 969,72 969,69 972,69 972,66 976,66 976,63 979,63 979,60 982,60 982,56 985,56 985,53 988,53 988,50 991,50 991,47 994,47 994,44 998,44 998,41 1001,41 1001,38 1004,38 1004,35 1007,35 1007,31 1010,31 1010,28 1013,28 1013,25 1016,25 1016,22 1020,22 1020,19 1023,19 1023,16 1026,16 1026,13 1029,13 1029,9 1032,9 1032,6 1035,6 1035,0 951,0 "/>
            <polygon class="fil0" points="210,825 216,825 216,822 220,822 220,819 223,819 223,816 226,816 226,813 229,813 229,809 232,809 232,806 235,806 235,803 238,803 238,800 242,800 242,797 245,797 245,794 248,794 248,791 251,791 251,787 254,787 254,784 257,784 257,781 260,781 260,778 264,778 264,775 267,775 267,772 270,772 270,769 273,769 273,765 276,765 276,762 279,762 279,759 282,759 282,756 285,756 285,753 289,753 289,750 292,750 292,747 295,747 295,743 298,743 298,737 210,737 "/>
            <polygon class="fil0" points="1459,856 1456,856 1456,860 1452,860 1452,863 1449,863 1449,866 1446,866 1446,869 1443,869 1443,872 1440,872 1440,875 1437,875 1437,878 1434,878 1434,882 1431,882 1431,885 1427,885 1427,888 1424,888 1424,891 1421,891 1421,894 1418,894 1418,897 1415,897 1415,900 1412,900 1412,903 1409,903 1409,907 1405,907 1405,910 1402,910 1402,913 1399,913 1399,916 1396,916 1396,919 1393,919 1393,922 1390,922 1390,925 1387,925 1387,929 1383,929 1383,932 1380,932 1380,935 1377,935 1377,941 1465,941 1465,853 1459,853 "/>
            <polygon class="fil0" points="1377,743 1380,743 1380,747 1383,747 1383,750 1387,750 1387,753 1390,753 1390,756 1393,756 1393,759 1396,759 1396,762 1399,762 1399,765 1402,765 1402,769 1405,769 1405,772 1409,772 1409,775 1412,775 1412,778 1415,778 1415,781 1418,781 1418,784 1421,784 1421,787 1424,787 1424,791 1427,791 1427,794 1431,794 1431,797 1434,797 1434,800 1437,800 1437,803 1440,803 1440,806 1443,806 1443,809 1446,809 1446,813 1449,813 1449,816 1452,816 1452,819 1456,819 1456,822 1459,822 1459,825 1465,825 1465,737 1377,737 "/>
            <polygon class="fil0" points="198,329 195,329 195,333 191,333 191,336 188,336 188,339 185,339 185,342 182,342 182,345 179,345 179,348 176,348 176,351 173,351 173,354 169,354 169,358 166,358 166,361 163,361 163,364 160,364 160,367 157,367 157,370 154,370 154,373 151,373 151,376 147,376 147,380 144,380 144,383 141,383 141,386 138,386 138,389 135,389 135,392 132,392 132,395 129,395 129,398 125,398 125,402 122,402 122,405 119,405 119,408 116,408 116,411 113,411 113,414 201,414 201,411 204,411 204,326 198,326 "/>
            <polygon class="fil0" points="210,728 213,728 213,731 298,731 298,725 295,725 295,722 292,722 292,718 289,718 289,715 285,715 285,712 282,712 282,709 279,709 279,706 276,706 276,703 273,703 273,700 270,700 270,696 267,696 267,693 264,693 264,690 260,690 260,687 257,687 257,684 254,684 254,681 251,681 251,678 248,678 248,674 245,674 245,671 242,671 242,668 238,668 238,665 235,665 235,662 232,662 232,659 229,659 229,656 226,656 226,653 223,653 223,649 220,649 220,646 216,646 216,643 213,643 213,640 210,640 "/>
            <polygon class="fil0" points="853,213 850,213 850,216 853,216 853,220 856,220 856,223 860,223 860,226 863,226 863,229 866,229 866,232 869,232 869,235 872,235 872,238 875,238 875,242 878,242 878,245 882,245 882,248 885,248 885,251 888,251 888,254 891,254 891,257 894,257 894,260 897,260 897,264 900,264 900,267 903,267 903,270 907,270 907,273 910,273 910,276 913,276 913,279 916,279 916,282 919,282 919,285 922,285 922,289 925,289 925,292 929,292 929,295 932,295 932,298 935,298 935,301 938,301 938,210 853,210 "/>
            <polygon class="fil0" points="947,825 954,825 954,822 957,822 957,819 960,819 960,816 963,816 963,813 966,813 966,809 969,809 969,806 972,806 972,803 976,803 976,800 979,800 979,797 982,797 982,794 985,794 985,791 988,791 988,787 991,787 991,784 994,784 994,781 998,781 998,778 1001,778 1001,775 1004,775 1004,772 1007,772 1007,769 1010,769 1010,765 1013,765 1013,762 1016,762 1016,759 1020,759 1020,756 1023,756 1023,753 1026,753 1026,750 1029,750 1029,747 1032,747 1032,743 1035,743 1035,737 947,737 "/>
            <polygon class="fil0" points="1474,301 1478,301 1478,298 1481,298 1481,295 1484,295 1484,292 1487,292 1487,289 1490,289 1490,285 1493,285 1493,282 1496,282 1496,279 1500,279 1500,276 1503,276 1503,273 1506,273 1506,270 1509,270 1509,267 1512,267 1512,264 1515,264 1515,260 1518,260 1518,257 1521,257 1521,254 1525,254 1525,251 1528,251 1528,248 1531,248 1531,245 1534,245 1534,242 1537,242 1537,238 1540,238 1540,235 1543,235 1543,232 1547,232 1547,229 1550,229 1550,226 1553,226 1553,223 1556,223 1556,220 1559,220 1559,216 1562,216 1562,213 1559,213 1559,210 1474,210 "/>
            <polygon class="fil0" points="951,213 947,213 947,301 951,301 951,298 954,298 954,295 957,295 957,292 960,292 960,289 963,289 963,285 966,285 966,282 969,282 969,279 972,279 972,276 976,276 976,273 979,273 979,270 982,270 982,267 985,267 985,264 988,264 988,260 991,260 991,257 994,257 994,254 998,254 998,251 1001,251 1001,248 1004,248 1004,245 1007,245 1007,242 1010,242 1010,238 1013,238 1013,235 1016,235 1016,232 1020,232 1020,229 1023,229 1023,226 1026,226 1026,223 1029,223 1029,220 1032,220 1032,216 1035,216 1035,210 951,210 "/>
            <polygon class="fil0" points="634,740 631,740 631,825 637,825 637,822 640,822 640,819 643,819 643,816 646,816 646,813 649,813 649,809 653,809 653,806 656,806 656,803 659,803 659,800 662,800 662,797 665,797 665,794 668,794 668,791 671,791 671,787 674,787 674,784 678,784 678,781 681,781 681,778 684,778 684,775 687,775 687,772 690,772 690,769 693,769 693,765 696,765 696,762 700,762 700,759 703,759 703,756 706,756 706,753 709,753 709,750 712,750 712,747 715,747 715,743 718,743 718,740 722,740 722,737 634,737 "/>
            <polygon class="fil0" points="947,204 1035,204 1035,198 1032,198 1032,195 1029,195 1029,191 1026,191 1026,188 1023,188 1023,185 1020,185 1020,182 1016,182 1016,179 1013,179 1013,176 1010,176 1010,173 1007,173 1007,169 1004,169 1004,166 1001,166 1001,163 998,163 998,160 994,160 994,157 991,157 991,154 988,154 988,151 985,151 985,147 982,147 982,144 979,144 979,141 976,141 976,138 972,138 972,135 969,135 969,132 966,132 966,129 963,129 963,125 960,125 960,122 957,122 957,119 954,119 954,116 947,116 "/>
            <polygon class="fil0" points="947,728 951,728 951,731 1035,731 1035,725 1032,725 1032,722 1029,722 1029,718 1026,718 1026,715 1023,715 1023,712 1020,712 1020,709 1016,709 1016,706 1013,706 1013,703 1010,703 1010,700 1007,700 1007,696 1004,696 1004,693 1001,693 1001,690 998,690 998,687 994,687 994,684 991,684 991,681 988,681 988,678 985,678 985,674 982,674 982,671 979,671 979,668 976,668 976,665 972,665 972,662 969,662 969,659 966,659 966,656 963,656 963,653 960,653 960,649 957,649 957,646 954,646 954,643 951,643 951,640 947,640 "/>
            <polygon class="fil0" points="643,213 640,213 640,216 643,216 643,220 646,220 646,223 649,223 649,226 653,226 653,229 656,229 656,232 659,232 659,235 662,235 662,238 665,238 665,242 668,242 668,245 671,245 671,248 674,248 674,251 678,251 678,254 681,254 681,257 684,257 684,260 687,260 687,264 690,264 690,267 693,267 693,270 696,270 696,273 700,273 700,276 703,276 703,279 706,279 706,282 709,282 709,285 712,285 712,289 715,289 715,292 718,292 718,295 722,295 722,298 725,298 725,301 728,301 728,210 643,210 "/>
            <polygon class="fil0" points="844,320 841,320 841,405 847,405 847,402 850,402 850,398 853,398 853,395 856,395 856,392 860,392 860,389 863,389 863,386 866,386 866,383 869,383 869,380 872,380 872,376 875,376 875,373 878,373 878,370 882,370 882,367 885,367 885,364 888,364 888,361 891,361 891,358 894,358 894,354 897,354 897,351 900,351 900,348 903,348 903,345 907,345 907,342 910,342 910,339 913,339 913,336 916,336 916,333 919,333 919,329 922,329 922,326 925,326 925,323 929,323 929,317 844,317 "/>
            <polygon class="fil0" points="841,831 844,831 844,834 929,834 929,828 925,828 925,825 922,825 922,822 919,822 919,819 916,819 916,816 913,816 913,813 910,813 910,809 907,809 907,806 903,806 903,803 900,803 900,800 897,800 897,797 894,797 894,794 891,794 891,791 888,791 888,787 885,787 885,784 882,784 882,781 878,781 878,778 875,778 875,775 872,775 872,772 869,772 869,769 866,769 866,765 863,765 863,762 860,762 860,759 856,759 856,756 853,756 853,753 850,753 850,750 847,750 847,747 841,747 "/>
            <polygon class="fil0" points="1274,323 1277,323 1277,326 1280,326 1280,329 1283,329 1283,333 1286,333 1286,336 1289,336 1289,339 1292,339 1292,342 1296,342 1296,345 1299,345 1299,348 1302,348 1302,351 1305,351 1305,354 1308,354 1308,358 1311,358 1311,361 1314,361 1314,364 1318,364 1318,367 1321,367 1321,370 1324,370 1324,373 1327,373 1327,376 1330,376 1330,380 1333,380 1333,383 1336,383 1336,386 1340,386 1340,389 1343,389 1343,392 1346,392 1346,395 1349,395 1349,398 1352,398 1352,402 1355,402 1355,405 1361,405 1361,320 1358,320 1358,317 1274,317 "/>
            <polygon class="fil0" points="844,3 841,3 841,88 847,88 847,85 850,85 850,82 853,82 853,78 856,78 856,75 860,75 860,72 863,72 863,69 866,69 866,66 869,66 869,63 872,63 872,60 875,60 875,56 878,56 878,53 882,53 882,50 885,50 885,47 888,47 888,44 891,44 891,41 894,41 894,38 897,38 897,35 900,35 900,31 903,31 903,28 907,28 907,25 910,25 910,22 913,22 913,19 916,19 916,16 919,16 919,13 922,13 922,9 925,9 925,6 929,6 929,0 844,0 "/>
            <polygon class="fil0" points="1274,216 1277,216 1277,220 1280,220 1280,223 1283,223 1283,226 1286,226 1286,229 1289,229 1289,232 1292,232 1292,235 1296,235 1296,238 1299,238 1299,242 1302,242 1302,245 1305,245 1305,248 1308,248 1308,251 1311,251 1311,254 1314,254 1314,257 1318,257 1318,260 1321,260 1321,264 1324,264 1324,267 1327,267 1327,270 1330,270 1330,273 1333,273 1333,276 1336,276 1336,279 1340,279 1340,282 1343,282 1343,285 1346,285 1346,289 1349,289 1349,292 1352,292 1352,295 1355,295 1355,298 1361,298 1361,213 1358,213 1358,210 1274,210 "/>
            <polygon class="fil0" points="1368,728 1371,728 1371,731 1456,731 1456,725 1452,725 1452,722 1449,722 1449,718 1446,718 1446,715 1443,715 1443,712 1440,712 1440,709 1437,709 1437,706 1434,706 1434,703 1431,703 1431,700 1427,700 1427,696 1424,696 1424,693 1421,693 1421,690 1418,690 1418,687 1415,687 1415,684 1412,684 1412,681 1409,681 1409,678 1405,678 1405,674 1402,674 1402,671 1399,671 1399,668 1396,668 1396,665 1393,665 1393,662 1390,662 1390,659 1387,659 1387,656 1383,656 1383,653 1380,653 1380,649 1377,649 1377,646 1374,646 1374,643 1368,643 "/>
            <polygon class="fil0" points="530,3 527,3 527,88 533,88 533,85 536,85 536,82 540,82 540,78 543,78 543,75 546,75 546,72 549,72 549,69 552,69 552,66 555,66 555,63 558,63 558,60 562,60 562,56 565,56 565,53 568,53 568,50 571,50 571,47 574,47 574,44 577,44 577,41 580,41 580,38 583,38 583,35 587,35 587,31 590,31 590,28 593,28 593,25 596,25 596,22 599,22 599,19 602,19 602,16 605,16 605,13 609,13 609,9 612,9 612,6 615,6 615,0 530,0 "/>
            <polygon class="fil0" points="424,110 420,110 420,195 427,195 427,191 430,191 430,188 433,188 433,185 436,185 436,182 439,182 439,179 442,179 442,176 445,176 445,173 449,173 449,169 452,169 452,166 455,166 455,163 458,163 458,160 461,160 461,157 464,157 464,154 467,154 467,151 471,151 471,147 474,147 474,144 477,144 477,141 480,141 480,138 483,138 483,135 486,135 486,132 489,132 489,129 493,129 493,125 496,125 496,122 499,122 499,119 502,119 502,116 505,116 505,113 508,113 508,107 424,107 "/>
            <polygon class="fil0" points="1355,119 1352,119 1352,122 1349,122 1349,125 1346,125 1346,129 1343,129 1343,132 1340,132 1340,135 1336,135 1336,138 1333,138 1333,141 1330,141 1330,144 1327,144 1327,147 1324,147 1324,151 1321,151 1321,154 1318,154 1318,157 1314,157 1314,160 1311,160 1311,163 1308,163 1308,166 1305,166 1305,169 1302,169 1302,173 1299,173 1299,176 1296,176 1296,179 1292,179 1292,182 1289,182 1289,185 1286,185 1286,188 1283,188 1283,191 1280,191 1280,195 1277,195 1277,198 1274,198 1274,204 1358,204 1358,201 1361,201 1361,116 1355,116 "/>
            <polygon class="fil0" points="1355,646 1352,646 1352,649 1349,649 1349,653 1346,653 1346,656 1343,656 1343,659 1340,659 1340,662 1336,662 1336,665 1333,665 1333,668 1330,668 1330,671 1327,671 1327,674 1324,674 1324,678 1321,678 1321,681 1318,681 1318,684 1314,684 1314,687 1311,687 1311,690 1308,690 1308,693 1305,693 1305,696 1302,696 1302,700 1299,700 1299,703 1296,703 1296,706 1292,706 1292,709 1289,709 1289,712 1286,712 1286,715 1283,715 1283,718 1280,718 1280,722 1277,722 1277,725 1274,725 1274,731 1358,731 1358,728 1361,728 1361,643 1355,643 "/>
            <polygon class="fil0" points="198,750 195,750 195,753 191,753 191,756 188,756 188,759 185,759 185,762 182,762 182,765 179,765 179,769 176,769 176,772 173,772 173,775 169,775 169,778 166,778 166,781 163,781 163,784 160,784 160,787 157,787 157,791 154,791 154,794 151,794 151,797 147,797 147,800 144,800 144,803 141,803 141,806 138,806 138,809 135,809 135,813 132,813 132,816 129,816 129,819 125,819 125,822 122,822 122,825 119,825 119,828 116,828 116,834 201,834 201,831 204,831 204,747 198,747 "/>
            <polygon class="fil0" points="1063,216 1067,216 1067,220 1070,220 1070,223 1073,223 1073,226 1076,226 1076,229 1079,229 1079,232 1082,232 1082,235 1085,235 1085,238 1089,238 1089,242 1092,242 1092,245 1095,245 1095,248 1098,248 1098,251 1101,251 1101,254 1104,254 1104,257 1107,257 1107,260 1111,260 1111,264 1114,264 1114,267 1117,267 1117,270 1120,270 1120,273 1123,273 1123,276 1126,276 1126,279 1129,279 1129,282 1132,282 1132,285 1136,285 1136,289 1139,289 1139,292 1142,292 1142,295 1145,295 1145,298 1151,298 1151,213 1148,213 1148,210 1063,210 "/>
            <polygon class="fil0" points="634,320 631,320 631,405 637,405 637,402 640,402 640,398 643,398 643,395 646,395 646,392 649,392 649,389 653,389 653,386 656,386 656,383 659,383 659,380 662,380 662,376 665,376 665,373 668,373 668,370 671,370 671,367 674,367 674,364 678,364 678,361 681,361 681,358 684,358 684,354 687,354 687,351 690,351 690,348 693,348 693,345 696,345 696,342 700,342 700,339 703,339 703,336 706,336 706,333 709,333 709,329 712,329 712,326 715,326 715,323 718,323 718,317 634,317 "/>
            <polygon class="fil0" points="116,6 119,6 119,9 122,9 122,13 125,13 125,16 129,16 129,19 132,19 132,22 135,22 135,25 138,25 138,28 141,28 141,31 144,31 144,35 147,35 147,38 151,38 151,41 154,41 154,44 157,44 157,47 160,47 160,50 163,50 163,53 166,53 166,56 169,56 169,60 173,60 173,63 176,63 176,66 179,66 179,69 182,69 182,72 185,72 185,75 188,75 188,78 191,78 191,82 195,82 195,85 198,85 198,88 204,88 204,3 201,3 201,0 116,0 "/>
            <polygon class="fil0" points="0,728 3,728 3,731 88,731 88,725 85,725 85,722 82,722 82,718 78,718 78,715 75,715 75,712 72,712 72,709 69,709 69,706 66,706 66,703 63,703 63,700 60,700 60,696 56,696 56,693 53,693 53,690 50,690 50,687 47,687 47,684 44,684 44,681 41,681 41,678 38,678 38,674 35,674 35,671 31,671 31,668 28,668 28,665 25,665 25,662 22,662 22,659 19,659 19,656 16,656 16,653 13,653 13,649 9,649 9,646 6,646 6,643 0,643 "/>
            <polygon class="fil0" points="1145,646 1142,646 1142,649 1139,649 1139,653 1136,653 1136,656 1132,656 1132,659 1129,659 1129,662 1126,662 1126,665 1123,665 1123,668 1120,668 1120,671 1117,671 1117,674 1114,674 1114,678 1111,678 1111,681 1107,681 1107,684 1104,684 1104,687 1101,687 1101,690 1098,690 1098,693 1095,693 1095,696 1092,696 1092,700 1089,700 1089,703 1085,703 1085,706 1082,706 1082,709 1079,709 1079,712 1076,712 1076,715 1073,715 1073,718 1070,718 1070,722 1067,722 1067,725 1063,725 1063,731 1148,731 1148,728 1151,728 1151,643 1145,643 "/>
            <polygon class="fil0" points="527,728 530,728 530,731 615,731 615,725 612,725 612,722 609,722 609,718 605,718 605,715 602,715 602,712 599,712 599,709 596,709 596,706 593,706 593,703 590,703 590,700 587,700 587,696 583,696 583,693 580,693 580,690 577,690 577,687 574,687 574,684 571,684 571,681 568,681 568,678 565,678 565,674 562,674 562,671 558,671 558,668 555,668 555,665 552,665 552,662 549,662 549,659 546,659 546,656 543,656 543,653 540,653 540,649 536,649 536,646 533,646 533,643 527,643 "/>
            <polygon class="fil0" points="198,540 195,540 195,543 191,543 191,546 188,546 188,549 185,549 185,552 182,552 182,555 179,555 179,558 176,558 176,562 173,562 173,565 169,565 169,568 166,568 166,571 163,571 163,574 160,574 160,577 157,577 157,580 154,580 154,583 151,583 151,587 147,587 147,590 144,590 144,593 141,593 141,596 138,596 138,599 135,599 135,602 132,602 132,605 129,605 129,609 125,609 125,612 122,612 122,615 119,615 119,618 116,618 116,624 201,624 201,621 204,621 204,536 198,536 "/>
            <polygon class="fil0" points="420,621 424,621 424,624 508,624 508,618 505,618 505,615 502,615 502,612 499,612 499,609 496,609 496,605 493,605 493,602 489,602 489,599 486,599 486,596 483,596 483,593 480,593 480,590 477,590 477,587 474,587 474,583 471,583 471,580 467,580 467,577 464,577 464,574 461,574 461,571 458,571 458,568 455,568 455,565 452,565 452,562 449,562 449,558 445,558 445,555 442,555 442,552 439,552 439,549 436,549 436,546 433,546 433,543 430,543 430,540 427,540 427,536 420,536 "/>
            <polygon class="fil0" points="116,216 119,216 119,220 122,220 122,223 125,223 125,226 129,226 129,229 132,229 132,232 135,232 135,235 138,235 138,238 141,238 141,242 144,242 144,245 147,245 147,248 151,248 151,251 154,251 154,254 157,254 157,257 160,257 160,260 163,260 163,264 166,264 166,267 169,267 169,270 173,270 173,273 176,273 176,276 179,276 179,279 182,279 182,282 185,282 185,285 188,285 188,289 191,289 191,292 195,292 195,295 198,295 198,298 204,298 204,213 201,213 201,210 116,210 "/>
            <polygon class="fil0" points="631,728 634,728 634,731 718,731 718,725 715,725 715,722 712,722 712,718 709,718 709,715 706,715 706,712 703,712 703,709 700,709 700,706 696,706 696,703 693,703 693,700 690,700 690,696 687,696 687,693 684,693 684,690 681,690 681,687 678,687 678,684 674,684 674,681 671,681 671,678 668,678 668,674 665,674 665,671 662,671 662,668 659,668 659,665 656,665 656,662 653,662 653,659 649,659 649,656 646,656 646,653 643,653 643,649 640,649 640,646 637,646 637,643 631,643 "/>
            <polygon class="fil0" points="1274,850 1277,850 1277,853 1280,853 1280,856 1283,856 1283,860 1286,860 1286,863 1289,863 1289,866 1292,866 1292,869 1296,869 1296,872 1299,872 1299,875 1302,875 1302,878 1305,878 1305,882 1308,882 1308,885 1311,885 1311,888 1314,888 1314,891 1318,891 1318,894 1321,894 1321,897 1324,897 1324,900 1327,900 1327,903 1330,903 1330,907 1333,907 1333,910 1336,910 1336,913 1340,913 1340,916 1343,916 1343,919 1346,919 1346,922 1349,922 1349,925 1352,925 1352,929 1355,929 1355,932 1358,932 1358,929 1361,929 1361,847 1358,847 1358,844 1274,844 "/>
            <polygon class="fil0" points="116,850 119,850 119,853 122,853 122,856 125,856 125,860 129,860 129,863 132,863 132,866 135,866 135,869 138,869 138,872 141,872 141,875 144,875 144,878 147,878 147,882 151,882 151,885 154,885 154,888 157,888 157,891 160,891 160,894 163,894 163,897 166,897 166,900 169,900 169,903 173,903 173,907 176,907 176,910 179,910 179,913 182,913 182,916 185,916 185,919 188,919 188,922 191,922 191,925 195,925 195,929 198,929 198,932 201,932 201,929 204,929 204,847 201,847 201,844 116,844 "/>
            <polygon class="fil0" points="957,110 960,110 960,113 963,113 963,116 966,116 966,119 969,119 969,122 972,122 972,125 976,125 976,129 979,129 979,132 982,132 982,135 985,135 985,138 988,138 988,141 991,141 991,144 994,144 994,147 998,147 998,151 1001,151 1001,154 1004,154 1004,157 1007,157 1007,160 1010,160 1010,163 1013,163 1013,166 1016,166 1016,169 1020,169 1020,173 1023,173 1023,176 1026,176 1026,179 1029,179 1029,182 1032,182 1032,185 1035,185 1035,188 1038,188 1038,191 1042,191 1042,195 1045,195 1045,107 957,107 "/>
            <polygon class="fil0" points="1042,223 1038,223 1038,226 1035,226 1035,229 1032,229 1032,232 1029,232 1029,235 1026,235 1026,238 1023,238 1023,242 1020,242 1020,245 1016,245 1016,248 1013,248 1013,251 1010,251 1010,254 1007,254 1007,257 1004,257 1004,260 1001,260 1001,264 998,264 998,267 994,267 994,270 991,270 991,273 988,273 988,276 985,276 985,279 982,279 982,282 979,282 979,285 976,285 976,289 972,289 972,292 969,292 969,295 966,295 966,298 963,298 963,301 960,301 960,304 957,304 957,307 1045,307 1045,220 1042,220 "/>
            <polygon class="fil0" points="1368,932 1371,932 1371,929 1374,929 1374,925 1377,925 1377,922 1380,922 1380,919 1383,919 1383,916 1387,916 1387,913 1390,913 1390,910 1393,910 1393,907 1396,907 1396,903 1399,903 1399,900 1402,900 1402,897 1405,897 1405,894 1409,894 1409,891 1412,891 1412,888 1415,888 1415,885 1418,885 1418,882 1421,882 1421,878 1424,878 1424,875 1427,875 1427,872 1431,872 1431,869 1434,869 1434,866 1437,866 1437,863 1440,863 1440,860 1443,860 1443,856 1446,856 1446,853 1449,853 1449,850 1452,850 1452,847 1456,847 1456,844 1368,844 "/>
            <polygon class="fil0" points="957,847 960,847 960,850 963,850 963,853 966,853 966,856 969,856 969,860 972,860 972,863 976,863 976,866 979,866 979,869 982,869 982,872 985,872 985,875 988,875 988,878 991,878 991,882 994,882 994,885 998,885 998,888 1001,888 1001,891 1004,891 1004,894 1007,894 1007,897 1010,897 1010,900 1013,900 1013,903 1016,903 1016,907 1020,907 1020,910 1023,910 1023,913 1026,913 1026,916 1029,916 1029,919 1032,919 1032,922 1035,922 1035,925 1038,925 1038,929 1042,929 1042,932 1045,932 1045,844 957,844 "/>
            <polygon class="fil0" points="107,405 110,405 110,402 113,402 113,398 116,398 116,395 119,395 119,392 122,392 122,389 125,389 125,386 129,386 129,383 132,383 132,380 135,380 135,376 138,376 138,373 141,373 141,370 144,370 144,367 147,367 147,364 151,364 151,361 154,361 154,358 157,358 157,354 160,354 160,351 163,351 163,348 166,348 166,345 169,345 169,342 173,342 173,339 176,339 176,336 179,336 179,333 182,333 182,329 185,329 185,326 188,326 188,323 191,323 191,320 195,320 195,317 107,317 "/>
            <polygon class="fil0" points="1368,834 1456,834 1456,831 1452,831 1452,828 1449,828 1449,825 1446,825 1446,822 1443,822 1443,819 1440,819 1440,816 1437,816 1437,813 1434,813 1434,809 1431,809 1431,806 1427,806 1427,803 1424,803 1424,800 1421,800 1421,797 1418,797 1418,794 1415,794 1415,791 1412,791 1412,787 1409,787 1409,784 1405,784 1405,781 1402,781 1402,778 1399,778 1399,775 1396,775 1396,772 1393,772 1393,769 1390,769 1390,765 1387,765 1387,762 1383,762 1383,759 1380,759 1380,756 1377,756 1377,753 1374,753 1374,750 1371,750 1371,747 1368,747 "/>
            <polygon class="fil0" points="430,320 433,320 433,323 436,323 436,326 439,326 439,329 442,329 442,333 445,333 445,336 449,336 449,339 452,339 452,342 455,342 455,345 458,345 458,348 461,348 461,351 464,351 464,354 467,354 467,358 471,358 471,361 474,361 474,364 477,364 477,367 480,367 480,370 483,370 483,373 486,373 486,376 489,376 489,380 493,380 493,383 496,383 496,386 499,386 499,389 502,389 502,392 505,392 505,395 508,395 508,398 511,398 511,402 514,402 514,405 518,405 518,317 430,317 "/>
            <polygon class="fil0" points="107,307 195,307 195,304 191,304 191,301 188,301 188,298 185,298 185,295 182,295 182,292 179,292 179,289 176,289 176,285 173,285 173,282 169,282 169,279 166,279 166,276 163,276 163,273 160,273 160,270 157,270 157,267 154,267 154,264 151,264 151,260 147,260 147,257 144,257 144,254 141,254 141,251 138,251 138,248 135,248 135,245 132,245 132,242 129,242 129,238 125,238 125,235 122,235 122,232 119,232 119,229 116,229 116,226 113,226 113,223 110,223 110,220 107,220 "/>
            <polygon class="fil0" points="1042,750 1038,750 1038,753 1035,753 1035,756 1032,756 1032,759 1029,759 1029,762 1026,762 1026,765 1023,765 1023,769 1020,769 1020,772 1016,772 1016,775 1013,775 1013,778 1010,778 1010,781 1007,781 1007,784 1004,784 1004,787 1001,787 1001,791 998,791 998,794 994,794 994,797 991,797 991,800 988,800 988,803 985,803 985,806 982,806 982,809 979,809 979,813 976,813 976,816 972,816 972,819 969,819 969,822 966,822 966,825 963,825 963,828 960,828 960,831 957,831 957,834 1045,834 1045,747 1042,747 "/>
            <polygon class="fil0" points="304,750 301,750 301,753 298,753 298,756 295,756 295,759 292,759 292,762 289,762 289,765 285,765 285,769 282,769 282,772 279,772 279,775 276,775 276,778 273,778 273,781 270,781 270,784 267,784 267,787 264,787 264,791 260,791 260,794 257,794 257,797 254,797 254,800 251,800 251,803 248,803 248,806 245,806 245,809 242,809 242,813 238,813 238,816 235,816 235,819 232,819 232,822 229,822 229,825 226,825 226,828 223,828 223,831 220,831 220,834 307,834 307,747 304,747 "/>
            <polygon class="fil0" points="1054,722 1057,722 1057,718 1060,718 1060,715 1063,715 1063,712 1067,712 1067,709 1070,709 1070,706 1073,706 1073,703 1076,703 1076,700 1079,700 1079,696 1082,696 1082,693 1085,693 1085,690 1089,690 1089,687 1092,687 1092,684 1095,684 1095,681 1098,681 1098,678 1101,678 1101,674 1104,674 1104,671 1107,671 1107,668 1111,668 1111,665 1114,665 1114,662 1117,662 1117,659 1120,659 1120,656 1123,656 1123,653 1126,653 1126,649 1129,649 1129,646 1132,646 1132,643 1136,643 1136,640 1139,640 1139,637 1142,637 1142,634 1054,634 "/>
            <polygon class="fil0" points="107,97 195,97 195,94 191,94 191,91 188,91 188,88 185,88 185,85 182,85 182,82 179,82 179,78 176,78 176,75 173,75 173,72 169,72 169,69 166,69 166,66 163,66 163,63 160,63 160,60 157,60 157,56 154,56 154,53 151,53 151,50 147,50 147,47 144,47 144,44 141,44 141,41 138,41 138,38 135,38 135,35 132,35 132,31 129,31 129,28 125,28 125,25 122,25 122,22 119,22 119,19 116,19 116,16 113,16 113,13 110,13 110,9 107,9 "/>
            <polygon class="fil0" points="514,13 511,13 511,16 508,16 508,19 505,19 505,22 502,22 502,25 499,25 499,28 496,28 496,31 493,31 493,35 489,35 489,38 486,38 486,41 483,41 483,44 480,44 480,47 477,47 477,50 474,50 474,53 471,53 471,56 467,56 467,60 464,60 464,63 461,63 461,66 458,66 458,69 455,69 455,72 452,72 452,75 449,75 449,78 445,78 445,82 442,82 442,85 439,85 439,88 436,88 436,91 433,91 433,94 430,94 430,97 518,97 518,9 514,9 "/>
            <polygon class="fil0" points="1042,13 1038,13 1038,16 1035,16 1035,19 1032,19 1032,22 1029,22 1029,25 1026,25 1026,28 1023,28 1023,31 1020,31 1020,35 1016,35 1016,38 1013,38 1013,41 1010,41 1010,44 1007,44 1007,47 1004,47 1004,50 1001,50 1001,53 998,53 998,56 994,56 994,60 991,60 991,63 988,63 988,66 985,66 985,69 982,69 982,72 979,72 979,75 976,75 976,78 972,78 972,82 969,82 969,85 966,85 966,88 963,88 963,91 960,91 960,94 957,94 957,97 1045,97 1045,9 1042,9 "/>
            <polygon class="fil0" points="0,195 3,195 3,191 6,191 6,188 9,188 9,185 13,185 13,182 16,182 16,179 19,179 19,176 22,176 22,173 25,173 25,169 28,169 28,166 31,166 31,163 35,163 35,160 38,160 38,157 41,157 41,154 44,154 44,151 47,151 47,147 50,147 50,144 53,144 53,141 56,141 56,138 60,138 60,135 63,135 63,132 66,132 66,129 69,129 69,125 72,125 72,122 75,122 75,119 78,119 78,116 82,116 82,113 85,113 85,110 88,110 88,107 0,107 "/>
            <polygon class="fil0" points="1054,195 1057,195 1057,191 1060,191 1060,188 1063,188 1063,185 1067,185 1067,182 1070,182 1070,179 1073,179 1073,176 1076,176 1076,173 1079,173 1079,169 1082,169 1082,166 1085,166 1085,163 1089,163 1089,160 1092,160 1092,157 1095,157 1095,154 1098,154 1098,151 1101,151 1101,147 1104,147 1104,144 1107,144 1107,141 1111,141 1111,138 1114,138 1114,135 1117,135 1117,132 1120,132 1120,129 1123,129 1123,125 1126,125 1126,122 1129,122 1129,119 1132,119 1132,116 1136,116 1136,113 1139,113 1139,110 1142,110 1142,107 1054,107 "/>
            <polygon class="fil0" points="107,615 110,615 110,612 113,612 113,609 116,609 116,605 119,605 119,602 122,602 122,599 125,599 125,596 129,596 129,593 132,593 132,590 135,590 135,587 138,587 138,583 141,583 141,580 144,580 144,577 147,577 147,574 151,574 151,571 154,571 154,568 157,568 157,565 160,565 160,562 163,562 163,558 166,558 166,555 169,555 169,552 173,552 173,549 176,549 176,546 179,546 179,543 182,543 182,540 185,540 185,536 188,536 188,533 191,533 191,530 195,530 195,527 107,527 "/>
            <polygon class="fil0" points="9,637 13,637 13,640 16,640 16,643 19,643 19,646 22,646 22,649 25,649 25,653 28,653 28,656 31,656 31,659 35,659 35,662 38,662 38,665 41,665 41,668 44,668 44,671 47,671 47,674 50,674 50,678 53,678 53,681 56,681 56,684 60,684 60,687 63,687 63,690 66,690 66,693 69,693 69,696 72,696 72,700 75,700 75,703 78,703 78,706 82,706 82,709 85,709 85,712 88,712 88,715 91,715 91,718 94,718 94,722 97,722 97,634 9,634 "/>
            <polygon class="fil0" points="536,637 540,637 540,640 543,640 543,643 546,643 546,646 549,646 549,649 552,649 552,653 555,653 555,656 558,656 558,659 562,659 562,662 565,662 565,665 568,665 568,668 571,668 571,671 574,671 574,674 577,674 577,678 580,678 580,681 583,681 583,684 587,684 587,687 590,687 590,690 593,690 593,693 596,693 596,696 599,696 599,700 602,700 602,703 605,703 605,706 609,706 609,709 612,709 612,712 615,712 615,715 618,715 618,718 621,718 621,722 624,722 624,634 536,634 "/>
            <polygon class="fil0" points="9,847 13,847 13,850 16,850 16,853 19,853 19,856 22,856 22,860 25,860 25,863 28,863 28,866 31,866 31,869 35,869 35,872 38,872 38,875 41,875 41,878 44,878 44,882 47,882 47,885 50,885 50,888 53,888 53,891 56,891 56,894 60,894 60,897 63,897 63,900 66,900 66,903 69,903 69,907 72,907 72,910 75,910 75,913 78,913 78,916 82,916 82,919 85,919 85,922 88,922 88,925 91,925 91,929 94,929 94,932 97,932 97,844 9,844 "/>
            <polygon class="fil0" points="1054,932 1057,932 1057,929 1060,929 1060,925 1063,925 1063,922 1067,922 1067,919 1070,919 1070,916 1073,916 1073,913 1076,913 1076,910 1079,910 1079,907 1082,907 1082,903 1085,903 1085,900 1089,900 1089,897 1092,897 1092,894 1095,894 1095,891 1098,891 1098,888 1101,888 1101,885 1104,885 1104,882 1107,882 1107,878 1111,878 1111,875 1114,875 1114,872 1117,872 1117,869 1120,869 1120,866 1123,866 1123,863 1126,863 1126,860 1129,860 1129,856 1132,856 1132,853 1136,853 1136,850 1139,850 1139,847 1142,847 1142,844 1054,844 "/>
            <polygon class="fil0" points="9,320 13,320 13,323 16,323 16,326 19,326 19,329 22,329 22,333 25,333 25,336 28,336 28,339 31,339 31,342 35,342 35,345 38,345 38,348 41,348 41,351 44,351 44,354 47,354 47,358 50,358 50,361 53,361 53,364 56,364 56,367 60,367 60,370 63,370 63,373 66,373 66,376 69,376 69,380 72,380 72,383 75,383 75,386 78,386 78,389 82,389 82,392 85,392 85,395 88,395 88,398 91,398 91,402 94,402 94,405 97,405 97,317 9,317 "/>
            <polygon class="fil0" points="536,847 540,847 540,850 543,850 543,853 546,853 546,856 549,856 549,860 552,860 552,863 555,863 555,866 558,866 558,869 562,869 562,872 565,872 565,875 568,875 568,878 571,878 571,882 574,882 574,885 577,885 577,888 580,888 580,891 583,891 583,894 587,894 587,897 590,897 590,900 593,900 593,903 596,903 596,907 599,907 599,910 602,910 602,913 605,913 605,916 609,916 609,919 612,919 612,922 615,922 615,925 618,925 618,929 621,929 621,932 624,932 624,844 536,844 "/>
            <polygon class="fil0" points="621,750 618,750 618,753 615,753 615,756 612,756 612,759 609,759 609,762 605,762 605,765 602,765 602,769 599,769 599,772 596,772 596,775 593,775 593,778 590,778 590,781 587,781 587,784 583,784 583,787 580,787 580,791 577,791 577,794 574,794 574,797 571,797 571,800 568,800 568,803 565,803 565,806 562,806 562,809 558,809 558,813 555,813 555,816 552,816 552,819 549,819 549,822 546,822 546,825 543,825 543,828 540,828 540,831 536,831 536,834 624,834 624,747 621,747 "/>
            <polygon class="fil0" points="621,223 618,223 618,226 615,226 615,229 612,229 612,232 609,232 609,235 605,235 605,238 602,238 602,242 599,242 599,245 596,245 596,248 593,248 593,251 590,251 590,254 587,254 587,257 583,257 583,260 580,260 580,264 577,264 577,267 574,267 574,270 571,270 571,273 568,273 568,276 565,276 565,279 562,279 562,282 558,282 558,285 555,285 555,289 552,289 552,292 549,292 549,295 546,295 546,298 543,298 543,301 540,301 540,304 536,304 536,307 624,307 624,220 621,220 "/>
            <polygon class="fil0" points="1054,834 1142,834 1142,831 1139,831 1139,828 1136,828 1136,825 1132,825 1132,822 1129,822 1129,819 1126,819 1126,816 1123,816 1123,813 1120,813 1120,809 1117,809 1117,806 1114,806 1114,803 1111,803 1111,800 1107,800 1107,797 1104,797 1104,794 1101,794 1101,791 1098,791 1098,787 1095,787 1095,784 1092,784 1092,781 1089,781 1089,778 1085,778 1085,775 1082,775 1082,772 1079,772 1079,769 1076,769 1076,765 1073,765 1073,762 1070,762 1070,759 1067,759 1067,756 1063,756 1063,753 1060,753 1060,750 1057,750 1057,747 1054,747 "/>
            <polygon class="fil0" points="1054,307 1142,307 1142,304 1139,304 1139,301 1136,301 1136,298 1132,298 1132,295 1129,295 1129,292 1126,292 1126,289 1123,289 1123,285 1120,285 1120,282 1117,282 1117,279 1114,279 1114,276 1111,276 1111,273 1107,273 1107,270 1104,270 1104,267 1101,267 1101,264 1098,264 1098,260 1095,260 1095,257 1092,257 1092,254 1089,254 1089,251 1085,251 1085,248 1082,248 1082,245 1079,245 1079,242 1076,242 1076,238 1073,238 1073,235 1070,235 1070,232 1067,232 1067,229 1063,229 1063,226 1060,226 1060,223 1057,223 1057,220 1054,220 "/>
            <polygon class="fil0" points="0,307 88,307 88,304 85,304 85,301 82,301 82,298 78,298 78,295 75,295 75,292 72,292 72,289 69,289 69,285 66,285 66,282 63,282 63,279 60,279 60,276 56,276 56,273 53,273 53,270 50,270 50,267 47,267 47,264 44,264 44,260 41,260 41,257 38,257 38,254 35,254 35,251 31,251 31,248 28,248 28,245 25,245 25,242 22,242 22,238 19,238 19,235 16,235 16,232 13,232 13,229 9,229 9,226 6,226 6,223 3,223 3,220 0,220 "/>
            <polygon class="fil0" points="1054,405 1057,405 1057,402 1060,402 1060,398 1063,398 1063,395 1067,395 1067,392 1070,392 1070,389 1073,389 1073,386 1076,386 1076,383 1079,383 1079,380 1082,380 1082,376 1085,376 1085,373 1089,373 1089,370 1092,370 1092,367 1095,367 1095,364 1098,364 1098,361 1101,361 1101,358 1104,358 1104,354 1107,354 1107,351 1111,351 1111,348 1114,348 1114,345 1117,345 1117,342 1120,342 1120,339 1123,339 1123,336 1126,336 1126,333 1129,333 1129,329 1132,329 1132,326 1136,326 1136,323 1139,323 1139,320 1142,320 1142,317 1054,317 "/>
            <polygon class="fil0" points="107,825 110,825 110,822 113,822 113,819 116,819 116,816 119,816 119,813 122,813 122,809 125,809 125,806 129,806 129,803 132,803 132,800 135,800 135,797 138,797 138,794 141,794 141,791 144,791 144,787 147,787 147,784 151,784 151,781 154,781 154,778 157,778 157,775 160,775 160,772 163,772 163,769 166,769 166,765 169,765 169,762 173,762 173,759 176,759 176,756 179,756 179,753 182,753 182,750 185,750 185,747 188,747 188,743 191,743 191,740 195,740 195,737 107,737 "/>
            <polygon class="fil0" points="107,941 195,941 195,938 191,938 191,935 188,935 188,932 185,932 185,929 182,929 182,925 179,925 179,922 176,922 176,919 173,919 173,916 169,916 169,913 166,913 166,910 163,910 163,907 160,907 160,903 157,903 157,900 154,900 154,897 151,897 151,894 147,894 147,891 144,891 144,888 141,888 141,885 138,885 138,882 135,882 135,878 132,878 132,875 129,875 129,872 125,872 125,869 122,869 122,866 119,866 119,863 116,863 116,860 113,860 113,856 110,856 110,853 107,853 "/>
            <polygon class="fil0" points="1264,195 1267,195 1267,191 1271,191 1271,188 1274,188 1274,185 1277,185 1277,182 1280,182 1280,179 1283,179 1283,176 1286,176 1286,173 1289,173 1289,169 1292,169 1292,166 1296,166 1296,163 1299,163 1299,160 1302,160 1302,157 1305,157 1305,154 1308,154 1308,151 1311,151 1311,147 1314,147 1314,144 1318,144 1318,141 1321,141 1321,138 1324,138 1324,135 1327,135 1327,132 1330,132 1330,129 1333,129 1333,125 1336,125 1336,122 1340,122 1340,119 1343,119 1343,116 1346,116 1346,113 1349,113 1349,110 1352,110 1352,107 1264,107 "/>
            <polygon class="fil0" points="1264,722 1267,722 1267,718 1271,718 1271,715 1274,715 1274,712 1277,712 1277,709 1280,709 1280,706 1283,706 1283,703 1286,703 1286,700 1289,700 1289,696 1292,696 1292,693 1296,693 1296,690 1299,690 1299,687 1302,687 1302,684 1305,684 1305,681 1308,681 1308,678 1311,678 1311,674 1314,674 1314,671 1318,671 1318,668 1321,668 1321,665 1324,665 1324,662 1327,662 1327,659 1330,659 1330,656 1333,656 1333,653 1336,653 1336,649 1340,649 1340,646 1343,646 1343,643 1346,643 1346,640 1349,640 1349,637 1352,637 1352,634 1264,634 "/>
            <polygon class="fil0" points="430,740 433,740 433,743 436,743 436,747 439,747 439,750 442,750 442,753 445,753 445,756 449,756 449,759 452,759 452,762 455,762 455,765 458,765 458,769 461,769 461,772 464,772 464,775 467,775 467,778 471,778 471,781 474,781 474,784 477,784 477,787 480,787 480,791 483,791 483,794 486,794 486,797 489,797 489,800 493,800 493,803 496,803 496,806 499,806 499,809 502,809 502,813 505,813 505,816 508,816 508,819 511,819 511,822 514,822 514,825 518,825 518,737 430,737 "/>
            <polygon class="fil0" points="210,307 298,307 298,304 295,304 295,301 292,301 292,298 289,298 289,295 285,295 285,292 282,292 282,289 279,289 279,285 276,285 276,282 273,282 273,279 270,279 270,276 267,276 267,273 264,273 264,270 260,270 260,267 257,267 257,264 254,264 254,260 251,260 251,257 248,257 248,254 245,254 245,251 242,251 242,248 238,248 238,245 235,245 235,242 232,242 232,238 229,238 229,235 226,235 226,232 223,232 223,229 220,229 220,226 216,226 216,223 213,223 213,220 210,220 "/>
            <polygon class="fil0" points="94,13 91,13 91,16 88,16 88,19 85,19 85,22 82,22 82,25 78,25 78,28 75,28 75,31 72,31 72,35 69,35 69,38 66,38 66,41 63,41 63,44 60,44 60,47 56,47 56,50 53,50 53,53 50,53 50,56 47,56 47,60 44,60 44,63 41,63 41,66 38,66 38,69 35,69 35,72 31,72 31,75 28,75 28,78 25,78 25,82 22,82 22,85 19,85 19,88 16,88 16,91 13,91 13,94 9,94 9,97 97,97 97,9 94,9 "/>
            <polygon class="fil0" points="1264,307 1352,307 1352,304 1349,304 1349,301 1346,301 1346,298 1343,298 1343,295 1340,295 1340,292 1336,292 1336,289 1333,289 1333,285 1330,285 1330,282 1327,282 1327,279 1324,279 1324,276 1321,276 1321,273 1318,273 1318,270 1314,270 1314,267 1311,267 1311,264 1308,264 1308,260 1305,260 1305,257 1302,257 1302,254 1299,254 1299,251 1296,251 1296,248 1292,248 1292,245 1289,245 1289,242 1286,242 1286,238 1283,238 1283,235 1280,235 1280,232 1277,232 1277,229 1274,229 1274,226 1271,226 1271,223 1267,223 1267,220 1264,220 "/>
            <polygon class="fil0" points="1054,624 1142,624 1142,621 1139,621 1139,618 1136,618 1136,615 1132,615 1132,612 1129,612 1129,609 1126,609 1126,605 1123,605 1123,602 1120,602 1120,599 1117,599 1117,596 1114,596 1114,593 1111,593 1111,590 1107,590 1107,587 1104,587 1104,583 1101,583 1101,580 1098,580 1098,577 1095,577 1095,574 1092,574 1092,571 1089,571 1089,568 1085,568 1085,565 1082,565 1082,562 1079,562 1079,558 1076,558 1076,555 1073,555 1073,552 1070,552 1070,549 1067,549 1067,546 1063,546 1063,543 1060,543 1060,540 1057,540 1057,536 1054,536 "/>
            <polygon class="fil0" points="621,13 618,13 618,16 615,16 615,19 612,19 612,22 609,22 609,25 605,25 605,28 602,28 602,31 599,31 599,35 596,35 596,38 593,38 593,41 590,41 590,44 587,44 587,47 583,47 583,50 580,50 580,53 577,53 577,56 574,56 574,60 571,60 571,63 568,63 568,66 565,66 565,69 562,69 562,72 558,72 558,75 555,75 555,78 552,78 552,82 549,82 549,85 546,85 546,88 543,88 543,91 540,91 540,94 536,94 536,97 624,97 624,9 621,9 "/>
            <polygon class="fil0" points="1264,834 1352,834 1352,831 1349,831 1349,828 1346,828 1346,825 1343,825 1343,822 1340,822 1340,819 1336,819 1336,816 1333,816 1333,813 1330,813 1330,809 1327,809 1327,806 1324,806 1324,803 1321,803 1321,800 1318,800 1318,797 1314,797 1314,794 1311,794 1311,791 1308,791 1308,787 1305,787 1305,784 1302,784 1302,781 1299,781 1299,778 1296,778 1296,775 1292,775 1292,772 1289,772 1289,769 1286,769 1286,765 1283,765 1283,762 1280,762 1280,759 1277,759 1277,756 1274,756 1274,753 1271,753 1271,750 1267,750 1267,747 1264,747 "/>
            <polygon class="fil0" points="94,540 91,540 91,543 88,543 88,546 85,546 85,549 82,549 82,552 78,552 78,555 75,555 75,558 72,558 72,562 69,562 69,565 66,565 66,568 63,568 63,571 60,571 60,574 56,574 56,577 53,577 53,580 50,580 50,583 47,583 47,587 44,587 44,590 41,590 41,593 38,593 38,596 35,596 35,599 31,599 31,602 28,602 28,605 25,605 25,609 22,609 22,612 19,612 19,615 16,615 16,618 13,618 13,621 9,621 9,624 97,624 97,536 94,536 "/>
            <polygon class="fil0" points="210,932 213,932 213,929 216,929 216,925 220,925 220,922 223,922 223,919 226,919 226,916 229,916 229,913 232,913 232,910 235,910 235,907 238,907 238,903 242,903 242,900 245,900 245,897 248,897 248,894 251,894 251,891 254,891 254,888 257,888 257,885 260,885 260,882 264,882 264,878 267,878 267,875 270,875 270,872 273,872 273,869 276,869 276,866 279,866 279,863 282,863 282,860 285,860 285,856 289,856 289,853 292,853 292,850 295,850 295,847 298,847 298,844 210,844 "/>
            <polygon class="fil0" points="1054,97 1142,97 1142,94 1139,94 1139,91 1136,91 1136,88 1132,88 1132,85 1129,85 1129,82 1126,82 1126,78 1123,78 1123,75 1120,75 1120,72 1117,72 1117,69 1114,69 1114,66 1111,66 1111,63 1107,63 1107,60 1104,60 1104,56 1101,56 1101,53 1098,53 1098,50 1095,50 1095,47 1092,47 1092,44 1089,44 1089,41 1085,41 1085,38 1082,38 1082,35 1079,35 1079,31 1076,31 1076,28 1073,28 1073,25 1070,25 1070,22 1067,22 1067,19 1063,19 1063,16 1060,16 1060,13 1057,13 1057,9 1054,9 "/>
            <polygon class="fil0" points="1377,637 1380,637 1380,640 1383,640 1383,643 1387,643 1387,646 1390,646 1390,649 1393,649 1393,653 1396,653 1396,656 1399,656 1399,659 1402,659 1402,662 1405,662 1405,665 1409,665 1409,668 1412,668 1412,671 1415,671 1415,674 1418,674 1418,678 1421,678 1421,681 1424,681 1424,684 1427,684 1427,687 1431,687 1431,690 1434,690 1434,693 1437,693 1437,696 1440,696 1440,700 1443,700 1443,703 1446,703 1446,706 1449,706 1449,709 1452,709 1452,712 1456,712 1456,715 1459,715 1459,718 1462,718 1462,722 1465,722 1465,634 1377,634 "/>
            <polygon class="fil0" points="1377,110 1380,110 1380,113 1383,113 1383,116 1387,116 1387,119 1390,119 1390,122 1393,122 1393,125 1396,125 1396,129 1399,129 1399,132 1402,132 1402,135 1405,135 1405,138 1409,138 1409,141 1412,141 1412,144 1415,144 1415,147 1418,147 1418,151 1421,151 1421,154 1424,154 1424,157 1427,157 1427,160 1431,160 1431,163 1434,163 1434,166 1437,166 1437,169 1440,169 1440,173 1443,173 1443,176 1446,176 1446,179 1449,179 1449,182 1452,182 1452,185 1456,185 1456,188 1459,188 1459,191 1462,191 1462,195 1465,195 1465,107 1377,107 "/>
            <polygon class="fil0" points="107,204 195,204 195,201 191,201 191,198 188,198 188,195 185,195 185,191 182,191 182,188 179,188 179,185 176,185 176,182 173,182 173,179 169,179 169,176 166,176 166,173 163,173 163,169 160,169 160,166 157,166 157,163 154,163 154,160 151,160 151,157 147,157 147,154 144,154 144,151 141,151 141,147 138,147 138,144 135,144 135,141 132,141 132,138 129,138 129,135 125,135 125,132 122,132 122,129 119,129 119,125 116,125 116,122 113,122 113,119 110,119 110,116 107,116 "/>
            <polygon class="fil0" points="514,119 511,119 511,122 508,122 508,125 505,125 505,129 502,129 502,132 499,132 499,135 496,135 496,138 493,138 493,141 489,141 489,144 486,144 486,147 483,147 483,151 480,151 480,154 477,154 477,157 474,157 474,160 471,160 471,163 467,163 467,166 464,166 464,169 461,169 461,173 458,173 458,176 455,176 455,179 452,179 452,182 449,182 449,185 445,185 445,188 442,188 442,191 439,191 439,195 436,195 436,198 433,198 433,201 430,201 430,204 518,204 518,116 514,116 "/>
            <polygon class="fil0" points="1474,722 1478,722 1478,718 1481,718 1481,715 1484,715 1484,712 1487,712 1487,709 1490,709 1490,706 1493,706 1493,703 1496,703 1496,700 1500,700 1500,696 1503,696 1503,693 1506,693 1506,690 1509,690 1509,687 1512,687 1512,684 1515,684 1515,681 1518,681 1518,678 1521,678 1521,674 1525,674 1525,671 1528,671 1528,668 1531,668 1531,665 1534,665 1534,662 1537,662 1537,659 1540,659 1540,656 1543,656 1543,653 1547,653 1547,649 1550,649 1550,646 1553,646 1553,643 1556,643 1556,640 1559,640 1559,637 1562,637 1562,634 1474,634 "/>
            <polygon class="fil0" points="210,97 298,97 298,94 295,94 295,91 292,91 292,88 289,88 289,85 285,85 285,82 282,82 282,78 279,78 279,75 276,75 276,72 273,72 273,69 270,69 270,66 267,66 267,63 264,63 264,60 260,60 260,56 257,56 257,53 254,53 254,50 251,50 251,47 248,47 248,44 245,44 245,41 242,41 242,38 238,38 238,35 235,35 235,31 232,31 232,28 229,28 229,25 226,25 226,22 223,22 223,19 220,19 220,16 216,16 216,13 213,13 213,9 210,9 "/>
            <polygon class="fil0" points="850,847 853,847 853,850 856,850 856,853 860,853 860,856 863,856 863,860 866,860 866,863 869,863 869,866 872,866 872,869 875,869 875,872 878,872 878,875 882,875 882,878 885,878 885,882 888,882 888,885 891,885 891,888 894,888 894,891 897,891 897,894 900,894 900,897 903,897 903,900 907,900 907,903 910,903 910,907 913,907 913,910 916,910 916,913 919,913 919,916 922,916 922,919 925,919 925,922 929,922 929,925 932,925 932,929 935,929 935,932 938,932 938,844 850,844 "/>
            <polygon class="fil0" points="1377,320 1380,320 1380,323 1383,323 1383,326 1387,326 1387,329 1390,329 1390,333 1393,333 1393,336 1396,336 1396,339 1399,339 1399,342 1402,342 1402,345 1405,345 1405,348 1409,348 1409,351 1412,351 1412,354 1415,354 1415,358 1418,358 1418,361 1421,361 1421,364 1424,364 1424,367 1427,367 1427,370 1431,370 1431,373 1434,373 1434,376 1437,376 1437,380 1440,380 1440,383 1443,383 1443,386 1446,386 1446,389 1449,389 1449,392 1452,392 1452,395 1456,395 1456,398 1459,398 1459,402 1462,402 1462,405 1465,405 1465,317 1377,317 "/>
            <polygon class="fil0" points="1474,834 1562,834 1562,831 1559,831 1559,828 1556,828 1556,825 1553,825 1553,822 1550,822 1550,819 1547,819 1547,816 1543,816 1543,813 1540,813 1540,809 1537,809 1537,806 1534,806 1534,803 1531,803 1531,800 1528,800 1528,797 1525,797 1525,794 1521,794 1521,791 1518,791 1518,787 1515,787 1515,784 1512,784 1512,781 1509,781 1509,778 1506,778 1506,775 1503,775 1503,772 1500,772 1500,769 1496,769 1496,765 1493,765 1493,762 1490,762 1490,759 1487,759 1487,756 1484,756 1484,753 1481,753 1481,750 1478,750 1478,747 1474,747 "/>
            <polygon class="fil0" points="1474,932 1478,932 1478,929 1481,929 1481,925 1484,925 1484,922 1487,922 1487,919 1490,919 1490,916 1493,916 1493,913 1496,913 1496,910 1500,910 1500,907 1503,907 1503,903 1506,903 1506,900 1509,900 1509,897 1512,897 1512,894 1515,894 1515,891 1518,891 1518,888 1521,888 1521,885 1525,885 1525,882 1528,882 1528,878 1531,878 1531,875 1534,875 1534,872 1537,872 1537,869 1540,869 1540,866 1543,866 1543,863 1547,863 1547,860 1550,860 1550,856 1553,856 1553,853 1556,853 1556,850 1559,850 1559,847 1562,847 1562,844 1474,844 "/>
            <polygon class="fil0" points="527,414 615,414 615,411 612,411 612,408 609,408 609,405 605,405 605,402 602,402 602,398 599,398 599,395 596,395 596,392 593,392 593,389 590,389 590,386 587,386 587,383 583,383 583,380 580,380 580,376 577,376 577,373 574,373 574,370 571,370 571,367 568,367 568,364 565,364 565,361 562,361 562,358 558,358 558,354 555,354 555,351 552,351 552,348 549,348 549,345 546,345 546,342 543,342 543,339 540,339 540,336 536,336 536,333 533,333 533,329 530,329 530,326 527,326 "/>
            <polygon class="fil0" points="1462,223 1459,223 1459,226 1456,226 1456,229 1452,229 1452,232 1449,232 1449,235 1446,235 1446,238 1443,238 1443,242 1440,242 1440,245 1437,245 1437,248 1434,248 1434,251 1431,251 1431,254 1427,254 1427,257 1424,257 1424,260 1421,260 1421,264 1418,264 1418,267 1415,267 1415,270 1412,270 1412,273 1409,273 1409,276 1405,276 1405,279 1402,279 1402,282 1399,282 1399,285 1396,285 1396,289 1393,289 1393,292 1390,292 1390,295 1387,295 1387,298 1383,298 1383,301 1380,301 1380,304 1377,304 1377,307 1465,307 1465,220 1462,220 "/>
            <polygon class="fil0" points="640,637 643,637 643,640 646,640 646,643 649,643 649,646 653,646 653,649 656,649 656,653 659,653 659,656 662,656 662,659 665,659 665,662 668,662 668,665 671,665 671,668 674,668 674,671 678,671 678,674 681,674 681,678 684,678 684,681 687,681 687,684 690,684 690,687 693,687 693,690 696,690 696,693 700,693 700,696 703,696 703,700 706,700 706,703 709,703 709,706 712,706 712,709 715,709 715,712 718,712 718,715 722,715 722,718 725,718 725,722 728,722 728,634 640,634 "/>
            <polygon class="fil0" points="1474,624 1562,624 1562,621 1559,621 1559,618 1556,618 1556,615 1553,615 1553,612 1550,612 1550,609 1547,609 1547,605 1543,605 1543,602 1540,602 1540,599 1537,599 1537,596 1534,596 1534,593 1531,593 1531,590 1528,590 1528,587 1525,587 1525,583 1521,583 1521,580 1518,580 1518,577 1515,577 1515,574 1512,574 1512,571 1509,571 1509,568 1506,568 1506,565 1503,565 1503,562 1500,562 1500,558 1496,558 1496,555 1493,555 1493,552 1490,552 1490,549 1487,549 1487,546 1484,546 1484,543 1481,543 1481,540 1478,540 1478,536 1474,536 "/>
            <polygon class="fil0" points="1377,530 1380,530 1380,533 1383,533 1383,536 1387,536 1387,540 1390,540 1390,543 1393,543 1393,546 1396,546 1396,549 1399,549 1399,552 1402,552 1402,555 1405,555 1405,558 1409,558 1409,562 1412,562 1412,565 1415,565 1415,568 1418,568 1418,571 1421,571 1421,574 1424,574 1424,577 1427,577 1427,580 1431,580 1431,583 1434,583 1434,587 1437,587 1437,590 1440,590 1440,593 1443,593 1443,596 1446,596 1446,599 1449,599 1449,602 1452,602 1452,605 1456,605 1456,609 1459,609 1459,612 1462,612 1462,615 1465,615 1465,527 1377,527 "/>
            <polygon class="fil0" points="94,119 91,119 91,122 88,122 88,125 85,125 85,129 82,129 82,132 78,132 78,135 75,135 75,138 72,138 72,141 69,141 69,144 66,144 66,147 63,147 63,151 60,151 60,154 56,154 56,157 53,157 53,160 50,160 50,163 47,163 47,166 44,166 44,169 41,169 41,173 38,173 38,176 35,176 35,179 31,179 31,182 28,182 28,185 25,185 25,188 22,188 22,191 19,191 19,195 16,195 16,198 13,198 13,201 9,201 9,204 97,204 97,116 94,116 "/>
            <polygon class="fil0" points="1462,13 1459,13 1459,16 1456,16 1456,19 1452,19 1452,22 1449,22 1449,25 1446,25 1446,28 1443,28 1443,31 1440,31 1440,35 1437,35 1437,38 1434,38 1434,41 1431,41 1431,44 1427,44 1427,47 1424,47 1424,50 1421,50 1421,53 1418,53 1418,56 1415,56 1415,60 1412,60 1412,63 1409,63 1409,66 1405,66 1405,69 1402,69 1402,72 1399,72 1399,75 1396,75 1396,78 1393,78 1393,82 1390,82 1390,85 1387,85 1387,88 1383,88 1383,91 1380,91 1380,94 1377,94 1377,97 1465,97 1465,9 1462,9 "/>
            <polygon class="fil0" points="1264,414 1352,414 1352,411 1349,411 1349,408 1346,408 1346,405 1343,405 1343,402 1340,402 1340,398 1336,398 1336,395 1333,395 1333,392 1330,392 1330,389 1327,389 1327,386 1324,386 1324,383 1321,383 1321,380 1318,380 1318,376 1314,376 1314,373 1311,373 1311,370 1308,370 1308,367 1305,367 1305,364 1302,364 1302,361 1299,361 1299,358 1296,358 1296,354 1292,354 1292,351 1289,351 1289,348 1286,348 1286,345 1283,345 1283,342 1280,342 1280,339 1277,339 1277,336 1274,336 1274,333 1271,333 1271,329 1267,329 1267,326 1264,326 "/>
            <polygon class="fil0" points="527,204 615,204 615,201 612,201 612,198 609,198 609,195 605,195 605,191 602,191 602,188 599,188 599,185 596,185 596,182 593,182 593,179 590,179 590,176 587,176 587,173 583,173 583,169 580,169 580,166 577,166 577,163 574,163 574,160 571,160 571,157 568,157 568,154 565,154 565,151 562,151 562,147 558,147 558,144 555,144 555,141 552,141 552,138 549,138 549,135 546,135 546,132 543,132 543,129 540,129 540,125 536,125 536,122 533,122 533,119 530,119 530,116 527,116 "/>
            <polygon class="fil0" points="935,13 932,13 932,16 929,16 929,19 925,19 925,22 922,22 922,25 919,25 919,28 916,28 916,31 913,31 913,35 910,35 910,38 907,38 907,41 903,41 903,44 900,44 900,47 897,47 897,50 894,50 894,53 891,53 891,56 888,56 888,60 885,60 885,63 882,63 882,66 878,66 878,69 875,69 875,72 872,72 872,75 869,75 869,78 866,78 866,82 863,82 863,85 860,85 860,88 856,88 856,91 853,91 853,94 850,94 850,97 938,97 938,9 935,9 "/>
            <polygon class="fil0" points="947,414 1035,414 1035,411 1032,411 1032,408 1029,408 1029,405 1026,405 1026,402 1023,402 1023,398 1020,398 1020,395 1016,395 1016,392 1013,392 1013,389 1010,389 1010,386 1007,386 1007,383 1004,383 1004,380 1001,380 1001,376 998,376 998,373 994,373 994,370 991,370 991,367 988,367 988,364 985,364 985,361 982,361 982,358 979,358 979,354 976,354 976,351 972,351 972,348 969,348 969,345 966,345 966,342 963,342 963,339 960,339 960,336 957,336 957,333 954,333 954,329 951,329 951,326 947,326 "/>
            <polygon class="fil0" points="1474,414 1562,414 1562,411 1559,411 1559,408 1556,408 1556,405 1553,405 1553,402 1550,402 1550,398 1547,398 1547,395 1543,395 1543,392 1540,392 1540,389 1537,389 1537,386 1534,386 1534,383 1531,383 1531,380 1528,380 1528,376 1525,376 1525,373 1521,373 1521,370 1518,370 1518,367 1515,367 1515,364 1512,364 1512,361 1509,361 1509,358 1506,358 1506,354 1503,354 1503,351 1500,351 1500,348 1496,348 1496,345 1493,345 1493,342 1490,342 1490,339 1487,339 1487,336 1484,336 1484,333 1481,333 1481,329 1478,329 1478,326 1474,326 "/>
            <polygon class="fil0" points="935,329 932,329 932,333 929,333 929,336 925,336 925,339 922,339 922,342 919,342 919,345 916,345 916,348 913,348 913,351 910,351 910,354 907,354 907,358 903,358 903,361 900,361 900,364 897,364 897,367 894,367 894,370 891,370 891,373 888,373 888,376 885,376 885,380 882,380 882,383 878,383 878,386 875,386 875,389 872,389 872,392 869,392 869,395 866,395 866,398 863,398 863,402 860,402 860,405 856,405 856,408 853,408 853,411 850,411 850,414 938,414 938,326 935,326 "/>
            <polygon class="fil0" points="725,540 722,540 722,543 718,543 718,546 715,546 715,549 712,549 712,552 709,552 709,555 706,555 706,558 703,558 703,562 700,562 700,565 696,565 696,568 693,568 693,571 690,571 690,574 687,574 687,577 684,577 684,580 681,580 681,583 678,583 678,587 674,587 674,590 671,590 671,593 668,593 668,596 665,596 665,599 662,599 662,602 659,602 659,605 656,605 656,609 653,609 653,612 649,612 649,615 646,615 646,618 643,618 643,621 640,621 640,624 728,624 728,536 725,536 "/>
            <polygon class="fil0" points="850,740 853,740 853,743 856,743 856,747 860,747 860,750 863,750 863,753 866,753 866,756 869,756 869,759 872,759 872,762 875,762 875,765 878,765 878,769 882,769 882,772 885,772 885,775 888,775 888,778 891,778 891,781 894,781 894,784 897,784 897,787 900,787 900,791 903,791 903,794 907,794 907,797 910,797 910,800 913,800 913,803 916,803 916,806 919,806 919,809 922,809 922,813 925,813 925,816 929,816 929,819 932,819 932,822 935,822 935,825 938,825 938,737 850,737 "/>
            <polygon class="fil0" points="935,119 932,119 932,122 929,122 929,125 925,125 925,129 922,129 922,132 919,132 919,135 916,135 916,138 913,138 913,141 910,141 910,144 907,144 907,147 903,147 903,151 900,151 900,154 897,154 897,157 894,157 894,160 891,160 891,163 888,163 888,166 885,166 885,169 882,169 882,173 878,173 878,176 875,176 875,179 872,179 872,182 869,182 869,185 866,185 866,188 863,188 863,191 860,191 860,195 856,195 856,198 853,198 853,201 850,201 850,204 938,204 938,116 935,116 "/>
            <polygon class="fil0" points="1474,204 1562,204 1562,201 1559,201 1559,198 1556,198 1556,195 1553,195 1553,191 1550,191 1550,188 1547,188 1547,185 1543,185 1543,182 1540,182 1540,179 1537,179 1537,176 1534,176 1534,173 1531,173 1531,169 1528,169 1528,166 1525,166 1525,163 1521,163 1521,160 1518,160 1518,157 1515,157 1515,154 1512,154 1512,151 1509,151 1509,147 1506,147 1506,144 1503,144 1503,141 1500,141 1500,138 1496,138 1496,135 1493,135 1493,132 1490,132 1490,129 1487,129 1487,125 1484,125 1484,122 1481,122 1481,119 1478,119 1478,116 1474,116 "/>
            <polygon class="fil0" points="725,119 722,119 722,122 718,122 718,125 715,125 715,129 712,129 712,132 709,132 709,135 706,135 706,138 703,138 703,141 700,141 700,144 696,144 696,147 693,147 693,151 690,151 690,154 687,154 687,157 684,157 684,160 681,160 681,163 678,163 678,166 674,166 674,169 671,169 671,173 668,173 668,176 665,176 665,179 662,179 662,182 659,182 659,185 656,185 656,188 653,188 653,191 649,191 649,195 646,195 646,198 643,198 643,201 640,201 640,204 728,204 728,116 725,116 "/>
            <polygon class="fil0" points="841,307 929,307 929,304 925,304 925,301 922,301 922,298 919,298 919,295 916,295 916,292 913,292 913,289 910,289 910,285 907,285 907,282 903,282 903,279 900,279 900,276 897,276 897,273 894,273 894,270 891,270 891,267 888,267 888,264 885,264 885,260 882,260 882,257 878,257 878,254 875,254 875,251 872,251 872,248 869,248 869,245 866,245 866,242 863,242 863,238 860,238 860,235 856,235 856,232 853,232 853,229 850,229 850,226 847,226 847,223 841,223 "/>
            <polygon class="fil0" points="420,718 427,718 427,715 430,715 430,712 433,712 433,709 436,709 436,706 439,706 439,703 442,703 442,700 445,700 445,696 449,696 449,693 452,693 452,690 455,690 455,687 458,687 458,684 461,684 461,681 464,681 464,678 467,678 467,674 471,674 471,671 474,671 474,668 477,668 477,665 480,665 480,662 483,662 483,659 486,659 486,656 489,656 489,653 493,653 493,649 496,649 496,646 499,646 499,643 502,643 502,640 505,640 505,637 508,637 508,634 420,634 "/>
            <polygon class="fil0" points="107,731 191,731 191,725 188,725 188,722 185,722 185,718 182,718 182,715 179,715 179,712 176,712 176,709 173,709 173,706 169,706 169,703 166,703 166,700 163,700 163,696 160,696 160,693 157,693 157,690 154,690 154,687 151,687 151,684 147,684 147,681 144,681 144,678 141,678 141,674 138,674 138,671 135,671 135,668 132,668 132,665 129,665 129,662 125,662 125,659 122,659 122,656 119,656 119,653 116,653 116,649 113,649 113,646 110,646 110,643 107,643 "/>
            <polygon class="fil0" points="1264,88 1267,88 1267,85 1271,85 1271,82 1274,82 1274,78 1277,78 1277,75 1280,75 1280,72 1283,72 1283,69 1286,69 1286,66 1289,66 1289,63 1292,63 1292,60 1296,60 1296,56 1299,56 1299,53 1302,53 1302,50 1305,50 1305,47 1308,47 1308,44 1311,44 1311,41 1314,41 1314,38 1318,38 1318,35 1321,35 1321,31 1324,31 1324,28 1327,28 1327,25 1330,25 1330,22 1333,22 1333,19 1336,19 1336,16 1340,16 1340,13 1343,13 1343,9 1346,9 1346,6 1349,6 1349,0 1264,0 "/>
            <polygon class="fil0" points="420,307 508,307 508,304 505,304 505,301 502,301 502,298 499,298 499,295 496,295 496,292 493,292 493,289 489,289 489,285 486,285 486,282 483,282 483,279 480,279 480,276 477,276 477,273 474,273 474,270 471,270 471,267 467,267 467,264 464,264 464,260 461,260 461,257 458,257 458,254 455,254 455,251 452,251 452,248 449,248 449,245 445,245 445,242 442,242 442,238 439,238 439,235 436,235 436,232 433,232 433,229 430,229 430,226 427,226 427,223 420,223 "/>
            <polygon class="fil0" points="631,307 718,307 718,304 715,304 715,301 712,301 712,298 709,298 709,295 706,295 706,292 703,292 703,289 700,289 700,285 696,285 696,282 693,282 693,279 690,279 690,276 687,276 687,273 684,273 684,270 681,270 681,267 678,267 678,264 674,264 674,260 671,260 671,257 668,257 668,254 665,254 665,251 662,251 662,248 659,248 659,245 656,245 656,242 653,242 653,238 649,238 649,235 646,235 646,232 643,232 643,229 640,229 640,226 637,226 637,223 631,223 "/>
            <polygon class="fil0" points="631,97 718,97 718,94 715,94 715,91 712,91 712,88 709,88 709,85 706,85 706,82 703,82 703,78 700,78 700,75 696,75 696,72 693,72 693,69 690,69 690,66 687,66 687,63 684,63 684,60 681,60 681,56 678,56 678,53 674,53 674,50 671,50 671,47 668,47 668,44 665,44 665,41 662,41 662,38 659,38 659,35 656,35 656,31 653,31 653,28 649,28 649,25 646,25 646,22 643,22 643,19 640,19 640,16 637,16 637,13 631,13 "/>
            <polygon class="fil0" points="935,646 932,646 932,649 929,649 929,653 925,653 925,656 922,656 922,659 919,659 919,662 916,662 916,665 913,665 913,668 910,668 910,671 907,671 907,674 903,674 903,678 900,678 900,681 897,681 897,684 894,684 894,687 891,687 891,690 888,690 888,693 885,693 885,696 882,696 882,700 878,700 878,703 875,703 875,706 872,706 872,709 869,709 869,712 866,712 866,715 863,715 863,718 860,718 860,722 856,722 856,725 853,725 853,731 938,731 938,643 935,643 "/>
        </g>
    </g>
</svg>
