<svg id="Layer_1" data-name="Layer 1" xmlns="http://www.w3.org/2000/svg" viewBox="0 0 1376.34 688.17"><defs><style>.cls-1,.cls-2{fill:#fff;}.cls-1{fill-rule:evenodd;}</style></defs><title>Erlang Solutions logo white</title><path class="cls-1" d="M1449.55,436.91c-14.66,21.9-39.41,56.66-120.62,56.66-1.62,0-3.17,0-4.77,0a351.07,351.07,0,0,0,12.06-33.75c7.77-25.95,11.08-36.32,13.66-45.84l5-17.1c3.07-11.31,58.7-224.09,61.77-234.38s-3.57-11.35-6.66-10.31-16,5.16-23.22,8.25c-10.75,4.61-14.71,9-15.94,13.91-.53,2.06-3.1,8.24-6.19,20.09-3.73-8.36-10.81-19.59-32.31-19.59-45.88,0-104.18,73.68-124.81,184.27-4.7,20.68-60.07,76.66-60.07,32.52,0-24.11,28.13-101.2,28.13-125.61,0-16.44-5.65-34.32-29.26-34.32-18.51,0-52.42,18.75-75,58.17,3.09-9.31,9.28-32.09,9.92-34.22,1.64-5.86-2.74-7.87-7.36-6.34s-16.35,6.51-24,9.57c-9.15,3.66-15.94,10.72-19.89,24.11-3.08,10.32-27.28,108.84-33,130.65s-21.65,72.9-52.95,72.9c-8.48,0-15.59-10.82-8.48-42.5,1.82-8.13,35.56-141.3,38.27-151.74s-3.48-10-6.58-8.89-17,6.19-24.36,8.89-15.43,10.83-16.2,13.91-2.33,8.88-4.26,15.47c-3.11-8.51-9.26-17.39-29.35-17.39-40.21,0-103.71,64.56-125.23,178.88-50.2,96.27-112,90.76-94.21-12C821.21,337.46,862.08,123.82,804.89,123.82c-70.57,0-218.7,303.68-181.61,429.12-8.23,10.32-23.16,29.87-50.48,29.87-22.17,0-29.36-23.17-29.36-41.19,0-70.58,36.87-103.82,36.87-128.56,0-8.08-4.64-14.31-13.36-14.31-10.7,0-15.73,5.34-19.9,13.05-6.72,12.36-21.8,39.39-45.36,25.75,31.45-104.06-76.11-97.13-26.13,12.08-6.34,28.89-30.67,87.08-62.09,131.26l-2.41,3.47c0-46.59-22.65-83.6-73.13-83.6-50.77,0-83.69,41.86-83.69,82.26,0,41.86,22.14,72,61.38,78.87L317,662c-16.91,7.55-37.23,12.2-61,12.2-47.22,0-90-37.88-90-100.78C166,496.61,226.13,443.74,283.8,434c71.59,28.84,88-32.16,14.43-26.27-10.18-2.56-32.78-15-32.78-48.94,0-37.37,33.14-62.84,67.19-62.84,34.57,0,45.1,19.48,45.1,31.2,0,10.07-3.58,14.47-3.58,21,0,6.33,1.28,12.79,12,12.79,19.75,0,33.05-30,33.05-52.84,0-38.83-29.59-67.24-77.23-67.24C300,240.84,233,279,233,350.89c0,36.77,18.38,54.87,27.41,62.29-76,14.16-168.77,77.59-168.77,182,0,73.78,47.65,141.62,143.22,141.62,167.43,0,228.18-200,256.53-275,8.64,7.89,30.41,8.19,36.59,4.07-7.22,16-37.11,82.46-37.11,121.06,0,27.93,9.23,53.08,44.32,53.08,42,0,80.38-38.32,99.45-61.48,28.82,40.35,93.14,19.89,137-52.91,26.25,69.33,91.66,10.62,118.43-38.38,4.53,22.23,17.09,33.25,40.21,33.25,41.93,0,92.68-34.64,111-99,5.91-20.82,17.42-70.82,20.4-81.52,5-17.61,28.37-58.55,49.4-58.55,12.45,0,11.94,10.68,11.94,17.56,0,15-29.14,99.93-29.14,122.47,0,69.67,77,44.95,119.34-32.52,4.62,19.09,10.78,36.26,37.57,36.26s51.51-30.39,61.82-44.31c-1.9,6.71-15.81,52.88-22.73,76.24-3.54,11.91-7.59,23.59-12,35-50.18-3.14-73.7-10.22-144-10.22-105.52,0-193.13,45-193.13,116.21,0,55.41,61.21,79.56,130.57,79.56,121.94,0,199.9-77.22,241.18-158.49,4.67.07,9.62.11,14.8.11,102.68,0,133.4-67,139.07-77.35,6.12-11.08-5.53-21.74-16.76-5M789.43,170.19c28.22,0-3.09,147.39-110.49,271.79,17-111.29,86.51-271.79,110.49-271.79m-434,463.93s-16.1,4.42-23,4.42c-26.48,0-46.31-19.87-46.31-58.57,0-30.86,19.83-54.48,49.23-54.48,25.46,0,44.57,17.21,44.57,51.07,0,24.09-14.21,45.83-24.49,57.56m552.2-260.45c-2.54,12-13.38,49.44-17,62.33s-24.74,56.7-52.55,56.7c-45.33,0,4.62-161.78,53.59-161.78,14.43,0,21.12,18.54,16,42.75M1275,368c-45.83,0,8.48-165.36,57.16-165.36h1.06c13.42,0,21.11,13.89,15.44,37.62-3.23,13.46-11.3,42.76-15.44,56.13-8.3,27-28.74,71.61-58.22,71.61M1084.73,646.65c-34,0-72.34-16.32-72.34-60,0-50.84,43-76.25,122.86-76.25,62.61,0,92.8,4.24,131.61,6.85-35.94,74.72-95,129.39-182.13,129.39" transform="translate(-91.66 -123.82)"/><path class="cls-1" d="M668.07,773.1c13.77,3.35,20.93,8.28,20.93,19.18,0,12.28-9.58,19.53-23.26,19.53a40.16,40.16,0,0,1-27.17-10.4l6.9-8.21c6.25,5.41,12.43,8.49,20.5,8.49,7.09,0,11.56-3.28,11.56-8.33,0-4.72-2.6-7.24-14.7-10C649,780,641.18,775.9,641.18,763.8c0-11.36,9.3-19,22.21-19A35.82,35.82,0,0,1,687,753l-6.08,8.62c-5.87-4.36-11.74-6.7-17.7-6.7-6.73,0-10.63,3.44-10.63,7.8,0,5.15,3,7.37,15.47,10.34" transform="translate(-91.66 -123.82)"/><path class="cls-1" d="M750.87,812c-20,0-33.94-15.16-33.94-33.57s14.11-33.78,34.15-33.78S785,759.8,785,778.24,770.86,812,750.87,812m0-56.8c-12.93,0-22,10.29-22,23.06s9.18,23.26,22.17,23.26S773,791.15,773,778.41s-9.17-23.23-22.1-23.23" transform="translate(-91.66 -123.82)"/><polygon class="cls-1" points="724.53 621.96 735.98 621.96 735.98 676.66 770.23 676.66 770.23 687.08 724.53 687.08 724.53 621.96"/><path class="cls-1" d="M947.63,782.68c0,19.45-11,29.22-28,29.22s-27.72-9.77-27.72-28.64V745.77h11.46v37c0,12.13,6.21,18.64,16.45,18.64s16.36-6.17,16.36-18.15V745.77h11.45Z" transform="translate(-91.66 -123.82)"/><polygon class="cls-1" points="920.27 687.08 908.72 687.08 908.72 632.56 888.06 632.56 888.06 621.96 940.9 621.96 940.9 632.56 920.27 632.56 920.27 687.08"/><rect class="cls-2" x="975.4" y="621.96" width="11.47" height="65.12"/><path class="cls-1" d="M1145.18,812c-20,0-33.94-15.16-33.94-33.57s14.11-33.78,34.14-33.78,33.95,15.17,33.95,33.61S1165.17,812,1145.18,812m0-56.8c-12.93,0-21.94,10.29-21.94,23.06s9.18,23.26,22.14,23.26,21.95-10.35,21.95-23.09-9.2-23.23-22.15-23.23" transform="translate(-91.66 -123.82)"/><polygon class="cls-1" points="1163.8 621.96 1175.06 621.96 1175.06 687.08 1165.45 687.08 1129.53 640.72 1129.53 687.08 1118.31 687.08 1118.31 621.96 1128.89 621.96 1163.8 666.98 1163.8 621.96"/><path class="cls-1" d="M1330.49,773.1c13.77,3.35,21,8.28,21,19.18,0,12.28-9.6,19.53-23.28,19.53a40.1,40.1,0,0,1-27.15-10.4l6.88-8.21c6.22,5.41,12.45,8.49,20.54,8.49,7.09,0,11.53-3.28,11.53-8.33,0-4.72-2.58-7.24-14.69-10-13.86-3.37-21.68-7.45-21.68-19.55,0-11.36,9.33-19,22.23-19a36,36,0,0,1,23.65,8.21l-6.12,8.62c-5.89-4.36-11.74-6.7-17.69-6.7-6.71,0-10.64,3.44-10.64,7.8,0,5.15,3,7.37,15.45,10.34" transform="translate(-91.66 -123.82)"/></svg>