<svg xmlns="http://www.w3.org/2000/svg" xmlns:xlink="http://www.w3.org/1999/xlink" width="151" height="52" style="background:transparent" viewBox="0 0 151 52">
    <defs>
        <path id="a" d="M12.275.801v11.874H.4V.8h11.875z"/>
    </defs>
    <g fill="none" fill-rule="evenodd">
        <g transform="translate(138)">
            <mask id="b" fill="#fff">
                <use xlink:href="#a"/>
            </mask>
            <path fill="#FFF" d="M.4 6.738a5.937 5.937 0 1 1 11.875 0 5.937 5.937 0 0 1-11.875 0" mask="url(#b)"/>
        </g>
        <path fill="#FFF" d="M121.91 37.312c-6.001 0-10.884-4.85-10.884-10.812s4.883-10.812 10.884-10.812 10.884 4.85 10.884 10.812-4.883 10.812-10.884 10.812zm0-28.782a18.077 18.077 0 0 0-10.884 3.628V1h-7.206v25.5c0 9.909 8.115 17.97 18.09 17.97S140 36.409 140 26.5c0-9.909-8.115-17.97-18.09-17.97zM44.76 26.5c0-5.961 4.883-10.812 10.885-10.812 1.662 0 3.266.367 4.72 1.063l-14.53 14.433A10.7 10.7 0 0 1 44.76 26.5zm10.885 10.812c-1.688 0-3.288-.384-4.715-1.067l20.054-19.921-2.548-2.53C65.02 10.4 60.476 8.53 55.645 8.53c-9.975 0-18.09 8.061-18.09 17.97 0 9.909 8.115 17.97 18.09 17.97 4.831 0 9.374-1.869 12.791-5.263l-5.095-5.062a10.846 10.846 0 0 1-7.696 3.167zm30.774-7.799L93.2 36.25a10.906 10.906 0 0 1-4.72 1.062c-6 0-10.884-4.85-10.884-10.812 0-5.961 4.883-10.812 10.885-10.812 2.908 0 5.64 1.124 7.697 3.167l5.094-5.06C97.855 10.4 93.313 8.53 88.481 8.53c-9.976 0-18.09 8.061-18.09 17.97 0 9.909 8.114 17.97 18.09 17.97 4.832 0 9.374-1.869 12.791-5.263l2.548-2.531-12.306-12.224-5.095 5.061zm-68.33 7.8c-6.001 0-10.883-4.85-10.883-10.813 0-5.961 4.882-10.812 10.884-10.812 6.001 0 10.883 4.85 10.883 10.812S24.091 37.312 18.09 37.312zm0-28.783C8.116 8.53 0 16.591 0 26.5V52h7.206V40.842A18.067 18.067 0 0 0 18.09 44.47c9.974 0 18.09-8.061 18.09-17.97 0-9.909-8.116-17.97-18.09-17.97z"/>
    </g>
</svg>
