<svg xmlns="http://www.w3.org/2000/svg" viewBox="0 0 276 94.16"><defs><style>.cls-1{fill:#e84610;}.cls-2{fill:#666;}</style></defs><title>Artboard 12</title><g id="guides"><circle class="cls-1" cx="265.08" cy="10.92" r="10.92"/><path class="cls-2" d="M33.14,14A33.17,33.17,0,0,0,0,47.14v47H13.2V73.58A33.13,33.13,0,1,0,33.14,14Zm0,53.07A19.94,19.94,0,1,1,53.07,47.14,20,20,0,0,1,33.14,67.07ZM158.3,52.69l12.42,12.42A19.94,19.94,0,1,1,176.18,33l9.33-9.33a33.14,33.14,0,1,0,0,46.86l4.67-4.67L167.63,43.36ZM101.93,67.07a19.82,19.82,0,0,1-8.64-2L130,28.37l-4.67-4.67a33.14,33.14,0,1,0,0,46.86L116,61.23A19.81,19.81,0,0,1,101.93,67.07ZM82,47.14a20,20,0,0,1,28.58-18L84,55.77A19.82,19.82,0,0,1,82,47.14ZM223.31,14a33,33,0,0,0-19.94,6.69V.11h-13.2v47A33.14,33.14,0,1,0,223.31,14Zm0,53.07a19.94,19.94,0,1,1,19.94-19.94A20,20,0,0,1,223.31,67.07Z"/></g></svg>